M48
; DRILL file {KiCad 9.0.1} date 2025-04-14T17:51:52+1000
; FORMAT={-:-/ absolute / metric / decimal}
; #@! TF.CreationDate,2025-04-14T17:51:52+10:00
; #@! TF.GenerationSoftware,Kicad,Pcbnew,9.0.1
; #@! TF.FileFunction,Plated,1,2,PTH
FMAT,2
METRIC
; #@! TA.AperFunction,Plated,PTH,ViaDrill
T1C0.300
; #@! TA.AperFunction,Plated,PTH,ComponentDrill
T2C0.300
; #@! TA.AperFunction,Plated,PTH,ComponentDrill
T3C0.650
; #@! TA.AperFunction,Plated,PTH,ComponentDrill
T4C0.700
; #@! TA.AperFunction,Plated,PTH,ComponentDrill
T5C0.800
; #@! TA.AperFunction,Plated,PTH,ComponentDrill
T6C1.000
; #@! TA.AperFunction,Plated,PTH,ComponentDrill
T7C1.190
; #@! TA.AperFunction,Plated,PTH,ComponentDrill
T8C3.180
%
G90
G05
T1
X144.035Y-110.935
X144.035Y-136.335
X144.4Y-122.8
X144.7Y-127.6
X146.6Y-122.8
X147.3Y-113.2
X149.1Y-104.6
X149.1Y-130.0
X150.9Y-104.8
X152.8Y-137.7
X154.7Y-124.5
X157.1Y-110.8
X157.2Y-109.7
X158.1Y-90.4
X158.1Y-92.7
X158.137Y-85.377
X158.5Y-115.9
X158.819Y-117.711
X159.1Y-118.6
X159.2Y-126.1
X159.578Y-117.227
X159.793Y-119.413
X159.8Y-110.8
X160.3Y-130.9
X160.5Y-109.7
X161.4Y-115.0
X161.561Y-116.158
X162.0Y-104.5
X162.42Y-123.425
X162.42Y-124.685
X162.695Y-121.416
X162.8Y-96.8
X162.8Y-97.95
X162.8Y-99.1
X162.8Y-103.0
X163.5Y-101.5
X163.7Y-130.7
X163.77Y-125.535
X164.02Y-118.885
X164.17Y-117.635
X166.069Y-125.535
X166.1Y-135.6
X166.7Y-101.0
X166.995Y-125.516
X167.1Y-83.0
X167.17Y-117.635
X169.0Y-105.1
X169.1Y-82.3
X169.3Y-93.9
X169.4Y-119.5
X169.9Y-124.6
X170.295Y-121.085
X170.316Y-121.992
X170.695Y-97.912
X170.7Y-94.9
X171.266Y-117.085
X172.22Y-125.675
X173.1Y-133.7
X174.2Y-127.9
X174.5Y-97.8
X175.1Y-106.0
X175.1Y-109.8
X176.6Y-130.3
X177.0Y-100.912
X179.2Y-92.6
X180.6Y-101.3
X180.6Y-126.7
X182.2Y-102.9
X182.3Y-124.337
X183.435Y-120.535
X183.6Y-136.8
X183.8Y-111.3
X184.4Y-123.1
X185.6Y-96.4
X186.8Y-123.1
X187.35Y-112.15
X187.4Y-137.4
X188.1Y-98.4
X188.4Y-87.83
X188.4Y-91.7
X189.2Y-123.1
X190.8Y-101.1
X191.8Y-91.7
T2
X165.37Y-120.625
X165.37Y-121.625
X165.37Y-122.625
X166.37Y-120.625
X166.37Y-121.625
X166.37Y-122.625
X167.37Y-120.625
X167.37Y-121.625
X167.37Y-122.625
T5
X143.8Y-95.7
X146.3Y-95.7
T6
X137.16Y-86.36
X137.16Y-88.9
X137.16Y-96.52
X137.16Y-99.06
X137.16Y-101.6
X137.16Y-104.14
X137.16Y-106.68
X137.16Y-109.22
X137.16Y-111.76
X137.16Y-114.3
X137.16Y-116.84
X137.16Y-119.38
X137.16Y-121.92
X137.16Y-124.46
X137.16Y-127.0
X137.16Y-129.54
X137.16Y-132.08
X137.16Y-134.62
X137.16Y-137.16
X137.16Y-139.7
X137.16Y-142.24
X137.16Y-144.78
X139.7Y-86.36
X139.7Y-88.9
X142.24Y-86.36
X142.24Y-88.9
X144.78Y-86.36
X144.78Y-88.9
X149.86Y-116.84
X149.86Y-119.38
X149.86Y-121.92
X149.86Y-124.46
X163.83Y-144.78
X166.37Y-144.78
X168.91Y-144.78
X180.34Y-96.52
X182.88Y-96.52
X195.58Y-96.52
X195.58Y-99.06
X195.58Y-101.6
X195.58Y-104.14
X195.58Y-106.68
X195.58Y-109.22
X195.58Y-111.76
X195.58Y-114.3
X195.58Y-116.84
X195.58Y-119.38
X195.58Y-121.92
X195.58Y-124.46
X195.58Y-127.0
X195.58Y-129.54
X195.58Y-132.08
X195.58Y-134.62
X195.58Y-137.16
X195.58Y-139.7
X195.58Y-142.24
X195.58Y-144.78
T7
X160.577Y-86.565
X161.717Y-84.485
X161.717Y-88.665
X162.867Y-86.565
X164.007Y-84.485
X164.007Y-88.665
X165.157Y-86.565
X166.297Y-84.485
X166.297Y-88.665
X167.447Y-86.565
X168.587Y-84.485
X168.587Y-88.665
X169.737Y-86.565
X170.877Y-84.485
X170.877Y-88.665
T8
X153.537Y-86.565
X178.527Y-86.565
T3
X187.28Y-85.951G85X187.28Y-86.351
G05
X192.12Y-85.951G85X192.12Y-86.351
G05
T4
X186.97Y-82.901G85X186.97Y-83.401
G05
X192.43Y-82.901G85X192.43Y-83.401
G05
M30
