G04 #@! TF.GenerationSoftware,KiCad,Pcbnew,9.0.1*
G04 #@! TF.CreationDate,2025-04-14T17:52:09+10:00*
G04 #@! TF.ProjectId,RP2350B_LevelShift,52503233-3530-4425-9f4c-6576656c5368,rev?*
G04 #@! TF.SameCoordinates,Original*
G04 #@! TF.FileFunction,Legend,Top*
G04 #@! TF.FilePolarity,Positive*
%FSLAX46Y46*%
G04 Gerber Fmt 4.6, Leading zero omitted, Abs format (unit mm)*
G04 Created by KiCad (PCBNEW 9.0.1) date 2025-04-14 17:52:09*
%MOMM*%
%LPD*%
G01*
G04 APERTURE LIST*
G04 Aperture macros list*
%AMRoundRect*
0 Rectangle with rounded corners*
0 $1 Rounding radius*
0 $2 $3 $4 $5 $6 $7 $8 $9 X,Y pos of 4 corners*
0 Add a 4 corners polygon primitive as box body*
4,1,4,$2,$3,$4,$5,$6,$7,$8,$9,$2,$3,0*
0 Add four circle primitives for the rounded corners*
1,1,$1+$1,$2,$3*
1,1,$1+$1,$4,$5*
1,1,$1+$1,$6,$7*
1,1,$1+$1,$8,$9*
0 Add four rect primitives between the rounded corners*
20,1,$1+$1,$2,$3,$4,$5,0*
20,1,$1+$1,$4,$5,$6,$7,0*
20,1,$1+$1,$6,$7,$8,$9,0*
20,1,$1+$1,$8,$9,$2,$3,0*%
G04 Aperture macros list end*
%ADD10C,0.150000*%
%ADD11C,0.200000*%
%ADD12C,0.120000*%
%ADD13C,0.539246*%
%ADD14C,0.100000*%
%ADD15RoundRect,0.150000X0.150000X-0.512500X0.150000X0.512500X-0.150000X0.512500X-0.150000X-0.512500X0*%
%ADD16R,0.780000X0.220000*%
%ADD17R,0.220000X0.780000*%
%ADD18C,0.425000*%
%ADD19R,3.400000X3.400000*%
%ADD20RoundRect,0.225000X-0.375000X0.225000X-0.375000X-0.225000X0.375000X-0.225000X0.375000X0.225000X0*%
%ADD21RoundRect,0.200000X-0.275000X0.200000X-0.275000X-0.200000X0.275000X-0.200000X0.275000X0.200000X0*%
%ADD22R,1.400000X0.950000*%
%ADD23R,1.700000X1.700000*%
%ADD24C,1.700000*%
%ADD25RoundRect,0.250000X-0.475000X0.250000X-0.475000X-0.250000X0.475000X-0.250000X0.475000X0.250000X0*%
%ADD26RoundRect,0.200000X0.200000X0.275000X-0.200000X0.275000X-0.200000X-0.275000X0.200000X-0.275000X0*%
%ADD27R,1.400000X1.200000*%
%ADD28RoundRect,0.225000X-0.250000X0.225000X-0.250000X-0.225000X0.250000X-0.225000X0.250000X0.225000X0*%
%ADD29RoundRect,0.150000X-0.150000X0.650000X-0.150000X-0.650000X0.150000X-0.650000X0.150000X0.650000X0*%
%ADD30R,0.400000X1.650000*%
%ADD31R,1.825000X0.700000*%
%ADD32R,2.000000X1.500000*%
%ADD33R,1.350000X2.000000*%
%ADD34O,1.350000X1.700000*%
%ADD35O,1.100000X1.500000*%
%ADD36R,1.430000X2.500000*%
%ADD37C,4.770000*%
%ADD38R,1.785000X1.785000*%
%ADD39C,1.785000*%
%ADD40RoundRect,0.200000X-0.200000X-0.275000X0.200000X-0.275000X0.200000X0.275000X-0.200000X0.275000X0*%
%ADD41RoundRect,0.225000X0.225000X0.250000X-0.225000X0.250000X-0.225000X-0.250000X0.225000X-0.250000X0*%
%ADD42R,1.600000X1.600000*%
%ADD43C,1.600000*%
%ADD44RoundRect,0.375000X-0.375000X0.625000X-0.375000X-0.625000X0.375000X-0.625000X0.375000X0.625000X0*%
%ADD45RoundRect,0.500000X-1.400000X0.500000X-1.400000X-0.500000X1.400000X-0.500000X1.400000X0.500000X0*%
%ADD46R,1.200000X0.400000*%
%ADD47RoundRect,0.225000X-0.225000X-0.250000X0.225000X-0.250000X0.225000X0.250000X-0.225000X0.250000X0*%
%ADD48RoundRect,0.250000X-0.250000X-0.475000X0.250000X-0.475000X0.250000X0.475000X-0.250000X0.475000X0*%
%ADD49RoundRect,0.200000X0.275000X-0.200000X0.275000X0.200000X-0.275000X0.200000X-0.275000X-0.200000X0*%
%ADD50RoundRect,0.225000X0.250000X-0.225000X0.250000X0.225000X-0.250000X0.225000X-0.250000X-0.225000X0*%
G04 APERTURE END LIST*
D10*
X139151064Y-136798485D02*
X139189160Y-136760390D01*
X139189160Y-136760390D02*
X139265350Y-136722295D01*
X139265350Y-136722295D02*
X139455826Y-136722295D01*
X139455826Y-136722295D02*
X139532017Y-136760390D01*
X139532017Y-136760390D02*
X139570112Y-136798485D01*
X139570112Y-136798485D02*
X139608207Y-136874676D01*
X139608207Y-136874676D02*
X139608207Y-136950866D01*
X139608207Y-136950866D02*
X139570112Y-137065152D01*
X139570112Y-137065152D02*
X139112969Y-137522295D01*
X139112969Y-137522295D02*
X139608207Y-137522295D01*
X140293922Y-136988961D02*
X140293922Y-137522295D01*
X140103446Y-136684200D02*
X139912969Y-137255628D01*
X139912969Y-137255628D02*
X140408208Y-137255628D01*
X192329886Y-144418485D02*
X192367982Y-144380390D01*
X192367982Y-144380390D02*
X192444172Y-144342295D01*
X192444172Y-144342295D02*
X192634648Y-144342295D01*
X192634648Y-144342295D02*
X192710839Y-144380390D01*
X192710839Y-144380390D02*
X192748934Y-144418485D01*
X192748934Y-144418485D02*
X192787029Y-144494676D01*
X192787029Y-144494676D02*
X192787029Y-144570866D01*
X192787029Y-144570866D02*
X192748934Y-144685152D01*
X192748934Y-144685152D02*
X192291791Y-145142295D01*
X192291791Y-145142295D02*
X192787029Y-145142295D01*
X193244172Y-144685152D02*
X193167982Y-144647057D01*
X193167982Y-144647057D02*
X193129887Y-144608961D01*
X193129887Y-144608961D02*
X193091791Y-144532771D01*
X193091791Y-144532771D02*
X193091791Y-144494676D01*
X193091791Y-144494676D02*
X193129887Y-144418485D01*
X193129887Y-144418485D02*
X193167982Y-144380390D01*
X193167982Y-144380390D02*
X193244172Y-144342295D01*
X193244172Y-144342295D02*
X193396553Y-144342295D01*
X193396553Y-144342295D02*
X193472744Y-144380390D01*
X193472744Y-144380390D02*
X193510839Y-144418485D01*
X193510839Y-144418485D02*
X193548934Y-144494676D01*
X193548934Y-144494676D02*
X193548934Y-144532771D01*
X193548934Y-144532771D02*
X193510839Y-144608961D01*
X193510839Y-144608961D02*
X193472744Y-144647057D01*
X193472744Y-144647057D02*
X193396553Y-144685152D01*
X193396553Y-144685152D02*
X193244172Y-144685152D01*
X193244172Y-144685152D02*
X193167982Y-144723247D01*
X193167982Y-144723247D02*
X193129887Y-144761342D01*
X193129887Y-144761342D02*
X193091791Y-144837533D01*
X193091791Y-144837533D02*
X193091791Y-144989914D01*
X193091791Y-144989914D02*
X193129887Y-145066104D01*
X193129887Y-145066104D02*
X193167982Y-145104200D01*
X193167982Y-145104200D02*
X193244172Y-145142295D01*
X193244172Y-145142295D02*
X193396553Y-145142295D01*
X193396553Y-145142295D02*
X193472744Y-145104200D01*
X193472744Y-145104200D02*
X193510839Y-145066104D01*
X193510839Y-145066104D02*
X193548934Y-144989914D01*
X193548934Y-144989914D02*
X193548934Y-144837533D01*
X193548934Y-144837533D02*
X193510839Y-144761342D01*
X193510839Y-144761342D02*
X193472744Y-144723247D01*
X193472744Y-144723247D02*
X193396553Y-144685152D01*
X192291791Y-118942295D02*
X192787029Y-118942295D01*
X192787029Y-118942295D02*
X192520363Y-119247057D01*
X192520363Y-119247057D02*
X192634648Y-119247057D01*
X192634648Y-119247057D02*
X192710839Y-119285152D01*
X192710839Y-119285152D02*
X192748934Y-119323247D01*
X192748934Y-119323247D02*
X192787029Y-119399438D01*
X192787029Y-119399438D02*
X192787029Y-119589914D01*
X192787029Y-119589914D02*
X192748934Y-119666104D01*
X192748934Y-119666104D02*
X192710839Y-119704200D01*
X192710839Y-119704200D02*
X192634648Y-119742295D01*
X192634648Y-119742295D02*
X192406077Y-119742295D01*
X192406077Y-119742295D02*
X192329886Y-119704200D01*
X192329886Y-119704200D02*
X192291791Y-119666104D01*
X193244172Y-119285152D02*
X193167982Y-119247057D01*
X193167982Y-119247057D02*
X193129887Y-119208961D01*
X193129887Y-119208961D02*
X193091791Y-119132771D01*
X193091791Y-119132771D02*
X193091791Y-119094676D01*
X193091791Y-119094676D02*
X193129887Y-119018485D01*
X193129887Y-119018485D02*
X193167982Y-118980390D01*
X193167982Y-118980390D02*
X193244172Y-118942295D01*
X193244172Y-118942295D02*
X193396553Y-118942295D01*
X193396553Y-118942295D02*
X193472744Y-118980390D01*
X193472744Y-118980390D02*
X193510839Y-119018485D01*
X193510839Y-119018485D02*
X193548934Y-119094676D01*
X193548934Y-119094676D02*
X193548934Y-119132771D01*
X193548934Y-119132771D02*
X193510839Y-119208961D01*
X193510839Y-119208961D02*
X193472744Y-119247057D01*
X193472744Y-119247057D02*
X193396553Y-119285152D01*
X193396553Y-119285152D02*
X193244172Y-119285152D01*
X193244172Y-119285152D02*
X193167982Y-119323247D01*
X193167982Y-119323247D02*
X193129887Y-119361342D01*
X193129887Y-119361342D02*
X193091791Y-119437533D01*
X193091791Y-119437533D02*
X193091791Y-119589914D01*
X193091791Y-119589914D02*
X193129887Y-119666104D01*
X193129887Y-119666104D02*
X193167982Y-119704200D01*
X193167982Y-119704200D02*
X193244172Y-119742295D01*
X193244172Y-119742295D02*
X193396553Y-119742295D01*
X193396553Y-119742295D02*
X193472744Y-119704200D01*
X193472744Y-119704200D02*
X193510839Y-119666104D01*
X193510839Y-119666104D02*
X193548934Y-119589914D01*
X193548934Y-119589914D02*
X193548934Y-119437533D01*
X193548934Y-119437533D02*
X193510839Y-119361342D01*
X193510839Y-119361342D02*
X193472744Y-119323247D01*
X193472744Y-119323247D02*
X193396553Y-119285152D01*
X139341541Y-96082295D02*
X139417731Y-96082295D01*
X139417731Y-96082295D02*
X139493922Y-96120390D01*
X139493922Y-96120390D02*
X139532017Y-96158485D01*
X139532017Y-96158485D02*
X139570112Y-96234676D01*
X139570112Y-96234676D02*
X139608207Y-96387057D01*
X139608207Y-96387057D02*
X139608207Y-96577533D01*
X139608207Y-96577533D02*
X139570112Y-96729914D01*
X139570112Y-96729914D02*
X139532017Y-96806104D01*
X139532017Y-96806104D02*
X139493922Y-96844200D01*
X139493922Y-96844200D02*
X139417731Y-96882295D01*
X139417731Y-96882295D02*
X139341541Y-96882295D01*
X139341541Y-96882295D02*
X139265350Y-96844200D01*
X139265350Y-96844200D02*
X139227255Y-96806104D01*
X139227255Y-96806104D02*
X139189160Y-96729914D01*
X139189160Y-96729914D02*
X139151064Y-96577533D01*
X139151064Y-96577533D02*
X139151064Y-96387057D01*
X139151064Y-96387057D02*
X139189160Y-96234676D01*
X139189160Y-96234676D02*
X139227255Y-96158485D01*
X139227255Y-96158485D02*
X139265350Y-96120390D01*
X139265350Y-96120390D02*
X139341541Y-96082295D01*
X139874874Y-96082295D02*
X140370112Y-96082295D01*
X140370112Y-96082295D02*
X140103446Y-96387057D01*
X140103446Y-96387057D02*
X140217731Y-96387057D01*
X140217731Y-96387057D02*
X140293922Y-96425152D01*
X140293922Y-96425152D02*
X140332017Y-96463247D01*
X140332017Y-96463247D02*
X140370112Y-96539438D01*
X140370112Y-96539438D02*
X140370112Y-96729914D01*
X140370112Y-96729914D02*
X140332017Y-96806104D01*
X140332017Y-96806104D02*
X140293922Y-96844200D01*
X140293922Y-96844200D02*
X140217731Y-96882295D01*
X140217731Y-96882295D02*
X139989160Y-96882295D01*
X139989160Y-96882295D02*
X139912969Y-96844200D01*
X139912969Y-96844200D02*
X139874874Y-96806104D01*
X139608207Y-104502295D02*
X139151064Y-104502295D01*
X139379636Y-104502295D02*
X139379636Y-103702295D01*
X139379636Y-103702295D02*
X139303445Y-103816580D01*
X139303445Y-103816580D02*
X139227255Y-103892771D01*
X139227255Y-103892771D02*
X139151064Y-103930866D01*
X140370112Y-104502295D02*
X139912969Y-104502295D01*
X140141541Y-104502295D02*
X140141541Y-103702295D01*
X140141541Y-103702295D02*
X140065350Y-103816580D01*
X140065350Y-103816580D02*
X139989160Y-103892771D01*
X139989160Y-103892771D02*
X139912969Y-103930866D01*
X192291791Y-134182295D02*
X192787029Y-134182295D01*
X192787029Y-134182295D02*
X192520363Y-134487057D01*
X192520363Y-134487057D02*
X192634648Y-134487057D01*
X192634648Y-134487057D02*
X192710839Y-134525152D01*
X192710839Y-134525152D02*
X192748934Y-134563247D01*
X192748934Y-134563247D02*
X192787029Y-134639438D01*
X192787029Y-134639438D02*
X192787029Y-134829914D01*
X192787029Y-134829914D02*
X192748934Y-134906104D01*
X192748934Y-134906104D02*
X192710839Y-134944200D01*
X192710839Y-134944200D02*
X192634648Y-134982295D01*
X192634648Y-134982295D02*
X192406077Y-134982295D01*
X192406077Y-134982295D02*
X192329886Y-134944200D01*
X192329886Y-134944200D02*
X192291791Y-134906104D01*
X193091791Y-134258485D02*
X193129887Y-134220390D01*
X193129887Y-134220390D02*
X193206077Y-134182295D01*
X193206077Y-134182295D02*
X193396553Y-134182295D01*
X193396553Y-134182295D02*
X193472744Y-134220390D01*
X193472744Y-134220390D02*
X193510839Y-134258485D01*
X193510839Y-134258485D02*
X193548934Y-134334676D01*
X193548934Y-134334676D02*
X193548934Y-134410866D01*
X193548934Y-134410866D02*
X193510839Y-134525152D01*
X193510839Y-134525152D02*
X193053696Y-134982295D01*
X193053696Y-134982295D02*
X193548934Y-134982295D01*
X139151064Y-129178485D02*
X139189160Y-129140390D01*
X139189160Y-129140390D02*
X139265350Y-129102295D01*
X139265350Y-129102295D02*
X139455826Y-129102295D01*
X139455826Y-129102295D02*
X139532017Y-129140390D01*
X139532017Y-129140390D02*
X139570112Y-129178485D01*
X139570112Y-129178485D02*
X139608207Y-129254676D01*
X139608207Y-129254676D02*
X139608207Y-129330866D01*
X139608207Y-129330866D02*
X139570112Y-129445152D01*
X139570112Y-129445152D02*
X139112969Y-129902295D01*
X139112969Y-129902295D02*
X139608207Y-129902295D01*
X140370112Y-129902295D02*
X139912969Y-129902295D01*
X140141541Y-129902295D02*
X140141541Y-129102295D01*
X140141541Y-129102295D02*
X140065350Y-129216580D01*
X140065350Y-129216580D02*
X139989160Y-129292771D01*
X139989160Y-129292771D02*
X139912969Y-129330866D01*
X192291791Y-126562295D02*
X192787029Y-126562295D01*
X192787029Y-126562295D02*
X192520363Y-126867057D01*
X192520363Y-126867057D02*
X192634648Y-126867057D01*
X192634648Y-126867057D02*
X192710839Y-126905152D01*
X192710839Y-126905152D02*
X192748934Y-126943247D01*
X192748934Y-126943247D02*
X192787029Y-127019438D01*
X192787029Y-127019438D02*
X192787029Y-127209914D01*
X192787029Y-127209914D02*
X192748934Y-127286104D01*
X192748934Y-127286104D02*
X192710839Y-127324200D01*
X192710839Y-127324200D02*
X192634648Y-127362295D01*
X192634648Y-127362295D02*
X192406077Y-127362295D01*
X192406077Y-127362295D02*
X192329886Y-127324200D01*
X192329886Y-127324200D02*
X192291791Y-127286104D01*
X193510839Y-126562295D02*
X193129887Y-126562295D01*
X193129887Y-126562295D02*
X193091791Y-126943247D01*
X193091791Y-126943247D02*
X193129887Y-126905152D01*
X193129887Y-126905152D02*
X193206077Y-126867057D01*
X193206077Y-126867057D02*
X193396553Y-126867057D01*
X193396553Y-126867057D02*
X193472744Y-126905152D01*
X193472744Y-126905152D02*
X193510839Y-126943247D01*
X193510839Y-126943247D02*
X193548934Y-127019438D01*
X193548934Y-127019438D02*
X193548934Y-127209914D01*
X193548934Y-127209914D02*
X193510839Y-127286104D01*
X193510839Y-127286104D02*
X193472744Y-127324200D01*
X193472744Y-127324200D02*
X193396553Y-127362295D01*
X193396553Y-127362295D02*
X193206077Y-127362295D01*
X193206077Y-127362295D02*
X193129887Y-127324200D01*
X193129887Y-127324200D02*
X193091791Y-127286104D01*
X139151064Y-134258485D02*
X139189160Y-134220390D01*
X139189160Y-134220390D02*
X139265350Y-134182295D01*
X139265350Y-134182295D02*
X139455826Y-134182295D01*
X139455826Y-134182295D02*
X139532017Y-134220390D01*
X139532017Y-134220390D02*
X139570112Y-134258485D01*
X139570112Y-134258485D02*
X139608207Y-134334676D01*
X139608207Y-134334676D02*
X139608207Y-134410866D01*
X139608207Y-134410866D02*
X139570112Y-134525152D01*
X139570112Y-134525152D02*
X139112969Y-134982295D01*
X139112969Y-134982295D02*
X139608207Y-134982295D01*
X139874874Y-134182295D02*
X140370112Y-134182295D01*
X140370112Y-134182295D02*
X140103446Y-134487057D01*
X140103446Y-134487057D02*
X140217731Y-134487057D01*
X140217731Y-134487057D02*
X140293922Y-134525152D01*
X140293922Y-134525152D02*
X140332017Y-134563247D01*
X140332017Y-134563247D02*
X140370112Y-134639438D01*
X140370112Y-134639438D02*
X140370112Y-134829914D01*
X140370112Y-134829914D02*
X140332017Y-134906104D01*
X140332017Y-134906104D02*
X140293922Y-134944200D01*
X140293922Y-134944200D02*
X140217731Y-134982295D01*
X140217731Y-134982295D02*
X139989160Y-134982295D01*
X139989160Y-134982295D02*
X139912969Y-134944200D01*
X139912969Y-134944200D02*
X139874874Y-134906104D01*
X192291791Y-129102295D02*
X192787029Y-129102295D01*
X192787029Y-129102295D02*
X192520363Y-129407057D01*
X192520363Y-129407057D02*
X192634648Y-129407057D01*
X192634648Y-129407057D02*
X192710839Y-129445152D01*
X192710839Y-129445152D02*
X192748934Y-129483247D01*
X192748934Y-129483247D02*
X192787029Y-129559438D01*
X192787029Y-129559438D02*
X192787029Y-129749914D01*
X192787029Y-129749914D02*
X192748934Y-129826104D01*
X192748934Y-129826104D02*
X192710839Y-129864200D01*
X192710839Y-129864200D02*
X192634648Y-129902295D01*
X192634648Y-129902295D02*
X192406077Y-129902295D01*
X192406077Y-129902295D02*
X192329886Y-129864200D01*
X192329886Y-129864200D02*
X192291791Y-129826104D01*
X193472744Y-129368961D02*
X193472744Y-129902295D01*
X193282268Y-129064200D02*
X193091791Y-129635628D01*
X193091791Y-129635628D02*
X193587030Y-129635628D01*
X151771428Y-122244200D02*
X151885714Y-122282295D01*
X151885714Y-122282295D02*
X152076190Y-122282295D01*
X152076190Y-122282295D02*
X152152381Y-122244200D01*
X152152381Y-122244200D02*
X152190476Y-122206104D01*
X152190476Y-122206104D02*
X152228571Y-122129914D01*
X152228571Y-122129914D02*
X152228571Y-122053723D01*
X152228571Y-122053723D02*
X152190476Y-121977533D01*
X152190476Y-121977533D02*
X152152381Y-121939438D01*
X152152381Y-121939438D02*
X152076190Y-121901342D01*
X152076190Y-121901342D02*
X151923809Y-121863247D01*
X151923809Y-121863247D02*
X151847619Y-121825152D01*
X151847619Y-121825152D02*
X151809524Y-121787057D01*
X151809524Y-121787057D02*
X151771428Y-121710866D01*
X151771428Y-121710866D02*
X151771428Y-121634676D01*
X151771428Y-121634676D02*
X151809524Y-121558485D01*
X151809524Y-121558485D02*
X151847619Y-121520390D01*
X151847619Y-121520390D02*
X151923809Y-121482295D01*
X151923809Y-121482295D02*
X152114286Y-121482295D01*
X152114286Y-121482295D02*
X152228571Y-121520390D01*
X153028572Y-122206104D02*
X152990476Y-122244200D01*
X152990476Y-122244200D02*
X152876191Y-122282295D01*
X152876191Y-122282295D02*
X152800000Y-122282295D01*
X152800000Y-122282295D02*
X152685714Y-122244200D01*
X152685714Y-122244200D02*
X152609524Y-122168009D01*
X152609524Y-122168009D02*
X152571429Y-122091819D01*
X152571429Y-122091819D02*
X152533333Y-121939438D01*
X152533333Y-121939438D02*
X152533333Y-121825152D01*
X152533333Y-121825152D02*
X152571429Y-121672771D01*
X152571429Y-121672771D02*
X152609524Y-121596580D01*
X152609524Y-121596580D02*
X152685714Y-121520390D01*
X152685714Y-121520390D02*
X152800000Y-121482295D01*
X152800000Y-121482295D02*
X152876191Y-121482295D01*
X152876191Y-121482295D02*
X152990476Y-121520390D01*
X152990476Y-121520390D02*
X153028572Y-121558485D01*
X153371429Y-122282295D02*
X153371429Y-121482295D01*
X153828572Y-122282295D02*
X153485714Y-121825152D01*
X153828572Y-121482295D02*
X153371429Y-121939438D01*
X139608207Y-124822295D02*
X139151064Y-124822295D01*
X139379636Y-124822295D02*
X139379636Y-124022295D01*
X139379636Y-124022295D02*
X139303445Y-124136580D01*
X139303445Y-124136580D02*
X139227255Y-124212771D01*
X139227255Y-124212771D02*
X139151064Y-124250866D01*
X139989160Y-124822295D02*
X140141541Y-124822295D01*
X140141541Y-124822295D02*
X140217731Y-124784200D01*
X140217731Y-124784200D02*
X140255827Y-124746104D01*
X140255827Y-124746104D02*
X140332017Y-124631819D01*
X140332017Y-124631819D02*
X140370112Y-124479438D01*
X140370112Y-124479438D02*
X140370112Y-124174676D01*
X140370112Y-124174676D02*
X140332017Y-124098485D01*
X140332017Y-124098485D02*
X140293922Y-124060390D01*
X140293922Y-124060390D02*
X140217731Y-124022295D01*
X140217731Y-124022295D02*
X140065350Y-124022295D01*
X140065350Y-124022295D02*
X139989160Y-124060390D01*
X139989160Y-124060390D02*
X139951065Y-124098485D01*
X139951065Y-124098485D02*
X139912969Y-124174676D01*
X139912969Y-124174676D02*
X139912969Y-124365152D01*
X139912969Y-124365152D02*
X139951065Y-124441342D01*
X139951065Y-124441342D02*
X139989160Y-124479438D01*
X139989160Y-124479438D02*
X140065350Y-124517533D01*
X140065350Y-124517533D02*
X140217731Y-124517533D01*
X140217731Y-124517533D02*
X140293922Y-124479438D01*
X140293922Y-124479438D02*
X140332017Y-124441342D01*
X140332017Y-124441342D02*
X140370112Y-124365152D01*
X139608207Y-117202295D02*
X139151064Y-117202295D01*
X139379636Y-117202295D02*
X139379636Y-116402295D01*
X139379636Y-116402295D02*
X139303445Y-116516580D01*
X139303445Y-116516580D02*
X139227255Y-116592771D01*
X139227255Y-116592771D02*
X139151064Y-116630866D01*
X140293922Y-116402295D02*
X140141541Y-116402295D01*
X140141541Y-116402295D02*
X140065350Y-116440390D01*
X140065350Y-116440390D02*
X140027255Y-116478485D01*
X140027255Y-116478485D02*
X139951065Y-116592771D01*
X139951065Y-116592771D02*
X139912969Y-116745152D01*
X139912969Y-116745152D02*
X139912969Y-117049914D01*
X139912969Y-117049914D02*
X139951065Y-117126104D01*
X139951065Y-117126104D02*
X139989160Y-117164200D01*
X139989160Y-117164200D02*
X140065350Y-117202295D01*
X140065350Y-117202295D02*
X140217731Y-117202295D01*
X140217731Y-117202295D02*
X140293922Y-117164200D01*
X140293922Y-117164200D02*
X140332017Y-117126104D01*
X140332017Y-117126104D02*
X140370112Y-117049914D01*
X140370112Y-117049914D02*
X140370112Y-116859438D01*
X140370112Y-116859438D02*
X140332017Y-116783247D01*
X140332017Y-116783247D02*
X140293922Y-116745152D01*
X140293922Y-116745152D02*
X140217731Y-116707057D01*
X140217731Y-116707057D02*
X140065350Y-116707057D01*
X140065350Y-116707057D02*
X139989160Y-116745152D01*
X139989160Y-116745152D02*
X139951065Y-116783247D01*
X139951065Y-116783247D02*
X139912969Y-116859438D01*
X192291791Y-136722295D02*
X192787029Y-136722295D01*
X192787029Y-136722295D02*
X192520363Y-137027057D01*
X192520363Y-137027057D02*
X192634648Y-137027057D01*
X192634648Y-137027057D02*
X192710839Y-137065152D01*
X192710839Y-137065152D02*
X192748934Y-137103247D01*
X192748934Y-137103247D02*
X192787029Y-137179438D01*
X192787029Y-137179438D02*
X192787029Y-137369914D01*
X192787029Y-137369914D02*
X192748934Y-137446104D01*
X192748934Y-137446104D02*
X192710839Y-137484200D01*
X192710839Y-137484200D02*
X192634648Y-137522295D01*
X192634648Y-137522295D02*
X192406077Y-137522295D01*
X192406077Y-137522295D02*
X192329886Y-137484200D01*
X192329886Y-137484200D02*
X192291791Y-137446104D01*
X193548934Y-137522295D02*
X193091791Y-137522295D01*
X193320363Y-137522295D02*
X193320363Y-136722295D01*
X193320363Y-136722295D02*
X193244172Y-136836580D01*
X193244172Y-136836580D02*
X193167982Y-136912771D01*
X193167982Y-136912771D02*
X193091791Y-136950866D01*
X192710839Y-106508961D02*
X192710839Y-107042295D01*
X192520363Y-106204200D02*
X192329886Y-106775628D01*
X192329886Y-106775628D02*
X192825125Y-106775628D01*
X193053696Y-106242295D02*
X193548934Y-106242295D01*
X193548934Y-106242295D02*
X193282268Y-106547057D01*
X193282268Y-106547057D02*
X193396553Y-106547057D01*
X193396553Y-106547057D02*
X193472744Y-106585152D01*
X193472744Y-106585152D02*
X193510839Y-106623247D01*
X193510839Y-106623247D02*
X193548934Y-106699438D01*
X193548934Y-106699438D02*
X193548934Y-106889914D01*
X193548934Y-106889914D02*
X193510839Y-106966104D01*
X193510839Y-106966104D02*
X193472744Y-107004200D01*
X193472744Y-107004200D02*
X193396553Y-107042295D01*
X193396553Y-107042295D02*
X193167982Y-107042295D01*
X193167982Y-107042295D02*
X193091791Y-107004200D01*
X193091791Y-107004200D02*
X193053696Y-106966104D01*
X152383825Y-117202295D02*
X152117158Y-116821342D01*
X151926682Y-117202295D02*
X151926682Y-116402295D01*
X151926682Y-116402295D02*
X152231444Y-116402295D01*
X152231444Y-116402295D02*
X152307634Y-116440390D01*
X152307634Y-116440390D02*
X152345729Y-116478485D01*
X152345729Y-116478485D02*
X152383825Y-116554676D01*
X152383825Y-116554676D02*
X152383825Y-116668961D01*
X152383825Y-116668961D02*
X152345729Y-116745152D01*
X152345729Y-116745152D02*
X152307634Y-116783247D01*
X152307634Y-116783247D02*
X152231444Y-116821342D01*
X152231444Y-116821342D02*
X151926682Y-116821342D01*
X152650491Y-116402295D02*
X153183825Y-117202295D01*
X153183825Y-116402295D02*
X152650491Y-117202295D01*
X139151064Y-139338485D02*
X139189160Y-139300390D01*
X139189160Y-139300390D02*
X139265350Y-139262295D01*
X139265350Y-139262295D02*
X139455826Y-139262295D01*
X139455826Y-139262295D02*
X139532017Y-139300390D01*
X139532017Y-139300390D02*
X139570112Y-139338485D01*
X139570112Y-139338485D02*
X139608207Y-139414676D01*
X139608207Y-139414676D02*
X139608207Y-139490866D01*
X139608207Y-139490866D02*
X139570112Y-139605152D01*
X139570112Y-139605152D02*
X139112969Y-140062295D01*
X139112969Y-140062295D02*
X139608207Y-140062295D01*
X140332017Y-139262295D02*
X139951065Y-139262295D01*
X139951065Y-139262295D02*
X139912969Y-139643247D01*
X139912969Y-139643247D02*
X139951065Y-139605152D01*
X139951065Y-139605152D02*
X140027255Y-139567057D01*
X140027255Y-139567057D02*
X140217731Y-139567057D01*
X140217731Y-139567057D02*
X140293922Y-139605152D01*
X140293922Y-139605152D02*
X140332017Y-139643247D01*
X140332017Y-139643247D02*
X140370112Y-139719438D01*
X140370112Y-139719438D02*
X140370112Y-139909914D01*
X140370112Y-139909914D02*
X140332017Y-139986104D01*
X140332017Y-139986104D02*
X140293922Y-140024200D01*
X140293922Y-140024200D02*
X140217731Y-140062295D01*
X140217731Y-140062295D02*
X140027255Y-140062295D01*
X140027255Y-140062295D02*
X139951065Y-140024200D01*
X139951065Y-140024200D02*
X139912969Y-139986104D01*
X192710839Y-109048961D02*
X192710839Y-109582295D01*
X192520363Y-108744200D02*
X192329886Y-109315628D01*
X192329886Y-109315628D02*
X192825125Y-109315628D01*
X193091791Y-108858485D02*
X193129887Y-108820390D01*
X193129887Y-108820390D02*
X193206077Y-108782295D01*
X193206077Y-108782295D02*
X193396553Y-108782295D01*
X193396553Y-108782295D02*
X193472744Y-108820390D01*
X193472744Y-108820390D02*
X193510839Y-108858485D01*
X193510839Y-108858485D02*
X193548934Y-108934676D01*
X193548934Y-108934676D02*
X193548934Y-109010866D01*
X193548934Y-109010866D02*
X193510839Y-109125152D01*
X193510839Y-109125152D02*
X193053696Y-109582295D01*
X193053696Y-109582295D02*
X193548934Y-109582295D01*
X139608207Y-101962295D02*
X139151064Y-101962295D01*
X139379636Y-101962295D02*
X139379636Y-101162295D01*
X139379636Y-101162295D02*
X139303445Y-101276580D01*
X139303445Y-101276580D02*
X139227255Y-101352771D01*
X139227255Y-101352771D02*
X139151064Y-101390866D01*
X140103446Y-101162295D02*
X140179636Y-101162295D01*
X140179636Y-101162295D02*
X140255827Y-101200390D01*
X140255827Y-101200390D02*
X140293922Y-101238485D01*
X140293922Y-101238485D02*
X140332017Y-101314676D01*
X140332017Y-101314676D02*
X140370112Y-101467057D01*
X140370112Y-101467057D02*
X140370112Y-101657533D01*
X140370112Y-101657533D02*
X140332017Y-101809914D01*
X140332017Y-101809914D02*
X140293922Y-101886104D01*
X140293922Y-101886104D02*
X140255827Y-101924200D01*
X140255827Y-101924200D02*
X140179636Y-101962295D01*
X140179636Y-101962295D02*
X140103446Y-101962295D01*
X140103446Y-101962295D02*
X140027255Y-101924200D01*
X140027255Y-101924200D02*
X139989160Y-101886104D01*
X139989160Y-101886104D02*
X139951065Y-101809914D01*
X139951065Y-101809914D02*
X139912969Y-101657533D01*
X139912969Y-101657533D02*
X139912969Y-101467057D01*
X139912969Y-101467057D02*
X139951065Y-101314676D01*
X139951065Y-101314676D02*
X139989160Y-101238485D01*
X139989160Y-101238485D02*
X140027255Y-101200390D01*
X140027255Y-101200390D02*
X140103446Y-101162295D01*
X139608207Y-114662295D02*
X139151064Y-114662295D01*
X139379636Y-114662295D02*
X139379636Y-113862295D01*
X139379636Y-113862295D02*
X139303445Y-113976580D01*
X139303445Y-113976580D02*
X139227255Y-114052771D01*
X139227255Y-114052771D02*
X139151064Y-114090866D01*
X140332017Y-113862295D02*
X139951065Y-113862295D01*
X139951065Y-113862295D02*
X139912969Y-114243247D01*
X139912969Y-114243247D02*
X139951065Y-114205152D01*
X139951065Y-114205152D02*
X140027255Y-114167057D01*
X140027255Y-114167057D02*
X140217731Y-114167057D01*
X140217731Y-114167057D02*
X140293922Y-114205152D01*
X140293922Y-114205152D02*
X140332017Y-114243247D01*
X140332017Y-114243247D02*
X140370112Y-114319438D01*
X140370112Y-114319438D02*
X140370112Y-114509914D01*
X140370112Y-114509914D02*
X140332017Y-114586104D01*
X140332017Y-114586104D02*
X140293922Y-114624200D01*
X140293922Y-114624200D02*
X140217731Y-114662295D01*
X140217731Y-114662295D02*
X140027255Y-114662295D01*
X140027255Y-114662295D02*
X139951065Y-114624200D01*
X139951065Y-114624200D02*
X139912969Y-114586104D01*
X192710839Y-103968961D02*
X192710839Y-104502295D01*
X192520363Y-103664200D02*
X192329886Y-104235628D01*
X192329886Y-104235628D02*
X192825125Y-104235628D01*
X193472744Y-103968961D02*
X193472744Y-104502295D01*
X193282268Y-103664200D02*
X193091791Y-104235628D01*
X193091791Y-104235628D02*
X193587030Y-104235628D01*
X192710839Y-114128961D02*
X192710839Y-114662295D01*
X192520363Y-113824200D02*
X192329886Y-114395628D01*
X192329886Y-114395628D02*
X192825125Y-114395628D01*
X193282268Y-113862295D02*
X193358458Y-113862295D01*
X193358458Y-113862295D02*
X193434649Y-113900390D01*
X193434649Y-113900390D02*
X193472744Y-113938485D01*
X193472744Y-113938485D02*
X193510839Y-114014676D01*
X193510839Y-114014676D02*
X193548934Y-114167057D01*
X193548934Y-114167057D02*
X193548934Y-114357533D01*
X193548934Y-114357533D02*
X193510839Y-114509914D01*
X193510839Y-114509914D02*
X193472744Y-114586104D01*
X193472744Y-114586104D02*
X193434649Y-114624200D01*
X193434649Y-114624200D02*
X193358458Y-114662295D01*
X193358458Y-114662295D02*
X193282268Y-114662295D01*
X193282268Y-114662295D02*
X193206077Y-114624200D01*
X193206077Y-114624200D02*
X193167982Y-114586104D01*
X193167982Y-114586104D02*
X193129887Y-114509914D01*
X193129887Y-114509914D02*
X193091791Y-114357533D01*
X193091791Y-114357533D02*
X193091791Y-114167057D01*
X193091791Y-114167057D02*
X193129887Y-114014676D01*
X193129887Y-114014676D02*
X193167982Y-113938485D01*
X193167982Y-113938485D02*
X193206077Y-113900390D01*
X193206077Y-113900390D02*
X193282268Y-113862295D01*
X152457482Y-119666103D02*
X152419386Y-119704199D01*
X152419386Y-119704199D02*
X152305101Y-119742294D01*
X152305101Y-119742294D02*
X152228910Y-119742294D01*
X152228910Y-119742294D02*
X152114624Y-119704199D01*
X152114624Y-119704199D02*
X152038434Y-119628008D01*
X152038434Y-119628008D02*
X152000339Y-119551818D01*
X152000339Y-119551818D02*
X151962243Y-119399437D01*
X151962243Y-119399437D02*
X151962243Y-119285151D01*
X151962243Y-119285151D02*
X152000339Y-119132770D01*
X152000339Y-119132770D02*
X152038434Y-119056579D01*
X152038434Y-119056579D02*
X152114624Y-118980389D01*
X152114624Y-118980389D02*
X152228910Y-118942294D01*
X152228910Y-118942294D02*
X152305101Y-118942294D01*
X152305101Y-118942294D02*
X152419386Y-118980389D01*
X152419386Y-118980389D02*
X152457482Y-119018484D01*
X152762243Y-119704199D02*
X152876529Y-119742294D01*
X152876529Y-119742294D02*
X153067005Y-119742294D01*
X153067005Y-119742294D02*
X153143196Y-119704199D01*
X153143196Y-119704199D02*
X153181291Y-119666103D01*
X153181291Y-119666103D02*
X153219386Y-119589913D01*
X153219386Y-119589913D02*
X153219386Y-119513722D01*
X153219386Y-119513722D02*
X153181291Y-119437532D01*
X153181291Y-119437532D02*
X153143196Y-119399437D01*
X153143196Y-119399437D02*
X153067005Y-119361341D01*
X153067005Y-119361341D02*
X152914624Y-119323246D01*
X152914624Y-119323246D02*
X152838434Y-119285151D01*
X152838434Y-119285151D02*
X152800339Y-119247056D01*
X152800339Y-119247056D02*
X152762243Y-119170865D01*
X152762243Y-119170865D02*
X152762243Y-119094675D01*
X152762243Y-119094675D02*
X152800339Y-119018484D01*
X152800339Y-119018484D02*
X152838434Y-118980389D01*
X152838434Y-118980389D02*
X152914624Y-118942294D01*
X152914624Y-118942294D02*
X153105101Y-118942294D01*
X153105101Y-118942294D02*
X153219386Y-118980389D01*
X151889863Y-118720199D02*
X153291768Y-118720199D01*
X192710839Y-96348961D02*
X192710839Y-96882295D01*
X192520363Y-96044200D02*
X192329886Y-96615628D01*
X192329886Y-96615628D02*
X192825125Y-96615628D01*
X193053696Y-96082295D02*
X193587030Y-96082295D01*
X193587030Y-96082295D02*
X193244172Y-96882295D01*
X192291791Y-139262295D02*
X192787029Y-139262295D01*
X192787029Y-139262295D02*
X192520363Y-139567057D01*
X192520363Y-139567057D02*
X192634648Y-139567057D01*
X192634648Y-139567057D02*
X192710839Y-139605152D01*
X192710839Y-139605152D02*
X192748934Y-139643247D01*
X192748934Y-139643247D02*
X192787029Y-139719438D01*
X192787029Y-139719438D02*
X192787029Y-139909914D01*
X192787029Y-139909914D02*
X192748934Y-139986104D01*
X192748934Y-139986104D02*
X192710839Y-140024200D01*
X192710839Y-140024200D02*
X192634648Y-140062295D01*
X192634648Y-140062295D02*
X192406077Y-140062295D01*
X192406077Y-140062295D02*
X192329886Y-140024200D01*
X192329886Y-140024200D02*
X192291791Y-139986104D01*
X193282268Y-139262295D02*
X193358458Y-139262295D01*
X193358458Y-139262295D02*
X193434649Y-139300390D01*
X193434649Y-139300390D02*
X193472744Y-139338485D01*
X193472744Y-139338485D02*
X193510839Y-139414676D01*
X193510839Y-139414676D02*
X193548934Y-139567057D01*
X193548934Y-139567057D02*
X193548934Y-139757533D01*
X193548934Y-139757533D02*
X193510839Y-139909914D01*
X193510839Y-139909914D02*
X193472744Y-139986104D01*
X193472744Y-139986104D02*
X193434649Y-140024200D01*
X193434649Y-140024200D02*
X193358458Y-140062295D01*
X193358458Y-140062295D02*
X193282268Y-140062295D01*
X193282268Y-140062295D02*
X193206077Y-140024200D01*
X193206077Y-140024200D02*
X193167982Y-139986104D01*
X193167982Y-139986104D02*
X193129887Y-139909914D01*
X193129887Y-139909914D02*
X193091791Y-139757533D01*
X193091791Y-139757533D02*
X193091791Y-139567057D01*
X193091791Y-139567057D02*
X193129887Y-139414676D01*
X193129887Y-139414676D02*
X193167982Y-139338485D01*
X193167982Y-139338485D02*
X193206077Y-139300390D01*
X193206077Y-139300390D02*
X193282268Y-139262295D01*
X192291791Y-131642295D02*
X192787029Y-131642295D01*
X192787029Y-131642295D02*
X192520363Y-131947057D01*
X192520363Y-131947057D02*
X192634648Y-131947057D01*
X192634648Y-131947057D02*
X192710839Y-131985152D01*
X192710839Y-131985152D02*
X192748934Y-132023247D01*
X192748934Y-132023247D02*
X192787029Y-132099438D01*
X192787029Y-132099438D02*
X192787029Y-132289914D01*
X192787029Y-132289914D02*
X192748934Y-132366104D01*
X192748934Y-132366104D02*
X192710839Y-132404200D01*
X192710839Y-132404200D02*
X192634648Y-132442295D01*
X192634648Y-132442295D02*
X192406077Y-132442295D01*
X192406077Y-132442295D02*
X192329886Y-132404200D01*
X192329886Y-132404200D02*
X192291791Y-132366104D01*
X193053696Y-131642295D02*
X193548934Y-131642295D01*
X193548934Y-131642295D02*
X193282268Y-131947057D01*
X193282268Y-131947057D02*
X193396553Y-131947057D01*
X193396553Y-131947057D02*
X193472744Y-131985152D01*
X193472744Y-131985152D02*
X193510839Y-132023247D01*
X193510839Y-132023247D02*
X193548934Y-132099438D01*
X193548934Y-132099438D02*
X193548934Y-132289914D01*
X193548934Y-132289914D02*
X193510839Y-132366104D01*
X193510839Y-132366104D02*
X193472744Y-132404200D01*
X193472744Y-132404200D02*
X193396553Y-132442295D01*
X193396553Y-132442295D02*
X193167982Y-132442295D01*
X193167982Y-132442295D02*
X193091791Y-132404200D01*
X193091791Y-132404200D02*
X193053696Y-132366104D01*
X192710839Y-111588961D02*
X192710839Y-112122295D01*
X192520363Y-111284200D02*
X192329886Y-111855628D01*
X192329886Y-111855628D02*
X192825125Y-111855628D01*
X193548934Y-112122295D02*
X193091791Y-112122295D01*
X193320363Y-112122295D02*
X193320363Y-111322295D01*
X193320363Y-111322295D02*
X193244172Y-111436580D01*
X193244172Y-111436580D02*
X193167982Y-111512771D01*
X193167982Y-111512771D02*
X193091791Y-111550866D01*
X139608207Y-122282295D02*
X139151064Y-122282295D01*
X139379636Y-122282295D02*
X139379636Y-121482295D01*
X139379636Y-121482295D02*
X139303445Y-121596580D01*
X139303445Y-121596580D02*
X139227255Y-121672771D01*
X139227255Y-121672771D02*
X139151064Y-121710866D01*
X140065350Y-121825152D02*
X139989160Y-121787057D01*
X139989160Y-121787057D02*
X139951065Y-121748961D01*
X139951065Y-121748961D02*
X139912969Y-121672771D01*
X139912969Y-121672771D02*
X139912969Y-121634676D01*
X139912969Y-121634676D02*
X139951065Y-121558485D01*
X139951065Y-121558485D02*
X139989160Y-121520390D01*
X139989160Y-121520390D02*
X140065350Y-121482295D01*
X140065350Y-121482295D02*
X140217731Y-121482295D01*
X140217731Y-121482295D02*
X140293922Y-121520390D01*
X140293922Y-121520390D02*
X140332017Y-121558485D01*
X140332017Y-121558485D02*
X140370112Y-121634676D01*
X140370112Y-121634676D02*
X140370112Y-121672771D01*
X140370112Y-121672771D02*
X140332017Y-121748961D01*
X140332017Y-121748961D02*
X140293922Y-121787057D01*
X140293922Y-121787057D02*
X140217731Y-121825152D01*
X140217731Y-121825152D02*
X140065350Y-121825152D01*
X140065350Y-121825152D02*
X139989160Y-121863247D01*
X139989160Y-121863247D02*
X139951065Y-121901342D01*
X139951065Y-121901342D02*
X139912969Y-121977533D01*
X139912969Y-121977533D02*
X139912969Y-122129914D01*
X139912969Y-122129914D02*
X139951065Y-122206104D01*
X139951065Y-122206104D02*
X139989160Y-122244200D01*
X139989160Y-122244200D02*
X140065350Y-122282295D01*
X140065350Y-122282295D02*
X140217731Y-122282295D01*
X140217731Y-122282295D02*
X140293922Y-122244200D01*
X140293922Y-122244200D02*
X140332017Y-122206104D01*
X140332017Y-122206104D02*
X140370112Y-122129914D01*
X140370112Y-122129914D02*
X140370112Y-121977533D01*
X140370112Y-121977533D02*
X140332017Y-121901342D01*
X140332017Y-121901342D02*
X140293922Y-121863247D01*
X140293922Y-121863247D02*
X140217731Y-121825152D01*
X192291791Y-124022295D02*
X192787029Y-124022295D01*
X192787029Y-124022295D02*
X192520363Y-124327057D01*
X192520363Y-124327057D02*
X192634648Y-124327057D01*
X192634648Y-124327057D02*
X192710839Y-124365152D01*
X192710839Y-124365152D02*
X192748934Y-124403247D01*
X192748934Y-124403247D02*
X192787029Y-124479438D01*
X192787029Y-124479438D02*
X192787029Y-124669914D01*
X192787029Y-124669914D02*
X192748934Y-124746104D01*
X192748934Y-124746104D02*
X192710839Y-124784200D01*
X192710839Y-124784200D02*
X192634648Y-124822295D01*
X192634648Y-124822295D02*
X192406077Y-124822295D01*
X192406077Y-124822295D02*
X192329886Y-124784200D01*
X192329886Y-124784200D02*
X192291791Y-124746104D01*
X193472744Y-124022295D02*
X193320363Y-124022295D01*
X193320363Y-124022295D02*
X193244172Y-124060390D01*
X193244172Y-124060390D02*
X193206077Y-124098485D01*
X193206077Y-124098485D02*
X193129887Y-124212771D01*
X193129887Y-124212771D02*
X193091791Y-124365152D01*
X193091791Y-124365152D02*
X193091791Y-124669914D01*
X193091791Y-124669914D02*
X193129887Y-124746104D01*
X193129887Y-124746104D02*
X193167982Y-124784200D01*
X193167982Y-124784200D02*
X193244172Y-124822295D01*
X193244172Y-124822295D02*
X193396553Y-124822295D01*
X193396553Y-124822295D02*
X193472744Y-124784200D01*
X193472744Y-124784200D02*
X193510839Y-124746104D01*
X193510839Y-124746104D02*
X193548934Y-124669914D01*
X193548934Y-124669914D02*
X193548934Y-124479438D01*
X193548934Y-124479438D02*
X193510839Y-124403247D01*
X193510839Y-124403247D02*
X193472744Y-124365152D01*
X193472744Y-124365152D02*
X193396553Y-124327057D01*
X193396553Y-124327057D02*
X193244172Y-124327057D01*
X193244172Y-124327057D02*
X193167982Y-124365152D01*
X193167982Y-124365152D02*
X193129887Y-124403247D01*
X193129887Y-124403247D02*
X193091791Y-124479438D01*
X151840290Y-124022295D02*
X152297433Y-124022295D01*
X152068861Y-124822295D02*
X152068861Y-124022295D01*
X152487909Y-124022295D02*
X153021243Y-124822295D01*
X153021243Y-124022295D02*
X152487909Y-124822295D01*
X139608207Y-107042295D02*
X139151064Y-107042295D01*
X139379636Y-107042295D02*
X139379636Y-106242295D01*
X139379636Y-106242295D02*
X139303445Y-106356580D01*
X139303445Y-106356580D02*
X139227255Y-106432771D01*
X139227255Y-106432771D02*
X139151064Y-106470866D01*
X139912969Y-106318485D02*
X139951065Y-106280390D01*
X139951065Y-106280390D02*
X140027255Y-106242295D01*
X140027255Y-106242295D02*
X140217731Y-106242295D01*
X140217731Y-106242295D02*
X140293922Y-106280390D01*
X140293922Y-106280390D02*
X140332017Y-106318485D01*
X140332017Y-106318485D02*
X140370112Y-106394676D01*
X140370112Y-106394676D02*
X140370112Y-106470866D01*
X140370112Y-106470866D02*
X140332017Y-106585152D01*
X140332017Y-106585152D02*
X139874874Y-107042295D01*
X139874874Y-107042295D02*
X140370112Y-107042295D01*
X139151064Y-144418485D02*
X139189160Y-144380390D01*
X139189160Y-144380390D02*
X139265350Y-144342295D01*
X139265350Y-144342295D02*
X139455826Y-144342295D01*
X139455826Y-144342295D02*
X139532017Y-144380390D01*
X139532017Y-144380390D02*
X139570112Y-144418485D01*
X139570112Y-144418485D02*
X139608207Y-144494676D01*
X139608207Y-144494676D02*
X139608207Y-144570866D01*
X139608207Y-144570866D02*
X139570112Y-144685152D01*
X139570112Y-144685152D02*
X139112969Y-145142295D01*
X139112969Y-145142295D02*
X139608207Y-145142295D01*
X139874874Y-144342295D02*
X140408208Y-144342295D01*
X140408208Y-144342295D02*
X140065350Y-145142295D01*
X139151064Y-141878485D02*
X139189160Y-141840390D01*
X139189160Y-141840390D02*
X139265350Y-141802295D01*
X139265350Y-141802295D02*
X139455826Y-141802295D01*
X139455826Y-141802295D02*
X139532017Y-141840390D01*
X139532017Y-141840390D02*
X139570112Y-141878485D01*
X139570112Y-141878485D02*
X139608207Y-141954676D01*
X139608207Y-141954676D02*
X139608207Y-142030866D01*
X139608207Y-142030866D02*
X139570112Y-142145152D01*
X139570112Y-142145152D02*
X139112969Y-142602295D01*
X139112969Y-142602295D02*
X139608207Y-142602295D01*
X140293922Y-141802295D02*
X140141541Y-141802295D01*
X140141541Y-141802295D02*
X140065350Y-141840390D01*
X140065350Y-141840390D02*
X140027255Y-141878485D01*
X140027255Y-141878485D02*
X139951065Y-141992771D01*
X139951065Y-141992771D02*
X139912969Y-142145152D01*
X139912969Y-142145152D02*
X139912969Y-142449914D01*
X139912969Y-142449914D02*
X139951065Y-142526104D01*
X139951065Y-142526104D02*
X139989160Y-142564200D01*
X139989160Y-142564200D02*
X140065350Y-142602295D01*
X140065350Y-142602295D02*
X140217731Y-142602295D01*
X140217731Y-142602295D02*
X140293922Y-142564200D01*
X140293922Y-142564200D02*
X140332017Y-142526104D01*
X140332017Y-142526104D02*
X140370112Y-142449914D01*
X140370112Y-142449914D02*
X140370112Y-142259438D01*
X140370112Y-142259438D02*
X140332017Y-142183247D01*
X140332017Y-142183247D02*
X140293922Y-142145152D01*
X140293922Y-142145152D02*
X140217731Y-142107057D01*
X140217731Y-142107057D02*
X140065350Y-142107057D01*
X140065350Y-142107057D02*
X139989160Y-142145152D01*
X139989160Y-142145152D02*
X139951065Y-142183247D01*
X139951065Y-142183247D02*
X139912969Y-142259438D01*
X192329886Y-141878485D02*
X192367982Y-141840390D01*
X192367982Y-141840390D02*
X192444172Y-141802295D01*
X192444172Y-141802295D02*
X192634648Y-141802295D01*
X192634648Y-141802295D02*
X192710839Y-141840390D01*
X192710839Y-141840390D02*
X192748934Y-141878485D01*
X192748934Y-141878485D02*
X192787029Y-141954676D01*
X192787029Y-141954676D02*
X192787029Y-142030866D01*
X192787029Y-142030866D02*
X192748934Y-142145152D01*
X192748934Y-142145152D02*
X192291791Y-142602295D01*
X192291791Y-142602295D02*
X192787029Y-142602295D01*
X193167982Y-142602295D02*
X193320363Y-142602295D01*
X193320363Y-142602295D02*
X193396553Y-142564200D01*
X193396553Y-142564200D02*
X193434649Y-142526104D01*
X193434649Y-142526104D02*
X193510839Y-142411819D01*
X193510839Y-142411819D02*
X193548934Y-142259438D01*
X193548934Y-142259438D02*
X193548934Y-141954676D01*
X193548934Y-141954676D02*
X193510839Y-141878485D01*
X193510839Y-141878485D02*
X193472744Y-141840390D01*
X193472744Y-141840390D02*
X193396553Y-141802295D01*
X193396553Y-141802295D02*
X193244172Y-141802295D01*
X193244172Y-141802295D02*
X193167982Y-141840390D01*
X193167982Y-141840390D02*
X193129887Y-141878485D01*
X193129887Y-141878485D02*
X193091791Y-141954676D01*
X193091791Y-141954676D02*
X193091791Y-142145152D01*
X193091791Y-142145152D02*
X193129887Y-142221342D01*
X193129887Y-142221342D02*
X193167982Y-142259438D01*
X193167982Y-142259438D02*
X193244172Y-142297533D01*
X193244172Y-142297533D02*
X193396553Y-142297533D01*
X193396553Y-142297533D02*
X193472744Y-142259438D01*
X193472744Y-142259438D02*
X193510839Y-142221342D01*
X193510839Y-142221342D02*
X193548934Y-142145152D01*
X192291791Y-116402295D02*
X192787029Y-116402295D01*
X192787029Y-116402295D02*
X192520363Y-116707057D01*
X192520363Y-116707057D02*
X192634648Y-116707057D01*
X192634648Y-116707057D02*
X192710839Y-116745152D01*
X192710839Y-116745152D02*
X192748934Y-116783247D01*
X192748934Y-116783247D02*
X192787029Y-116859438D01*
X192787029Y-116859438D02*
X192787029Y-117049914D01*
X192787029Y-117049914D02*
X192748934Y-117126104D01*
X192748934Y-117126104D02*
X192710839Y-117164200D01*
X192710839Y-117164200D02*
X192634648Y-117202295D01*
X192634648Y-117202295D02*
X192406077Y-117202295D01*
X192406077Y-117202295D02*
X192329886Y-117164200D01*
X192329886Y-117164200D02*
X192291791Y-117126104D01*
X193167982Y-117202295D02*
X193320363Y-117202295D01*
X193320363Y-117202295D02*
X193396553Y-117164200D01*
X193396553Y-117164200D02*
X193434649Y-117126104D01*
X193434649Y-117126104D02*
X193510839Y-117011819D01*
X193510839Y-117011819D02*
X193548934Y-116859438D01*
X193548934Y-116859438D02*
X193548934Y-116554676D01*
X193548934Y-116554676D02*
X193510839Y-116478485D01*
X193510839Y-116478485D02*
X193472744Y-116440390D01*
X193472744Y-116440390D02*
X193396553Y-116402295D01*
X193396553Y-116402295D02*
X193244172Y-116402295D01*
X193244172Y-116402295D02*
X193167982Y-116440390D01*
X193167982Y-116440390D02*
X193129887Y-116478485D01*
X193129887Y-116478485D02*
X193091791Y-116554676D01*
X193091791Y-116554676D02*
X193091791Y-116745152D01*
X193091791Y-116745152D02*
X193129887Y-116821342D01*
X193129887Y-116821342D02*
X193167982Y-116859438D01*
X193167982Y-116859438D02*
X193244172Y-116897533D01*
X193244172Y-116897533D02*
X193396553Y-116897533D01*
X193396553Y-116897533D02*
X193472744Y-116859438D01*
X193472744Y-116859438D02*
X193510839Y-116821342D01*
X193510839Y-116821342D02*
X193548934Y-116745152D01*
X139608207Y-119742295D02*
X139151064Y-119742295D01*
X139379636Y-119742295D02*
X139379636Y-118942295D01*
X139379636Y-118942295D02*
X139303445Y-119056580D01*
X139303445Y-119056580D02*
X139227255Y-119132771D01*
X139227255Y-119132771D02*
X139151064Y-119170866D01*
X139874874Y-118942295D02*
X140408208Y-118942295D01*
X140408208Y-118942295D02*
X140065350Y-119742295D01*
X139151064Y-131718485D02*
X139189160Y-131680390D01*
X139189160Y-131680390D02*
X139265350Y-131642295D01*
X139265350Y-131642295D02*
X139455826Y-131642295D01*
X139455826Y-131642295D02*
X139532017Y-131680390D01*
X139532017Y-131680390D02*
X139570112Y-131718485D01*
X139570112Y-131718485D02*
X139608207Y-131794676D01*
X139608207Y-131794676D02*
X139608207Y-131870866D01*
X139608207Y-131870866D02*
X139570112Y-131985152D01*
X139570112Y-131985152D02*
X139112969Y-132442295D01*
X139112969Y-132442295D02*
X139608207Y-132442295D01*
X139912969Y-131718485D02*
X139951065Y-131680390D01*
X139951065Y-131680390D02*
X140027255Y-131642295D01*
X140027255Y-131642295D02*
X140217731Y-131642295D01*
X140217731Y-131642295D02*
X140293922Y-131680390D01*
X140293922Y-131680390D02*
X140332017Y-131718485D01*
X140332017Y-131718485D02*
X140370112Y-131794676D01*
X140370112Y-131794676D02*
X140370112Y-131870866D01*
X140370112Y-131870866D02*
X140332017Y-131985152D01*
X140332017Y-131985152D02*
X139874874Y-132442295D01*
X139874874Y-132442295D02*
X140370112Y-132442295D01*
X139608207Y-112122295D02*
X139151064Y-112122295D01*
X139379636Y-112122295D02*
X139379636Y-111322295D01*
X139379636Y-111322295D02*
X139303445Y-111436580D01*
X139303445Y-111436580D02*
X139227255Y-111512771D01*
X139227255Y-111512771D02*
X139151064Y-111550866D01*
X140293922Y-111588961D02*
X140293922Y-112122295D01*
X140103446Y-111284200D02*
X139912969Y-111855628D01*
X139912969Y-111855628D02*
X140408208Y-111855628D01*
X147238095Y-85862438D02*
X147142857Y-85814819D01*
X147142857Y-85814819D02*
X147000000Y-85814819D01*
X147000000Y-85814819D02*
X146857143Y-85862438D01*
X146857143Y-85862438D02*
X146761905Y-85957676D01*
X146761905Y-85957676D02*
X146714286Y-86052914D01*
X146714286Y-86052914D02*
X146666667Y-86243390D01*
X146666667Y-86243390D02*
X146666667Y-86386247D01*
X146666667Y-86386247D02*
X146714286Y-86576723D01*
X146714286Y-86576723D02*
X146761905Y-86671961D01*
X146761905Y-86671961D02*
X146857143Y-86767200D01*
X146857143Y-86767200D02*
X147000000Y-86814819D01*
X147000000Y-86814819D02*
X147095238Y-86814819D01*
X147095238Y-86814819D02*
X147238095Y-86767200D01*
X147238095Y-86767200D02*
X147285714Y-86719580D01*
X147285714Y-86719580D02*
X147285714Y-86386247D01*
X147285714Y-86386247D02*
X147095238Y-86386247D01*
X147714286Y-86814819D02*
X147714286Y-85814819D01*
X147714286Y-85814819D02*
X148285714Y-86814819D01*
X148285714Y-86814819D02*
X148285714Y-85814819D01*
X148761905Y-86814819D02*
X148761905Y-85814819D01*
X148761905Y-85814819D02*
X149000000Y-85814819D01*
X149000000Y-85814819D02*
X149142857Y-85862438D01*
X149142857Y-85862438D02*
X149238095Y-85957676D01*
X149238095Y-85957676D02*
X149285714Y-86052914D01*
X149285714Y-86052914D02*
X149333333Y-86243390D01*
X149333333Y-86243390D02*
X149333333Y-86386247D01*
X149333333Y-86386247D02*
X149285714Y-86576723D01*
X149285714Y-86576723D02*
X149238095Y-86671961D01*
X149238095Y-86671961D02*
X149142857Y-86767200D01*
X149142857Y-86767200D02*
X149000000Y-86814819D01*
X149000000Y-86814819D02*
X148761905Y-86814819D01*
X192710839Y-98888961D02*
X192710839Y-99422295D01*
X192520363Y-98584200D02*
X192329886Y-99155628D01*
X192329886Y-99155628D02*
X192825125Y-99155628D01*
X193472744Y-98622295D02*
X193320363Y-98622295D01*
X193320363Y-98622295D02*
X193244172Y-98660390D01*
X193244172Y-98660390D02*
X193206077Y-98698485D01*
X193206077Y-98698485D02*
X193129887Y-98812771D01*
X193129887Y-98812771D02*
X193091791Y-98965152D01*
X193091791Y-98965152D02*
X193091791Y-99269914D01*
X193091791Y-99269914D02*
X193129887Y-99346104D01*
X193129887Y-99346104D02*
X193167982Y-99384200D01*
X193167982Y-99384200D02*
X193244172Y-99422295D01*
X193244172Y-99422295D02*
X193396553Y-99422295D01*
X193396553Y-99422295D02*
X193472744Y-99384200D01*
X193472744Y-99384200D02*
X193510839Y-99346104D01*
X193510839Y-99346104D02*
X193548934Y-99269914D01*
X193548934Y-99269914D02*
X193548934Y-99079438D01*
X193548934Y-99079438D02*
X193510839Y-99003247D01*
X193510839Y-99003247D02*
X193472744Y-98965152D01*
X193472744Y-98965152D02*
X193396553Y-98927057D01*
X193396553Y-98927057D02*
X193244172Y-98927057D01*
X193244172Y-98927057D02*
X193167982Y-98965152D01*
X193167982Y-98965152D02*
X193129887Y-99003247D01*
X193129887Y-99003247D02*
X193091791Y-99079438D01*
X139151064Y-126638485D02*
X139189160Y-126600390D01*
X139189160Y-126600390D02*
X139265350Y-126562295D01*
X139265350Y-126562295D02*
X139455826Y-126562295D01*
X139455826Y-126562295D02*
X139532017Y-126600390D01*
X139532017Y-126600390D02*
X139570112Y-126638485D01*
X139570112Y-126638485D02*
X139608207Y-126714676D01*
X139608207Y-126714676D02*
X139608207Y-126790866D01*
X139608207Y-126790866D02*
X139570112Y-126905152D01*
X139570112Y-126905152D02*
X139112969Y-127362295D01*
X139112969Y-127362295D02*
X139608207Y-127362295D01*
X140103446Y-126562295D02*
X140179636Y-126562295D01*
X140179636Y-126562295D02*
X140255827Y-126600390D01*
X140255827Y-126600390D02*
X140293922Y-126638485D01*
X140293922Y-126638485D02*
X140332017Y-126714676D01*
X140332017Y-126714676D02*
X140370112Y-126867057D01*
X140370112Y-126867057D02*
X140370112Y-127057533D01*
X140370112Y-127057533D02*
X140332017Y-127209914D01*
X140332017Y-127209914D02*
X140293922Y-127286104D01*
X140293922Y-127286104D02*
X140255827Y-127324200D01*
X140255827Y-127324200D02*
X140179636Y-127362295D01*
X140179636Y-127362295D02*
X140103446Y-127362295D01*
X140103446Y-127362295D02*
X140027255Y-127324200D01*
X140027255Y-127324200D02*
X139989160Y-127286104D01*
X139989160Y-127286104D02*
X139951065Y-127209914D01*
X139951065Y-127209914D02*
X139912969Y-127057533D01*
X139912969Y-127057533D02*
X139912969Y-126867057D01*
X139912969Y-126867057D02*
X139951065Y-126714676D01*
X139951065Y-126714676D02*
X139989160Y-126638485D01*
X139989160Y-126638485D02*
X140027255Y-126600390D01*
X140027255Y-126600390D02*
X140103446Y-126562295D01*
X139341541Y-98622295D02*
X139417731Y-98622295D01*
X139417731Y-98622295D02*
X139493922Y-98660390D01*
X139493922Y-98660390D02*
X139532017Y-98698485D01*
X139532017Y-98698485D02*
X139570112Y-98774676D01*
X139570112Y-98774676D02*
X139608207Y-98927057D01*
X139608207Y-98927057D02*
X139608207Y-99117533D01*
X139608207Y-99117533D02*
X139570112Y-99269914D01*
X139570112Y-99269914D02*
X139532017Y-99346104D01*
X139532017Y-99346104D02*
X139493922Y-99384200D01*
X139493922Y-99384200D02*
X139417731Y-99422295D01*
X139417731Y-99422295D02*
X139341541Y-99422295D01*
X139341541Y-99422295D02*
X139265350Y-99384200D01*
X139265350Y-99384200D02*
X139227255Y-99346104D01*
X139227255Y-99346104D02*
X139189160Y-99269914D01*
X139189160Y-99269914D02*
X139151064Y-99117533D01*
X139151064Y-99117533D02*
X139151064Y-98927057D01*
X139151064Y-98927057D02*
X139189160Y-98774676D01*
X139189160Y-98774676D02*
X139227255Y-98698485D01*
X139227255Y-98698485D02*
X139265350Y-98660390D01*
X139265350Y-98660390D02*
X139341541Y-98622295D01*
X140332017Y-98622295D02*
X139951065Y-98622295D01*
X139951065Y-98622295D02*
X139912969Y-99003247D01*
X139912969Y-99003247D02*
X139951065Y-98965152D01*
X139951065Y-98965152D02*
X140027255Y-98927057D01*
X140027255Y-98927057D02*
X140217731Y-98927057D01*
X140217731Y-98927057D02*
X140293922Y-98965152D01*
X140293922Y-98965152D02*
X140332017Y-99003247D01*
X140332017Y-99003247D02*
X140370112Y-99079438D01*
X140370112Y-99079438D02*
X140370112Y-99269914D01*
X140370112Y-99269914D02*
X140332017Y-99346104D01*
X140332017Y-99346104D02*
X140293922Y-99384200D01*
X140293922Y-99384200D02*
X140217731Y-99422295D01*
X140217731Y-99422295D02*
X140027255Y-99422295D01*
X140027255Y-99422295D02*
X139951065Y-99384200D01*
X139951065Y-99384200D02*
X139912969Y-99346104D01*
X139608207Y-109582295D02*
X139151064Y-109582295D01*
X139379636Y-109582295D02*
X139379636Y-108782295D01*
X139379636Y-108782295D02*
X139303445Y-108896580D01*
X139303445Y-108896580D02*
X139227255Y-108972771D01*
X139227255Y-108972771D02*
X139151064Y-109010866D01*
X139874874Y-108782295D02*
X140370112Y-108782295D01*
X140370112Y-108782295D02*
X140103446Y-109087057D01*
X140103446Y-109087057D02*
X140217731Y-109087057D01*
X140217731Y-109087057D02*
X140293922Y-109125152D01*
X140293922Y-109125152D02*
X140332017Y-109163247D01*
X140332017Y-109163247D02*
X140370112Y-109239438D01*
X140370112Y-109239438D02*
X140370112Y-109429914D01*
X140370112Y-109429914D02*
X140332017Y-109506104D01*
X140332017Y-109506104D02*
X140293922Y-109544200D01*
X140293922Y-109544200D02*
X140217731Y-109582295D01*
X140217731Y-109582295D02*
X139989160Y-109582295D01*
X139989160Y-109582295D02*
X139912969Y-109544200D01*
X139912969Y-109544200D02*
X139874874Y-109506104D01*
X192710839Y-101428961D02*
X192710839Y-101962295D01*
X192520363Y-101124200D02*
X192329886Y-101695628D01*
X192329886Y-101695628D02*
X192825125Y-101695628D01*
X193510839Y-101162295D02*
X193129887Y-101162295D01*
X193129887Y-101162295D02*
X193091791Y-101543247D01*
X193091791Y-101543247D02*
X193129887Y-101505152D01*
X193129887Y-101505152D02*
X193206077Y-101467057D01*
X193206077Y-101467057D02*
X193396553Y-101467057D01*
X193396553Y-101467057D02*
X193472744Y-101505152D01*
X193472744Y-101505152D02*
X193510839Y-101543247D01*
X193510839Y-101543247D02*
X193548934Y-101619438D01*
X193548934Y-101619438D02*
X193548934Y-101809914D01*
X193548934Y-101809914D02*
X193510839Y-101886104D01*
X193510839Y-101886104D02*
X193472744Y-101924200D01*
X193472744Y-101924200D02*
X193396553Y-101962295D01*
X193396553Y-101962295D02*
X193206077Y-101962295D01*
X193206077Y-101962295D02*
X193129887Y-101924200D01*
X193129887Y-101924200D02*
X193091791Y-101886104D01*
D11*
X155592858Y-138376070D02*
X155092858Y-137661784D01*
X154735715Y-138376070D02*
X154735715Y-136876070D01*
X154735715Y-136876070D02*
X155307144Y-136876070D01*
X155307144Y-136876070D02*
X155450001Y-136947499D01*
X155450001Y-136947499D02*
X155521430Y-137018927D01*
X155521430Y-137018927D02*
X155592858Y-137161784D01*
X155592858Y-137161784D02*
X155592858Y-137376070D01*
X155592858Y-137376070D02*
X155521430Y-137518927D01*
X155521430Y-137518927D02*
X155450001Y-137590356D01*
X155450001Y-137590356D02*
X155307144Y-137661784D01*
X155307144Y-137661784D02*
X154735715Y-137661784D01*
X156235715Y-138376070D02*
X156235715Y-136876070D01*
X156235715Y-136876070D02*
X156807144Y-136876070D01*
X156807144Y-136876070D02*
X156950001Y-136947499D01*
X156950001Y-136947499D02*
X157021430Y-137018927D01*
X157021430Y-137018927D02*
X157092858Y-137161784D01*
X157092858Y-137161784D02*
X157092858Y-137376070D01*
X157092858Y-137376070D02*
X157021430Y-137518927D01*
X157021430Y-137518927D02*
X156950001Y-137590356D01*
X156950001Y-137590356D02*
X156807144Y-137661784D01*
X156807144Y-137661784D02*
X156235715Y-137661784D01*
X157664287Y-137018927D02*
X157735715Y-136947499D01*
X157735715Y-136947499D02*
X157878573Y-136876070D01*
X157878573Y-136876070D02*
X158235715Y-136876070D01*
X158235715Y-136876070D02*
X158378573Y-136947499D01*
X158378573Y-136947499D02*
X158450001Y-137018927D01*
X158450001Y-137018927D02*
X158521430Y-137161784D01*
X158521430Y-137161784D02*
X158521430Y-137304642D01*
X158521430Y-137304642D02*
X158450001Y-137518927D01*
X158450001Y-137518927D02*
X157592858Y-138376070D01*
X157592858Y-138376070D02*
X158521430Y-138376070D01*
X159021429Y-136876070D02*
X159950001Y-136876070D01*
X159950001Y-136876070D02*
X159450001Y-137447499D01*
X159450001Y-137447499D02*
X159664286Y-137447499D01*
X159664286Y-137447499D02*
X159807144Y-137518927D01*
X159807144Y-137518927D02*
X159878572Y-137590356D01*
X159878572Y-137590356D02*
X159950001Y-137733213D01*
X159950001Y-137733213D02*
X159950001Y-138090356D01*
X159950001Y-138090356D02*
X159878572Y-138233213D01*
X159878572Y-138233213D02*
X159807144Y-138304642D01*
X159807144Y-138304642D02*
X159664286Y-138376070D01*
X159664286Y-138376070D02*
X159235715Y-138376070D01*
X159235715Y-138376070D02*
X159092858Y-138304642D01*
X159092858Y-138304642D02*
X159021429Y-138233213D01*
X161307143Y-136876070D02*
X160592857Y-136876070D01*
X160592857Y-136876070D02*
X160521429Y-137590356D01*
X160521429Y-137590356D02*
X160592857Y-137518927D01*
X160592857Y-137518927D02*
X160735715Y-137447499D01*
X160735715Y-137447499D02*
X161092857Y-137447499D01*
X161092857Y-137447499D02*
X161235715Y-137518927D01*
X161235715Y-137518927D02*
X161307143Y-137590356D01*
X161307143Y-137590356D02*
X161378572Y-137733213D01*
X161378572Y-137733213D02*
X161378572Y-138090356D01*
X161378572Y-138090356D02*
X161307143Y-138233213D01*
X161307143Y-138233213D02*
X161235715Y-138304642D01*
X161235715Y-138304642D02*
X161092857Y-138376070D01*
X161092857Y-138376070D02*
X160735715Y-138376070D01*
X160735715Y-138376070D02*
X160592857Y-138304642D01*
X160592857Y-138304642D02*
X160521429Y-138233213D01*
X162307143Y-136876070D02*
X162450000Y-136876070D01*
X162450000Y-136876070D02*
X162592857Y-136947499D01*
X162592857Y-136947499D02*
X162664286Y-137018927D01*
X162664286Y-137018927D02*
X162735714Y-137161784D01*
X162735714Y-137161784D02*
X162807143Y-137447499D01*
X162807143Y-137447499D02*
X162807143Y-137804642D01*
X162807143Y-137804642D02*
X162735714Y-138090356D01*
X162735714Y-138090356D02*
X162664286Y-138233213D01*
X162664286Y-138233213D02*
X162592857Y-138304642D01*
X162592857Y-138304642D02*
X162450000Y-138376070D01*
X162450000Y-138376070D02*
X162307143Y-138376070D01*
X162307143Y-138376070D02*
X162164286Y-138304642D01*
X162164286Y-138304642D02*
X162092857Y-138233213D01*
X162092857Y-138233213D02*
X162021428Y-138090356D01*
X162021428Y-138090356D02*
X161950000Y-137804642D01*
X161950000Y-137804642D02*
X161950000Y-137447499D01*
X161950000Y-137447499D02*
X162021428Y-137161784D01*
X162021428Y-137161784D02*
X162092857Y-137018927D01*
X162092857Y-137018927D02*
X162164286Y-136947499D01*
X162164286Y-136947499D02*
X162307143Y-136876070D01*
X163949999Y-137590356D02*
X164164285Y-137661784D01*
X164164285Y-137661784D02*
X164235714Y-137733213D01*
X164235714Y-137733213D02*
X164307142Y-137876070D01*
X164307142Y-137876070D02*
X164307142Y-138090356D01*
X164307142Y-138090356D02*
X164235714Y-138233213D01*
X164235714Y-138233213D02*
X164164285Y-138304642D01*
X164164285Y-138304642D02*
X164021428Y-138376070D01*
X164021428Y-138376070D02*
X163449999Y-138376070D01*
X163449999Y-138376070D02*
X163449999Y-136876070D01*
X163449999Y-136876070D02*
X163949999Y-136876070D01*
X163949999Y-136876070D02*
X164092857Y-136947499D01*
X164092857Y-136947499D02*
X164164285Y-137018927D01*
X164164285Y-137018927D02*
X164235714Y-137161784D01*
X164235714Y-137161784D02*
X164235714Y-137304642D01*
X164235714Y-137304642D02*
X164164285Y-137447499D01*
X164164285Y-137447499D02*
X164092857Y-137518927D01*
X164092857Y-137518927D02*
X163949999Y-137590356D01*
X163949999Y-137590356D02*
X163449999Y-137590356D01*
X166807142Y-138376070D02*
X166092856Y-138376070D01*
X166092856Y-138376070D02*
X166092856Y-136876070D01*
X167878571Y-138304642D02*
X167735714Y-138376070D01*
X167735714Y-138376070D02*
X167450000Y-138376070D01*
X167450000Y-138376070D02*
X167307142Y-138304642D01*
X167307142Y-138304642D02*
X167235714Y-138161784D01*
X167235714Y-138161784D02*
X167235714Y-137590356D01*
X167235714Y-137590356D02*
X167307142Y-137447499D01*
X167307142Y-137447499D02*
X167450000Y-137376070D01*
X167450000Y-137376070D02*
X167735714Y-137376070D01*
X167735714Y-137376070D02*
X167878571Y-137447499D01*
X167878571Y-137447499D02*
X167950000Y-137590356D01*
X167950000Y-137590356D02*
X167950000Y-137733213D01*
X167950000Y-137733213D02*
X167235714Y-137876070D01*
X168449999Y-137376070D02*
X168807142Y-138376070D01*
X168807142Y-138376070D02*
X169164285Y-137376070D01*
X170307142Y-138304642D02*
X170164285Y-138376070D01*
X170164285Y-138376070D02*
X169878571Y-138376070D01*
X169878571Y-138376070D02*
X169735713Y-138304642D01*
X169735713Y-138304642D02*
X169664285Y-138161784D01*
X169664285Y-138161784D02*
X169664285Y-137590356D01*
X169664285Y-137590356D02*
X169735713Y-137447499D01*
X169735713Y-137447499D02*
X169878571Y-137376070D01*
X169878571Y-137376070D02*
X170164285Y-137376070D01*
X170164285Y-137376070D02*
X170307142Y-137447499D01*
X170307142Y-137447499D02*
X170378571Y-137590356D01*
X170378571Y-137590356D02*
X170378571Y-137733213D01*
X170378571Y-137733213D02*
X169664285Y-137876070D01*
X171235713Y-138376070D02*
X171092856Y-138304642D01*
X171092856Y-138304642D02*
X171021427Y-138161784D01*
X171021427Y-138161784D02*
X171021427Y-136876070D01*
X172878570Y-138304642D02*
X173092856Y-138376070D01*
X173092856Y-138376070D02*
X173449998Y-138376070D01*
X173449998Y-138376070D02*
X173592856Y-138304642D01*
X173592856Y-138304642D02*
X173664284Y-138233213D01*
X173664284Y-138233213D02*
X173735713Y-138090356D01*
X173735713Y-138090356D02*
X173735713Y-137947499D01*
X173735713Y-137947499D02*
X173664284Y-137804642D01*
X173664284Y-137804642D02*
X173592856Y-137733213D01*
X173592856Y-137733213D02*
X173449998Y-137661784D01*
X173449998Y-137661784D02*
X173164284Y-137590356D01*
X173164284Y-137590356D02*
X173021427Y-137518927D01*
X173021427Y-137518927D02*
X172949998Y-137447499D01*
X172949998Y-137447499D02*
X172878570Y-137304642D01*
X172878570Y-137304642D02*
X172878570Y-137161784D01*
X172878570Y-137161784D02*
X172949998Y-137018927D01*
X172949998Y-137018927D02*
X173021427Y-136947499D01*
X173021427Y-136947499D02*
X173164284Y-136876070D01*
X173164284Y-136876070D02*
X173521427Y-136876070D01*
X173521427Y-136876070D02*
X173735713Y-136947499D01*
X174378569Y-138376070D02*
X174378569Y-136876070D01*
X175021427Y-138376070D02*
X175021427Y-137590356D01*
X175021427Y-137590356D02*
X174949998Y-137447499D01*
X174949998Y-137447499D02*
X174807141Y-137376070D01*
X174807141Y-137376070D02*
X174592855Y-137376070D01*
X174592855Y-137376070D02*
X174449998Y-137447499D01*
X174449998Y-137447499D02*
X174378569Y-137518927D01*
X175735712Y-138376070D02*
X175735712Y-137376070D01*
X175735712Y-136876070D02*
X175664284Y-136947499D01*
X175664284Y-136947499D02*
X175735712Y-137018927D01*
X175735712Y-137018927D02*
X175807141Y-136947499D01*
X175807141Y-136947499D02*
X175735712Y-136876070D01*
X175735712Y-136876070D02*
X175735712Y-137018927D01*
X176235713Y-137376070D02*
X176807141Y-137376070D01*
X176449998Y-138376070D02*
X176449998Y-137090356D01*
X176449998Y-137090356D02*
X176521427Y-136947499D01*
X176521427Y-136947499D02*
X176664284Y-136876070D01*
X176664284Y-136876070D02*
X176807141Y-136876070D01*
X177092856Y-137376070D02*
X177664284Y-137376070D01*
X177307141Y-136876070D02*
X177307141Y-138161784D01*
X177307141Y-138161784D02*
X177378570Y-138304642D01*
X177378570Y-138304642D02*
X177521427Y-138376070D01*
X177521427Y-138376070D02*
X177664284Y-138376070D01*
X178735713Y-138304642D02*
X178592856Y-138376070D01*
X178592856Y-138376070D02*
X178307142Y-138376070D01*
X178307142Y-138376070D02*
X178164284Y-138304642D01*
X178164284Y-138304642D02*
X178092856Y-138161784D01*
X178092856Y-138161784D02*
X178092856Y-137590356D01*
X178092856Y-137590356D02*
X178164284Y-137447499D01*
X178164284Y-137447499D02*
X178307142Y-137376070D01*
X178307142Y-137376070D02*
X178592856Y-137376070D01*
X178592856Y-137376070D02*
X178735713Y-137447499D01*
X178735713Y-137447499D02*
X178807142Y-137590356D01*
X178807142Y-137590356D02*
X178807142Y-137733213D01*
X178807142Y-137733213D02*
X178092856Y-137876070D01*
X179449998Y-138376070D02*
X179449998Y-137376070D01*
X179449998Y-137661784D02*
X179521427Y-137518927D01*
X179521427Y-137518927D02*
X179592856Y-137447499D01*
X179592856Y-137447499D02*
X179735713Y-137376070D01*
X179735713Y-137376070D02*
X179878570Y-137376070D01*
X153700001Y-140790986D02*
X152842858Y-140790986D01*
X153271429Y-140790986D02*
X153271429Y-139290986D01*
X153271429Y-139290986D02*
X153128572Y-139505272D01*
X153128572Y-139505272D02*
X152985715Y-139648129D01*
X152985715Y-139648129D02*
X152842858Y-139719558D01*
X154200000Y-139290986D02*
X155128572Y-139290986D01*
X155128572Y-139290986D02*
X154628572Y-139862415D01*
X154628572Y-139862415D02*
X154842857Y-139862415D01*
X154842857Y-139862415D02*
X154985715Y-139933843D01*
X154985715Y-139933843D02*
X155057143Y-140005272D01*
X155057143Y-140005272D02*
X155128572Y-140148129D01*
X155128572Y-140148129D02*
X155128572Y-140505272D01*
X155128572Y-140505272D02*
X155057143Y-140648129D01*
X155057143Y-140648129D02*
X154985715Y-140719558D01*
X154985715Y-140719558D02*
X154842857Y-140790986D01*
X154842857Y-140790986D02*
X154414286Y-140790986D01*
X154414286Y-140790986D02*
X154271429Y-140719558D01*
X154271429Y-140719558D02*
X154200000Y-140648129D01*
X156842857Y-139219558D02*
X155557143Y-141148129D01*
X157628572Y-139290986D02*
X157771429Y-139290986D01*
X157771429Y-139290986D02*
X157914286Y-139362415D01*
X157914286Y-139362415D02*
X157985715Y-139433843D01*
X157985715Y-139433843D02*
X158057143Y-139576700D01*
X158057143Y-139576700D02*
X158128572Y-139862415D01*
X158128572Y-139862415D02*
X158128572Y-140219558D01*
X158128572Y-140219558D02*
X158057143Y-140505272D01*
X158057143Y-140505272D02*
X157985715Y-140648129D01*
X157985715Y-140648129D02*
X157914286Y-140719558D01*
X157914286Y-140719558D02*
X157771429Y-140790986D01*
X157771429Y-140790986D02*
X157628572Y-140790986D01*
X157628572Y-140790986D02*
X157485715Y-140719558D01*
X157485715Y-140719558D02*
X157414286Y-140648129D01*
X157414286Y-140648129D02*
X157342857Y-140505272D01*
X157342857Y-140505272D02*
X157271429Y-140219558D01*
X157271429Y-140219558D02*
X157271429Y-139862415D01*
X157271429Y-139862415D02*
X157342857Y-139576700D01*
X157342857Y-139576700D02*
X157414286Y-139433843D01*
X157414286Y-139433843D02*
X157485715Y-139362415D01*
X157485715Y-139362415D02*
X157628572Y-139290986D01*
X159414286Y-139790986D02*
X159414286Y-140790986D01*
X159057143Y-139219558D02*
X158700000Y-140290986D01*
X158700000Y-140290986D02*
X159628571Y-140290986D01*
X161271428Y-139219558D02*
X159985714Y-141148129D01*
X161700000Y-139433843D02*
X161771428Y-139362415D01*
X161771428Y-139362415D02*
X161914286Y-139290986D01*
X161914286Y-139290986D02*
X162271428Y-139290986D01*
X162271428Y-139290986D02*
X162414286Y-139362415D01*
X162414286Y-139362415D02*
X162485714Y-139433843D01*
X162485714Y-139433843D02*
X162557143Y-139576700D01*
X162557143Y-139576700D02*
X162557143Y-139719558D01*
X162557143Y-139719558D02*
X162485714Y-139933843D01*
X162485714Y-139933843D02*
X161628571Y-140790986D01*
X161628571Y-140790986D02*
X162557143Y-140790986D01*
X163485714Y-139290986D02*
X163628571Y-139290986D01*
X163628571Y-139290986D02*
X163771428Y-139362415D01*
X163771428Y-139362415D02*
X163842857Y-139433843D01*
X163842857Y-139433843D02*
X163914285Y-139576700D01*
X163914285Y-139576700D02*
X163985714Y-139862415D01*
X163985714Y-139862415D02*
X163985714Y-140219558D01*
X163985714Y-140219558D02*
X163914285Y-140505272D01*
X163914285Y-140505272D02*
X163842857Y-140648129D01*
X163842857Y-140648129D02*
X163771428Y-140719558D01*
X163771428Y-140719558D02*
X163628571Y-140790986D01*
X163628571Y-140790986D02*
X163485714Y-140790986D01*
X163485714Y-140790986D02*
X163342857Y-140719558D01*
X163342857Y-140719558D02*
X163271428Y-140648129D01*
X163271428Y-140648129D02*
X163199999Y-140505272D01*
X163199999Y-140505272D02*
X163128571Y-140219558D01*
X163128571Y-140219558D02*
X163128571Y-139862415D01*
X163128571Y-139862415D02*
X163199999Y-139576700D01*
X163199999Y-139576700D02*
X163271428Y-139433843D01*
X163271428Y-139433843D02*
X163342857Y-139362415D01*
X163342857Y-139362415D02*
X163485714Y-139290986D01*
X164557142Y-139433843D02*
X164628570Y-139362415D01*
X164628570Y-139362415D02*
X164771428Y-139290986D01*
X164771428Y-139290986D02*
X165128570Y-139290986D01*
X165128570Y-139290986D02*
X165271428Y-139362415D01*
X165271428Y-139362415D02*
X165342856Y-139433843D01*
X165342856Y-139433843D02*
X165414285Y-139576700D01*
X165414285Y-139576700D02*
X165414285Y-139719558D01*
X165414285Y-139719558D02*
X165342856Y-139933843D01*
X165342856Y-139933843D02*
X164485713Y-140790986D01*
X164485713Y-140790986D02*
X165414285Y-140790986D01*
X166771427Y-139290986D02*
X166057141Y-139290986D01*
X166057141Y-139290986D02*
X165985713Y-140005272D01*
X165985713Y-140005272D02*
X166057141Y-139933843D01*
X166057141Y-139933843D02*
X166199999Y-139862415D01*
X166199999Y-139862415D02*
X166557141Y-139862415D01*
X166557141Y-139862415D02*
X166699999Y-139933843D01*
X166699999Y-139933843D02*
X166771427Y-140005272D01*
X166771427Y-140005272D02*
X166842856Y-140148129D01*
X166842856Y-140148129D02*
X166842856Y-140505272D01*
X166842856Y-140505272D02*
X166771427Y-140648129D01*
X166771427Y-140648129D02*
X166699999Y-140719558D01*
X166699999Y-140719558D02*
X166557141Y-140790986D01*
X166557141Y-140790986D02*
X166199999Y-140790986D01*
X166199999Y-140790986D02*
X166057141Y-140719558D01*
X166057141Y-140719558D02*
X165985713Y-140648129D01*
X168628569Y-140790986D02*
X168628569Y-139290986D01*
X168628569Y-139290986D02*
X168985712Y-139290986D01*
X168985712Y-139290986D02*
X169199998Y-139362415D01*
X169199998Y-139362415D02*
X169342855Y-139505272D01*
X169342855Y-139505272D02*
X169414284Y-139648129D01*
X169414284Y-139648129D02*
X169485712Y-139933843D01*
X169485712Y-139933843D02*
X169485712Y-140148129D01*
X169485712Y-140148129D02*
X169414284Y-140433843D01*
X169414284Y-140433843D02*
X169342855Y-140576700D01*
X169342855Y-140576700D02*
X169199998Y-140719558D01*
X169199998Y-140719558D02*
X168985712Y-140790986D01*
X168985712Y-140790986D02*
X168628569Y-140790986D01*
X170771427Y-140790986D02*
X170771427Y-140005272D01*
X170771427Y-140005272D02*
X170699998Y-139862415D01*
X170699998Y-139862415D02*
X170557141Y-139790986D01*
X170557141Y-139790986D02*
X170271427Y-139790986D01*
X170271427Y-139790986D02*
X170128569Y-139862415D01*
X170771427Y-140719558D02*
X170628569Y-140790986D01*
X170628569Y-140790986D02*
X170271427Y-140790986D01*
X170271427Y-140790986D02*
X170128569Y-140719558D01*
X170128569Y-140719558D02*
X170057141Y-140576700D01*
X170057141Y-140576700D02*
X170057141Y-140433843D01*
X170057141Y-140433843D02*
X170128569Y-140290986D01*
X170128569Y-140290986D02*
X170271427Y-140219558D01*
X170271427Y-140219558D02*
X170628569Y-140219558D01*
X170628569Y-140219558D02*
X170771427Y-140148129D01*
X171342855Y-139790986D02*
X171699998Y-140790986D01*
X171699998Y-140790986D02*
X172057141Y-139790986D01*
X173199998Y-140719558D02*
X173057141Y-140790986D01*
X173057141Y-140790986D02*
X172771427Y-140790986D01*
X172771427Y-140790986D02*
X172628569Y-140719558D01*
X172628569Y-140719558D02*
X172557141Y-140576700D01*
X172557141Y-140576700D02*
X172557141Y-140005272D01*
X172557141Y-140005272D02*
X172628569Y-139862415D01*
X172628569Y-139862415D02*
X172771427Y-139790986D01*
X172771427Y-139790986D02*
X173057141Y-139790986D01*
X173057141Y-139790986D02*
X173199998Y-139862415D01*
X173199998Y-139862415D02*
X173271427Y-140005272D01*
X173271427Y-140005272D02*
X173271427Y-140148129D01*
X173271427Y-140148129D02*
X172557141Y-140290986D01*
X175842855Y-139362415D02*
X175699998Y-139290986D01*
X175699998Y-139290986D02*
X175485712Y-139290986D01*
X175485712Y-139290986D02*
X175271426Y-139362415D01*
X175271426Y-139362415D02*
X175128569Y-139505272D01*
X175128569Y-139505272D02*
X175057140Y-139648129D01*
X175057140Y-139648129D02*
X174985712Y-139933843D01*
X174985712Y-139933843D02*
X174985712Y-140148129D01*
X174985712Y-140148129D02*
X175057140Y-140433843D01*
X175057140Y-140433843D02*
X175128569Y-140576700D01*
X175128569Y-140576700D02*
X175271426Y-140719558D01*
X175271426Y-140719558D02*
X175485712Y-140790986D01*
X175485712Y-140790986D02*
X175628569Y-140790986D01*
X175628569Y-140790986D02*
X175842855Y-140719558D01*
X175842855Y-140719558D02*
X175914283Y-140648129D01*
X175914283Y-140648129D02*
X175914283Y-140148129D01*
X175914283Y-140148129D02*
X175628569Y-140148129D01*
X177199998Y-140790986D02*
X177199998Y-140005272D01*
X177199998Y-140005272D02*
X177128569Y-139862415D01*
X177128569Y-139862415D02*
X176985712Y-139790986D01*
X176985712Y-139790986D02*
X176699998Y-139790986D01*
X176699998Y-139790986D02*
X176557140Y-139862415D01*
X177199998Y-140719558D02*
X177057140Y-140790986D01*
X177057140Y-140790986D02*
X176699998Y-140790986D01*
X176699998Y-140790986D02*
X176557140Y-140719558D01*
X176557140Y-140719558D02*
X176485712Y-140576700D01*
X176485712Y-140576700D02*
X176485712Y-140433843D01*
X176485712Y-140433843D02*
X176557140Y-140290986D01*
X176557140Y-140290986D02*
X176699998Y-140219558D01*
X176699998Y-140219558D02*
X177057140Y-140219558D01*
X177057140Y-140219558D02*
X177199998Y-140148129D01*
X178557141Y-139790986D02*
X178557141Y-140790986D01*
X177914283Y-139790986D02*
X177914283Y-140576700D01*
X177914283Y-140576700D02*
X177985712Y-140719558D01*
X177985712Y-140719558D02*
X178128569Y-140790986D01*
X178128569Y-140790986D02*
X178342855Y-140790986D01*
X178342855Y-140790986D02*
X178485712Y-140719558D01*
X178485712Y-140719558D02*
X178557141Y-140648129D01*
X179271426Y-139790986D02*
X179271426Y-140790986D01*
X179271426Y-139933843D02*
X179342855Y-139862415D01*
X179342855Y-139862415D02*
X179485712Y-139790986D01*
X179485712Y-139790986D02*
X179699998Y-139790986D01*
X179699998Y-139790986D02*
X179842855Y-139862415D01*
X179842855Y-139862415D02*
X179914284Y-140005272D01*
X179914284Y-140005272D02*
X179914284Y-140790986D01*
X180414284Y-139790986D02*
X180985712Y-139790986D01*
X180628569Y-139290986D02*
X180628569Y-140576700D01*
X180628569Y-140576700D02*
X180699998Y-140719558D01*
X180699998Y-140719558D02*
X180842855Y-140790986D01*
X180842855Y-140790986D02*
X180985712Y-140790986D01*
X181485712Y-140648129D02*
X181557141Y-140719558D01*
X181557141Y-140719558D02*
X181485712Y-140790986D01*
X181485712Y-140790986D02*
X181414284Y-140719558D01*
X181414284Y-140719558D02*
X181485712Y-140648129D01*
X181485712Y-140648129D02*
X181485712Y-140790986D01*
D10*
X192291791Y-121482295D02*
X192787029Y-121482295D01*
X192787029Y-121482295D02*
X192520363Y-121787057D01*
X192520363Y-121787057D02*
X192634648Y-121787057D01*
X192634648Y-121787057D02*
X192710839Y-121825152D01*
X192710839Y-121825152D02*
X192748934Y-121863247D01*
X192748934Y-121863247D02*
X192787029Y-121939438D01*
X192787029Y-121939438D02*
X192787029Y-122129914D01*
X192787029Y-122129914D02*
X192748934Y-122206104D01*
X192748934Y-122206104D02*
X192710839Y-122244200D01*
X192710839Y-122244200D02*
X192634648Y-122282295D01*
X192634648Y-122282295D02*
X192406077Y-122282295D01*
X192406077Y-122282295D02*
X192329886Y-122244200D01*
X192329886Y-122244200D02*
X192291791Y-122206104D01*
X193053696Y-121482295D02*
X193587030Y-121482295D01*
X193587030Y-121482295D02*
X193244172Y-122282295D01*
X182338095Y-125454819D02*
X182338095Y-126264342D01*
X182338095Y-126264342D02*
X182385714Y-126359580D01*
X182385714Y-126359580D02*
X182433333Y-126407200D01*
X182433333Y-126407200D02*
X182528571Y-126454819D01*
X182528571Y-126454819D02*
X182719047Y-126454819D01*
X182719047Y-126454819D02*
X182814285Y-126407200D01*
X182814285Y-126407200D02*
X182861904Y-126359580D01*
X182861904Y-126359580D02*
X182909523Y-126264342D01*
X182909523Y-126264342D02*
X182909523Y-125454819D01*
X183290476Y-125454819D02*
X183957142Y-125454819D01*
X183957142Y-125454819D02*
X183528571Y-126454819D01*
X184828571Y-120854819D02*
X184257143Y-120854819D01*
X184542857Y-120854819D02*
X184542857Y-119854819D01*
X184542857Y-119854819D02*
X184447619Y-119997676D01*
X184447619Y-119997676D02*
X184352381Y-120092914D01*
X184352381Y-120092914D02*
X184257143Y-120140533D01*
X185161905Y-120188152D02*
X185400000Y-120854819D01*
X185400000Y-120854819D02*
X185638095Y-120188152D01*
X186542857Y-120854819D02*
X185971429Y-120854819D01*
X186257143Y-120854819D02*
X186257143Y-119854819D01*
X186257143Y-119854819D02*
X186161905Y-119997676D01*
X186161905Y-119997676D02*
X186066667Y-120092914D01*
X186066667Y-120092914D02*
X185971429Y-120140533D01*
X160858095Y-113989819D02*
X160858095Y-114799342D01*
X160858095Y-114799342D02*
X160905714Y-114894580D01*
X160905714Y-114894580D02*
X160953333Y-114942200D01*
X160953333Y-114942200D02*
X161048571Y-114989819D01*
X161048571Y-114989819D02*
X161239047Y-114989819D01*
X161239047Y-114989819D02*
X161334285Y-114942200D01*
X161334285Y-114942200D02*
X161381904Y-114894580D01*
X161381904Y-114894580D02*
X161429523Y-114799342D01*
X161429523Y-114799342D02*
X161429523Y-113989819D01*
X162381904Y-113989819D02*
X161905714Y-113989819D01*
X161905714Y-113989819D02*
X161858095Y-114466009D01*
X161858095Y-114466009D02*
X161905714Y-114418390D01*
X161905714Y-114418390D02*
X162000952Y-114370771D01*
X162000952Y-114370771D02*
X162239047Y-114370771D01*
X162239047Y-114370771D02*
X162334285Y-114418390D01*
X162334285Y-114418390D02*
X162381904Y-114466009D01*
X162381904Y-114466009D02*
X162429523Y-114561247D01*
X162429523Y-114561247D02*
X162429523Y-114799342D01*
X162429523Y-114799342D02*
X162381904Y-114894580D01*
X162381904Y-114894580D02*
X162334285Y-114942200D01*
X162334285Y-114942200D02*
X162239047Y-114989819D01*
X162239047Y-114989819D02*
X162000952Y-114989819D01*
X162000952Y-114989819D02*
X161905714Y-114942200D01*
X161905714Y-114942200D02*
X161858095Y-114894580D01*
X150561905Y-95854819D02*
X150561905Y-94854819D01*
X150561905Y-94854819D02*
X150800000Y-94854819D01*
X150800000Y-94854819D02*
X150942857Y-94902438D01*
X150942857Y-94902438D02*
X151038095Y-94997676D01*
X151038095Y-94997676D02*
X151085714Y-95092914D01*
X151085714Y-95092914D02*
X151133333Y-95283390D01*
X151133333Y-95283390D02*
X151133333Y-95426247D01*
X151133333Y-95426247D02*
X151085714Y-95616723D01*
X151085714Y-95616723D02*
X151038095Y-95711961D01*
X151038095Y-95711961D02*
X150942857Y-95807200D01*
X150942857Y-95807200D02*
X150800000Y-95854819D01*
X150800000Y-95854819D02*
X150561905Y-95854819D01*
X152085714Y-95854819D02*
X151514286Y-95854819D01*
X151800000Y-95854819D02*
X151800000Y-94854819D01*
X151800000Y-94854819D02*
X151704762Y-94997676D01*
X151704762Y-94997676D02*
X151609524Y-95092914D01*
X151609524Y-95092914D02*
X151514286Y-95140533D01*
X197744819Y-88999047D02*
X197744819Y-89570475D01*
X197744819Y-89284761D02*
X196744819Y-89284761D01*
X196744819Y-89284761D02*
X196887676Y-89379999D01*
X196887676Y-89379999D02*
X196982914Y-89475237D01*
X196982914Y-89475237D02*
X197030533Y-89570475D01*
X197744819Y-88570475D02*
X196744819Y-88570475D01*
X197363866Y-88475237D02*
X197744819Y-88189523D01*
X197078152Y-88189523D02*
X197459104Y-88570475D01*
X159042857Y-145187200D02*
X159185714Y-145234819D01*
X159185714Y-145234819D02*
X159423809Y-145234819D01*
X159423809Y-145234819D02*
X159519047Y-145187200D01*
X159519047Y-145187200D02*
X159566666Y-145139580D01*
X159566666Y-145139580D02*
X159614285Y-145044342D01*
X159614285Y-145044342D02*
X159614285Y-144949104D01*
X159614285Y-144949104D02*
X159566666Y-144853866D01*
X159566666Y-144853866D02*
X159519047Y-144806247D01*
X159519047Y-144806247D02*
X159423809Y-144758628D01*
X159423809Y-144758628D02*
X159233333Y-144711009D01*
X159233333Y-144711009D02*
X159138095Y-144663390D01*
X159138095Y-144663390D02*
X159090476Y-144615771D01*
X159090476Y-144615771D02*
X159042857Y-144520533D01*
X159042857Y-144520533D02*
X159042857Y-144425295D01*
X159042857Y-144425295D02*
X159090476Y-144330057D01*
X159090476Y-144330057D02*
X159138095Y-144282438D01*
X159138095Y-144282438D02*
X159233333Y-144234819D01*
X159233333Y-144234819D02*
X159471428Y-144234819D01*
X159471428Y-144234819D02*
X159614285Y-144282438D01*
X159947619Y-144234819D02*
X160185714Y-145234819D01*
X160185714Y-145234819D02*
X160376190Y-144520533D01*
X160376190Y-144520533D02*
X160566666Y-145234819D01*
X160566666Y-145234819D02*
X160804762Y-144234819D01*
X161185714Y-145234819D02*
X161185714Y-144234819D01*
X161185714Y-144234819D02*
X161423809Y-144234819D01*
X161423809Y-144234819D02*
X161566666Y-144282438D01*
X161566666Y-144282438D02*
X161661904Y-144377676D01*
X161661904Y-144377676D02*
X161709523Y-144472914D01*
X161709523Y-144472914D02*
X161757142Y-144663390D01*
X161757142Y-144663390D02*
X161757142Y-144806247D01*
X161757142Y-144806247D02*
X161709523Y-144996723D01*
X161709523Y-144996723D02*
X161661904Y-145091961D01*
X161661904Y-145091961D02*
X161566666Y-145187200D01*
X161566666Y-145187200D02*
X161423809Y-145234819D01*
X161423809Y-145234819D02*
X161185714Y-145234819D01*
X171208152Y-111146904D02*
X171874819Y-111146904D01*
X170827200Y-111384999D02*
X171541485Y-111623094D01*
X171541485Y-111623094D02*
X171541485Y-111004047D01*
X171779580Y-110623094D02*
X171827200Y-110575475D01*
X171827200Y-110575475D02*
X171874819Y-110623094D01*
X171874819Y-110623094D02*
X171827200Y-110670713D01*
X171827200Y-110670713D02*
X171779580Y-110623094D01*
X171779580Y-110623094D02*
X171874819Y-110623094D01*
X170874819Y-110242142D02*
X170874819Y-109575476D01*
X170874819Y-109575476D02*
X171874819Y-110004047D01*
X171208152Y-108765952D02*
X171874819Y-108765952D01*
X171208152Y-109194523D02*
X171731961Y-109194523D01*
X171731961Y-109194523D02*
X171827200Y-109146904D01*
X171827200Y-109146904D02*
X171874819Y-109051666D01*
X171874819Y-109051666D02*
X171874819Y-108908809D01*
X171874819Y-108908809D02*
X171827200Y-108813571D01*
X171827200Y-108813571D02*
X171779580Y-108765952D01*
X171208152Y-108432618D02*
X171208152Y-108051666D01*
X171874819Y-108289761D02*
X171017676Y-108289761D01*
X171017676Y-108289761D02*
X170922438Y-108242142D01*
X170922438Y-108242142D02*
X170874819Y-108146904D01*
X170874819Y-108146904D02*
X170874819Y-108051666D01*
X174757142Y-93254819D02*
X174423809Y-92778628D01*
X174185714Y-93254819D02*
X174185714Y-92254819D01*
X174185714Y-92254819D02*
X174566666Y-92254819D01*
X174566666Y-92254819D02*
X174661904Y-92302438D01*
X174661904Y-92302438D02*
X174709523Y-92350057D01*
X174709523Y-92350057D02*
X174757142Y-92445295D01*
X174757142Y-92445295D02*
X174757142Y-92588152D01*
X174757142Y-92588152D02*
X174709523Y-92683390D01*
X174709523Y-92683390D02*
X174661904Y-92731009D01*
X174661904Y-92731009D02*
X174566666Y-92778628D01*
X174566666Y-92778628D02*
X174185714Y-92778628D01*
X175709523Y-93254819D02*
X175138095Y-93254819D01*
X175423809Y-93254819D02*
X175423809Y-92254819D01*
X175423809Y-92254819D02*
X175328571Y-92397676D01*
X175328571Y-92397676D02*
X175233333Y-92492914D01*
X175233333Y-92492914D02*
X175138095Y-92540533D01*
X176185714Y-93254819D02*
X176376190Y-93254819D01*
X176376190Y-93254819D02*
X176471428Y-93207200D01*
X176471428Y-93207200D02*
X176519047Y-93159580D01*
X176519047Y-93159580D02*
X176614285Y-93016723D01*
X176614285Y-93016723D02*
X176661904Y-92826247D01*
X176661904Y-92826247D02*
X176661904Y-92445295D01*
X176661904Y-92445295D02*
X176614285Y-92350057D01*
X176614285Y-92350057D02*
X176566666Y-92302438D01*
X176566666Y-92302438D02*
X176471428Y-92254819D01*
X176471428Y-92254819D02*
X176280952Y-92254819D01*
X176280952Y-92254819D02*
X176185714Y-92302438D01*
X176185714Y-92302438D02*
X176138095Y-92350057D01*
X176138095Y-92350057D02*
X176090476Y-92445295D01*
X176090476Y-92445295D02*
X176090476Y-92683390D01*
X176090476Y-92683390D02*
X176138095Y-92778628D01*
X176138095Y-92778628D02*
X176185714Y-92826247D01*
X176185714Y-92826247D02*
X176280952Y-92873866D01*
X176280952Y-92873866D02*
X176471428Y-92873866D01*
X176471428Y-92873866D02*
X176566666Y-92826247D01*
X176566666Y-92826247D02*
X176614285Y-92778628D01*
X176614285Y-92778628D02*
X176661904Y-92683390D01*
X159909523Y-130054819D02*
X159338095Y-130054819D01*
X159623809Y-130054819D02*
X159623809Y-129054819D01*
X159623809Y-129054819D02*
X159528571Y-129197676D01*
X159528571Y-129197676D02*
X159433333Y-129292914D01*
X159433333Y-129292914D02*
X159338095Y-129340533D01*
X160290476Y-129150057D02*
X160338095Y-129102438D01*
X160338095Y-129102438D02*
X160433333Y-129054819D01*
X160433333Y-129054819D02*
X160671428Y-129054819D01*
X160671428Y-129054819D02*
X160766666Y-129102438D01*
X160766666Y-129102438D02*
X160814285Y-129150057D01*
X160814285Y-129150057D02*
X160861904Y-129245295D01*
X160861904Y-129245295D02*
X160861904Y-129340533D01*
X160861904Y-129340533D02*
X160814285Y-129483390D01*
X160814285Y-129483390D02*
X160242857Y-130054819D01*
X160242857Y-130054819D02*
X160861904Y-130054819D01*
X161290476Y-130054819D02*
X161290476Y-129054819D01*
X161290476Y-129054819D02*
X161623809Y-129769104D01*
X161623809Y-129769104D02*
X161957142Y-129054819D01*
X161957142Y-129054819D02*
X161957142Y-130054819D01*
X162433333Y-130054819D02*
X162433333Y-129054819D01*
X162433333Y-129531009D02*
X163004761Y-129531009D01*
X163004761Y-130054819D02*
X163004761Y-129054819D01*
X163385714Y-129388152D02*
X163909523Y-129388152D01*
X163909523Y-129388152D02*
X163385714Y-130054819D01*
X163385714Y-130054819D02*
X163909523Y-130054819D01*
X178789580Y-102991666D02*
X178837200Y-103039285D01*
X178837200Y-103039285D02*
X178884819Y-103182142D01*
X178884819Y-103182142D02*
X178884819Y-103277380D01*
X178884819Y-103277380D02*
X178837200Y-103420237D01*
X178837200Y-103420237D02*
X178741961Y-103515475D01*
X178741961Y-103515475D02*
X178646723Y-103563094D01*
X178646723Y-103563094D02*
X178456247Y-103610713D01*
X178456247Y-103610713D02*
X178313390Y-103610713D01*
X178313390Y-103610713D02*
X178122914Y-103563094D01*
X178122914Y-103563094D02*
X178027676Y-103515475D01*
X178027676Y-103515475D02*
X177932438Y-103420237D01*
X177932438Y-103420237D02*
X177884819Y-103277380D01*
X177884819Y-103277380D02*
X177884819Y-103182142D01*
X177884819Y-103182142D02*
X177932438Y-103039285D01*
X177932438Y-103039285D02*
X177980057Y-102991666D01*
X178884819Y-102515475D02*
X178884819Y-102324999D01*
X178884819Y-102324999D02*
X178837200Y-102229761D01*
X178837200Y-102229761D02*
X178789580Y-102182142D01*
X178789580Y-102182142D02*
X178646723Y-102086904D01*
X178646723Y-102086904D02*
X178456247Y-102039285D01*
X178456247Y-102039285D02*
X178075295Y-102039285D01*
X178075295Y-102039285D02*
X177980057Y-102086904D01*
X177980057Y-102086904D02*
X177932438Y-102134523D01*
X177932438Y-102134523D02*
X177884819Y-102229761D01*
X177884819Y-102229761D02*
X177884819Y-102420237D01*
X177884819Y-102420237D02*
X177932438Y-102515475D01*
X177932438Y-102515475D02*
X177980057Y-102563094D01*
X177980057Y-102563094D02*
X178075295Y-102610713D01*
X178075295Y-102610713D02*
X178313390Y-102610713D01*
X178313390Y-102610713D02*
X178408628Y-102563094D01*
X178408628Y-102563094D02*
X178456247Y-102515475D01*
X178456247Y-102515475D02*
X178503866Y-102420237D01*
X178503866Y-102420237D02*
X178503866Y-102229761D01*
X178503866Y-102229761D02*
X178456247Y-102134523D01*
X178456247Y-102134523D02*
X178408628Y-102086904D01*
X178408628Y-102086904D02*
X178313390Y-102039285D01*
X176038095Y-95954819D02*
X176038095Y-96764342D01*
X176038095Y-96764342D02*
X176085714Y-96859580D01*
X176085714Y-96859580D02*
X176133333Y-96907200D01*
X176133333Y-96907200D02*
X176228571Y-96954819D01*
X176228571Y-96954819D02*
X176419047Y-96954819D01*
X176419047Y-96954819D02*
X176514285Y-96907200D01*
X176514285Y-96907200D02*
X176561904Y-96859580D01*
X176561904Y-96859580D02*
X176609523Y-96764342D01*
X176609523Y-96764342D02*
X176609523Y-95954819D01*
X177038095Y-96050057D02*
X177085714Y-96002438D01*
X177085714Y-96002438D02*
X177180952Y-95954819D01*
X177180952Y-95954819D02*
X177419047Y-95954819D01*
X177419047Y-95954819D02*
X177514285Y-96002438D01*
X177514285Y-96002438D02*
X177561904Y-96050057D01*
X177561904Y-96050057D02*
X177609523Y-96145295D01*
X177609523Y-96145295D02*
X177609523Y-96240533D01*
X177609523Y-96240533D02*
X177561904Y-96383390D01*
X177561904Y-96383390D02*
X176990476Y-96954819D01*
X176990476Y-96954819D02*
X177609523Y-96954819D01*
X173538095Y-112650057D02*
X173585714Y-112602438D01*
X173585714Y-112602438D02*
X173680952Y-112554819D01*
X173680952Y-112554819D02*
X173919047Y-112554819D01*
X173919047Y-112554819D02*
X174014285Y-112602438D01*
X174014285Y-112602438D02*
X174061904Y-112650057D01*
X174061904Y-112650057D02*
X174109523Y-112745295D01*
X174109523Y-112745295D02*
X174109523Y-112840533D01*
X174109523Y-112840533D02*
X174061904Y-112983390D01*
X174061904Y-112983390D02*
X173490476Y-113554819D01*
X173490476Y-113554819D02*
X174109523Y-113554819D01*
X174442857Y-112554819D02*
X175109523Y-112554819D01*
X175109523Y-112554819D02*
X174680952Y-113554819D01*
X168405952Y-130454819D02*
X167834524Y-130454819D01*
X168120238Y-130454819D02*
X168120238Y-129454819D01*
X168120238Y-129454819D02*
X168025000Y-129597676D01*
X168025000Y-129597676D02*
X167929762Y-129692914D01*
X167929762Y-129692914D02*
X167834524Y-129740533D01*
X168834524Y-130454819D02*
X168834524Y-129454819D01*
X168929762Y-130073866D02*
X169215476Y-130454819D01*
X169215476Y-129788152D02*
X168834524Y-130169104D01*
X185224642Y-141009580D02*
X185177023Y-141057200D01*
X185177023Y-141057200D02*
X185034166Y-141104819D01*
X185034166Y-141104819D02*
X184938928Y-141104819D01*
X184938928Y-141104819D02*
X184796071Y-141057200D01*
X184796071Y-141057200D02*
X184700833Y-140961961D01*
X184700833Y-140961961D02*
X184653214Y-140866723D01*
X184653214Y-140866723D02*
X184605595Y-140676247D01*
X184605595Y-140676247D02*
X184605595Y-140533390D01*
X184605595Y-140533390D02*
X184653214Y-140342914D01*
X184653214Y-140342914D02*
X184700833Y-140247676D01*
X184700833Y-140247676D02*
X184796071Y-140152438D01*
X184796071Y-140152438D02*
X184938928Y-140104819D01*
X184938928Y-140104819D02*
X185034166Y-140104819D01*
X185034166Y-140104819D02*
X185177023Y-140152438D01*
X185177023Y-140152438D02*
X185224642Y-140200057D01*
X186177023Y-141104819D02*
X185605595Y-141104819D01*
X185891309Y-141104819D02*
X185891309Y-140104819D01*
X185891309Y-140104819D02*
X185796071Y-140247676D01*
X185796071Y-140247676D02*
X185700833Y-140342914D01*
X185700833Y-140342914D02*
X185605595Y-140390533D01*
X186557976Y-140200057D02*
X186605595Y-140152438D01*
X186605595Y-140152438D02*
X186700833Y-140104819D01*
X186700833Y-140104819D02*
X186938928Y-140104819D01*
X186938928Y-140104819D02*
X187034166Y-140152438D01*
X187034166Y-140152438D02*
X187081785Y-140200057D01*
X187081785Y-140200057D02*
X187129404Y-140295295D01*
X187129404Y-140295295D02*
X187129404Y-140390533D01*
X187129404Y-140390533D02*
X187081785Y-140533390D01*
X187081785Y-140533390D02*
X186510357Y-141104819D01*
X186510357Y-141104819D02*
X187129404Y-141104819D01*
X148836191Y-114707200D02*
X148979048Y-114754819D01*
X148979048Y-114754819D02*
X149217143Y-114754819D01*
X149217143Y-114754819D02*
X149312381Y-114707200D01*
X149312381Y-114707200D02*
X149360000Y-114659580D01*
X149360000Y-114659580D02*
X149407619Y-114564342D01*
X149407619Y-114564342D02*
X149407619Y-114469104D01*
X149407619Y-114469104D02*
X149360000Y-114373866D01*
X149360000Y-114373866D02*
X149312381Y-114326247D01*
X149312381Y-114326247D02*
X149217143Y-114278628D01*
X149217143Y-114278628D02*
X149026667Y-114231009D01*
X149026667Y-114231009D02*
X148931429Y-114183390D01*
X148931429Y-114183390D02*
X148883810Y-114135771D01*
X148883810Y-114135771D02*
X148836191Y-114040533D01*
X148836191Y-114040533D02*
X148836191Y-113945295D01*
X148836191Y-113945295D02*
X148883810Y-113850057D01*
X148883810Y-113850057D02*
X148931429Y-113802438D01*
X148931429Y-113802438D02*
X149026667Y-113754819D01*
X149026667Y-113754819D02*
X149264762Y-113754819D01*
X149264762Y-113754819D02*
X149407619Y-113802438D01*
X149836191Y-114754819D02*
X149836191Y-113754819D01*
X149836191Y-113754819D02*
X150217143Y-113754819D01*
X150217143Y-113754819D02*
X150312381Y-113802438D01*
X150312381Y-113802438D02*
X150360000Y-113850057D01*
X150360000Y-113850057D02*
X150407619Y-113945295D01*
X150407619Y-113945295D02*
X150407619Y-114088152D01*
X150407619Y-114088152D02*
X150360000Y-114183390D01*
X150360000Y-114183390D02*
X150312381Y-114231009D01*
X150312381Y-114231009D02*
X150217143Y-114278628D01*
X150217143Y-114278628D02*
X149836191Y-114278628D01*
X150836191Y-114754819D02*
X150836191Y-113754819D01*
X141933333Y-93259580D02*
X141885714Y-93307200D01*
X141885714Y-93307200D02*
X141742857Y-93354819D01*
X141742857Y-93354819D02*
X141647619Y-93354819D01*
X141647619Y-93354819D02*
X141504762Y-93307200D01*
X141504762Y-93307200D02*
X141409524Y-93211961D01*
X141409524Y-93211961D02*
X141361905Y-93116723D01*
X141361905Y-93116723D02*
X141314286Y-92926247D01*
X141314286Y-92926247D02*
X141314286Y-92783390D01*
X141314286Y-92783390D02*
X141361905Y-92592914D01*
X141361905Y-92592914D02*
X141409524Y-92497676D01*
X141409524Y-92497676D02*
X141504762Y-92402438D01*
X141504762Y-92402438D02*
X141647619Y-92354819D01*
X141647619Y-92354819D02*
X141742857Y-92354819D01*
X141742857Y-92354819D02*
X141885714Y-92402438D01*
X141885714Y-92402438D02*
X141933333Y-92450057D01*
X142885714Y-93354819D02*
X142314286Y-93354819D01*
X142600000Y-93354819D02*
X142600000Y-92354819D01*
X142600000Y-92354819D02*
X142504762Y-92497676D01*
X142504762Y-92497676D02*
X142409524Y-92592914D01*
X142409524Y-92592914D02*
X142314286Y-92640533D01*
X146714286Y-88973866D02*
X147476191Y-88973866D01*
X147095238Y-89354819D02*
X147095238Y-88592914D01*
X148428571Y-88354819D02*
X147952381Y-88354819D01*
X147952381Y-88354819D02*
X147904762Y-88831009D01*
X147904762Y-88831009D02*
X147952381Y-88783390D01*
X147952381Y-88783390D02*
X148047619Y-88735771D01*
X148047619Y-88735771D02*
X148285714Y-88735771D01*
X148285714Y-88735771D02*
X148380952Y-88783390D01*
X148380952Y-88783390D02*
X148428571Y-88831009D01*
X148428571Y-88831009D02*
X148476190Y-88926247D01*
X148476190Y-88926247D02*
X148476190Y-89164342D01*
X148476190Y-89164342D02*
X148428571Y-89259580D01*
X148428571Y-89259580D02*
X148380952Y-89307200D01*
X148380952Y-89307200D02*
X148285714Y-89354819D01*
X148285714Y-89354819D02*
X148047619Y-89354819D01*
X148047619Y-89354819D02*
X147952381Y-89307200D01*
X147952381Y-89307200D02*
X147904762Y-89259580D01*
X148761905Y-88354819D02*
X149095238Y-89354819D01*
X149095238Y-89354819D02*
X149428571Y-88354819D01*
X161838095Y-94654819D02*
X161838095Y-95464342D01*
X161838095Y-95464342D02*
X161885714Y-95559580D01*
X161885714Y-95559580D02*
X161933333Y-95607200D01*
X161933333Y-95607200D02*
X162028571Y-95654819D01*
X162028571Y-95654819D02*
X162219047Y-95654819D01*
X162219047Y-95654819D02*
X162314285Y-95607200D01*
X162314285Y-95607200D02*
X162361904Y-95559580D01*
X162361904Y-95559580D02*
X162409523Y-95464342D01*
X162409523Y-95464342D02*
X162409523Y-94654819D01*
X163409523Y-95654819D02*
X162838095Y-95654819D01*
X163123809Y-95654819D02*
X163123809Y-94654819D01*
X163123809Y-94654819D02*
X163028571Y-94797676D01*
X163028571Y-94797676D02*
X162933333Y-94892914D01*
X162933333Y-94892914D02*
X162838095Y-94940533D01*
X160509524Y-102754819D02*
X161128571Y-102754819D01*
X161128571Y-102754819D02*
X160795238Y-103135771D01*
X160795238Y-103135771D02*
X160938095Y-103135771D01*
X160938095Y-103135771D02*
X161033333Y-103183390D01*
X161033333Y-103183390D02*
X161080952Y-103231009D01*
X161080952Y-103231009D02*
X161128571Y-103326247D01*
X161128571Y-103326247D02*
X161128571Y-103564342D01*
X161128571Y-103564342D02*
X161080952Y-103659580D01*
X161080952Y-103659580D02*
X161033333Y-103707200D01*
X161033333Y-103707200D02*
X160938095Y-103754819D01*
X160938095Y-103754819D02*
X160652381Y-103754819D01*
X160652381Y-103754819D02*
X160557143Y-103707200D01*
X160557143Y-103707200D02*
X160509524Y-103659580D01*
X161461905Y-103088152D02*
X161700000Y-103754819D01*
X161700000Y-103754819D02*
X161938095Y-103088152D01*
X162223810Y-102754819D02*
X162842857Y-102754819D01*
X162842857Y-102754819D02*
X162509524Y-103135771D01*
X162509524Y-103135771D02*
X162652381Y-103135771D01*
X162652381Y-103135771D02*
X162747619Y-103183390D01*
X162747619Y-103183390D02*
X162795238Y-103231009D01*
X162795238Y-103231009D02*
X162842857Y-103326247D01*
X162842857Y-103326247D02*
X162842857Y-103564342D01*
X162842857Y-103564342D02*
X162795238Y-103659580D01*
X162795238Y-103659580D02*
X162747619Y-103707200D01*
X162747619Y-103707200D02*
X162652381Y-103754819D01*
X162652381Y-103754819D02*
X162366667Y-103754819D01*
X162366667Y-103754819D02*
X162271429Y-103707200D01*
X162271429Y-103707200D02*
X162223810Y-103659580D01*
X185212142Y-115489580D02*
X185164523Y-115537200D01*
X185164523Y-115537200D02*
X185021666Y-115584819D01*
X185021666Y-115584819D02*
X184926428Y-115584819D01*
X184926428Y-115584819D02*
X184783571Y-115537200D01*
X184783571Y-115537200D02*
X184688333Y-115441961D01*
X184688333Y-115441961D02*
X184640714Y-115346723D01*
X184640714Y-115346723D02*
X184593095Y-115156247D01*
X184593095Y-115156247D02*
X184593095Y-115013390D01*
X184593095Y-115013390D02*
X184640714Y-114822914D01*
X184640714Y-114822914D02*
X184688333Y-114727676D01*
X184688333Y-114727676D02*
X184783571Y-114632438D01*
X184783571Y-114632438D02*
X184926428Y-114584819D01*
X184926428Y-114584819D02*
X185021666Y-114584819D01*
X185021666Y-114584819D02*
X185164523Y-114632438D01*
X185164523Y-114632438D02*
X185212142Y-114680057D01*
X186164523Y-115584819D02*
X185593095Y-115584819D01*
X185878809Y-115584819D02*
X185878809Y-114584819D01*
X185878809Y-114584819D02*
X185783571Y-114727676D01*
X185783571Y-114727676D02*
X185688333Y-114822914D01*
X185688333Y-114822914D02*
X185593095Y-114870533D01*
X186497857Y-114584819D02*
X187116904Y-114584819D01*
X187116904Y-114584819D02*
X186783571Y-114965771D01*
X186783571Y-114965771D02*
X186926428Y-114965771D01*
X186926428Y-114965771D02*
X187021666Y-115013390D01*
X187021666Y-115013390D02*
X187069285Y-115061009D01*
X187069285Y-115061009D02*
X187116904Y-115156247D01*
X187116904Y-115156247D02*
X187116904Y-115394342D01*
X187116904Y-115394342D02*
X187069285Y-115489580D01*
X187069285Y-115489580D02*
X187021666Y-115537200D01*
X187021666Y-115537200D02*
X186926428Y-115584819D01*
X186926428Y-115584819D02*
X186640714Y-115584819D01*
X186640714Y-115584819D02*
X186545476Y-115537200D01*
X186545476Y-115537200D02*
X186497857Y-115489580D01*
X141161905Y-101954819D02*
X141161905Y-102764342D01*
X141161905Y-102764342D02*
X141209524Y-102859580D01*
X141209524Y-102859580D02*
X141257143Y-102907200D01*
X141257143Y-102907200D02*
X141352381Y-102954819D01*
X141352381Y-102954819D02*
X141542857Y-102954819D01*
X141542857Y-102954819D02*
X141638095Y-102907200D01*
X141638095Y-102907200D02*
X141685714Y-102859580D01*
X141685714Y-102859580D02*
X141733333Y-102764342D01*
X141733333Y-102764342D02*
X141733333Y-101954819D01*
X142733333Y-102954819D02*
X142161905Y-102954819D01*
X142447619Y-102954819D02*
X142447619Y-101954819D01*
X142447619Y-101954819D02*
X142352381Y-102097676D01*
X142352381Y-102097676D02*
X142257143Y-102192914D01*
X142257143Y-102192914D02*
X142161905Y-102240533D01*
X143066667Y-101954819D02*
X143685714Y-101954819D01*
X143685714Y-101954819D02*
X143352381Y-102335771D01*
X143352381Y-102335771D02*
X143495238Y-102335771D01*
X143495238Y-102335771D02*
X143590476Y-102383390D01*
X143590476Y-102383390D02*
X143638095Y-102431009D01*
X143638095Y-102431009D02*
X143685714Y-102526247D01*
X143685714Y-102526247D02*
X143685714Y-102764342D01*
X143685714Y-102764342D02*
X143638095Y-102859580D01*
X143638095Y-102859580D02*
X143590476Y-102907200D01*
X143590476Y-102907200D02*
X143495238Y-102954819D01*
X143495238Y-102954819D02*
X143209524Y-102954819D01*
X143209524Y-102954819D02*
X143114286Y-102907200D01*
X143114286Y-102907200D02*
X143066667Y-102859580D01*
X178543571Y-93831009D02*
X178686428Y-93878628D01*
X178686428Y-93878628D02*
X178734047Y-93926247D01*
X178734047Y-93926247D02*
X178781666Y-94021485D01*
X178781666Y-94021485D02*
X178781666Y-94164342D01*
X178781666Y-94164342D02*
X178734047Y-94259580D01*
X178734047Y-94259580D02*
X178686428Y-94307200D01*
X178686428Y-94307200D02*
X178591190Y-94354819D01*
X178591190Y-94354819D02*
X178210238Y-94354819D01*
X178210238Y-94354819D02*
X178210238Y-93354819D01*
X178210238Y-93354819D02*
X178543571Y-93354819D01*
X178543571Y-93354819D02*
X178638809Y-93402438D01*
X178638809Y-93402438D02*
X178686428Y-93450057D01*
X178686428Y-93450057D02*
X178734047Y-93545295D01*
X178734047Y-93545295D02*
X178734047Y-93640533D01*
X178734047Y-93640533D02*
X178686428Y-93735771D01*
X178686428Y-93735771D02*
X178638809Y-93783390D01*
X178638809Y-93783390D02*
X178543571Y-93831009D01*
X178543571Y-93831009D02*
X178210238Y-93831009D01*
X179400714Y-93354819D02*
X179591190Y-93354819D01*
X179591190Y-93354819D02*
X179686428Y-93402438D01*
X179686428Y-93402438D02*
X179781666Y-93497676D01*
X179781666Y-93497676D02*
X179829285Y-93688152D01*
X179829285Y-93688152D02*
X179829285Y-94021485D01*
X179829285Y-94021485D02*
X179781666Y-94211961D01*
X179781666Y-94211961D02*
X179686428Y-94307200D01*
X179686428Y-94307200D02*
X179591190Y-94354819D01*
X179591190Y-94354819D02*
X179400714Y-94354819D01*
X179400714Y-94354819D02*
X179305476Y-94307200D01*
X179305476Y-94307200D02*
X179210238Y-94211961D01*
X179210238Y-94211961D02*
X179162619Y-94021485D01*
X179162619Y-94021485D02*
X179162619Y-93688152D01*
X179162619Y-93688152D02*
X179210238Y-93497676D01*
X179210238Y-93497676D02*
X179305476Y-93402438D01*
X179305476Y-93402438D02*
X179400714Y-93354819D01*
X180448333Y-93354819D02*
X180638809Y-93354819D01*
X180638809Y-93354819D02*
X180734047Y-93402438D01*
X180734047Y-93402438D02*
X180829285Y-93497676D01*
X180829285Y-93497676D02*
X180876904Y-93688152D01*
X180876904Y-93688152D02*
X180876904Y-94021485D01*
X180876904Y-94021485D02*
X180829285Y-94211961D01*
X180829285Y-94211961D02*
X180734047Y-94307200D01*
X180734047Y-94307200D02*
X180638809Y-94354819D01*
X180638809Y-94354819D02*
X180448333Y-94354819D01*
X180448333Y-94354819D02*
X180353095Y-94307200D01*
X180353095Y-94307200D02*
X180257857Y-94211961D01*
X180257857Y-94211961D02*
X180210238Y-94021485D01*
X180210238Y-94021485D02*
X180210238Y-93688152D01*
X180210238Y-93688152D02*
X180257857Y-93497676D01*
X180257857Y-93497676D02*
X180353095Y-93402438D01*
X180353095Y-93402438D02*
X180448333Y-93354819D01*
X181162619Y-93354819D02*
X181734047Y-93354819D01*
X181448333Y-94354819D02*
X181448333Y-93354819D01*
X182781667Y-94307200D02*
X182924524Y-94354819D01*
X182924524Y-94354819D02*
X183162619Y-94354819D01*
X183162619Y-94354819D02*
X183257857Y-94307200D01*
X183257857Y-94307200D02*
X183305476Y-94259580D01*
X183305476Y-94259580D02*
X183353095Y-94164342D01*
X183353095Y-94164342D02*
X183353095Y-94069104D01*
X183353095Y-94069104D02*
X183305476Y-93973866D01*
X183305476Y-93973866D02*
X183257857Y-93926247D01*
X183257857Y-93926247D02*
X183162619Y-93878628D01*
X183162619Y-93878628D02*
X182972143Y-93831009D01*
X182972143Y-93831009D02*
X182876905Y-93783390D01*
X182876905Y-93783390D02*
X182829286Y-93735771D01*
X182829286Y-93735771D02*
X182781667Y-93640533D01*
X182781667Y-93640533D02*
X182781667Y-93545295D01*
X182781667Y-93545295D02*
X182829286Y-93450057D01*
X182829286Y-93450057D02*
X182876905Y-93402438D01*
X182876905Y-93402438D02*
X182972143Y-93354819D01*
X182972143Y-93354819D02*
X183210238Y-93354819D01*
X183210238Y-93354819D02*
X183353095Y-93402438D01*
X183781667Y-93831009D02*
X184115000Y-93831009D01*
X184257857Y-94354819D02*
X183781667Y-94354819D01*
X183781667Y-94354819D02*
X183781667Y-93354819D01*
X183781667Y-93354819D02*
X184257857Y-93354819D01*
X185162619Y-94354819D02*
X184686429Y-94354819D01*
X184686429Y-94354819D02*
X184686429Y-93354819D01*
X188561905Y-138254819D02*
X188561905Y-139064342D01*
X188561905Y-139064342D02*
X188609524Y-139159580D01*
X188609524Y-139159580D02*
X188657143Y-139207200D01*
X188657143Y-139207200D02*
X188752381Y-139254819D01*
X188752381Y-139254819D02*
X188942857Y-139254819D01*
X188942857Y-139254819D02*
X189038095Y-139207200D01*
X189038095Y-139207200D02*
X189085714Y-139159580D01*
X189085714Y-139159580D02*
X189133333Y-139064342D01*
X189133333Y-139064342D02*
X189133333Y-138254819D01*
X190133333Y-139254819D02*
X189561905Y-139254819D01*
X189847619Y-139254819D02*
X189847619Y-138254819D01*
X189847619Y-138254819D02*
X189752381Y-138397676D01*
X189752381Y-138397676D02*
X189657143Y-138492914D01*
X189657143Y-138492914D02*
X189561905Y-138540533D01*
X191085714Y-139254819D02*
X190514286Y-139254819D01*
X190800000Y-139254819D02*
X190800000Y-138254819D01*
X190800000Y-138254819D02*
X190704762Y-138397676D01*
X190704762Y-138397676D02*
X190609524Y-138492914D01*
X190609524Y-138492914D02*
X190514286Y-138540533D01*
X178917802Y-124649404D02*
X179584469Y-124649404D01*
X178536850Y-124887499D02*
X179251135Y-125125594D01*
X179251135Y-125125594D02*
X179251135Y-124506547D01*
X179489230Y-124125594D02*
X179536850Y-124077975D01*
X179536850Y-124077975D02*
X179584469Y-124125594D01*
X179584469Y-124125594D02*
X179536850Y-124173213D01*
X179536850Y-124173213D02*
X179489230Y-124125594D01*
X179489230Y-124125594D02*
X179584469Y-124125594D01*
X178584469Y-123744642D02*
X178584469Y-123077976D01*
X178584469Y-123077976D02*
X179584469Y-123506547D01*
X178917802Y-122268452D02*
X179584469Y-122268452D01*
X178917802Y-122697023D02*
X179441611Y-122697023D01*
X179441611Y-122697023D02*
X179536850Y-122649404D01*
X179536850Y-122649404D02*
X179584469Y-122554166D01*
X179584469Y-122554166D02*
X179584469Y-122411309D01*
X179584469Y-122411309D02*
X179536850Y-122316071D01*
X179536850Y-122316071D02*
X179489230Y-122268452D01*
X178917802Y-121935118D02*
X178917802Y-121554166D01*
X179584469Y-121792261D02*
X178727326Y-121792261D01*
X178727326Y-121792261D02*
X178632088Y-121744642D01*
X178632088Y-121744642D02*
X178584469Y-121649404D01*
X178584469Y-121649404D02*
X178584469Y-121554166D01*
X146242142Y-126426406D02*
X146194523Y-126474026D01*
X146194523Y-126474026D02*
X146051666Y-126521645D01*
X146051666Y-126521645D02*
X145956428Y-126521645D01*
X145956428Y-126521645D02*
X145813571Y-126474026D01*
X145813571Y-126474026D02*
X145718333Y-126378787D01*
X145718333Y-126378787D02*
X145670714Y-126283549D01*
X145670714Y-126283549D02*
X145623095Y-126093073D01*
X145623095Y-126093073D02*
X145623095Y-125950216D01*
X145623095Y-125950216D02*
X145670714Y-125759740D01*
X145670714Y-125759740D02*
X145718333Y-125664502D01*
X145718333Y-125664502D02*
X145813571Y-125569264D01*
X145813571Y-125569264D02*
X145956428Y-125521645D01*
X145956428Y-125521645D02*
X146051666Y-125521645D01*
X146051666Y-125521645D02*
X146194523Y-125569264D01*
X146194523Y-125569264D02*
X146242142Y-125616883D01*
X147194523Y-126521645D02*
X146623095Y-126521645D01*
X146908809Y-126521645D02*
X146908809Y-125521645D01*
X146908809Y-125521645D02*
X146813571Y-125664502D01*
X146813571Y-125664502D02*
X146718333Y-125759740D01*
X146718333Y-125759740D02*
X146623095Y-125807359D01*
X148099285Y-125521645D02*
X147623095Y-125521645D01*
X147623095Y-125521645D02*
X147575476Y-125997835D01*
X147575476Y-125997835D02*
X147623095Y-125950216D01*
X147623095Y-125950216D02*
X147718333Y-125902597D01*
X147718333Y-125902597D02*
X147956428Y-125902597D01*
X147956428Y-125902597D02*
X148051666Y-125950216D01*
X148051666Y-125950216D02*
X148099285Y-125997835D01*
X148099285Y-125997835D02*
X148146904Y-126093073D01*
X148146904Y-126093073D02*
X148146904Y-126331168D01*
X148146904Y-126331168D02*
X148099285Y-126426406D01*
X148099285Y-126426406D02*
X148051666Y-126474026D01*
X148051666Y-126474026D02*
X147956428Y-126521645D01*
X147956428Y-126521645D02*
X147718333Y-126521645D01*
X147718333Y-126521645D02*
X147623095Y-126474026D01*
X147623095Y-126474026D02*
X147575476Y-126426406D01*
X158833333Y-94459580D02*
X158785714Y-94507200D01*
X158785714Y-94507200D02*
X158642857Y-94554819D01*
X158642857Y-94554819D02*
X158547619Y-94554819D01*
X158547619Y-94554819D02*
X158404762Y-94507200D01*
X158404762Y-94507200D02*
X158309524Y-94411961D01*
X158309524Y-94411961D02*
X158261905Y-94316723D01*
X158261905Y-94316723D02*
X158214286Y-94126247D01*
X158214286Y-94126247D02*
X158214286Y-93983390D01*
X158214286Y-93983390D02*
X158261905Y-93792914D01*
X158261905Y-93792914D02*
X158309524Y-93697676D01*
X158309524Y-93697676D02*
X158404762Y-93602438D01*
X158404762Y-93602438D02*
X158547619Y-93554819D01*
X158547619Y-93554819D02*
X158642857Y-93554819D01*
X158642857Y-93554819D02*
X158785714Y-93602438D01*
X158785714Y-93602438D02*
X158833333Y-93650057D01*
X159214286Y-93650057D02*
X159261905Y-93602438D01*
X159261905Y-93602438D02*
X159357143Y-93554819D01*
X159357143Y-93554819D02*
X159595238Y-93554819D01*
X159595238Y-93554819D02*
X159690476Y-93602438D01*
X159690476Y-93602438D02*
X159738095Y-93650057D01*
X159738095Y-93650057D02*
X159785714Y-93745295D01*
X159785714Y-93745295D02*
X159785714Y-93840533D01*
X159785714Y-93840533D02*
X159738095Y-93983390D01*
X159738095Y-93983390D02*
X159166667Y-94554819D01*
X159166667Y-94554819D02*
X159785714Y-94554819D01*
X159571428Y-107454819D02*
X159000000Y-107454819D01*
X159285714Y-107454819D02*
X159285714Y-106454819D01*
X159285714Y-106454819D02*
X159190476Y-106597676D01*
X159190476Y-106597676D02*
X159095238Y-106692914D01*
X159095238Y-106692914D02*
X159000000Y-106740533D01*
X160190476Y-106454819D02*
X160285714Y-106454819D01*
X160285714Y-106454819D02*
X160380952Y-106502438D01*
X160380952Y-106502438D02*
X160428571Y-106550057D01*
X160428571Y-106550057D02*
X160476190Y-106645295D01*
X160476190Y-106645295D02*
X160523809Y-106835771D01*
X160523809Y-106835771D02*
X160523809Y-107073866D01*
X160523809Y-107073866D02*
X160476190Y-107264342D01*
X160476190Y-107264342D02*
X160428571Y-107359580D01*
X160428571Y-107359580D02*
X160380952Y-107407200D01*
X160380952Y-107407200D02*
X160285714Y-107454819D01*
X160285714Y-107454819D02*
X160190476Y-107454819D01*
X160190476Y-107454819D02*
X160095238Y-107407200D01*
X160095238Y-107407200D02*
X160047619Y-107359580D01*
X160047619Y-107359580D02*
X160000000Y-107264342D01*
X160000000Y-107264342D02*
X159952381Y-107073866D01*
X159952381Y-107073866D02*
X159952381Y-106835771D01*
X159952381Y-106835771D02*
X160000000Y-106645295D01*
X160000000Y-106645295D02*
X160047619Y-106550057D01*
X160047619Y-106550057D02*
X160095238Y-106502438D01*
X160095238Y-106502438D02*
X160190476Y-106454819D01*
X161380952Y-106788152D02*
X161380952Y-107454819D01*
X160952381Y-106788152D02*
X160952381Y-107311961D01*
X160952381Y-107311961D02*
X161000000Y-107407200D01*
X161000000Y-107407200D02*
X161095238Y-107454819D01*
X161095238Y-107454819D02*
X161238095Y-107454819D01*
X161238095Y-107454819D02*
X161333333Y-107407200D01*
X161333333Y-107407200D02*
X161380952Y-107359580D01*
X161714286Y-106788152D02*
X162095238Y-106788152D01*
X161857143Y-107454819D02*
X161857143Y-106597676D01*
X161857143Y-106597676D02*
X161904762Y-106502438D01*
X161904762Y-106502438D02*
X162000000Y-106454819D01*
X162000000Y-106454819D02*
X162095238Y-106454819D01*
X141161905Y-127354819D02*
X141161905Y-128164342D01*
X141161905Y-128164342D02*
X141209524Y-128259580D01*
X141209524Y-128259580D02*
X141257143Y-128307200D01*
X141257143Y-128307200D02*
X141352381Y-128354819D01*
X141352381Y-128354819D02*
X141542857Y-128354819D01*
X141542857Y-128354819D02*
X141638095Y-128307200D01*
X141638095Y-128307200D02*
X141685714Y-128259580D01*
X141685714Y-128259580D02*
X141733333Y-128164342D01*
X141733333Y-128164342D02*
X141733333Y-127354819D01*
X142733333Y-128354819D02*
X142161905Y-128354819D01*
X142447619Y-128354819D02*
X142447619Y-127354819D01*
X142447619Y-127354819D02*
X142352381Y-127497676D01*
X142352381Y-127497676D02*
X142257143Y-127592914D01*
X142257143Y-127592914D02*
X142161905Y-127640533D01*
X143590476Y-127688152D02*
X143590476Y-128354819D01*
X143352381Y-127307200D02*
X143114286Y-128021485D01*
X143114286Y-128021485D02*
X143733333Y-128021485D01*
X159808390Y-134058333D02*
X159760771Y-134153571D01*
X159760771Y-134153571D02*
X159713152Y-134201190D01*
X159713152Y-134201190D02*
X159617914Y-134248809D01*
X159617914Y-134248809D02*
X159570295Y-134248809D01*
X159570295Y-134248809D02*
X159475057Y-134201190D01*
X159475057Y-134201190D02*
X159427438Y-134153571D01*
X159427438Y-134153571D02*
X159379819Y-134058333D01*
X159379819Y-134058333D02*
X159379819Y-133867857D01*
X159379819Y-133867857D02*
X159427438Y-133772619D01*
X159427438Y-133772619D02*
X159475057Y-133725000D01*
X159475057Y-133725000D02*
X159570295Y-133677381D01*
X159570295Y-133677381D02*
X159617914Y-133677381D01*
X159617914Y-133677381D02*
X159713152Y-133725000D01*
X159713152Y-133725000D02*
X159760771Y-133772619D01*
X159760771Y-133772619D02*
X159808390Y-133867857D01*
X159808390Y-133867857D02*
X159808390Y-134058333D01*
X159808390Y-134058333D02*
X159856009Y-134153571D01*
X159856009Y-134153571D02*
X159903628Y-134201190D01*
X159903628Y-134201190D02*
X159998866Y-134248809D01*
X159998866Y-134248809D02*
X160189342Y-134248809D01*
X160189342Y-134248809D02*
X160284580Y-134201190D01*
X160284580Y-134201190D02*
X160332200Y-134153571D01*
X160332200Y-134153571D02*
X160379819Y-134058333D01*
X160379819Y-134058333D02*
X160379819Y-133867857D01*
X160379819Y-133867857D02*
X160332200Y-133772619D01*
X160332200Y-133772619D02*
X160284580Y-133725000D01*
X160284580Y-133725000D02*
X160189342Y-133677381D01*
X160189342Y-133677381D02*
X159998866Y-133677381D01*
X159998866Y-133677381D02*
X159903628Y-133725000D01*
X159903628Y-133725000D02*
X159856009Y-133772619D01*
X159856009Y-133772619D02*
X159808390Y-133867857D01*
X159713152Y-133248809D02*
X160713152Y-133248809D01*
X159760771Y-133248809D02*
X159713152Y-133153571D01*
X159713152Y-133153571D02*
X159713152Y-132963095D01*
X159713152Y-132963095D02*
X159760771Y-132867857D01*
X159760771Y-132867857D02*
X159808390Y-132820238D01*
X159808390Y-132820238D02*
X159903628Y-132772619D01*
X159903628Y-132772619D02*
X160189342Y-132772619D01*
X160189342Y-132772619D02*
X160284580Y-132820238D01*
X160284580Y-132820238D02*
X160332200Y-132867857D01*
X160332200Y-132867857D02*
X160379819Y-132963095D01*
X160379819Y-132963095D02*
X160379819Y-133153571D01*
X160379819Y-133153571D02*
X160332200Y-133248809D01*
X159713152Y-132486904D02*
X159713152Y-132105952D01*
X160379819Y-132344047D02*
X159522676Y-132344047D01*
X159522676Y-132344047D02*
X159427438Y-132296428D01*
X159427438Y-132296428D02*
X159379819Y-132201190D01*
X159379819Y-132201190D02*
X159379819Y-132105952D01*
X166770057Y-111646904D02*
X166722438Y-111599285D01*
X166722438Y-111599285D02*
X166674819Y-111504047D01*
X166674819Y-111504047D02*
X166674819Y-111265952D01*
X166674819Y-111265952D02*
X166722438Y-111170714D01*
X166722438Y-111170714D02*
X166770057Y-111123095D01*
X166770057Y-111123095D02*
X166865295Y-111075476D01*
X166865295Y-111075476D02*
X166960533Y-111075476D01*
X166960533Y-111075476D02*
X167103390Y-111123095D01*
X167103390Y-111123095D02*
X167674819Y-111694523D01*
X167674819Y-111694523D02*
X167674819Y-111075476D01*
X166674819Y-110742142D02*
X166674819Y-110075476D01*
X166674819Y-110075476D02*
X167674819Y-110504047D01*
X169583390Y-133708333D02*
X169535771Y-133803571D01*
X169535771Y-133803571D02*
X169488152Y-133851190D01*
X169488152Y-133851190D02*
X169392914Y-133898809D01*
X169392914Y-133898809D02*
X169345295Y-133898809D01*
X169345295Y-133898809D02*
X169250057Y-133851190D01*
X169250057Y-133851190D02*
X169202438Y-133803571D01*
X169202438Y-133803571D02*
X169154819Y-133708333D01*
X169154819Y-133708333D02*
X169154819Y-133517857D01*
X169154819Y-133517857D02*
X169202438Y-133422619D01*
X169202438Y-133422619D02*
X169250057Y-133375000D01*
X169250057Y-133375000D02*
X169345295Y-133327381D01*
X169345295Y-133327381D02*
X169392914Y-133327381D01*
X169392914Y-133327381D02*
X169488152Y-133375000D01*
X169488152Y-133375000D02*
X169535771Y-133422619D01*
X169535771Y-133422619D02*
X169583390Y-133517857D01*
X169583390Y-133517857D02*
X169583390Y-133708333D01*
X169583390Y-133708333D02*
X169631009Y-133803571D01*
X169631009Y-133803571D02*
X169678628Y-133851190D01*
X169678628Y-133851190D02*
X169773866Y-133898809D01*
X169773866Y-133898809D02*
X169964342Y-133898809D01*
X169964342Y-133898809D02*
X170059580Y-133851190D01*
X170059580Y-133851190D02*
X170107200Y-133803571D01*
X170107200Y-133803571D02*
X170154819Y-133708333D01*
X170154819Y-133708333D02*
X170154819Y-133517857D01*
X170154819Y-133517857D02*
X170107200Y-133422619D01*
X170107200Y-133422619D02*
X170059580Y-133375000D01*
X170059580Y-133375000D02*
X169964342Y-133327381D01*
X169964342Y-133327381D02*
X169773866Y-133327381D01*
X169773866Y-133327381D02*
X169678628Y-133375000D01*
X169678628Y-133375000D02*
X169631009Y-133422619D01*
X169631009Y-133422619D02*
X169583390Y-133517857D01*
X169488152Y-132898809D02*
X170488152Y-132898809D01*
X169535771Y-132898809D02*
X169488152Y-132803571D01*
X169488152Y-132803571D02*
X169488152Y-132613095D01*
X169488152Y-132613095D02*
X169535771Y-132517857D01*
X169535771Y-132517857D02*
X169583390Y-132470238D01*
X169583390Y-132470238D02*
X169678628Y-132422619D01*
X169678628Y-132422619D02*
X169964342Y-132422619D01*
X169964342Y-132422619D02*
X170059580Y-132470238D01*
X170059580Y-132470238D02*
X170107200Y-132517857D01*
X170107200Y-132517857D02*
X170154819Y-132613095D01*
X170154819Y-132613095D02*
X170154819Y-132803571D01*
X170154819Y-132803571D02*
X170107200Y-132898809D01*
X169488152Y-132136904D02*
X169488152Y-131755952D01*
X170154819Y-131994047D02*
X169297676Y-131994047D01*
X169297676Y-131994047D02*
X169202438Y-131946428D01*
X169202438Y-131946428D02*
X169154819Y-131851190D01*
X169154819Y-131851190D02*
X169154819Y-131755952D01*
X188561905Y-112804819D02*
X188561905Y-113614342D01*
X188561905Y-113614342D02*
X188609524Y-113709580D01*
X188609524Y-113709580D02*
X188657143Y-113757200D01*
X188657143Y-113757200D02*
X188752381Y-113804819D01*
X188752381Y-113804819D02*
X188942857Y-113804819D01*
X188942857Y-113804819D02*
X189038095Y-113757200D01*
X189038095Y-113757200D02*
X189085714Y-113709580D01*
X189085714Y-113709580D02*
X189133333Y-113614342D01*
X189133333Y-113614342D02*
X189133333Y-112804819D01*
X190133333Y-113804819D02*
X189561905Y-113804819D01*
X189847619Y-113804819D02*
X189847619Y-112804819D01*
X189847619Y-112804819D02*
X189752381Y-112947676D01*
X189752381Y-112947676D02*
X189657143Y-113042914D01*
X189657143Y-113042914D02*
X189561905Y-113090533D01*
X190514286Y-112900057D02*
X190561905Y-112852438D01*
X190561905Y-112852438D02*
X190657143Y-112804819D01*
X190657143Y-112804819D02*
X190895238Y-112804819D01*
X190895238Y-112804819D02*
X190990476Y-112852438D01*
X190990476Y-112852438D02*
X191038095Y-112900057D01*
X191038095Y-112900057D02*
X191085714Y-112995295D01*
X191085714Y-112995295D02*
X191085714Y-113090533D01*
X191085714Y-113090533D02*
X191038095Y-113233390D01*
X191038095Y-113233390D02*
X190466667Y-113804819D01*
X190466667Y-113804819D02*
X191085714Y-113804819D01*
X146242142Y-101129580D02*
X146194523Y-101177200D01*
X146194523Y-101177200D02*
X146051666Y-101224819D01*
X146051666Y-101224819D02*
X145956428Y-101224819D01*
X145956428Y-101224819D02*
X145813571Y-101177200D01*
X145813571Y-101177200D02*
X145718333Y-101081961D01*
X145718333Y-101081961D02*
X145670714Y-100986723D01*
X145670714Y-100986723D02*
X145623095Y-100796247D01*
X145623095Y-100796247D02*
X145623095Y-100653390D01*
X145623095Y-100653390D02*
X145670714Y-100462914D01*
X145670714Y-100462914D02*
X145718333Y-100367676D01*
X145718333Y-100367676D02*
X145813571Y-100272438D01*
X145813571Y-100272438D02*
X145956428Y-100224819D01*
X145956428Y-100224819D02*
X146051666Y-100224819D01*
X146051666Y-100224819D02*
X146194523Y-100272438D01*
X146194523Y-100272438D02*
X146242142Y-100320057D01*
X147194523Y-101224819D02*
X146623095Y-101224819D01*
X146908809Y-101224819D02*
X146908809Y-100224819D01*
X146908809Y-100224819D02*
X146813571Y-100367676D01*
X146813571Y-100367676D02*
X146718333Y-100462914D01*
X146718333Y-100462914D02*
X146623095Y-100510533D01*
X148051666Y-100558152D02*
X148051666Y-101224819D01*
X147813571Y-100177200D02*
X147575476Y-100891485D01*
X147575476Y-100891485D02*
X148194523Y-100891485D01*
X168370057Y-111646904D02*
X168322438Y-111599285D01*
X168322438Y-111599285D02*
X168274819Y-111504047D01*
X168274819Y-111504047D02*
X168274819Y-111265952D01*
X168274819Y-111265952D02*
X168322438Y-111170714D01*
X168322438Y-111170714D02*
X168370057Y-111123095D01*
X168370057Y-111123095D02*
X168465295Y-111075476D01*
X168465295Y-111075476D02*
X168560533Y-111075476D01*
X168560533Y-111075476D02*
X168703390Y-111123095D01*
X168703390Y-111123095D02*
X169274819Y-111694523D01*
X169274819Y-111694523D02*
X169274819Y-111075476D01*
X168274819Y-110742142D02*
X168274819Y-110075476D01*
X168274819Y-110075476D02*
X169274819Y-110504047D01*
D12*
X182825000Y-123200000D02*
X182825000Y-122400000D01*
X182825000Y-123200000D02*
X182825000Y-124000000D01*
X185945000Y-123200000D02*
X185945000Y-122400000D01*
X185945000Y-123200000D02*
X185945000Y-124000000D01*
X182875000Y-124500000D02*
X182545000Y-124740000D01*
X182545000Y-124260000D01*
X182875000Y-124500000D01*
G36*
X182875000Y-124500000D02*
G01*
X182545000Y-124740000D01*
X182545000Y-124260000D01*
X182875000Y-124500000D01*
G37*
X160933500Y-127061500D02*
X160933500Y-125825000D01*
X162170000Y-127061500D02*
X160933500Y-127061500D01*
X170570000Y-116188500D02*
X171806500Y-116188500D01*
X170570000Y-127061500D02*
X171806500Y-127061500D01*
X171806500Y-116188500D02*
X171806500Y-117425000D01*
X171806500Y-127061500D02*
X171806500Y-125825000D01*
D13*
X161283577Y-116291000D02*
G75*
G02*
X160744331Y-116291000I-269623J0D01*
G01*
X160744331Y-116291000D02*
G75*
G02*
X161283577Y-116291000I269623J0D01*
G01*
D12*
X150300000Y-96140000D02*
X150300000Y-100150000D01*
X152300000Y-96140000D02*
X150300000Y-96140000D01*
X152300000Y-96140000D02*
X152300000Y-100150000D01*
X195317500Y-88602742D02*
X195317500Y-89077258D01*
X196362500Y-88602742D02*
X196362500Y-89077258D01*
D11*
X194790000Y-82575000D02*
X194790000Y-85300000D01*
X196890000Y-82575000D02*
X194790000Y-82575000D01*
X196890000Y-85300000D02*
X196890000Y-82575000D01*
D12*
X162450000Y-146160000D02*
X162450000Y-144780000D01*
X163830000Y-146160000D02*
X162450000Y-146160000D01*
X165100000Y-143400000D02*
X170290000Y-143400000D01*
X165100000Y-146160000D02*
X165100000Y-143400000D01*
X165100000Y-146160000D02*
X170290000Y-146160000D01*
X170290000Y-146160000D02*
X170290000Y-143400000D01*
X170605000Y-113335248D02*
X170605000Y-113857752D01*
X172075000Y-113335248D02*
X172075000Y-113857752D01*
X175567258Y-93677500D02*
X175092742Y-93677500D01*
X175567258Y-94722500D02*
X175092742Y-94722500D01*
X167000000Y-131300000D02*
X162800000Y-131300000D01*
X167000000Y-134800000D02*
X167000000Y-131300000D01*
X176490000Y-102684420D02*
X176490000Y-102965580D01*
X177510000Y-102684420D02*
X177510000Y-102965580D01*
X169875000Y-97275000D02*
X170135000Y-97275000D01*
X169875000Y-100000000D02*
X169875000Y-97275000D01*
X169875000Y-100000000D02*
X169875000Y-102725000D01*
X169875000Y-102725000D02*
X170135000Y-102725000D01*
X175325000Y-97275000D02*
X175065000Y-97275000D01*
X175325000Y-100000000D02*
X175325000Y-97275000D01*
X175325000Y-100000000D02*
X175325000Y-102725000D01*
X175325000Y-102725000D02*
X175065000Y-102725000D01*
X175395000Y-96732500D02*
X175065000Y-96492500D01*
X175395000Y-96252500D01*
X175395000Y-96732500D01*
G36*
X175395000Y-96732500D02*
G01*
X175065000Y-96492500D01*
X175395000Y-96252500D01*
X175395000Y-96732500D01*
G37*
X185549866Y-84330545D02*
X185549866Y-85880545D01*
X185849866Y-81530545D02*
X185849866Y-84330545D01*
X185849866Y-84330545D02*
X185549866Y-84330545D01*
X190599866Y-87580545D02*
X190999866Y-87130545D01*
X190999866Y-87130545D02*
X191399866Y-87580545D01*
X191399866Y-87580545D02*
X190599866Y-87580545D01*
X193549866Y-81530545D02*
X193549866Y-84330545D01*
X193849866Y-84330545D02*
X193549866Y-84330545D01*
X193849866Y-84330545D02*
X193849866Y-85880545D01*
X174537258Y-114024000D02*
X174062742Y-114024000D01*
X174537258Y-115069000D02*
X174062742Y-115069000D01*
D11*
X150632433Y-91135000D02*
X150632433Y-81605000D01*
D14*
X161717433Y-91605000D02*
X161717433Y-91605000D01*
X161717433Y-91705000D02*
X161717433Y-91705000D01*
D11*
X181432433Y-81605000D02*
X181432433Y-91135000D01*
X181432433Y-91135000D02*
X150632433Y-91135000D01*
D14*
X161717433Y-91605000D02*
G75*
G02*
X161717433Y-91705000I0J-50000D01*
G01*
X161717433Y-91705000D02*
G75*
G02*
X161717433Y-91605000I0J50000D01*
G01*
D12*
X165862742Y-129477500D02*
X166337258Y-129477500D01*
X165862742Y-130522500D02*
X166337258Y-130522500D01*
X185995580Y-138590000D02*
X185714420Y-138590000D01*
X185995580Y-139610000D02*
X185714420Y-139610000D01*
X148480000Y-123190000D02*
X148480000Y-115460000D01*
X151240000Y-115460000D02*
X148480000Y-115460000D01*
X151240000Y-123190000D02*
X148480000Y-123190000D01*
X151240000Y-123190000D02*
X151240000Y-115460000D01*
X151240000Y-124460000D02*
X151240000Y-125840000D01*
X151240000Y-125840000D02*
X149860000Y-125840000D01*
X142450000Y-95983000D02*
X142450000Y-95417000D01*
X142490000Y-96217000D02*
X142490000Y-95183000D01*
X142530000Y-96377000D02*
X142530000Y-95023000D01*
X142570000Y-96505000D02*
X142570000Y-94895000D01*
X142610000Y-96614000D02*
X142610000Y-94786000D01*
X142650000Y-96711000D02*
X142650000Y-94689000D01*
X142690000Y-96798000D02*
X142690000Y-94602000D01*
X142730000Y-96877000D02*
X142730000Y-94523000D01*
X142770000Y-94660000D02*
X142770000Y-94449000D01*
X142770000Y-96951000D02*
X142770000Y-96740000D01*
X142810000Y-94660000D02*
X142810000Y-94381000D01*
X142810000Y-97019000D02*
X142810000Y-96740000D01*
X142850000Y-94660000D02*
X142850000Y-94317000D01*
X142850000Y-97083000D02*
X142850000Y-96740000D01*
X142890000Y-94660000D02*
X142890000Y-94257000D01*
X142890000Y-97143000D02*
X142890000Y-96740000D01*
X142930000Y-94660000D02*
X142930000Y-94201000D01*
X142930000Y-97199000D02*
X142930000Y-96740000D01*
X142970000Y-94660000D02*
X142970000Y-94147000D01*
X142970000Y-97253000D02*
X142970000Y-96740000D01*
X143010000Y-94660000D02*
X143010000Y-94096000D01*
X143010000Y-97304000D02*
X143010000Y-96740000D01*
X143050000Y-94660000D02*
X143050000Y-94048000D01*
X143050000Y-97352000D02*
X143050000Y-96740000D01*
X143090000Y-94660000D02*
X143090000Y-94001000D01*
X143090000Y-97399000D02*
X143090000Y-96740000D01*
X143130000Y-94660000D02*
X143130000Y-93957000D01*
X143130000Y-97443000D02*
X143130000Y-96740000D01*
X143170000Y-94660000D02*
X143170000Y-93915000D01*
X143170000Y-97485000D02*
X143170000Y-96740000D01*
X143210000Y-94660000D02*
X143210000Y-93875000D01*
X143210000Y-97525000D02*
X143210000Y-96740000D01*
X143250000Y-94660000D02*
X143250000Y-93836000D01*
X143250000Y-97564000D02*
X143250000Y-96740000D01*
X143290000Y-94660000D02*
X143290000Y-93799000D01*
X143290000Y-97601000D02*
X143290000Y-96740000D01*
X143330000Y-94660000D02*
X143330000Y-93764000D01*
X143330000Y-97636000D02*
X143330000Y-96740000D01*
X143370000Y-94660000D02*
X143370000Y-93730000D01*
X143370000Y-97670000D02*
X143370000Y-96740000D01*
X143410000Y-94660000D02*
X143410000Y-93697000D01*
X143410000Y-97703000D02*
X143410000Y-96740000D01*
X143450000Y-94660000D02*
X143450000Y-93665000D01*
X143450000Y-97735000D02*
X143450000Y-96740000D01*
X143490000Y-94660000D02*
X143490000Y-93635000D01*
X143490000Y-97765000D02*
X143490000Y-96740000D01*
X143530000Y-94660000D02*
X143530000Y-93606000D01*
X143530000Y-97794000D02*
X143530000Y-96740000D01*
X143570000Y-94660000D02*
X143570000Y-93578000D01*
X143570000Y-97822000D02*
X143570000Y-96740000D01*
X143610000Y-94660000D02*
X143610000Y-93551000D01*
X143610000Y-97849000D02*
X143610000Y-96740000D01*
X143650000Y-94660000D02*
X143650000Y-93525000D01*
X143650000Y-97875000D02*
X143650000Y-96740000D01*
X143690000Y-94660000D02*
X143690000Y-93501000D01*
X143690000Y-97899000D02*
X143690000Y-96740000D01*
X143730000Y-94660000D02*
X143730000Y-93477000D01*
X143730000Y-97923000D02*
X143730000Y-96740000D01*
X143770000Y-94660000D02*
X143770000Y-93454000D01*
X143770000Y-97946000D02*
X143770000Y-96740000D01*
X143810000Y-94660000D02*
X143810000Y-93432000D01*
X143810000Y-97968000D02*
X143810000Y-96740000D01*
X143850000Y-94660000D02*
X143850000Y-93411000D01*
X143850000Y-97989000D02*
X143850000Y-96740000D01*
X143890000Y-94660000D02*
X143890000Y-93391000D01*
X143890000Y-98009000D02*
X143890000Y-96740000D01*
X143930000Y-94660000D02*
X143930000Y-93371000D01*
X143930000Y-98029000D02*
X143930000Y-96740000D01*
X143970000Y-94660000D02*
X143970000Y-93353000D01*
X143970000Y-98047000D02*
X143970000Y-96740000D01*
X144010000Y-94660000D02*
X144010000Y-93335000D01*
X144010000Y-98065000D02*
X144010000Y-96740000D01*
X144050000Y-94660000D02*
X144050000Y-93318000D01*
X144050000Y-98082000D02*
X144050000Y-96740000D01*
X144090000Y-94660000D02*
X144090000Y-93302000D01*
X144090000Y-98098000D02*
X144090000Y-96740000D01*
X144130000Y-94660000D02*
X144130000Y-93287000D01*
X144130000Y-98113000D02*
X144130000Y-96740000D01*
X144170000Y-94660000D02*
X144170000Y-93272000D01*
X144170000Y-98128000D02*
X144170000Y-96740000D01*
X144210000Y-94660000D02*
X144210000Y-93258000D01*
X144210000Y-98142000D02*
X144210000Y-96740000D01*
X144250000Y-94660000D02*
X144250000Y-93245000D01*
X144250000Y-98155000D02*
X144250000Y-96740000D01*
X144290000Y-94660000D02*
X144290000Y-93233000D01*
X144290000Y-98167000D02*
X144290000Y-96740000D01*
X144330000Y-94660000D02*
X144330000Y-93221000D01*
X144330000Y-98179000D02*
X144330000Y-96740000D01*
X144370000Y-94660000D02*
X144370000Y-93210000D01*
X144370000Y-98190000D02*
X144370000Y-96740000D01*
X144410000Y-94660000D02*
X144410000Y-93199000D01*
X144410000Y-98201000D02*
X144410000Y-96740000D01*
X144450000Y-94660000D02*
X144450000Y-93190000D01*
X144450000Y-98210000D02*
X144450000Y-96740000D01*
X144490000Y-94660000D02*
X144490000Y-93181000D01*
X144490000Y-98219000D02*
X144490000Y-96740000D01*
X144530000Y-94660000D02*
X144530000Y-93172000D01*
X144530000Y-98228000D02*
X144530000Y-96740000D01*
X144570000Y-94660000D02*
X144570000Y-93164000D01*
X144570000Y-98236000D02*
X144570000Y-96740000D01*
X144610000Y-94660000D02*
X144610000Y-93157000D01*
X144610000Y-98243000D02*
X144610000Y-96740000D01*
X144650000Y-94660000D02*
X144650000Y-93151000D01*
X144650000Y-98249000D02*
X144650000Y-96740000D01*
X144690000Y-94660000D02*
X144690000Y-93145000D01*
X144690000Y-98255000D02*
X144690000Y-96740000D01*
X144730000Y-94660000D02*
X144730000Y-93140000D01*
X144730000Y-98260000D02*
X144730000Y-96740000D01*
X144770000Y-94660000D02*
X144770000Y-93135000D01*
X144770000Y-98265000D02*
X144770000Y-96740000D01*
X144810000Y-94660000D02*
X144810000Y-93131000D01*
X144810000Y-98269000D02*
X144810000Y-96740000D01*
X144850000Y-98272000D02*
X144850000Y-93128000D01*
X144890000Y-98275000D02*
X144890000Y-93125000D01*
X144930000Y-98277000D02*
X144930000Y-93123000D01*
X144970000Y-98279000D02*
X144970000Y-93121000D01*
X145010000Y-98280000D02*
X145010000Y-93120000D01*
X145050000Y-98280000D02*
X145050000Y-93120000D01*
X147604775Y-97425000D02*
X147604775Y-96925000D01*
X147854775Y-97175000D02*
X147354775Y-97175000D01*
X147670000Y-95700000D02*
G75*
G02*
X142430000Y-95700000I-2620000J0D01*
G01*
X142430000Y-95700000D02*
G75*
G02*
X147670000Y-95700000I2620000J0D01*
G01*
X135780000Y-84980000D02*
X146160000Y-84980000D01*
X135780000Y-87630000D02*
X135780000Y-84980000D01*
X135780000Y-90280000D02*
X135780000Y-88900000D01*
X137160000Y-90280000D02*
X135780000Y-90280000D01*
X138430000Y-87630000D02*
X135780000Y-87630000D01*
X138430000Y-90280000D02*
X138430000Y-87630000D01*
X138430000Y-90280000D02*
X146160000Y-90280000D01*
X146160000Y-90280000D02*
X146160000Y-84980000D01*
X154590000Y-98150000D02*
X154590000Y-101910000D01*
X154590000Y-101910000D02*
X155850000Y-101910000D01*
X161410000Y-98150000D02*
X161410000Y-101910000D01*
X161410000Y-101910000D02*
X160150000Y-101910000D01*
X161640000Y-97110000D02*
X161310000Y-96870000D01*
X161640000Y-96630000D01*
X161640000Y-97110000D01*
G36*
X161640000Y-97110000D02*
G01*
X161310000Y-96870000D01*
X161640000Y-96630000D01*
X161640000Y-97110000D01*
G37*
X185995580Y-113190000D02*
X185714420Y-113190000D01*
X185995580Y-114210000D02*
X185714420Y-114210000D01*
D10*
X142985000Y-103475000D02*
X142985000Y-104032500D01*
X142985000Y-103475000D02*
X147135000Y-103475000D01*
X142985000Y-112425000D02*
X142985000Y-111867500D01*
X142985000Y-112425000D02*
X147135000Y-112425000D01*
X147135000Y-103475000D02*
X147135000Y-104032500D01*
X147135000Y-112425000D02*
X147135000Y-111867500D01*
D12*
X142422500Y-103950000D02*
X142182500Y-103620000D01*
X142662500Y-103620000D01*
X142422500Y-103950000D01*
G36*
X142422500Y-103950000D02*
G01*
X142182500Y-103620000D01*
X142662500Y-103620000D01*
X142422500Y-103950000D01*
G37*
X194200000Y-143510000D02*
X194200000Y-95140000D01*
X196960000Y-95140000D02*
X194200000Y-95140000D01*
X196960000Y-143510000D02*
X194200000Y-143510000D01*
X196960000Y-143510000D02*
X196960000Y-95140000D01*
X196960000Y-144780000D02*
X196960000Y-146160000D01*
X196960000Y-146160000D02*
X195580000Y-146160000D01*
X178960000Y-97900000D02*
X178960000Y-96520000D01*
X180340000Y-97900000D02*
X178960000Y-97900000D01*
X181610000Y-95140000D02*
X184260000Y-95140000D01*
X181610000Y-97900000D02*
X181610000Y-95140000D01*
X181610000Y-97900000D02*
X184260000Y-97900000D01*
X184260000Y-97900000D02*
X184260000Y-95140000D01*
D10*
X185605000Y-128875000D02*
X185605000Y-129432500D01*
X185605000Y-137825000D02*
X185605000Y-137267500D01*
X189755000Y-128875000D02*
X185605000Y-128875000D01*
X189755000Y-128875000D02*
X189755000Y-129432500D01*
X189755000Y-137825000D02*
X185605000Y-137825000D01*
X189755000Y-137825000D02*
X189755000Y-137267500D01*
D12*
X190557500Y-137680000D02*
X190077500Y-137680000D01*
X190317500Y-137350000D01*
X190557500Y-137680000D01*
G36*
X190557500Y-137680000D02*
G01*
X190077500Y-137680000D01*
X190317500Y-137350000D01*
X190557500Y-137680000D01*
G37*
X180165000Y-123126248D02*
X180165000Y-123648752D01*
X181635000Y-123126248D02*
X181635000Y-123648752D01*
X146744420Y-127090000D02*
X147025580Y-127090000D01*
X146744420Y-128110000D02*
X147025580Y-128110000D01*
X135780000Y-95140000D02*
X137160000Y-95140000D01*
X135780000Y-96520000D02*
X135780000Y-95140000D01*
X135780000Y-97790000D02*
X135780000Y-146160000D01*
X135780000Y-97790000D02*
X138540000Y-97790000D01*
X135780000Y-146160000D02*
X138540000Y-146160000D01*
X138540000Y-97790000D02*
X138540000Y-146160000D01*
X156615580Y-93640000D02*
X156334420Y-93640000D01*
X156615580Y-94660000D02*
X156334420Y-94660000D01*
X156788748Y-106215000D02*
X157311252Y-106215000D01*
X156788748Y-107685000D02*
X157311252Y-107685000D01*
D10*
X142985000Y-128875000D02*
X142985000Y-129432500D01*
X142985000Y-128875000D02*
X147135000Y-128875000D01*
X142985000Y-137825000D02*
X142985000Y-137267500D01*
X142985000Y-137825000D02*
X147135000Y-137825000D01*
X147135000Y-128875000D02*
X147135000Y-129432500D01*
X147135000Y-137825000D02*
X147135000Y-137267500D01*
D12*
X142422500Y-129350000D02*
X142182500Y-129020000D01*
X142662500Y-129020000D01*
X142422500Y-129350000D01*
G36*
X142422500Y-129350000D02*
G01*
X142182500Y-129020000D01*
X142662500Y-129020000D01*
X142422500Y-129350000D01*
G37*
X161090000Y-133084420D02*
X161090000Y-133365580D01*
X162110000Y-133084420D02*
X162110000Y-133365580D01*
X166672500Y-113613758D02*
X166672500Y-113139242D01*
X167717500Y-113613758D02*
X167717500Y-113139242D01*
X167690000Y-133015580D02*
X167690000Y-132734420D01*
X168710000Y-133015580D02*
X168710000Y-132734420D01*
D10*
X185605000Y-103475000D02*
X185605000Y-104032500D01*
X185605000Y-112425000D02*
X185605000Y-111867500D01*
X189755000Y-103475000D02*
X185605000Y-103475000D01*
X189755000Y-103475000D02*
X189755000Y-104032500D01*
X189755000Y-112425000D02*
X185605000Y-112425000D01*
X189755000Y-112425000D02*
X189755000Y-111867500D01*
D12*
X190557500Y-112280000D02*
X190077500Y-112280000D01*
X190317500Y-111950000D01*
X190557500Y-112280000D01*
G36*
X190557500Y-112280000D02*
G01*
X190077500Y-112280000D01*
X190317500Y-111950000D01*
X190557500Y-112280000D01*
G37*
X146744420Y-101690000D02*
X147025580Y-101690000D01*
X146744420Y-102710000D02*
X147025580Y-102710000D01*
X168272500Y-113613758D02*
X168272500Y-113139242D01*
X169317500Y-113613758D02*
X169317500Y-113139242D01*
%LPC*%
D15*
X183435000Y-124337500D03*
X184385000Y-124337500D03*
X185335000Y-124337500D03*
X185335000Y-122062500D03*
X183435000Y-122062500D03*
D16*
X161473500Y-117825000D03*
X161473500Y-118225000D03*
X161473500Y-118625000D03*
X161473500Y-119025000D03*
X161473500Y-119425000D03*
X161473500Y-119825000D03*
X161473500Y-120225000D03*
X161473500Y-120625000D03*
X161473500Y-121025000D03*
X161473500Y-121425000D03*
X161473500Y-121825000D03*
X161473500Y-122225000D03*
X161473500Y-122625000D03*
X161473500Y-123025000D03*
X161473500Y-123425000D03*
X161473500Y-123825000D03*
X161473500Y-124225000D03*
X161473500Y-124625000D03*
X161473500Y-125025000D03*
X161473500Y-125425000D03*
D17*
X162570000Y-126521500D03*
X162970000Y-126521500D03*
X163370000Y-126521500D03*
X163770000Y-126521500D03*
X164170000Y-126521500D03*
X164570000Y-126521500D03*
X164970000Y-126521500D03*
X165370000Y-126521500D03*
X165770000Y-126521500D03*
X166170000Y-126521500D03*
X166570000Y-126521500D03*
X166970000Y-126521500D03*
X167370000Y-126521500D03*
X167770000Y-126521500D03*
X168170000Y-126521500D03*
X168570000Y-126521500D03*
X168970000Y-126521500D03*
X169370000Y-126521500D03*
X169770000Y-126521500D03*
X170170000Y-126521500D03*
D16*
X171266500Y-125425000D03*
X171266500Y-125025000D03*
X171266500Y-124625000D03*
X171266500Y-124225000D03*
X171266500Y-123825000D03*
X171266500Y-123425000D03*
X171266500Y-123025000D03*
X171266500Y-122625000D03*
X171266500Y-122225000D03*
X171266500Y-121825000D03*
X171266500Y-121425000D03*
X171266500Y-121025000D03*
X171266500Y-120625000D03*
X171266500Y-120225000D03*
X171266500Y-119825000D03*
X171266500Y-119425000D03*
X171266500Y-119025000D03*
X171266500Y-118625000D03*
X171266500Y-118225000D03*
X171266500Y-117825000D03*
D17*
X170170000Y-116728500D03*
X169770000Y-116728500D03*
X169370000Y-116728500D03*
X168970000Y-116728500D03*
X168570000Y-116728500D03*
X168170000Y-116728500D03*
X167770000Y-116728500D03*
X167370000Y-116728500D03*
X166970000Y-116728500D03*
X166570000Y-116728500D03*
X166170000Y-116728500D03*
X165770000Y-116728500D03*
X165370000Y-116728500D03*
X164970000Y-116728500D03*
X164570000Y-116728500D03*
X164170000Y-116728500D03*
X163770000Y-116728500D03*
X163370000Y-116728500D03*
X162970000Y-116728500D03*
X162570000Y-116728500D03*
D18*
X165370000Y-120625000D03*
X165370000Y-121625000D03*
X165370000Y-122625000D03*
X166370000Y-120625000D03*
X166370000Y-121625000D03*
D19*
X166370000Y-121625000D03*
D18*
X166370000Y-122625000D03*
X167370000Y-120625000D03*
X167370000Y-121625000D03*
X167370000Y-122625000D03*
D20*
X151300000Y-96850000D03*
X151300000Y-100150000D03*
D21*
X195840000Y-88015000D03*
X195840000Y-89665000D03*
D22*
X195840000Y-83400000D03*
X195840000Y-85300000D03*
D23*
X163830000Y-144780000D03*
D24*
X166370000Y-144780000D03*
X168910000Y-144780000D03*
D25*
X171340000Y-112646500D03*
X171340000Y-114546500D03*
D26*
X176155000Y-94200000D03*
X174505000Y-94200000D03*
D27*
X166100000Y-132100000D03*
X163700000Y-132100000D03*
X163700000Y-134000000D03*
X166100000Y-134000000D03*
D28*
X177000000Y-102050000D03*
X177000000Y-103600000D03*
D29*
X174505000Y-96400000D03*
X173235000Y-96400000D03*
X171965000Y-96400000D03*
X170695000Y-96400000D03*
X170695000Y-103600000D03*
X171965000Y-103600000D03*
X173235000Y-103600000D03*
X174505000Y-103600000D03*
D30*
X190999866Y-86030545D03*
X190349866Y-86030545D03*
X189699866Y-86030545D03*
X189049866Y-86030545D03*
X188399866Y-86030545D03*
D31*
X192649866Y-84830545D03*
D32*
X192549866Y-86130545D03*
D33*
X192429866Y-84080545D03*
D34*
X192429866Y-83150545D03*
D35*
X192119866Y-86150545D03*
D36*
X190659866Y-82880545D03*
X188739866Y-82880545D03*
D35*
X187279866Y-86150545D03*
D34*
X186969866Y-83150545D03*
D33*
X186949866Y-84080545D03*
D32*
X186799866Y-86150545D03*
D31*
X186699866Y-84830545D03*
D26*
X175125000Y-114546500D03*
X173475000Y-114546500D03*
D37*
X178527433Y-86565000D03*
X153537433Y-86565000D03*
D38*
X161717433Y-88665000D03*
D39*
X164007433Y-88665000D03*
X166297433Y-88665000D03*
X168587433Y-88665000D03*
X170877433Y-88665000D03*
X160577433Y-86565000D03*
X162867433Y-86565000D03*
X165157433Y-86565000D03*
X167447433Y-86565000D03*
X169737433Y-86565000D03*
X161717433Y-84485000D03*
X164007433Y-84485000D03*
X166297433Y-84485000D03*
X168587433Y-84485000D03*
X170877433Y-84485000D03*
D40*
X165275000Y-130000000D03*
X166925000Y-130000000D03*
D41*
X186630000Y-139100000D03*
X185080000Y-139100000D03*
D23*
X149860000Y-124460000D03*
D24*
X149860000Y-121920000D03*
X149860000Y-119380000D03*
X149860000Y-116840000D03*
D42*
X146300000Y-95700000D03*
D43*
X143800000Y-95700000D03*
D23*
X137160000Y-88900000D03*
D24*
X137160000Y-86360000D03*
X139700000Y-88900000D03*
X139700000Y-86360000D03*
X142240000Y-88900000D03*
X142240000Y-86360000D03*
X144780000Y-88900000D03*
X144780000Y-86360000D03*
D44*
X160300000Y-96850000D03*
X158000000Y-96850000D03*
D45*
X158000000Y-103150000D03*
D44*
X155700000Y-96850000D03*
D41*
X186630000Y-113700000D03*
X185080000Y-113700000D03*
D46*
X142460000Y-104457500D03*
X142460000Y-105092500D03*
X142460000Y-105727500D03*
X142460000Y-106362500D03*
X142460000Y-106997500D03*
X142460000Y-107632500D03*
X142460000Y-108267500D03*
X142460000Y-108902500D03*
X142460000Y-109537500D03*
X142460000Y-110172500D03*
X142460000Y-110807500D03*
X142460000Y-111442500D03*
X147660000Y-111442500D03*
X147660000Y-110807500D03*
X147660000Y-110172500D03*
X147660000Y-109537500D03*
X147660000Y-108902500D03*
X147660000Y-108267500D03*
X147660000Y-107632500D03*
X147660000Y-106997500D03*
X147660000Y-106362500D03*
X147660000Y-105727500D03*
X147660000Y-105092500D03*
X147660000Y-104457500D03*
D23*
X195580000Y-144780000D03*
D24*
X195580000Y-142240000D03*
X195580000Y-139700000D03*
X195580000Y-137160000D03*
X195580000Y-134620000D03*
X195580000Y-132080000D03*
X195580000Y-129540000D03*
X195580000Y-127000000D03*
X195580000Y-124460000D03*
X195580000Y-121920000D03*
X195580000Y-119380000D03*
X195580000Y-116840000D03*
X195580000Y-114300000D03*
X195580000Y-111760000D03*
X195580000Y-109220000D03*
X195580000Y-106680000D03*
X195580000Y-104140000D03*
X195580000Y-101600000D03*
X195580000Y-99060000D03*
X195580000Y-96520000D03*
D23*
X180340000Y-96520000D03*
D24*
X182880000Y-96520000D03*
D46*
X190280000Y-136842500D03*
X190280000Y-136207500D03*
X190280000Y-135572500D03*
X190280000Y-134937500D03*
X190280000Y-134302500D03*
X190280000Y-133667500D03*
X190280000Y-133032500D03*
X190280000Y-132397500D03*
X190280000Y-131762500D03*
X190280000Y-131127500D03*
X190280000Y-130492500D03*
X190280000Y-129857500D03*
X185080000Y-129857500D03*
X185080000Y-130492500D03*
X185080000Y-131127500D03*
X185080000Y-131762500D03*
X185080000Y-132397500D03*
X185080000Y-133032500D03*
X185080000Y-133667500D03*
X185080000Y-134302500D03*
X185080000Y-134937500D03*
X185080000Y-135572500D03*
X185080000Y-136207500D03*
X185080000Y-136842500D03*
D25*
X180900000Y-122437500D03*
X180900000Y-124337500D03*
D47*
X146110000Y-127600000D03*
X147660000Y-127600000D03*
D23*
X137160000Y-96520000D03*
D24*
X137160000Y-99060000D03*
X137160000Y-101600000D03*
X137160000Y-104140000D03*
X137160000Y-106680000D03*
X137160000Y-109220000D03*
X137160000Y-111760000D03*
X137160000Y-114300000D03*
X137160000Y-116840000D03*
X137160000Y-119380000D03*
X137160000Y-121920000D03*
X137160000Y-124460000D03*
X137160000Y-127000000D03*
X137160000Y-129540000D03*
X137160000Y-132080000D03*
X137160000Y-134620000D03*
X137160000Y-137160000D03*
X137160000Y-139700000D03*
X137160000Y-142240000D03*
X137160000Y-144780000D03*
D41*
X157250000Y-94150000D03*
X155700000Y-94150000D03*
D48*
X156100000Y-106950000D03*
X158000000Y-106950000D03*
D46*
X142460000Y-129857500D03*
X142460000Y-130492500D03*
X142460000Y-131127500D03*
X142460000Y-131762500D03*
X142460000Y-132397500D03*
X142460000Y-133032500D03*
X142460000Y-133667500D03*
X142460000Y-134302500D03*
X142460000Y-134937500D03*
X142460000Y-135572500D03*
X142460000Y-136207500D03*
X142460000Y-136842500D03*
X147660000Y-136842500D03*
X147660000Y-136207500D03*
X147660000Y-135572500D03*
X147660000Y-134937500D03*
X147660000Y-134302500D03*
X147660000Y-133667500D03*
X147660000Y-133032500D03*
X147660000Y-132397500D03*
X147660000Y-131762500D03*
X147660000Y-131127500D03*
X147660000Y-130492500D03*
X147660000Y-129857500D03*
D28*
X161600000Y-132450000D03*
X161600000Y-134000000D03*
D49*
X167195000Y-114201500D03*
X167195000Y-112551500D03*
D50*
X168200000Y-133650000D03*
X168200000Y-132100000D03*
D46*
X190280000Y-111442500D03*
X190280000Y-110807500D03*
X190280000Y-110172500D03*
X190280000Y-109537500D03*
X190280000Y-108902500D03*
X190280000Y-108267500D03*
X190280000Y-107632500D03*
X190280000Y-106997500D03*
X190280000Y-106362500D03*
X190280000Y-105727500D03*
X190280000Y-105092500D03*
X190280000Y-104457500D03*
X185080000Y-104457500D03*
X185080000Y-105092500D03*
X185080000Y-105727500D03*
X185080000Y-106362500D03*
X185080000Y-106997500D03*
X185080000Y-107632500D03*
X185080000Y-108267500D03*
X185080000Y-108902500D03*
X185080000Y-109537500D03*
X185080000Y-110172500D03*
X185080000Y-110807500D03*
X185080000Y-111442500D03*
D47*
X146110000Y-102200000D03*
X147660000Y-102200000D03*
D49*
X168795000Y-114201500D03*
X168795000Y-112551500D03*
%LPD*%
M02*
