G04 #@! TF.GenerationSoftware,KiCad,Pcbnew,9.0.1*
G04 #@! TF.CreationDate,2025-04-14T17:52:09+10:00*
G04 #@! TF.ProjectId,RP2350B_LevelShift,52503233-3530-4425-9f4c-6576656c5368,rev?*
G04 #@! TF.SameCoordinates,Original*
G04 #@! TF.FileFunction,Legend,Bot*
G04 #@! TF.FilePolarity,Positive*
%FSLAX46Y46*%
G04 Gerber Fmt 4.6, Leading zero omitted, Abs format (unit mm)*
G04 Created by KiCad (PCBNEW 9.0.1) date 2025-04-14 17:52:09*
%MOMM*%
%LPD*%
G01*
G04 APERTURE LIST*
G04 Aperture macros list*
%AMRoundRect*
0 Rectangle with rounded corners*
0 $1 Rounding radius*
0 $2 $3 $4 $5 $6 $7 $8 $9 X,Y pos of 4 corners*
0 Add a 4 corners polygon primitive as box body*
4,1,4,$2,$3,$4,$5,$6,$7,$8,$9,$2,$3,0*
0 Add four circle primitives for the rounded corners*
1,1,$1+$1,$2,$3*
1,1,$1+$1,$4,$5*
1,1,$1+$1,$6,$7*
1,1,$1+$1,$8,$9*
0 Add four rect primitives between the rounded corners*
20,1,$1+$1,$2,$3,$4,$5,0*
20,1,$1+$1,$4,$5,$6,$7,0*
20,1,$1+$1,$6,$7,$8,$9,0*
20,1,$1+$1,$8,$9,$2,$3,0*%
G04 Aperture macros list end*
%ADD10C,0.150000*%
%ADD11C,0.120000*%
%ADD12C,0.425000*%
%ADD13R,1.700000X1.700000*%
%ADD14C,1.700000*%
%ADD15O,1.350000X1.700000*%
%ADD16O,1.100000X1.500000*%
%ADD17C,4.770000*%
%ADD18R,1.785000X1.785000*%
%ADD19C,1.785000*%
%ADD20R,1.600000X1.600000*%
%ADD21C,1.600000*%
%ADD22RoundRect,0.225000X0.250000X-0.225000X0.250000X0.225000X-0.250000X0.225000X-0.250000X-0.225000X0*%
%ADD23RoundRect,0.200000X0.275000X-0.200000X0.275000X0.200000X-0.275000X0.200000X-0.275000X-0.200000X0*%
%ADD24RoundRect,0.225000X-0.225000X-0.250000X0.225000X-0.250000X0.225000X0.250000X-0.225000X0.250000X0*%
%ADD25RoundRect,0.225000X-0.250000X0.225000X-0.250000X-0.225000X0.250000X-0.225000X0.250000X0.225000X0*%
%ADD26RoundRect,0.200000X-0.275000X0.200000X-0.275000X-0.200000X0.275000X-0.200000X0.275000X0.200000X0*%
%ADD27RoundRect,0.225000X0.225000X0.250000X-0.225000X0.250000X-0.225000X-0.250000X0.225000X-0.250000X0*%
%ADD28RoundRect,0.200000X-0.200000X-0.275000X0.200000X-0.275000X0.200000X0.275000X-0.200000X0.275000X0*%
%ADD29RoundRect,0.250000X-0.475000X0.250000X-0.475000X-0.250000X0.475000X-0.250000X0.475000X0.250000X0*%
G04 APERTURE END LIST*
D10*
X159979580Y-123557142D02*
X160027200Y-123509523D01*
X160027200Y-123509523D02*
X160074819Y-123366666D01*
X160074819Y-123366666D02*
X160074819Y-123271428D01*
X160074819Y-123271428D02*
X160027200Y-123128571D01*
X160027200Y-123128571D02*
X159931961Y-123033333D01*
X159931961Y-123033333D02*
X159836723Y-122985714D01*
X159836723Y-122985714D02*
X159646247Y-122938095D01*
X159646247Y-122938095D02*
X159503390Y-122938095D01*
X159503390Y-122938095D02*
X159312914Y-122985714D01*
X159312914Y-122985714D02*
X159217676Y-123033333D01*
X159217676Y-123033333D02*
X159122438Y-123128571D01*
X159122438Y-123128571D02*
X159074819Y-123271428D01*
X159074819Y-123271428D02*
X159074819Y-123366666D01*
X159074819Y-123366666D02*
X159122438Y-123509523D01*
X159122438Y-123509523D02*
X159170057Y-123557142D01*
X159074819Y-123890476D02*
X159074819Y-124509523D01*
X159074819Y-124509523D02*
X159455771Y-124176190D01*
X159455771Y-124176190D02*
X159455771Y-124319047D01*
X159455771Y-124319047D02*
X159503390Y-124414285D01*
X159503390Y-124414285D02*
X159551009Y-124461904D01*
X159551009Y-124461904D02*
X159646247Y-124509523D01*
X159646247Y-124509523D02*
X159884342Y-124509523D01*
X159884342Y-124509523D02*
X159979580Y-124461904D01*
X159979580Y-124461904D02*
X160027200Y-124414285D01*
X160027200Y-124414285D02*
X160074819Y-124319047D01*
X160074819Y-124319047D02*
X160074819Y-124033333D01*
X160074819Y-124033333D02*
X160027200Y-123938095D01*
X160027200Y-123938095D02*
X159979580Y-123890476D01*
X159074819Y-124842857D02*
X159074819Y-125461904D01*
X159074819Y-125461904D02*
X159455771Y-125128571D01*
X159455771Y-125128571D02*
X159455771Y-125271428D01*
X159455771Y-125271428D02*
X159503390Y-125366666D01*
X159503390Y-125366666D02*
X159551009Y-125414285D01*
X159551009Y-125414285D02*
X159646247Y-125461904D01*
X159646247Y-125461904D02*
X159884342Y-125461904D01*
X159884342Y-125461904D02*
X159979580Y-125414285D01*
X159979580Y-125414285D02*
X160027200Y-125366666D01*
X160027200Y-125366666D02*
X160074819Y-125271428D01*
X160074819Y-125271428D02*
X160074819Y-124985714D01*
X160074819Y-124985714D02*
X160027200Y-124890476D01*
X160027200Y-124890476D02*
X159979580Y-124842857D01*
X149654819Y-105557142D02*
X149178628Y-105223809D01*
X149654819Y-104985714D02*
X148654819Y-104985714D01*
X148654819Y-104985714D02*
X148654819Y-105366666D01*
X148654819Y-105366666D02*
X148702438Y-105461904D01*
X148702438Y-105461904D02*
X148750057Y-105509523D01*
X148750057Y-105509523D02*
X148845295Y-105557142D01*
X148845295Y-105557142D02*
X148988152Y-105557142D01*
X148988152Y-105557142D02*
X149083390Y-105509523D01*
X149083390Y-105509523D02*
X149131009Y-105461904D01*
X149131009Y-105461904D02*
X149178628Y-105366666D01*
X149178628Y-105366666D02*
X149178628Y-104985714D01*
X148750057Y-105938095D02*
X148702438Y-105985714D01*
X148702438Y-105985714D02*
X148654819Y-106080952D01*
X148654819Y-106080952D02*
X148654819Y-106319047D01*
X148654819Y-106319047D02*
X148702438Y-106414285D01*
X148702438Y-106414285D02*
X148750057Y-106461904D01*
X148750057Y-106461904D02*
X148845295Y-106509523D01*
X148845295Y-106509523D02*
X148940533Y-106509523D01*
X148940533Y-106509523D02*
X149083390Y-106461904D01*
X149083390Y-106461904D02*
X149654819Y-105890476D01*
X149654819Y-105890476D02*
X149654819Y-106509523D01*
X148988152Y-107366666D02*
X149654819Y-107366666D01*
X148607200Y-107128571D02*
X149321485Y-106890476D01*
X149321485Y-106890476D02*
X149321485Y-107509523D01*
X149654819Y-130957142D02*
X149178628Y-130623809D01*
X149654819Y-130385714D02*
X148654819Y-130385714D01*
X148654819Y-130385714D02*
X148654819Y-130766666D01*
X148654819Y-130766666D02*
X148702438Y-130861904D01*
X148702438Y-130861904D02*
X148750057Y-130909523D01*
X148750057Y-130909523D02*
X148845295Y-130957142D01*
X148845295Y-130957142D02*
X148988152Y-130957142D01*
X148988152Y-130957142D02*
X149083390Y-130909523D01*
X149083390Y-130909523D02*
X149131009Y-130861904D01*
X149131009Y-130861904D02*
X149178628Y-130766666D01*
X149178628Y-130766666D02*
X149178628Y-130385714D01*
X148750057Y-131338095D02*
X148702438Y-131385714D01*
X148702438Y-131385714D02*
X148654819Y-131480952D01*
X148654819Y-131480952D02*
X148654819Y-131719047D01*
X148654819Y-131719047D02*
X148702438Y-131814285D01*
X148702438Y-131814285D02*
X148750057Y-131861904D01*
X148750057Y-131861904D02*
X148845295Y-131909523D01*
X148845295Y-131909523D02*
X148940533Y-131909523D01*
X148940533Y-131909523D02*
X149083390Y-131861904D01*
X149083390Y-131861904D02*
X149654819Y-131290476D01*
X149654819Y-131290476D02*
X149654819Y-131909523D01*
X148654819Y-132242857D02*
X148654819Y-132861904D01*
X148654819Y-132861904D02*
X149035771Y-132528571D01*
X149035771Y-132528571D02*
X149035771Y-132671428D01*
X149035771Y-132671428D02*
X149083390Y-132766666D01*
X149083390Y-132766666D02*
X149131009Y-132814285D01*
X149131009Y-132814285D02*
X149226247Y-132861904D01*
X149226247Y-132861904D02*
X149464342Y-132861904D01*
X149464342Y-132861904D02*
X149559580Y-132814285D01*
X149559580Y-132814285D02*
X149607200Y-132766666D01*
X149607200Y-132766666D02*
X149654819Y-132671428D01*
X149654819Y-132671428D02*
X149654819Y-132385714D01*
X149654819Y-132385714D02*
X149607200Y-132290476D01*
X149607200Y-132290476D02*
X149559580Y-132242857D01*
X186964819Y-110989642D02*
X186488628Y-110656309D01*
X186964819Y-110418214D02*
X185964819Y-110418214D01*
X185964819Y-110418214D02*
X185964819Y-110799166D01*
X185964819Y-110799166D02*
X186012438Y-110894404D01*
X186012438Y-110894404D02*
X186060057Y-110942023D01*
X186060057Y-110942023D02*
X186155295Y-110989642D01*
X186155295Y-110989642D02*
X186298152Y-110989642D01*
X186298152Y-110989642D02*
X186393390Y-110942023D01*
X186393390Y-110942023D02*
X186441009Y-110894404D01*
X186441009Y-110894404D02*
X186488628Y-110799166D01*
X186488628Y-110799166D02*
X186488628Y-110418214D01*
X186060057Y-111370595D02*
X186012438Y-111418214D01*
X186012438Y-111418214D02*
X185964819Y-111513452D01*
X185964819Y-111513452D02*
X185964819Y-111751547D01*
X185964819Y-111751547D02*
X186012438Y-111846785D01*
X186012438Y-111846785D02*
X186060057Y-111894404D01*
X186060057Y-111894404D02*
X186155295Y-111942023D01*
X186155295Y-111942023D02*
X186250533Y-111942023D01*
X186250533Y-111942023D02*
X186393390Y-111894404D01*
X186393390Y-111894404D02*
X186964819Y-111322976D01*
X186964819Y-111322976D02*
X186964819Y-111942023D01*
X185964819Y-112799166D02*
X185964819Y-112608690D01*
X185964819Y-112608690D02*
X186012438Y-112513452D01*
X186012438Y-112513452D02*
X186060057Y-112465833D01*
X186060057Y-112465833D02*
X186202914Y-112370595D01*
X186202914Y-112370595D02*
X186393390Y-112322976D01*
X186393390Y-112322976D02*
X186774342Y-112322976D01*
X186774342Y-112322976D02*
X186869580Y-112370595D01*
X186869580Y-112370595D02*
X186917200Y-112418214D01*
X186917200Y-112418214D02*
X186964819Y-112513452D01*
X186964819Y-112513452D02*
X186964819Y-112703928D01*
X186964819Y-112703928D02*
X186917200Y-112799166D01*
X186917200Y-112799166D02*
X186869580Y-112846785D01*
X186869580Y-112846785D02*
X186774342Y-112894404D01*
X186774342Y-112894404D02*
X186536247Y-112894404D01*
X186536247Y-112894404D02*
X186441009Y-112846785D01*
X186441009Y-112846785D02*
X186393390Y-112799166D01*
X186393390Y-112799166D02*
X186345771Y-112703928D01*
X186345771Y-112703928D02*
X186345771Y-112513452D01*
X186345771Y-112513452D02*
X186393390Y-112418214D01*
X186393390Y-112418214D02*
X186441009Y-112370595D01*
X186441009Y-112370595D02*
X186536247Y-112322976D01*
X164037857Y-115344580D02*
X164085476Y-115392200D01*
X164085476Y-115392200D02*
X164228333Y-115439819D01*
X164228333Y-115439819D02*
X164323571Y-115439819D01*
X164323571Y-115439819D02*
X164466428Y-115392200D01*
X164466428Y-115392200D02*
X164561666Y-115296961D01*
X164561666Y-115296961D02*
X164609285Y-115201723D01*
X164609285Y-115201723D02*
X164656904Y-115011247D01*
X164656904Y-115011247D02*
X164656904Y-114868390D01*
X164656904Y-114868390D02*
X164609285Y-114677914D01*
X164609285Y-114677914D02*
X164561666Y-114582676D01*
X164561666Y-114582676D02*
X164466428Y-114487438D01*
X164466428Y-114487438D02*
X164323571Y-114439819D01*
X164323571Y-114439819D02*
X164228333Y-114439819D01*
X164228333Y-114439819D02*
X164085476Y-114487438D01*
X164085476Y-114487438D02*
X164037857Y-114535057D01*
X163656904Y-114535057D02*
X163609285Y-114487438D01*
X163609285Y-114487438D02*
X163514047Y-114439819D01*
X163514047Y-114439819D02*
X163275952Y-114439819D01*
X163275952Y-114439819D02*
X163180714Y-114487438D01*
X163180714Y-114487438D02*
X163133095Y-114535057D01*
X163133095Y-114535057D02*
X163085476Y-114630295D01*
X163085476Y-114630295D02*
X163085476Y-114725533D01*
X163085476Y-114725533D02*
X163133095Y-114868390D01*
X163133095Y-114868390D02*
X163704523Y-115439819D01*
X163704523Y-115439819D02*
X163085476Y-115439819D01*
X162514047Y-114868390D02*
X162609285Y-114820771D01*
X162609285Y-114820771D02*
X162656904Y-114773152D01*
X162656904Y-114773152D02*
X162704523Y-114677914D01*
X162704523Y-114677914D02*
X162704523Y-114630295D01*
X162704523Y-114630295D02*
X162656904Y-114535057D01*
X162656904Y-114535057D02*
X162609285Y-114487438D01*
X162609285Y-114487438D02*
X162514047Y-114439819D01*
X162514047Y-114439819D02*
X162323571Y-114439819D01*
X162323571Y-114439819D02*
X162228333Y-114487438D01*
X162228333Y-114487438D02*
X162180714Y-114535057D01*
X162180714Y-114535057D02*
X162133095Y-114630295D01*
X162133095Y-114630295D02*
X162133095Y-114677914D01*
X162133095Y-114677914D02*
X162180714Y-114773152D01*
X162180714Y-114773152D02*
X162228333Y-114820771D01*
X162228333Y-114820771D02*
X162323571Y-114868390D01*
X162323571Y-114868390D02*
X162514047Y-114868390D01*
X162514047Y-114868390D02*
X162609285Y-114916009D01*
X162609285Y-114916009D02*
X162656904Y-114963628D01*
X162656904Y-114963628D02*
X162704523Y-115058866D01*
X162704523Y-115058866D02*
X162704523Y-115249342D01*
X162704523Y-115249342D02*
X162656904Y-115344580D01*
X162656904Y-115344580D02*
X162609285Y-115392200D01*
X162609285Y-115392200D02*
X162514047Y-115439819D01*
X162514047Y-115439819D02*
X162323571Y-115439819D01*
X162323571Y-115439819D02*
X162228333Y-115392200D01*
X162228333Y-115392200D02*
X162180714Y-115344580D01*
X162180714Y-115344580D02*
X162133095Y-115249342D01*
X162133095Y-115249342D02*
X162133095Y-115058866D01*
X162133095Y-115058866D02*
X162180714Y-114963628D01*
X162180714Y-114963628D02*
X162228333Y-114916009D01*
X162228333Y-114916009D02*
X162323571Y-114868390D01*
X169224580Y-118873642D02*
X169272200Y-118826023D01*
X169272200Y-118826023D02*
X169319819Y-118683166D01*
X169319819Y-118683166D02*
X169319819Y-118587928D01*
X169319819Y-118587928D02*
X169272200Y-118445071D01*
X169272200Y-118445071D02*
X169176961Y-118349833D01*
X169176961Y-118349833D02*
X169081723Y-118302214D01*
X169081723Y-118302214D02*
X168891247Y-118254595D01*
X168891247Y-118254595D02*
X168748390Y-118254595D01*
X168748390Y-118254595D02*
X168557914Y-118302214D01*
X168557914Y-118302214D02*
X168462676Y-118349833D01*
X168462676Y-118349833D02*
X168367438Y-118445071D01*
X168367438Y-118445071D02*
X168319819Y-118587928D01*
X168319819Y-118587928D02*
X168319819Y-118683166D01*
X168319819Y-118683166D02*
X168367438Y-118826023D01*
X168367438Y-118826023D02*
X168415057Y-118873642D01*
X168415057Y-119254595D02*
X168367438Y-119302214D01*
X168367438Y-119302214D02*
X168319819Y-119397452D01*
X168319819Y-119397452D02*
X168319819Y-119635547D01*
X168319819Y-119635547D02*
X168367438Y-119730785D01*
X168367438Y-119730785D02*
X168415057Y-119778404D01*
X168415057Y-119778404D02*
X168510295Y-119826023D01*
X168510295Y-119826023D02*
X168605533Y-119826023D01*
X168605533Y-119826023D02*
X168748390Y-119778404D01*
X168748390Y-119778404D02*
X169319819Y-119206976D01*
X169319819Y-119206976D02*
X169319819Y-119826023D01*
X168319819Y-120730785D02*
X168319819Y-120254595D01*
X168319819Y-120254595D02*
X168796009Y-120206976D01*
X168796009Y-120206976D02*
X168748390Y-120254595D01*
X168748390Y-120254595D02*
X168700771Y-120349833D01*
X168700771Y-120349833D02*
X168700771Y-120587928D01*
X168700771Y-120587928D02*
X168748390Y-120683166D01*
X168748390Y-120683166D02*
X168796009Y-120730785D01*
X168796009Y-120730785D02*
X168891247Y-120778404D01*
X168891247Y-120778404D02*
X169129342Y-120778404D01*
X169129342Y-120778404D02*
X169224580Y-120730785D01*
X169224580Y-120730785D02*
X169272200Y-120683166D01*
X169272200Y-120683166D02*
X169319819Y-120587928D01*
X169319819Y-120587928D02*
X169319819Y-120349833D01*
X169319819Y-120349833D02*
X169272200Y-120254595D01*
X169272200Y-120254595D02*
X169224580Y-120206976D01*
X161059580Y-119857142D02*
X161107200Y-119809523D01*
X161107200Y-119809523D02*
X161154819Y-119666666D01*
X161154819Y-119666666D02*
X161154819Y-119571428D01*
X161154819Y-119571428D02*
X161107200Y-119428571D01*
X161107200Y-119428571D02*
X161011961Y-119333333D01*
X161011961Y-119333333D02*
X160916723Y-119285714D01*
X160916723Y-119285714D02*
X160726247Y-119238095D01*
X160726247Y-119238095D02*
X160583390Y-119238095D01*
X160583390Y-119238095D02*
X160392914Y-119285714D01*
X160392914Y-119285714D02*
X160297676Y-119333333D01*
X160297676Y-119333333D02*
X160202438Y-119428571D01*
X160202438Y-119428571D02*
X160154819Y-119571428D01*
X160154819Y-119571428D02*
X160154819Y-119666666D01*
X160154819Y-119666666D02*
X160202438Y-119809523D01*
X160202438Y-119809523D02*
X160250057Y-119857142D01*
X160154819Y-120190476D02*
X160154819Y-120809523D01*
X160154819Y-120809523D02*
X160535771Y-120476190D01*
X160535771Y-120476190D02*
X160535771Y-120619047D01*
X160535771Y-120619047D02*
X160583390Y-120714285D01*
X160583390Y-120714285D02*
X160631009Y-120761904D01*
X160631009Y-120761904D02*
X160726247Y-120809523D01*
X160726247Y-120809523D02*
X160964342Y-120809523D01*
X160964342Y-120809523D02*
X161059580Y-120761904D01*
X161059580Y-120761904D02*
X161107200Y-120714285D01*
X161107200Y-120714285D02*
X161154819Y-120619047D01*
X161154819Y-120619047D02*
X161154819Y-120333333D01*
X161154819Y-120333333D02*
X161107200Y-120238095D01*
X161107200Y-120238095D02*
X161059580Y-120190476D01*
X160154819Y-121714285D02*
X160154819Y-121238095D01*
X160154819Y-121238095D02*
X160631009Y-121190476D01*
X160631009Y-121190476D02*
X160583390Y-121238095D01*
X160583390Y-121238095D02*
X160535771Y-121333333D01*
X160535771Y-121333333D02*
X160535771Y-121571428D01*
X160535771Y-121571428D02*
X160583390Y-121666666D01*
X160583390Y-121666666D02*
X160631009Y-121714285D01*
X160631009Y-121714285D02*
X160726247Y-121761904D01*
X160726247Y-121761904D02*
X160964342Y-121761904D01*
X160964342Y-121761904D02*
X161059580Y-121714285D01*
X161059580Y-121714285D02*
X161107200Y-121666666D01*
X161107200Y-121666666D02*
X161154819Y-121571428D01*
X161154819Y-121571428D02*
X161154819Y-121333333D01*
X161154819Y-121333333D02*
X161107200Y-121238095D01*
X161107200Y-121238095D02*
X161059580Y-121190476D01*
X164196666Y-92229819D02*
X164529999Y-91753628D01*
X164768094Y-92229819D02*
X164768094Y-91229819D01*
X164768094Y-91229819D02*
X164387142Y-91229819D01*
X164387142Y-91229819D02*
X164291904Y-91277438D01*
X164291904Y-91277438D02*
X164244285Y-91325057D01*
X164244285Y-91325057D02*
X164196666Y-91420295D01*
X164196666Y-91420295D02*
X164196666Y-91563152D01*
X164196666Y-91563152D02*
X164244285Y-91658390D01*
X164244285Y-91658390D02*
X164291904Y-91706009D01*
X164291904Y-91706009D02*
X164387142Y-91753628D01*
X164387142Y-91753628D02*
X164768094Y-91753628D01*
X163863332Y-91229819D02*
X163244285Y-91229819D01*
X163244285Y-91229819D02*
X163577618Y-91610771D01*
X163577618Y-91610771D02*
X163434761Y-91610771D01*
X163434761Y-91610771D02*
X163339523Y-91658390D01*
X163339523Y-91658390D02*
X163291904Y-91706009D01*
X163291904Y-91706009D02*
X163244285Y-91801247D01*
X163244285Y-91801247D02*
X163244285Y-92039342D01*
X163244285Y-92039342D02*
X163291904Y-92134580D01*
X163291904Y-92134580D02*
X163339523Y-92182200D01*
X163339523Y-92182200D02*
X163434761Y-92229819D01*
X163434761Y-92229819D02*
X163720475Y-92229819D01*
X163720475Y-92229819D02*
X163815713Y-92182200D01*
X163815713Y-92182200D02*
X163863332Y-92134580D01*
X167511050Y-128888069D02*
X167558669Y-128935689D01*
X167558669Y-128935689D02*
X167701526Y-128983308D01*
X167701526Y-128983308D02*
X167796764Y-128983308D01*
X167796764Y-128983308D02*
X167939621Y-128935689D01*
X167939621Y-128935689D02*
X168034859Y-128840450D01*
X168034859Y-128840450D02*
X168082478Y-128745212D01*
X168082478Y-128745212D02*
X168130097Y-128554736D01*
X168130097Y-128554736D02*
X168130097Y-128411879D01*
X168130097Y-128411879D02*
X168082478Y-128221403D01*
X168082478Y-128221403D02*
X168034859Y-128126165D01*
X168034859Y-128126165D02*
X167939621Y-128030927D01*
X167939621Y-128030927D02*
X167796764Y-127983308D01*
X167796764Y-127983308D02*
X167701526Y-127983308D01*
X167701526Y-127983308D02*
X167558669Y-128030927D01*
X167558669Y-128030927D02*
X167511050Y-128078546D01*
X167177716Y-127983308D02*
X166558669Y-127983308D01*
X166558669Y-127983308D02*
X166892002Y-128364260D01*
X166892002Y-128364260D02*
X166749145Y-128364260D01*
X166749145Y-128364260D02*
X166653907Y-128411879D01*
X166653907Y-128411879D02*
X166606288Y-128459498D01*
X166606288Y-128459498D02*
X166558669Y-128554736D01*
X166558669Y-128554736D02*
X166558669Y-128792831D01*
X166558669Y-128792831D02*
X166606288Y-128888069D01*
X166606288Y-128888069D02*
X166653907Y-128935689D01*
X166653907Y-128935689D02*
X166749145Y-128983308D01*
X166749145Y-128983308D02*
X167034859Y-128983308D01*
X167034859Y-128983308D02*
X167130097Y-128935689D01*
X167130097Y-128935689D02*
X167177716Y-128888069D01*
X165701526Y-128316641D02*
X165701526Y-128983308D01*
X165939621Y-127935689D02*
X166177716Y-128649974D01*
X166177716Y-128649974D02*
X165558669Y-128649974D01*
X174917857Y-127259580D02*
X174965476Y-127307200D01*
X174965476Y-127307200D02*
X175108333Y-127354819D01*
X175108333Y-127354819D02*
X175203571Y-127354819D01*
X175203571Y-127354819D02*
X175346428Y-127307200D01*
X175346428Y-127307200D02*
X175441666Y-127211961D01*
X175441666Y-127211961D02*
X175489285Y-127116723D01*
X175489285Y-127116723D02*
X175536904Y-126926247D01*
X175536904Y-126926247D02*
X175536904Y-126783390D01*
X175536904Y-126783390D02*
X175489285Y-126592914D01*
X175489285Y-126592914D02*
X175441666Y-126497676D01*
X175441666Y-126497676D02*
X175346428Y-126402438D01*
X175346428Y-126402438D02*
X175203571Y-126354819D01*
X175203571Y-126354819D02*
X175108333Y-126354819D01*
X175108333Y-126354819D02*
X174965476Y-126402438D01*
X174965476Y-126402438D02*
X174917857Y-126450057D01*
X174584523Y-126354819D02*
X173965476Y-126354819D01*
X173965476Y-126354819D02*
X174298809Y-126735771D01*
X174298809Y-126735771D02*
X174155952Y-126735771D01*
X174155952Y-126735771D02*
X174060714Y-126783390D01*
X174060714Y-126783390D02*
X174013095Y-126831009D01*
X174013095Y-126831009D02*
X173965476Y-126926247D01*
X173965476Y-126926247D02*
X173965476Y-127164342D01*
X173965476Y-127164342D02*
X174013095Y-127259580D01*
X174013095Y-127259580D02*
X174060714Y-127307200D01*
X174060714Y-127307200D02*
X174155952Y-127354819D01*
X174155952Y-127354819D02*
X174441666Y-127354819D01*
X174441666Y-127354819D02*
X174536904Y-127307200D01*
X174536904Y-127307200D02*
X174584523Y-127259580D01*
X173013095Y-127354819D02*
X173584523Y-127354819D01*
X173298809Y-127354819D02*
X173298809Y-126354819D01*
X173298809Y-126354819D02*
X173394047Y-126497676D01*
X173394047Y-126497676D02*
X173489285Y-126592914D01*
X173489285Y-126592914D02*
X173584523Y-126640533D01*
X168587857Y-115314580D02*
X168635476Y-115362200D01*
X168635476Y-115362200D02*
X168778333Y-115409819D01*
X168778333Y-115409819D02*
X168873571Y-115409819D01*
X168873571Y-115409819D02*
X169016428Y-115362200D01*
X169016428Y-115362200D02*
X169111666Y-115266961D01*
X169111666Y-115266961D02*
X169159285Y-115171723D01*
X169159285Y-115171723D02*
X169206904Y-114981247D01*
X169206904Y-114981247D02*
X169206904Y-114838390D01*
X169206904Y-114838390D02*
X169159285Y-114647914D01*
X169159285Y-114647914D02*
X169111666Y-114552676D01*
X169111666Y-114552676D02*
X169016428Y-114457438D01*
X169016428Y-114457438D02*
X168873571Y-114409819D01*
X168873571Y-114409819D02*
X168778333Y-114409819D01*
X168778333Y-114409819D02*
X168635476Y-114457438D01*
X168635476Y-114457438D02*
X168587857Y-114505057D01*
X168254523Y-114409819D02*
X167635476Y-114409819D01*
X167635476Y-114409819D02*
X167968809Y-114790771D01*
X167968809Y-114790771D02*
X167825952Y-114790771D01*
X167825952Y-114790771D02*
X167730714Y-114838390D01*
X167730714Y-114838390D02*
X167683095Y-114886009D01*
X167683095Y-114886009D02*
X167635476Y-114981247D01*
X167635476Y-114981247D02*
X167635476Y-115219342D01*
X167635476Y-115219342D02*
X167683095Y-115314580D01*
X167683095Y-115314580D02*
X167730714Y-115362200D01*
X167730714Y-115362200D02*
X167825952Y-115409819D01*
X167825952Y-115409819D02*
X168111666Y-115409819D01*
X168111666Y-115409819D02*
X168206904Y-115362200D01*
X168206904Y-115362200D02*
X168254523Y-115314580D01*
X166778333Y-114409819D02*
X166968809Y-114409819D01*
X166968809Y-114409819D02*
X167064047Y-114457438D01*
X167064047Y-114457438D02*
X167111666Y-114505057D01*
X167111666Y-114505057D02*
X167206904Y-114647914D01*
X167206904Y-114647914D02*
X167254523Y-114838390D01*
X167254523Y-114838390D02*
X167254523Y-115219342D01*
X167254523Y-115219342D02*
X167206904Y-115314580D01*
X167206904Y-115314580D02*
X167159285Y-115362200D01*
X167159285Y-115362200D02*
X167064047Y-115409819D01*
X167064047Y-115409819D02*
X166873571Y-115409819D01*
X166873571Y-115409819D02*
X166778333Y-115362200D01*
X166778333Y-115362200D02*
X166730714Y-115314580D01*
X166730714Y-115314580D02*
X166683095Y-115219342D01*
X166683095Y-115219342D02*
X166683095Y-114981247D01*
X166683095Y-114981247D02*
X166730714Y-114886009D01*
X166730714Y-114886009D02*
X166778333Y-114838390D01*
X166778333Y-114838390D02*
X166873571Y-114790771D01*
X166873571Y-114790771D02*
X167064047Y-114790771D01*
X167064047Y-114790771D02*
X167159285Y-114838390D01*
X167159285Y-114838390D02*
X167206904Y-114886009D01*
X167206904Y-114886009D02*
X167254523Y-114981247D01*
X186964819Y-136389642D02*
X186488628Y-136056309D01*
X186964819Y-135818214D02*
X185964819Y-135818214D01*
X185964819Y-135818214D02*
X185964819Y-136199166D01*
X185964819Y-136199166D02*
X186012438Y-136294404D01*
X186012438Y-136294404D02*
X186060057Y-136342023D01*
X186060057Y-136342023D02*
X186155295Y-136389642D01*
X186155295Y-136389642D02*
X186298152Y-136389642D01*
X186298152Y-136389642D02*
X186393390Y-136342023D01*
X186393390Y-136342023D02*
X186441009Y-136294404D01*
X186441009Y-136294404D02*
X186488628Y-136199166D01*
X186488628Y-136199166D02*
X186488628Y-135818214D01*
X186060057Y-136770595D02*
X186012438Y-136818214D01*
X186012438Y-136818214D02*
X185964819Y-136913452D01*
X185964819Y-136913452D02*
X185964819Y-137151547D01*
X185964819Y-137151547D02*
X186012438Y-137246785D01*
X186012438Y-137246785D02*
X186060057Y-137294404D01*
X186060057Y-137294404D02*
X186155295Y-137342023D01*
X186155295Y-137342023D02*
X186250533Y-137342023D01*
X186250533Y-137342023D02*
X186393390Y-137294404D01*
X186393390Y-137294404D02*
X186964819Y-136722976D01*
X186964819Y-136722976D02*
X186964819Y-137342023D01*
X185964819Y-137675357D02*
X185964819Y-138342023D01*
X185964819Y-138342023D02*
X186964819Y-137913452D01*
X166396666Y-92229819D02*
X166729999Y-91753628D01*
X166968094Y-92229819D02*
X166968094Y-91229819D01*
X166968094Y-91229819D02*
X166587142Y-91229819D01*
X166587142Y-91229819D02*
X166491904Y-91277438D01*
X166491904Y-91277438D02*
X166444285Y-91325057D01*
X166444285Y-91325057D02*
X166396666Y-91420295D01*
X166396666Y-91420295D02*
X166396666Y-91563152D01*
X166396666Y-91563152D02*
X166444285Y-91658390D01*
X166444285Y-91658390D02*
X166491904Y-91706009D01*
X166491904Y-91706009D02*
X166587142Y-91753628D01*
X166587142Y-91753628D02*
X166968094Y-91753628D01*
X165444285Y-92229819D02*
X166015713Y-92229819D01*
X165729999Y-92229819D02*
X165729999Y-91229819D01*
X165729999Y-91229819D02*
X165825237Y-91372676D01*
X165825237Y-91372676D02*
X165920475Y-91467914D01*
X165920475Y-91467914D02*
X166015713Y-91515533D01*
X173509580Y-122123666D02*
X173557200Y-122076047D01*
X173557200Y-122076047D02*
X173604819Y-121933190D01*
X173604819Y-121933190D02*
X173604819Y-121837952D01*
X173604819Y-121837952D02*
X173557200Y-121695095D01*
X173557200Y-121695095D02*
X173461961Y-121599857D01*
X173461961Y-121599857D02*
X173366723Y-121552238D01*
X173366723Y-121552238D02*
X173176247Y-121504619D01*
X173176247Y-121504619D02*
X173033390Y-121504619D01*
X173033390Y-121504619D02*
X172842914Y-121552238D01*
X172842914Y-121552238D02*
X172747676Y-121599857D01*
X172747676Y-121599857D02*
X172652438Y-121695095D01*
X172652438Y-121695095D02*
X172604819Y-121837952D01*
X172604819Y-121837952D02*
X172604819Y-121933190D01*
X172604819Y-121933190D02*
X172652438Y-122076047D01*
X172652438Y-122076047D02*
X172700057Y-122123666D01*
X172604819Y-122457000D02*
X172604819Y-123076047D01*
X172604819Y-123076047D02*
X172985771Y-122742714D01*
X172985771Y-122742714D02*
X172985771Y-122885571D01*
X172985771Y-122885571D02*
X173033390Y-122980809D01*
X173033390Y-122980809D02*
X173081009Y-123028428D01*
X173081009Y-123028428D02*
X173176247Y-123076047D01*
X173176247Y-123076047D02*
X173414342Y-123076047D01*
X173414342Y-123076047D02*
X173509580Y-123028428D01*
X173509580Y-123028428D02*
X173557200Y-122980809D01*
X173557200Y-122980809D02*
X173604819Y-122885571D01*
X173604819Y-122885571D02*
X173604819Y-122599857D01*
X173604819Y-122599857D02*
X173557200Y-122504619D01*
X173557200Y-122504619D02*
X173509580Y-122457000D01*
X172604819Y-123695095D02*
X172604819Y-123790333D01*
X172604819Y-123790333D02*
X172652438Y-123885571D01*
X172652438Y-123885571D02*
X172700057Y-123933190D01*
X172700057Y-123933190D02*
X172795295Y-123980809D01*
X172795295Y-123980809D02*
X172985771Y-124028428D01*
X172985771Y-124028428D02*
X173223866Y-124028428D01*
X173223866Y-124028428D02*
X173414342Y-123980809D01*
X173414342Y-123980809D02*
X173509580Y-123933190D01*
X173509580Y-123933190D02*
X173557200Y-123885571D01*
X173557200Y-123885571D02*
X173604819Y-123790333D01*
X173604819Y-123790333D02*
X173604819Y-123695095D01*
X173604819Y-123695095D02*
X173557200Y-123599857D01*
X173557200Y-123599857D02*
X173509580Y-123552238D01*
X173509580Y-123552238D02*
X173414342Y-123504619D01*
X173414342Y-123504619D02*
X173223866Y-123457000D01*
X173223866Y-123457000D02*
X172985771Y-123457000D01*
X172985771Y-123457000D02*
X172795295Y-123504619D01*
X172795295Y-123504619D02*
X172700057Y-123552238D01*
X172700057Y-123552238D02*
X172652438Y-123599857D01*
X172652438Y-123599857D02*
X172604819Y-123695095D01*
X169812857Y-124446080D02*
X169860476Y-124493700D01*
X169860476Y-124493700D02*
X170003333Y-124541319D01*
X170003333Y-124541319D02*
X170098571Y-124541319D01*
X170098571Y-124541319D02*
X170241428Y-124493700D01*
X170241428Y-124493700D02*
X170336666Y-124398461D01*
X170336666Y-124398461D02*
X170384285Y-124303223D01*
X170384285Y-124303223D02*
X170431904Y-124112747D01*
X170431904Y-124112747D02*
X170431904Y-123969890D01*
X170431904Y-123969890D02*
X170384285Y-123779414D01*
X170384285Y-123779414D02*
X170336666Y-123684176D01*
X170336666Y-123684176D02*
X170241428Y-123588938D01*
X170241428Y-123588938D02*
X170098571Y-123541319D01*
X170098571Y-123541319D02*
X170003333Y-123541319D01*
X170003333Y-123541319D02*
X169860476Y-123588938D01*
X169860476Y-123588938D02*
X169812857Y-123636557D01*
X169431904Y-123636557D02*
X169384285Y-123588938D01*
X169384285Y-123588938D02*
X169289047Y-123541319D01*
X169289047Y-123541319D02*
X169050952Y-123541319D01*
X169050952Y-123541319D02*
X168955714Y-123588938D01*
X168955714Y-123588938D02*
X168908095Y-123636557D01*
X168908095Y-123636557D02*
X168860476Y-123731795D01*
X168860476Y-123731795D02*
X168860476Y-123827033D01*
X168860476Y-123827033D02*
X168908095Y-123969890D01*
X168908095Y-123969890D02*
X169479523Y-124541319D01*
X169479523Y-124541319D02*
X168860476Y-124541319D01*
X168003333Y-123541319D02*
X168193809Y-123541319D01*
X168193809Y-123541319D02*
X168289047Y-123588938D01*
X168289047Y-123588938D02*
X168336666Y-123636557D01*
X168336666Y-123636557D02*
X168431904Y-123779414D01*
X168431904Y-123779414D02*
X168479523Y-123969890D01*
X168479523Y-123969890D02*
X168479523Y-124350842D01*
X168479523Y-124350842D02*
X168431904Y-124446080D01*
X168431904Y-124446080D02*
X168384285Y-124493700D01*
X168384285Y-124493700D02*
X168289047Y-124541319D01*
X168289047Y-124541319D02*
X168098571Y-124541319D01*
X168098571Y-124541319D02*
X168003333Y-124493700D01*
X168003333Y-124493700D02*
X167955714Y-124446080D01*
X167955714Y-124446080D02*
X167908095Y-124350842D01*
X167908095Y-124350842D02*
X167908095Y-124112747D01*
X167908095Y-124112747D02*
X167955714Y-124017509D01*
X167955714Y-124017509D02*
X168003333Y-123969890D01*
X168003333Y-123969890D02*
X168098571Y-123922271D01*
X168098571Y-123922271D02*
X168289047Y-123922271D01*
X168289047Y-123922271D02*
X168384285Y-123969890D01*
X168384285Y-123969890D02*
X168431904Y-124017509D01*
X168431904Y-124017509D02*
X168479523Y-124112747D01*
X176719047Y-95554819D02*
X177290475Y-95554819D01*
X177004761Y-95554819D02*
X177004761Y-94554819D01*
X177004761Y-94554819D02*
X177099999Y-94697676D01*
X177099999Y-94697676D02*
X177195237Y-94792914D01*
X177195237Y-94792914D02*
X177290475Y-94840533D01*
X176290475Y-95554819D02*
X176290475Y-94554819D01*
X176195237Y-95173866D02*
X175909523Y-95554819D01*
X175909523Y-94888152D02*
X176290475Y-95269104D01*
X176788152Y-118323095D02*
X177454819Y-118323095D01*
X176407200Y-118085000D02*
X177121485Y-117846905D01*
X177121485Y-117846905D02*
X177121485Y-118465952D01*
X177359580Y-118846905D02*
X177407200Y-118894524D01*
X177407200Y-118894524D02*
X177454819Y-118846905D01*
X177454819Y-118846905D02*
X177407200Y-118799286D01*
X177407200Y-118799286D02*
X177359580Y-118846905D01*
X177359580Y-118846905D02*
X177454819Y-118846905D01*
X176454819Y-119227857D02*
X176454819Y-119894523D01*
X176454819Y-119894523D02*
X177454819Y-119465952D01*
X176788152Y-120704047D02*
X177454819Y-120704047D01*
X176788152Y-120275476D02*
X177311961Y-120275476D01*
X177311961Y-120275476D02*
X177407200Y-120323095D01*
X177407200Y-120323095D02*
X177454819Y-120418333D01*
X177454819Y-120418333D02*
X177454819Y-120561190D01*
X177454819Y-120561190D02*
X177407200Y-120656428D01*
X177407200Y-120656428D02*
X177359580Y-120704047D01*
X176788152Y-121037381D02*
X176788152Y-121418333D01*
X177454819Y-121180238D02*
X176597676Y-121180238D01*
X176597676Y-121180238D02*
X176502438Y-121227857D01*
X176502438Y-121227857D02*
X176454819Y-121323095D01*
X176454819Y-121323095D02*
X176454819Y-121418333D01*
X173242857Y-116059580D02*
X173290476Y-116107200D01*
X173290476Y-116107200D02*
X173433333Y-116154819D01*
X173433333Y-116154819D02*
X173528571Y-116154819D01*
X173528571Y-116154819D02*
X173671428Y-116107200D01*
X173671428Y-116107200D02*
X173766666Y-116011961D01*
X173766666Y-116011961D02*
X173814285Y-115916723D01*
X173814285Y-115916723D02*
X173861904Y-115726247D01*
X173861904Y-115726247D02*
X173861904Y-115583390D01*
X173861904Y-115583390D02*
X173814285Y-115392914D01*
X173814285Y-115392914D02*
X173766666Y-115297676D01*
X173766666Y-115297676D02*
X173671428Y-115202438D01*
X173671428Y-115202438D02*
X173528571Y-115154819D01*
X173528571Y-115154819D02*
X173433333Y-115154819D01*
X173433333Y-115154819D02*
X173290476Y-115202438D01*
X173290476Y-115202438D02*
X173242857Y-115250057D01*
X172861904Y-115250057D02*
X172814285Y-115202438D01*
X172814285Y-115202438D02*
X172719047Y-115154819D01*
X172719047Y-115154819D02*
X172480952Y-115154819D01*
X172480952Y-115154819D02*
X172385714Y-115202438D01*
X172385714Y-115202438D02*
X172338095Y-115250057D01*
X172338095Y-115250057D02*
X172290476Y-115345295D01*
X172290476Y-115345295D02*
X172290476Y-115440533D01*
X172290476Y-115440533D02*
X172338095Y-115583390D01*
X172338095Y-115583390D02*
X172909523Y-116154819D01*
X172909523Y-116154819D02*
X172290476Y-116154819D01*
X171814285Y-116154819D02*
X171623809Y-116154819D01*
X171623809Y-116154819D02*
X171528571Y-116107200D01*
X171528571Y-116107200D02*
X171480952Y-116059580D01*
X171480952Y-116059580D02*
X171385714Y-115916723D01*
X171385714Y-115916723D02*
X171338095Y-115726247D01*
X171338095Y-115726247D02*
X171338095Y-115345295D01*
X171338095Y-115345295D02*
X171385714Y-115250057D01*
X171385714Y-115250057D02*
X171433333Y-115202438D01*
X171433333Y-115202438D02*
X171528571Y-115154819D01*
X171528571Y-115154819D02*
X171719047Y-115154819D01*
X171719047Y-115154819D02*
X171814285Y-115202438D01*
X171814285Y-115202438D02*
X171861904Y-115250057D01*
X171861904Y-115250057D02*
X171909523Y-115345295D01*
X171909523Y-115345295D02*
X171909523Y-115583390D01*
X171909523Y-115583390D02*
X171861904Y-115678628D01*
X171861904Y-115678628D02*
X171814285Y-115726247D01*
X171814285Y-115726247D02*
X171719047Y-115773866D01*
X171719047Y-115773866D02*
X171528571Y-115773866D01*
X171528571Y-115773866D02*
X171433333Y-115726247D01*
X171433333Y-115726247D02*
X171385714Y-115678628D01*
X171385714Y-115678628D02*
X171338095Y-115583390D01*
X164479580Y-118842142D02*
X164527200Y-118794523D01*
X164527200Y-118794523D02*
X164574819Y-118651666D01*
X164574819Y-118651666D02*
X164574819Y-118556428D01*
X164574819Y-118556428D02*
X164527200Y-118413571D01*
X164527200Y-118413571D02*
X164431961Y-118318333D01*
X164431961Y-118318333D02*
X164336723Y-118270714D01*
X164336723Y-118270714D02*
X164146247Y-118223095D01*
X164146247Y-118223095D02*
X164003390Y-118223095D01*
X164003390Y-118223095D02*
X163812914Y-118270714D01*
X163812914Y-118270714D02*
X163717676Y-118318333D01*
X163717676Y-118318333D02*
X163622438Y-118413571D01*
X163622438Y-118413571D02*
X163574819Y-118556428D01*
X163574819Y-118556428D02*
X163574819Y-118651666D01*
X163574819Y-118651666D02*
X163622438Y-118794523D01*
X163622438Y-118794523D02*
X163670057Y-118842142D01*
X163670057Y-119223095D02*
X163622438Y-119270714D01*
X163622438Y-119270714D02*
X163574819Y-119365952D01*
X163574819Y-119365952D02*
X163574819Y-119604047D01*
X163574819Y-119604047D02*
X163622438Y-119699285D01*
X163622438Y-119699285D02*
X163670057Y-119746904D01*
X163670057Y-119746904D02*
X163765295Y-119794523D01*
X163765295Y-119794523D02*
X163860533Y-119794523D01*
X163860533Y-119794523D02*
X164003390Y-119746904D01*
X164003390Y-119746904D02*
X164574819Y-119175476D01*
X164574819Y-119175476D02*
X164574819Y-119794523D01*
X163574819Y-120127857D02*
X163574819Y-120794523D01*
X163574819Y-120794523D02*
X164574819Y-120365952D01*
X161900098Y-92239728D02*
X162233431Y-91763537D01*
X162471526Y-92239728D02*
X162471526Y-91239728D01*
X162471526Y-91239728D02*
X162090574Y-91239728D01*
X162090574Y-91239728D02*
X161995336Y-91287347D01*
X161995336Y-91287347D02*
X161947717Y-91334966D01*
X161947717Y-91334966D02*
X161900098Y-91430204D01*
X161900098Y-91430204D02*
X161900098Y-91573061D01*
X161900098Y-91573061D02*
X161947717Y-91668299D01*
X161947717Y-91668299D02*
X161995336Y-91715918D01*
X161995336Y-91715918D02*
X162090574Y-91763537D01*
X162090574Y-91763537D02*
X162471526Y-91763537D01*
X161042955Y-91573061D02*
X161042955Y-92239728D01*
X161281050Y-91192109D02*
X161519145Y-91906394D01*
X161519145Y-91906394D02*
X160900098Y-91906394D01*
X159574819Y-92814286D02*
X159574819Y-93433333D01*
X159574819Y-93433333D02*
X159955771Y-93100000D01*
X159955771Y-93100000D02*
X159955771Y-93242857D01*
X159955771Y-93242857D02*
X160003390Y-93338095D01*
X160003390Y-93338095D02*
X160051009Y-93385714D01*
X160051009Y-93385714D02*
X160146247Y-93433333D01*
X160146247Y-93433333D02*
X160384342Y-93433333D01*
X160384342Y-93433333D02*
X160479580Y-93385714D01*
X160479580Y-93385714D02*
X160527200Y-93338095D01*
X160527200Y-93338095D02*
X160574819Y-93242857D01*
X160574819Y-93242857D02*
X160574819Y-92957143D01*
X160574819Y-92957143D02*
X160527200Y-92861905D01*
X160527200Y-92861905D02*
X160479580Y-92814286D01*
X159908152Y-94290476D02*
X160574819Y-94290476D01*
X159527200Y-94052381D02*
X160241485Y-93814286D01*
X160241485Y-93814286D02*
X160241485Y-94433333D01*
X159574819Y-95004762D02*
X159574819Y-95100000D01*
X159574819Y-95100000D02*
X159622438Y-95195238D01*
X159622438Y-95195238D02*
X159670057Y-95242857D01*
X159670057Y-95242857D02*
X159765295Y-95290476D01*
X159765295Y-95290476D02*
X159955771Y-95338095D01*
X159955771Y-95338095D02*
X160193866Y-95338095D01*
X160193866Y-95338095D02*
X160384342Y-95290476D01*
X160384342Y-95290476D02*
X160479580Y-95242857D01*
X160479580Y-95242857D02*
X160527200Y-95195238D01*
X160527200Y-95195238D02*
X160574819Y-95100000D01*
X160574819Y-95100000D02*
X160574819Y-95004762D01*
X160574819Y-95004762D02*
X160527200Y-94909524D01*
X160527200Y-94909524D02*
X160479580Y-94861905D01*
X160479580Y-94861905D02*
X160384342Y-94814286D01*
X160384342Y-94814286D02*
X160193866Y-94766667D01*
X160193866Y-94766667D02*
X159955771Y-94766667D01*
X159955771Y-94766667D02*
X159765295Y-94814286D01*
X159765295Y-94814286D02*
X159670057Y-94861905D01*
X159670057Y-94861905D02*
X159622438Y-94909524D01*
X159622438Y-94909524D02*
X159574819Y-95004762D01*
X163637857Y-128874580D02*
X163685476Y-128922200D01*
X163685476Y-128922200D02*
X163828333Y-128969819D01*
X163828333Y-128969819D02*
X163923571Y-128969819D01*
X163923571Y-128969819D02*
X164066428Y-128922200D01*
X164066428Y-128922200D02*
X164161666Y-128826961D01*
X164161666Y-128826961D02*
X164209285Y-128731723D01*
X164209285Y-128731723D02*
X164256904Y-128541247D01*
X164256904Y-128541247D02*
X164256904Y-128398390D01*
X164256904Y-128398390D02*
X164209285Y-128207914D01*
X164209285Y-128207914D02*
X164161666Y-128112676D01*
X164161666Y-128112676D02*
X164066428Y-128017438D01*
X164066428Y-128017438D02*
X163923571Y-127969819D01*
X163923571Y-127969819D02*
X163828333Y-127969819D01*
X163828333Y-127969819D02*
X163685476Y-128017438D01*
X163685476Y-128017438D02*
X163637857Y-128065057D01*
X163304523Y-127969819D02*
X162685476Y-127969819D01*
X162685476Y-127969819D02*
X163018809Y-128350771D01*
X163018809Y-128350771D02*
X162875952Y-128350771D01*
X162875952Y-128350771D02*
X162780714Y-128398390D01*
X162780714Y-128398390D02*
X162733095Y-128446009D01*
X162733095Y-128446009D02*
X162685476Y-128541247D01*
X162685476Y-128541247D02*
X162685476Y-128779342D01*
X162685476Y-128779342D02*
X162733095Y-128874580D01*
X162733095Y-128874580D02*
X162780714Y-128922200D01*
X162780714Y-128922200D02*
X162875952Y-128969819D01*
X162875952Y-128969819D02*
X163161666Y-128969819D01*
X163161666Y-128969819D02*
X163256904Y-128922200D01*
X163256904Y-128922200D02*
X163304523Y-128874580D01*
X162304523Y-128065057D02*
X162256904Y-128017438D01*
X162256904Y-128017438D02*
X162161666Y-127969819D01*
X162161666Y-127969819D02*
X161923571Y-127969819D01*
X161923571Y-127969819D02*
X161828333Y-128017438D01*
X161828333Y-128017438D02*
X161780714Y-128065057D01*
X161780714Y-128065057D02*
X161733095Y-128160295D01*
X161733095Y-128160295D02*
X161733095Y-128255533D01*
X161733095Y-128255533D02*
X161780714Y-128398390D01*
X161780714Y-128398390D02*
X162352142Y-128969819D01*
X162352142Y-128969819D02*
X161733095Y-128969819D01*
X181254819Y-122236792D02*
X180778628Y-121903459D01*
X181254819Y-121665364D02*
X180254819Y-121665364D01*
X180254819Y-121665364D02*
X180254819Y-122046316D01*
X180254819Y-122046316D02*
X180302438Y-122141554D01*
X180302438Y-122141554D02*
X180350057Y-122189173D01*
X180350057Y-122189173D02*
X180445295Y-122236792D01*
X180445295Y-122236792D02*
X180588152Y-122236792D01*
X180588152Y-122236792D02*
X180683390Y-122189173D01*
X180683390Y-122189173D02*
X180731009Y-122141554D01*
X180731009Y-122141554D02*
X180778628Y-122046316D01*
X180778628Y-122046316D02*
X180778628Y-121665364D01*
X180350057Y-122617745D02*
X180302438Y-122665364D01*
X180302438Y-122665364D02*
X180254819Y-122760602D01*
X180254819Y-122760602D02*
X180254819Y-122998697D01*
X180254819Y-122998697D02*
X180302438Y-123093935D01*
X180302438Y-123093935D02*
X180350057Y-123141554D01*
X180350057Y-123141554D02*
X180445295Y-123189173D01*
X180445295Y-123189173D02*
X180540533Y-123189173D01*
X180540533Y-123189173D02*
X180683390Y-123141554D01*
X180683390Y-123141554D02*
X181254819Y-122570126D01*
X181254819Y-122570126D02*
X181254819Y-123189173D01*
X180350057Y-123570126D02*
X180302438Y-123617745D01*
X180302438Y-123617745D02*
X180254819Y-123712983D01*
X180254819Y-123712983D02*
X180254819Y-123951078D01*
X180254819Y-123951078D02*
X180302438Y-124046316D01*
X180302438Y-124046316D02*
X180350057Y-124093935D01*
X180350057Y-124093935D02*
X180445295Y-124141554D01*
X180445295Y-124141554D02*
X180540533Y-124141554D01*
X180540533Y-124141554D02*
X180683390Y-124093935D01*
X180683390Y-124093935D02*
X181254819Y-123522507D01*
X181254819Y-123522507D02*
X181254819Y-124141554D01*
D11*
X160410000Y-124340580D02*
X160410000Y-124059420D01*
X161430000Y-124340580D02*
X161430000Y-124059420D01*
X147137500Y-106154758D02*
X147137500Y-105680242D01*
X148182500Y-106154758D02*
X148182500Y-105680242D01*
X147137500Y-131554758D02*
X147137500Y-131080242D01*
X148182500Y-131554758D02*
X148182500Y-131080242D01*
X184557500Y-111869758D02*
X184557500Y-111395242D01*
X185602500Y-111869758D02*
X185602500Y-111395242D01*
X163254420Y-115875000D02*
X163535580Y-115875000D01*
X163254420Y-116895000D02*
X163535580Y-116895000D01*
X169785000Y-119375920D02*
X169785000Y-119657080D01*
X170805000Y-119375920D02*
X170805000Y-119657080D01*
X160050000Y-117369420D02*
X160050000Y-117650580D01*
X161070000Y-117369420D02*
X161070000Y-117650580D01*
X163477500Y-94237258D02*
X163477500Y-93762742D01*
X164522500Y-94237258D02*
X164522500Y-93762742D01*
X166985061Y-126575000D02*
X166703901Y-126575000D01*
X166985061Y-127595000D02*
X166703901Y-127595000D01*
X174415580Y-124915000D02*
X174134420Y-124915000D01*
X174415580Y-125935000D02*
X174134420Y-125935000D01*
X168085580Y-115875000D02*
X167804420Y-115875000D01*
X168085580Y-116895000D02*
X167804420Y-116895000D01*
X184557500Y-137269758D02*
X184557500Y-136795242D01*
X185602500Y-137269758D02*
X185602500Y-136795242D01*
X165767500Y-94237258D02*
X165767500Y-93762742D01*
X166812500Y-94237258D02*
X166812500Y-93762742D01*
X171210000Y-122907104D02*
X171210000Y-122625944D01*
X172230000Y-122907104D02*
X172230000Y-122625944D01*
X169310580Y-125006500D02*
X169029420Y-125006500D01*
X169310580Y-126026500D02*
X169029420Y-126026500D01*
X176262742Y-95997500D02*
X176737258Y-95997500D01*
X176262742Y-97042500D02*
X176737258Y-97042500D01*
X174465000Y-119323748D02*
X174465000Y-119846252D01*
X175935000Y-119323748D02*
X175935000Y-119846252D01*
X172110000Y-118000580D02*
X172110000Y-117719420D01*
X173130000Y-118000580D02*
X173130000Y-117719420D01*
X162185000Y-119175920D02*
X162185000Y-119457080D01*
X163205000Y-119175920D02*
X163205000Y-119457080D01*
X161187500Y-94237258D02*
X161187500Y-93762742D01*
X162232500Y-94237258D02*
X162232500Y-93762742D01*
X162854420Y-126575000D02*
X163135580Y-126575000D01*
X162854420Y-127595000D02*
X163135580Y-127595000D01*
X178777500Y-122562742D02*
X178777500Y-123037258D01*
X179822500Y-122562742D02*
X179822500Y-123037258D01*
%LPC*%
D12*
X165370000Y-120625000D03*
X165370000Y-121625000D03*
X165370000Y-122625000D03*
X166370000Y-120625000D03*
X166370000Y-121625000D03*
X166370000Y-122625000D03*
X167370000Y-120625000D03*
X167370000Y-121625000D03*
X167370000Y-122625000D03*
D13*
X163830000Y-144780000D03*
D14*
X166370000Y-144780000D03*
X168910000Y-144780000D03*
D15*
X192429866Y-83150545D03*
D16*
X192119866Y-86150545D03*
X187279866Y-86150545D03*
D15*
X186969866Y-83150545D03*
D17*
X178527433Y-86565000D03*
X153537433Y-86565000D03*
D18*
X161717433Y-88665000D03*
D19*
X164007433Y-88665000D03*
X166297433Y-88665000D03*
X168587433Y-88665000D03*
X170877433Y-88665000D03*
X160577433Y-86565000D03*
X162867433Y-86565000D03*
X165157433Y-86565000D03*
X167447433Y-86565000D03*
X169737433Y-86565000D03*
X161717433Y-84485000D03*
X164007433Y-84485000D03*
X166297433Y-84485000D03*
X168587433Y-84485000D03*
X170877433Y-84485000D03*
D13*
X149860000Y-124460000D03*
D14*
X149860000Y-121920000D03*
X149860000Y-119380000D03*
X149860000Y-116840000D03*
D20*
X146300000Y-95700000D03*
D21*
X143800000Y-95700000D03*
D13*
X137160000Y-88900000D03*
D14*
X137160000Y-86360000D03*
X139700000Y-88900000D03*
X139700000Y-86360000D03*
X142240000Y-88900000D03*
X142240000Y-86360000D03*
X144780000Y-88900000D03*
X144780000Y-86360000D03*
D13*
X195580000Y-144780000D03*
D14*
X195580000Y-142240000D03*
X195580000Y-139700000D03*
X195580000Y-137160000D03*
X195580000Y-134620000D03*
X195580000Y-132080000D03*
X195580000Y-129540000D03*
X195580000Y-127000000D03*
X195580000Y-124460000D03*
X195580000Y-121920000D03*
X195580000Y-119380000D03*
X195580000Y-116840000D03*
X195580000Y-114300000D03*
X195580000Y-111760000D03*
X195580000Y-109220000D03*
X195580000Y-106680000D03*
X195580000Y-104140000D03*
X195580000Y-101600000D03*
X195580000Y-99060000D03*
X195580000Y-96520000D03*
D13*
X180340000Y-96520000D03*
D14*
X182880000Y-96520000D03*
D13*
X137160000Y-96520000D03*
D14*
X137160000Y-99060000D03*
X137160000Y-101600000D03*
X137160000Y-104140000D03*
X137160000Y-106680000D03*
X137160000Y-109220000D03*
X137160000Y-111760000D03*
X137160000Y-114300000D03*
X137160000Y-116840000D03*
X137160000Y-119380000D03*
X137160000Y-121920000D03*
X137160000Y-124460000D03*
X137160000Y-127000000D03*
X137160000Y-129540000D03*
X137160000Y-132080000D03*
X137160000Y-134620000D03*
X137160000Y-137160000D03*
X137160000Y-139700000D03*
X137160000Y-142240000D03*
X137160000Y-144780000D03*
D22*
X160920000Y-124975000D03*
X160920000Y-123425000D03*
D23*
X147660000Y-106742500D03*
X147660000Y-105092500D03*
X147660000Y-132142500D03*
X147660000Y-130492500D03*
X185080000Y-112457500D03*
X185080000Y-110807500D03*
D24*
X162620000Y-116385000D03*
X164170000Y-116385000D03*
D25*
X170295000Y-118741500D03*
X170295000Y-120291500D03*
X160560000Y-116735000D03*
X160560000Y-118285000D03*
D26*
X164000000Y-93175000D03*
X164000000Y-94825000D03*
D27*
X167619481Y-127085000D03*
X166069481Y-127085000D03*
X175050000Y-125425000D03*
X173500000Y-125425000D03*
X168720000Y-116385000D03*
X167170000Y-116385000D03*
D23*
X185080000Y-137857500D03*
X185080000Y-136207500D03*
D26*
X166290000Y-93175000D03*
X166290000Y-94825000D03*
D22*
X171720000Y-123541524D03*
X171720000Y-121991524D03*
D27*
X169945000Y-125516500D03*
X168395000Y-125516500D03*
D28*
X175675000Y-96520000D03*
X177325000Y-96520000D03*
D29*
X175200000Y-118635000D03*
X175200000Y-120535000D03*
D22*
X172620000Y-118635000D03*
X172620000Y-117085000D03*
D25*
X162695000Y-118541500D03*
X162695000Y-120091500D03*
D26*
X161710000Y-93175000D03*
X161710000Y-94825000D03*
D24*
X162220000Y-127085000D03*
X163770000Y-127085000D03*
D26*
X179300000Y-121975000D03*
X179300000Y-123625000D03*
%LPD*%
M02*
