G04 #@! TF.GenerationSoftware,KiCad,Pcbnew,9.0.1*
G04 #@! TF.CreationDate,2025-04-14T17:52:09+10:00*
G04 #@! TF.ProjectId,RP2350B_LevelShift,52503233-3530-4425-9f4c-6576656c5368,rev?*
G04 #@! TF.SameCoordinates,Original*
G04 #@! TF.FileFunction,Paste,Bot*
G04 #@! TF.FilePolarity,Positive*
%FSLAX46Y46*%
G04 Gerber Fmt 4.6, Leading zero omitted, Abs format (unit mm)*
G04 Created by KiCad (PCBNEW 9.0.1) date 2025-04-14 17:52:09*
%MOMM*%
%LPD*%
G01*
G04 APERTURE LIST*
G04 Aperture macros list*
%AMRoundRect*
0 Rectangle with rounded corners*
0 $1 Rounding radius*
0 $2 $3 $4 $5 $6 $7 $8 $9 X,Y pos of 4 corners*
0 Add a 4 corners polygon primitive as box body*
4,1,4,$2,$3,$4,$5,$6,$7,$8,$9,$2,$3,0*
0 Add four circle primitives for the rounded corners*
1,1,$1+$1,$2,$3*
1,1,$1+$1,$4,$5*
1,1,$1+$1,$6,$7*
1,1,$1+$1,$8,$9*
0 Add four rect primitives between the rounded corners*
20,1,$1+$1,$2,$3,$4,$5,0*
20,1,$1+$1,$4,$5,$6,$7,0*
20,1,$1+$1,$6,$7,$8,$9,0*
20,1,$1+$1,$8,$9,$2,$3,0*%
G04 Aperture macros list end*
%ADD10RoundRect,0.225000X0.250000X-0.225000X0.250000X0.225000X-0.250000X0.225000X-0.250000X-0.225000X0*%
%ADD11RoundRect,0.200000X0.275000X-0.200000X0.275000X0.200000X-0.275000X0.200000X-0.275000X-0.200000X0*%
%ADD12RoundRect,0.225000X-0.225000X-0.250000X0.225000X-0.250000X0.225000X0.250000X-0.225000X0.250000X0*%
%ADD13RoundRect,0.225000X-0.250000X0.225000X-0.250000X-0.225000X0.250000X-0.225000X0.250000X0.225000X0*%
%ADD14RoundRect,0.200000X-0.275000X0.200000X-0.275000X-0.200000X0.275000X-0.200000X0.275000X0.200000X0*%
%ADD15RoundRect,0.225000X0.225000X0.250000X-0.225000X0.250000X-0.225000X-0.250000X0.225000X-0.250000X0*%
%ADD16RoundRect,0.200000X-0.200000X-0.275000X0.200000X-0.275000X0.200000X0.275000X-0.200000X0.275000X0*%
%ADD17RoundRect,0.250000X-0.475000X0.250000X-0.475000X-0.250000X0.475000X-0.250000X0.475000X0.250000X0*%
G04 APERTURE END LIST*
D10*
X160920000Y-124975000D03*
X160920000Y-123425000D03*
D11*
X147660000Y-106742500D03*
X147660000Y-105092500D03*
X147660000Y-132142500D03*
X147660000Y-130492500D03*
X185080000Y-112457500D03*
X185080000Y-110807500D03*
D12*
X162620000Y-116385000D03*
X164170000Y-116385000D03*
D13*
X170295000Y-118741500D03*
X170295000Y-120291500D03*
X160560000Y-116735000D03*
X160560000Y-118285000D03*
D14*
X164000000Y-93175000D03*
X164000000Y-94825000D03*
D15*
X167619481Y-127085000D03*
X166069481Y-127085000D03*
X175050000Y-125425000D03*
X173500000Y-125425000D03*
X168720000Y-116385000D03*
X167170000Y-116385000D03*
D11*
X185080000Y-137857500D03*
X185080000Y-136207500D03*
D14*
X166290000Y-93175000D03*
X166290000Y-94825000D03*
D10*
X171720000Y-123541524D03*
X171720000Y-121991524D03*
D15*
X169945000Y-125516500D03*
X168395000Y-125516500D03*
D16*
X175675000Y-96520000D03*
X177325000Y-96520000D03*
D17*
X175200000Y-118635000D03*
X175200000Y-120535000D03*
D10*
X172620000Y-118635000D03*
X172620000Y-117085000D03*
D13*
X162695000Y-118541500D03*
X162695000Y-120091500D03*
D14*
X161710000Y-93175000D03*
X161710000Y-94825000D03*
D12*
X162220000Y-127085000D03*
X163770000Y-127085000D03*
D14*
X179300000Y-121975000D03*
X179300000Y-123625000D03*
M02*
