%TF.GenerationSoftware,KiCad,Pcbnew,9.0.1*%
%TF.CreationDate,2025-04-14T17:51:52+10:00*%
%TF.ProjectId,RP2350B_LevelShift,52503233-3530-4425-9f4c-6576656c5368,rev?*%
%TF.SameCoordinates,Original*%
%TF.FileFunction,Drillmap*%
%TF.FilePolarity,Positive*%
%FSLAX45Y45*%
G04 Gerber Fmt 4.5, Leading zero omitted, Abs format (unit mm)*
G04 Created by KiCad (PCBNEW 9.0.1) date 2025-04-14 17:51:52*
%MOMM*%
%LPD*%
G01*
G04 APERTURE LIST*
%ADD10C,0.100000*%
%ADD11C,0.200000*%
%ADD12C,0.119000*%
%ADD13C,0.318000*%
G04 APERTURE END LIST*
D10*
X13462000Y-8128000D02*
X19812000Y-8128000D01*
X19812000Y-14744000D01*
X13462000Y-14744000D01*
X13462000Y-8128000D01*
D11*
D10*
X14388475Y-11078475D02*
X14418475Y-11108475D01*
X14418475Y-11078475D02*
X14388475Y-11108475D01*
X14388475Y-13618475D02*
X14418475Y-13648475D01*
X14418475Y-13618475D02*
X14388475Y-13648475D01*
X14425000Y-12265000D02*
X14455000Y-12295000D01*
X14455000Y-12265000D02*
X14425000Y-12295000D01*
X14455000Y-12745000D02*
X14485000Y-12775000D01*
X14485000Y-12745000D02*
X14455000Y-12775000D01*
X14645000Y-12265000D02*
X14675000Y-12295000D01*
X14675000Y-12265000D02*
X14645000Y-12295000D01*
X14715000Y-11305000D02*
X14745000Y-11335000D01*
X14745000Y-11305000D02*
X14715000Y-11335000D01*
X14895000Y-10445000D02*
X14925000Y-10475000D01*
X14925000Y-10445000D02*
X14895000Y-10475000D01*
X14895000Y-12985000D02*
X14925000Y-13015000D01*
X14925000Y-12985000D02*
X14895000Y-13015000D01*
X15075000Y-10465000D02*
X15105000Y-10495000D01*
X15105000Y-10465000D02*
X15075000Y-10495000D01*
X15265000Y-13755000D02*
X15295000Y-13785000D01*
X15295000Y-13755000D02*
X15265000Y-13785000D01*
X15455000Y-12435000D02*
X15485000Y-12465000D01*
X15485000Y-12435000D02*
X15455000Y-12465000D01*
X15695000Y-11065000D02*
X15725000Y-11095000D01*
X15725000Y-11065000D02*
X15695000Y-11095000D01*
X15705000Y-10955000D02*
X15735000Y-10985000D01*
X15735000Y-10955000D02*
X15705000Y-10985000D01*
X15795000Y-9025000D02*
X15825000Y-9055000D01*
X15825000Y-9025000D02*
X15795000Y-9055000D01*
X15795000Y-9255000D02*
X15825000Y-9285000D01*
X15825000Y-9255000D02*
X15795000Y-9285000D01*
X15798653Y-8522691D02*
X15828653Y-8552691D01*
X15828653Y-8522691D02*
X15798653Y-8552691D01*
X15835000Y-11575000D02*
X15865000Y-11605000D01*
X15865000Y-11575000D02*
X15835000Y-11605000D01*
X15866945Y-11756144D02*
X15896945Y-11786144D01*
X15896945Y-11756144D02*
X15866945Y-11786144D01*
X15895000Y-11845000D02*
X15925000Y-11875000D01*
X15925000Y-11845000D02*
X15895000Y-11875000D01*
X15905000Y-12595000D02*
X15935000Y-12625000D01*
X15935000Y-12595000D02*
X15905000Y-12625000D01*
X15942821Y-11707740D02*
X15972821Y-11737740D01*
X15972821Y-11707740D02*
X15942821Y-11737740D01*
X15964309Y-11926267D02*
X15994309Y-11956267D01*
X15994309Y-11926267D02*
X15964309Y-11956267D01*
X15965000Y-11065000D02*
X15995000Y-11095000D01*
X15995000Y-11065000D02*
X15965000Y-11095000D01*
X16015000Y-13075000D02*
X16045000Y-13105000D01*
X16045000Y-13075000D02*
X16015000Y-13105000D01*
X16035000Y-10955000D02*
X16065000Y-10985000D01*
X16065000Y-10955000D02*
X16035000Y-10985000D01*
X16125000Y-11485000D02*
X16155000Y-11515000D01*
X16155000Y-11485000D02*
X16125000Y-11515000D01*
X16141086Y-11600767D02*
X16171086Y-11630767D01*
X16171086Y-11600767D02*
X16141086Y-11630767D01*
X16185000Y-10435000D02*
X16215000Y-10465000D01*
X16215000Y-10435000D02*
X16185000Y-10465000D01*
X16227000Y-12327500D02*
X16257000Y-12357500D01*
X16257000Y-12327500D02*
X16227000Y-12357500D01*
X16227000Y-12453500D02*
X16257000Y-12483500D01*
X16257000Y-12453500D02*
X16227000Y-12483500D01*
X16254500Y-12126650D02*
X16284500Y-12156650D01*
X16284500Y-12126650D02*
X16254500Y-12156650D01*
X16265000Y-9665000D02*
X16295000Y-9695000D01*
X16295000Y-9665000D02*
X16265000Y-9695000D01*
X16265000Y-9780000D02*
X16295000Y-9810000D01*
X16295000Y-9780000D02*
X16265000Y-9810000D01*
X16265000Y-9895000D02*
X16295000Y-9925000D01*
X16295000Y-9895000D02*
X16265000Y-9925000D01*
X16265000Y-10285000D02*
X16295000Y-10315000D01*
X16295000Y-10285000D02*
X16265000Y-10315000D01*
X16335000Y-10135000D02*
X16365000Y-10165000D01*
X16365000Y-10135000D02*
X16335000Y-10165000D01*
X16355000Y-13055000D02*
X16385000Y-13085000D01*
X16385000Y-13055000D02*
X16355000Y-13085000D01*
X16362000Y-12538500D02*
X16392000Y-12568500D01*
X16392000Y-12538500D02*
X16362000Y-12568500D01*
X16387000Y-11873500D02*
X16417000Y-11903500D01*
X16417000Y-11873500D02*
X16387000Y-11903500D01*
X16402000Y-11748500D02*
X16432000Y-11778500D01*
X16432000Y-11748500D02*
X16402000Y-11778500D01*
X16591948Y-12538500D02*
X16621948Y-12568500D01*
X16621948Y-12538500D02*
X16591948Y-12568500D01*
X16595000Y-13545000D02*
X16625000Y-13575000D01*
X16625000Y-13545000D02*
X16595000Y-13575000D01*
X16655000Y-10085000D02*
X16685000Y-10115000D01*
X16685000Y-10085000D02*
X16655000Y-10115000D01*
X16684500Y-12536650D02*
X16714500Y-12566650D01*
X16714500Y-12536650D02*
X16684500Y-12566650D01*
X16695000Y-8285000D02*
X16725000Y-8315000D01*
X16725000Y-8285000D02*
X16695000Y-8315000D01*
X16702000Y-11748500D02*
X16732000Y-11778500D01*
X16732000Y-11748500D02*
X16702000Y-11778500D01*
X16885000Y-10495000D02*
X16915000Y-10525000D01*
X16915000Y-10495000D02*
X16885000Y-10525000D01*
X16895000Y-8215000D02*
X16925000Y-8245000D01*
X16925000Y-8215000D02*
X16895000Y-8245000D01*
X16915000Y-9375000D02*
X16945000Y-9405000D01*
X16945000Y-9375000D02*
X16915000Y-9405000D01*
X16925000Y-11935000D02*
X16955000Y-11965000D01*
X16955000Y-11935000D02*
X16925000Y-11965000D01*
X16975000Y-12445000D02*
X17005000Y-12475000D01*
X17005000Y-12445000D02*
X16975000Y-12475000D01*
X17014500Y-12093500D02*
X17044500Y-12123500D01*
X17044500Y-12093500D02*
X17014500Y-12123500D01*
X17016633Y-12184152D02*
X17046633Y-12214152D01*
X17046633Y-12184152D02*
X17016633Y-12214152D01*
X17054500Y-9776250D02*
X17084500Y-9806250D01*
X17084500Y-9776250D02*
X17054500Y-9806250D01*
X17055000Y-9475000D02*
X17085000Y-9505000D01*
X17085000Y-9475000D02*
X17055000Y-9505000D01*
X17111650Y-11693500D02*
X17141650Y-11723500D01*
X17141650Y-11693500D02*
X17111650Y-11723500D01*
X17207000Y-12552500D02*
X17237000Y-12582500D01*
X17237000Y-12552500D02*
X17207000Y-12582500D01*
X17295000Y-13355000D02*
X17325000Y-13385000D01*
X17325000Y-13355000D02*
X17295000Y-13385000D01*
X17405000Y-12775000D02*
X17435000Y-12805000D01*
X17435000Y-12775000D02*
X17405000Y-12805000D01*
X17435000Y-9765000D02*
X17465000Y-9795000D01*
X17465000Y-9765000D02*
X17435000Y-9795000D01*
X17495000Y-10585000D02*
X17525000Y-10615000D01*
X17525000Y-10585000D02*
X17495000Y-10615000D01*
X17495000Y-10965000D02*
X17525000Y-10995000D01*
X17525000Y-10965000D02*
X17495000Y-10995000D01*
X17645000Y-13015000D02*
X17675000Y-13045000D01*
X17675000Y-13015000D02*
X17645000Y-13045000D01*
X17685000Y-10076250D02*
X17715000Y-10106250D01*
X17715000Y-10076250D02*
X17685000Y-10106250D01*
X17905000Y-9245000D02*
X17935000Y-9275000D01*
X17935000Y-9245000D02*
X17905000Y-9275000D01*
X18045000Y-10115000D02*
X18075000Y-10145000D01*
X18075000Y-10115000D02*
X18045000Y-10145000D01*
X18045000Y-12655000D02*
X18075000Y-12685000D01*
X18075000Y-12655000D02*
X18045000Y-12685000D01*
X18205000Y-10275000D02*
X18235000Y-10305000D01*
X18235000Y-10275000D02*
X18205000Y-10305000D01*
X18215000Y-12418750D02*
X18245000Y-12448750D01*
X18245000Y-12418750D02*
X18215000Y-12448750D01*
X18328500Y-12038500D02*
X18358500Y-12068500D01*
X18358500Y-12038500D02*
X18328500Y-12068500D01*
X18345000Y-13665000D02*
X18375000Y-13695000D01*
X18375000Y-13665000D02*
X18345000Y-13695000D01*
X18365000Y-11115000D02*
X18395000Y-11145000D01*
X18395000Y-11115000D02*
X18365000Y-11145000D01*
X18425000Y-12295000D02*
X18455000Y-12325000D01*
X18455000Y-12295000D02*
X18425000Y-12325000D01*
X18545000Y-9625000D02*
X18575000Y-9655000D01*
X18575000Y-9625000D02*
X18545000Y-9655000D01*
X18665000Y-12295000D02*
X18695000Y-12325000D01*
X18695000Y-12295000D02*
X18665000Y-12325000D01*
X18720000Y-11200000D02*
X18750000Y-11230000D01*
X18750000Y-11200000D02*
X18720000Y-11230000D01*
X18725000Y-13725000D02*
X18755000Y-13755000D01*
X18755000Y-13725000D02*
X18725000Y-13755000D01*
X18795000Y-9825000D02*
X18825000Y-9855000D01*
X18825000Y-9825000D02*
X18795000Y-9855000D01*
X18825000Y-8768027D02*
X18855000Y-8798027D01*
X18855000Y-8768027D02*
X18825000Y-8798027D01*
X18825000Y-9155000D02*
X18855000Y-9185000D01*
X18855000Y-9155000D02*
X18825000Y-9185000D01*
X18905000Y-12295000D02*
X18935000Y-12325000D01*
X18935000Y-12295000D02*
X18905000Y-12325000D01*
X19065000Y-10095000D02*
X19095000Y-10125000D01*
X19095000Y-10095000D02*
X19065000Y-10125000D01*
X19165000Y-9155000D02*
X19195000Y-9185000D01*
X19195000Y-9155000D02*
X19165000Y-9185000D01*
X16552000Y-12062500D02*
G75*
G02*
X16522000Y-12062500I-15000J0D01*
G01*
X16522000Y-12062500D02*
G75*
G02*
X16552000Y-12062500I15000J0D01*
G01*
X16552000Y-12162500D02*
G75*
G02*
X16522000Y-12162500I-15000J0D01*
G01*
X16522000Y-12162500D02*
G75*
G02*
X16552000Y-12162500I15000J0D01*
G01*
X16552000Y-12262500D02*
G75*
G02*
X16522000Y-12262500I-15000J0D01*
G01*
X16522000Y-12262500D02*
G75*
G02*
X16552000Y-12262500I15000J0D01*
G01*
X16652000Y-12062500D02*
G75*
G02*
X16622000Y-12062500I-15000J0D01*
G01*
X16622000Y-12062500D02*
G75*
G02*
X16652000Y-12062500I15000J0D01*
G01*
X16652000Y-12162500D02*
G75*
G02*
X16622000Y-12162500I-15000J0D01*
G01*
X16622000Y-12162500D02*
G75*
G02*
X16652000Y-12162500I15000J0D01*
G01*
X16652000Y-12262500D02*
G75*
G02*
X16622000Y-12262500I-15000J0D01*
G01*
X16622000Y-12262500D02*
G75*
G02*
X16652000Y-12262500I15000J0D01*
G01*
X16752000Y-12062500D02*
G75*
G02*
X16722000Y-12062500I-15000J0D01*
G01*
X16722000Y-12062500D02*
G75*
G02*
X16752000Y-12062500I15000J0D01*
G01*
X16752000Y-12162500D02*
G75*
G02*
X16722000Y-12162500I-15000J0D01*
G01*
X16722000Y-12162500D02*
G75*
G02*
X16752000Y-12162500I15000J0D01*
G01*
X16752000Y-12262500D02*
G75*
G02*
X16722000Y-12262500I-15000J0D01*
G01*
X16722000Y-12262500D02*
G75*
G02*
X16752000Y-12262500I15000J0D01*
G01*
X18727987Y-8582555D02*
X18727987Y-8647555D01*
X18695487Y-8615055D02*
X18760487Y-8615055D01*
X18695487Y-8595055D02*
X18695487Y-8635055D01*
X18760487Y-8635055D02*
G75*
G02*
X18695487Y-8635055I-32500J0D01*
G01*
X18760487Y-8635055D02*
X18760487Y-8595055D01*
X18760487Y-8595055D02*
G75*
G03*
X18695487Y-8595055I-32500J0D01*
G01*
X19211987Y-8582555D02*
X19211987Y-8647555D01*
X19179487Y-8615055D02*
X19244487Y-8615055D01*
X19179487Y-8595055D02*
X19179487Y-8635055D01*
X19244487Y-8635055D02*
G75*
G02*
X19179487Y-8635055I-32500J0D01*
G01*
X19244487Y-8635055D02*
X19244487Y-8595055D01*
X19244487Y-8595055D02*
G75*
G03*
X19179487Y-8595055I-32500J0D01*
G01*
X18721736Y-8339803D02*
X18721736Y-8290305D01*
X18672238Y-8290305D01*
X18672238Y-8339803D01*
X18721736Y-8339803D01*
X18661987Y-8290054D02*
X18661987Y-8340054D01*
X18731987Y-8340054D02*
G75*
G02*
X18661987Y-8340054I-35000J0D01*
G01*
X18731987Y-8340054D02*
X18731987Y-8290054D01*
X18731987Y-8290054D02*
G75*
G03*
X18661987Y-8290054I-35000J0D01*
G01*
X19267736Y-8339803D02*
X19267736Y-8290305D01*
X19218238Y-8290305D01*
X19218238Y-8339803D01*
X19267736Y-8339803D01*
X19207987Y-8290054D02*
X19207987Y-8340054D01*
X19277987Y-8340054D02*
G75*
G02*
X19207987Y-8340054I-35000J0D01*
G01*
X19277987Y-8340054D02*
X19277987Y-8290054D01*
X19277987Y-8290054D02*
G75*
G03*
X19207987Y-8290054I-35000J0D01*
G01*
X14380000Y-9610000D02*
X14420000Y-9570000D01*
X14380000Y-9530000D01*
X14340000Y-9570000D01*
X14380000Y-9610000D01*
X14630000Y-9610000D02*
X14670000Y-9570000D01*
X14630000Y-9530000D01*
X14590000Y-9570000D01*
X14630000Y-9610000D01*
X13666000Y-8586000D02*
X13766000Y-8686000D01*
X13766000Y-8586000D02*
X13666000Y-8686000D01*
X13766000Y-8636000D02*
G75*
G02*
X13666000Y-8636000I-50000J0D01*
G01*
X13666000Y-8636000D02*
G75*
G02*
X13766000Y-8636000I50000J0D01*
G01*
X13666000Y-8840000D02*
X13766000Y-8940000D01*
X13766000Y-8840000D02*
X13666000Y-8940000D01*
X13766000Y-8890000D02*
G75*
G02*
X13666000Y-8890000I-50000J0D01*
G01*
X13666000Y-8890000D02*
G75*
G02*
X13766000Y-8890000I50000J0D01*
G01*
X13666000Y-9602000D02*
X13766000Y-9702000D01*
X13766000Y-9602000D02*
X13666000Y-9702000D01*
X13766000Y-9652000D02*
G75*
G02*
X13666000Y-9652000I-50000J0D01*
G01*
X13666000Y-9652000D02*
G75*
G02*
X13766000Y-9652000I50000J0D01*
G01*
X13666000Y-9856000D02*
X13766000Y-9956000D01*
X13766000Y-9856000D02*
X13666000Y-9956000D01*
X13766000Y-9906000D02*
G75*
G02*
X13666000Y-9906000I-50000J0D01*
G01*
X13666000Y-9906000D02*
G75*
G02*
X13766000Y-9906000I50000J0D01*
G01*
X13666000Y-10110000D02*
X13766000Y-10210000D01*
X13766000Y-10110000D02*
X13666000Y-10210000D01*
X13766000Y-10160000D02*
G75*
G02*
X13666000Y-10160000I-50000J0D01*
G01*
X13666000Y-10160000D02*
G75*
G02*
X13766000Y-10160000I50000J0D01*
G01*
X13666000Y-10364000D02*
X13766000Y-10464000D01*
X13766000Y-10364000D02*
X13666000Y-10464000D01*
X13766000Y-10414000D02*
G75*
G02*
X13666000Y-10414000I-50000J0D01*
G01*
X13666000Y-10414000D02*
G75*
G02*
X13766000Y-10414000I50000J0D01*
G01*
X13666000Y-10618000D02*
X13766000Y-10718000D01*
X13766000Y-10618000D02*
X13666000Y-10718000D01*
X13766000Y-10668000D02*
G75*
G02*
X13666000Y-10668000I-50000J0D01*
G01*
X13666000Y-10668000D02*
G75*
G02*
X13766000Y-10668000I50000J0D01*
G01*
X13666000Y-10872000D02*
X13766000Y-10972000D01*
X13766000Y-10872000D02*
X13666000Y-10972000D01*
X13766000Y-10922000D02*
G75*
G02*
X13666000Y-10922000I-50000J0D01*
G01*
X13666000Y-10922000D02*
G75*
G02*
X13766000Y-10922000I50000J0D01*
G01*
X13666000Y-11126000D02*
X13766000Y-11226000D01*
X13766000Y-11126000D02*
X13666000Y-11226000D01*
X13766000Y-11176000D02*
G75*
G02*
X13666000Y-11176000I-50000J0D01*
G01*
X13666000Y-11176000D02*
G75*
G02*
X13766000Y-11176000I50000J0D01*
G01*
X13666000Y-11380000D02*
X13766000Y-11480000D01*
X13766000Y-11380000D02*
X13666000Y-11480000D01*
X13766000Y-11430000D02*
G75*
G02*
X13666000Y-11430000I-50000J0D01*
G01*
X13666000Y-11430000D02*
G75*
G02*
X13766000Y-11430000I50000J0D01*
G01*
X13666000Y-11634000D02*
X13766000Y-11734000D01*
X13766000Y-11634000D02*
X13666000Y-11734000D01*
X13766000Y-11684000D02*
G75*
G02*
X13666000Y-11684000I-50000J0D01*
G01*
X13666000Y-11684000D02*
G75*
G02*
X13766000Y-11684000I50000J0D01*
G01*
X13666000Y-11888000D02*
X13766000Y-11988000D01*
X13766000Y-11888000D02*
X13666000Y-11988000D01*
X13766000Y-11938000D02*
G75*
G02*
X13666000Y-11938000I-50000J0D01*
G01*
X13666000Y-11938000D02*
G75*
G02*
X13766000Y-11938000I50000J0D01*
G01*
X13666000Y-12142000D02*
X13766000Y-12242000D01*
X13766000Y-12142000D02*
X13666000Y-12242000D01*
X13766000Y-12192000D02*
G75*
G02*
X13666000Y-12192000I-50000J0D01*
G01*
X13666000Y-12192000D02*
G75*
G02*
X13766000Y-12192000I50000J0D01*
G01*
X13666000Y-12396000D02*
X13766000Y-12496000D01*
X13766000Y-12396000D02*
X13666000Y-12496000D01*
X13766000Y-12446000D02*
G75*
G02*
X13666000Y-12446000I-50000J0D01*
G01*
X13666000Y-12446000D02*
G75*
G02*
X13766000Y-12446000I50000J0D01*
G01*
X13666000Y-12650000D02*
X13766000Y-12750000D01*
X13766000Y-12650000D02*
X13666000Y-12750000D01*
X13766000Y-12700000D02*
G75*
G02*
X13666000Y-12700000I-50000J0D01*
G01*
X13666000Y-12700000D02*
G75*
G02*
X13766000Y-12700000I50000J0D01*
G01*
X13666000Y-12904000D02*
X13766000Y-13004000D01*
X13766000Y-12904000D02*
X13666000Y-13004000D01*
X13766000Y-12954000D02*
G75*
G02*
X13666000Y-12954000I-50000J0D01*
G01*
X13666000Y-12954000D02*
G75*
G02*
X13766000Y-12954000I50000J0D01*
G01*
X13666000Y-13158000D02*
X13766000Y-13258000D01*
X13766000Y-13158000D02*
X13666000Y-13258000D01*
X13766000Y-13208000D02*
G75*
G02*
X13666000Y-13208000I-50000J0D01*
G01*
X13666000Y-13208000D02*
G75*
G02*
X13766000Y-13208000I50000J0D01*
G01*
X13666000Y-13412000D02*
X13766000Y-13512000D01*
X13766000Y-13412000D02*
X13666000Y-13512000D01*
X13766000Y-13462000D02*
G75*
G02*
X13666000Y-13462000I-50000J0D01*
G01*
X13666000Y-13462000D02*
G75*
G02*
X13766000Y-13462000I50000J0D01*
G01*
X13666000Y-13666000D02*
X13766000Y-13766000D01*
X13766000Y-13666000D02*
X13666000Y-13766000D01*
X13766000Y-13716000D02*
G75*
G02*
X13666000Y-13716000I-50000J0D01*
G01*
X13666000Y-13716000D02*
G75*
G02*
X13766000Y-13716000I50000J0D01*
G01*
X13666000Y-13920000D02*
X13766000Y-14020000D01*
X13766000Y-13920000D02*
X13666000Y-14020000D01*
X13766000Y-13970000D02*
G75*
G02*
X13666000Y-13970000I-50000J0D01*
G01*
X13666000Y-13970000D02*
G75*
G02*
X13766000Y-13970000I50000J0D01*
G01*
X13666000Y-14174000D02*
X13766000Y-14274000D01*
X13766000Y-14174000D02*
X13666000Y-14274000D01*
X13766000Y-14224000D02*
G75*
G02*
X13666000Y-14224000I-50000J0D01*
G01*
X13666000Y-14224000D02*
G75*
G02*
X13766000Y-14224000I50000J0D01*
G01*
X13666000Y-14428000D02*
X13766000Y-14528000D01*
X13766000Y-14428000D02*
X13666000Y-14528000D01*
X13766000Y-14478000D02*
G75*
G02*
X13666000Y-14478000I-50000J0D01*
G01*
X13666000Y-14478000D02*
G75*
G02*
X13766000Y-14478000I50000J0D01*
G01*
X13920000Y-8586000D02*
X14020000Y-8686000D01*
X14020000Y-8586000D02*
X13920000Y-8686000D01*
X14020000Y-8636000D02*
G75*
G02*
X13920000Y-8636000I-50000J0D01*
G01*
X13920000Y-8636000D02*
G75*
G02*
X14020000Y-8636000I50000J0D01*
G01*
X13920000Y-8840000D02*
X14020000Y-8940000D01*
X14020000Y-8840000D02*
X13920000Y-8940000D01*
X14020000Y-8890000D02*
G75*
G02*
X13920000Y-8890000I-50000J0D01*
G01*
X13920000Y-8890000D02*
G75*
G02*
X14020000Y-8890000I50000J0D01*
G01*
X14174000Y-8586000D02*
X14274000Y-8686000D01*
X14274000Y-8586000D02*
X14174000Y-8686000D01*
X14274000Y-8636000D02*
G75*
G02*
X14174000Y-8636000I-50000J0D01*
G01*
X14174000Y-8636000D02*
G75*
G02*
X14274000Y-8636000I50000J0D01*
G01*
X14174000Y-8840000D02*
X14274000Y-8940000D01*
X14274000Y-8840000D02*
X14174000Y-8940000D01*
X14274000Y-8890000D02*
G75*
G02*
X14174000Y-8890000I-50000J0D01*
G01*
X14174000Y-8890000D02*
G75*
G02*
X14274000Y-8890000I50000J0D01*
G01*
X14428000Y-8586000D02*
X14528000Y-8686000D01*
X14528000Y-8586000D02*
X14428000Y-8686000D01*
X14528000Y-8636000D02*
G75*
G02*
X14428000Y-8636000I-50000J0D01*
G01*
X14428000Y-8636000D02*
G75*
G02*
X14528000Y-8636000I50000J0D01*
G01*
X14428000Y-8840000D02*
X14528000Y-8940000D01*
X14528000Y-8840000D02*
X14428000Y-8940000D01*
X14528000Y-8890000D02*
G75*
G02*
X14428000Y-8890000I-50000J0D01*
G01*
X14428000Y-8890000D02*
G75*
G02*
X14528000Y-8890000I50000J0D01*
G01*
X14936000Y-11634000D02*
X15036000Y-11734000D01*
X15036000Y-11634000D02*
X14936000Y-11734000D01*
X15036000Y-11684000D02*
G75*
G02*
X14936000Y-11684000I-50000J0D01*
G01*
X14936000Y-11684000D02*
G75*
G02*
X15036000Y-11684000I50000J0D01*
G01*
X14936000Y-11888000D02*
X15036000Y-11988000D01*
X15036000Y-11888000D02*
X14936000Y-11988000D01*
X15036000Y-11938000D02*
G75*
G02*
X14936000Y-11938000I-50000J0D01*
G01*
X14936000Y-11938000D02*
G75*
G02*
X15036000Y-11938000I50000J0D01*
G01*
X14936000Y-12142000D02*
X15036000Y-12242000D01*
X15036000Y-12142000D02*
X14936000Y-12242000D01*
X15036000Y-12192000D02*
G75*
G02*
X14936000Y-12192000I-50000J0D01*
G01*
X14936000Y-12192000D02*
G75*
G02*
X15036000Y-12192000I50000J0D01*
G01*
X14936000Y-12396000D02*
X15036000Y-12496000D01*
X15036000Y-12396000D02*
X14936000Y-12496000D01*
X15036000Y-12446000D02*
G75*
G02*
X14936000Y-12446000I-50000J0D01*
G01*
X14936000Y-12446000D02*
G75*
G02*
X15036000Y-12446000I50000J0D01*
G01*
X16333000Y-14428000D02*
X16433000Y-14528000D01*
X16433000Y-14428000D02*
X16333000Y-14528000D01*
X16433000Y-14478000D02*
G75*
G02*
X16333000Y-14478000I-50000J0D01*
G01*
X16333000Y-14478000D02*
G75*
G02*
X16433000Y-14478000I50000J0D01*
G01*
X16587000Y-14428000D02*
X16687000Y-14528000D01*
X16687000Y-14428000D02*
X16587000Y-14528000D01*
X16687000Y-14478000D02*
G75*
G02*
X16587000Y-14478000I-50000J0D01*
G01*
X16587000Y-14478000D02*
G75*
G02*
X16687000Y-14478000I50000J0D01*
G01*
X16841000Y-14428000D02*
X16941000Y-14528000D01*
X16941000Y-14428000D02*
X16841000Y-14528000D01*
X16941000Y-14478000D02*
G75*
G02*
X16841000Y-14478000I-50000J0D01*
G01*
X16841000Y-14478000D02*
G75*
G02*
X16941000Y-14478000I50000J0D01*
G01*
X17984000Y-9602000D02*
X18084000Y-9702000D01*
X18084000Y-9602000D02*
X17984000Y-9702000D01*
X18084000Y-9652000D02*
G75*
G02*
X17984000Y-9652000I-50000J0D01*
G01*
X17984000Y-9652000D02*
G75*
G02*
X18084000Y-9652000I50000J0D01*
G01*
X18238000Y-9602000D02*
X18338000Y-9702000D01*
X18338000Y-9602000D02*
X18238000Y-9702000D01*
X18338000Y-9652000D02*
G75*
G02*
X18238000Y-9652000I-50000J0D01*
G01*
X18238000Y-9652000D02*
G75*
G02*
X18338000Y-9652000I50000J0D01*
G01*
X19508000Y-9602000D02*
X19608000Y-9702000D01*
X19608000Y-9602000D02*
X19508000Y-9702000D01*
X19608000Y-9652000D02*
G75*
G02*
X19508000Y-9652000I-50000J0D01*
G01*
X19508000Y-9652000D02*
G75*
G02*
X19608000Y-9652000I50000J0D01*
G01*
X19508000Y-9856000D02*
X19608000Y-9956000D01*
X19608000Y-9856000D02*
X19508000Y-9956000D01*
X19608000Y-9906000D02*
G75*
G02*
X19508000Y-9906000I-50000J0D01*
G01*
X19508000Y-9906000D02*
G75*
G02*
X19608000Y-9906000I50000J0D01*
G01*
X19508000Y-10110000D02*
X19608000Y-10210000D01*
X19608000Y-10110000D02*
X19508000Y-10210000D01*
X19608000Y-10160000D02*
G75*
G02*
X19508000Y-10160000I-50000J0D01*
G01*
X19508000Y-10160000D02*
G75*
G02*
X19608000Y-10160000I50000J0D01*
G01*
X19508000Y-10364000D02*
X19608000Y-10464000D01*
X19608000Y-10364000D02*
X19508000Y-10464000D01*
X19608000Y-10414000D02*
G75*
G02*
X19508000Y-10414000I-50000J0D01*
G01*
X19508000Y-10414000D02*
G75*
G02*
X19608000Y-10414000I50000J0D01*
G01*
X19508000Y-10618000D02*
X19608000Y-10718000D01*
X19608000Y-10618000D02*
X19508000Y-10718000D01*
X19608000Y-10668000D02*
G75*
G02*
X19508000Y-10668000I-50000J0D01*
G01*
X19508000Y-10668000D02*
G75*
G02*
X19608000Y-10668000I50000J0D01*
G01*
X19508000Y-10872000D02*
X19608000Y-10972000D01*
X19608000Y-10872000D02*
X19508000Y-10972000D01*
X19608000Y-10922000D02*
G75*
G02*
X19508000Y-10922000I-50000J0D01*
G01*
X19508000Y-10922000D02*
G75*
G02*
X19608000Y-10922000I50000J0D01*
G01*
X19508000Y-11126000D02*
X19608000Y-11226000D01*
X19608000Y-11126000D02*
X19508000Y-11226000D01*
X19608000Y-11176000D02*
G75*
G02*
X19508000Y-11176000I-50000J0D01*
G01*
X19508000Y-11176000D02*
G75*
G02*
X19608000Y-11176000I50000J0D01*
G01*
X19508000Y-11380000D02*
X19608000Y-11480000D01*
X19608000Y-11380000D02*
X19508000Y-11480000D01*
X19608000Y-11430000D02*
G75*
G02*
X19508000Y-11430000I-50000J0D01*
G01*
X19508000Y-11430000D02*
G75*
G02*
X19608000Y-11430000I50000J0D01*
G01*
X19508000Y-11634000D02*
X19608000Y-11734000D01*
X19608000Y-11634000D02*
X19508000Y-11734000D01*
X19608000Y-11684000D02*
G75*
G02*
X19508000Y-11684000I-50000J0D01*
G01*
X19508000Y-11684000D02*
G75*
G02*
X19608000Y-11684000I50000J0D01*
G01*
X19508000Y-11888000D02*
X19608000Y-11988000D01*
X19608000Y-11888000D02*
X19508000Y-11988000D01*
X19608000Y-11938000D02*
G75*
G02*
X19508000Y-11938000I-50000J0D01*
G01*
X19508000Y-11938000D02*
G75*
G02*
X19608000Y-11938000I50000J0D01*
G01*
X19508000Y-12142000D02*
X19608000Y-12242000D01*
X19608000Y-12142000D02*
X19508000Y-12242000D01*
X19608000Y-12192000D02*
G75*
G02*
X19508000Y-12192000I-50000J0D01*
G01*
X19508000Y-12192000D02*
G75*
G02*
X19608000Y-12192000I50000J0D01*
G01*
X19508000Y-12396000D02*
X19608000Y-12496000D01*
X19608000Y-12396000D02*
X19508000Y-12496000D01*
X19608000Y-12446000D02*
G75*
G02*
X19508000Y-12446000I-50000J0D01*
G01*
X19508000Y-12446000D02*
G75*
G02*
X19608000Y-12446000I50000J0D01*
G01*
X19508000Y-12650000D02*
X19608000Y-12750000D01*
X19608000Y-12650000D02*
X19508000Y-12750000D01*
X19608000Y-12700000D02*
G75*
G02*
X19508000Y-12700000I-50000J0D01*
G01*
X19508000Y-12700000D02*
G75*
G02*
X19608000Y-12700000I50000J0D01*
G01*
X19508000Y-12904000D02*
X19608000Y-13004000D01*
X19608000Y-12904000D02*
X19508000Y-13004000D01*
X19608000Y-12954000D02*
G75*
G02*
X19508000Y-12954000I-50000J0D01*
G01*
X19508000Y-12954000D02*
G75*
G02*
X19608000Y-12954000I50000J0D01*
G01*
X19508000Y-13158000D02*
X19608000Y-13258000D01*
X19608000Y-13158000D02*
X19508000Y-13258000D01*
X19608000Y-13208000D02*
G75*
G02*
X19508000Y-13208000I-50000J0D01*
G01*
X19508000Y-13208000D02*
G75*
G02*
X19608000Y-13208000I50000J0D01*
G01*
X19508000Y-13412000D02*
X19608000Y-13512000D01*
X19608000Y-13412000D02*
X19508000Y-13512000D01*
X19608000Y-13462000D02*
G75*
G02*
X19508000Y-13462000I-50000J0D01*
G01*
X19508000Y-13462000D02*
G75*
G02*
X19608000Y-13462000I50000J0D01*
G01*
X19508000Y-13666000D02*
X19608000Y-13766000D01*
X19608000Y-13666000D02*
X19508000Y-13766000D01*
X19608000Y-13716000D02*
G75*
G02*
X19508000Y-13716000I-50000J0D01*
G01*
X19508000Y-13716000D02*
G75*
G02*
X19608000Y-13716000I50000J0D01*
G01*
X19508000Y-13920000D02*
X19608000Y-14020000D01*
X19608000Y-13920000D02*
X19508000Y-14020000D01*
X19608000Y-13970000D02*
G75*
G02*
X19508000Y-13970000I-50000J0D01*
G01*
X19508000Y-13970000D02*
G75*
G02*
X19608000Y-13970000I50000J0D01*
G01*
X19508000Y-14174000D02*
X19608000Y-14274000D01*
X19608000Y-14174000D02*
X19508000Y-14274000D01*
X19608000Y-14224000D02*
G75*
G02*
X19508000Y-14224000I-50000J0D01*
G01*
X19508000Y-14224000D02*
G75*
G02*
X19608000Y-14224000I50000J0D01*
G01*
X19508000Y-14428000D02*
X19608000Y-14528000D01*
X19608000Y-14428000D02*
X19508000Y-14528000D01*
X19608000Y-14478000D02*
G75*
G02*
X19508000Y-14478000I-50000J0D01*
G01*
X19508000Y-14478000D02*
G75*
G02*
X19608000Y-14478000I50000J0D01*
G01*
D12*
X15998243Y-8597000D02*
X16117243Y-8716000D01*
X16117243Y-8597000D02*
X15998243Y-8716000D01*
X16057743Y-8597000D02*
X16057743Y-8716000D01*
X15998243Y-8656500D02*
X16117243Y-8656500D01*
X16112243Y-8389000D02*
X16231243Y-8508000D01*
X16231243Y-8389000D02*
X16112243Y-8508000D01*
X16171743Y-8389000D02*
X16171743Y-8508000D01*
X16112243Y-8448500D02*
X16231243Y-8448500D01*
X16112243Y-8807000D02*
X16231243Y-8926000D01*
X16231243Y-8807000D02*
X16112243Y-8926000D01*
X16171743Y-8807000D02*
X16171743Y-8926000D01*
X16112243Y-8866500D02*
X16231243Y-8866500D01*
X16227243Y-8597000D02*
X16346243Y-8716000D01*
X16346243Y-8597000D02*
X16227243Y-8716000D01*
X16286743Y-8597000D02*
X16286743Y-8716000D01*
X16227243Y-8656500D02*
X16346243Y-8656500D01*
X16341243Y-8389000D02*
X16460243Y-8508000D01*
X16460243Y-8389000D02*
X16341243Y-8508000D01*
X16400743Y-8389000D02*
X16400743Y-8508000D01*
X16341243Y-8448500D02*
X16460243Y-8448500D01*
X16341243Y-8807000D02*
X16460243Y-8926000D01*
X16460243Y-8807000D02*
X16341243Y-8926000D01*
X16400743Y-8807000D02*
X16400743Y-8926000D01*
X16341243Y-8866500D02*
X16460243Y-8866500D01*
X16456243Y-8597000D02*
X16575243Y-8716000D01*
X16575243Y-8597000D02*
X16456243Y-8716000D01*
X16515743Y-8597000D02*
X16515743Y-8716000D01*
X16456243Y-8656500D02*
X16575243Y-8656500D01*
X16570243Y-8389000D02*
X16689243Y-8508000D01*
X16689243Y-8389000D02*
X16570243Y-8508000D01*
X16629743Y-8389000D02*
X16629743Y-8508000D01*
X16570243Y-8448500D02*
X16689243Y-8448500D01*
X16570243Y-8807000D02*
X16689243Y-8926000D01*
X16689243Y-8807000D02*
X16570243Y-8926000D01*
X16629743Y-8807000D02*
X16629743Y-8926000D01*
X16570243Y-8866500D02*
X16689243Y-8866500D01*
X16685243Y-8597000D02*
X16804243Y-8716000D01*
X16804243Y-8597000D02*
X16685243Y-8716000D01*
X16744743Y-8597000D02*
X16744743Y-8716000D01*
X16685243Y-8656500D02*
X16804243Y-8656500D01*
X16799243Y-8389000D02*
X16918243Y-8508000D01*
X16918243Y-8389000D02*
X16799243Y-8508000D01*
X16858743Y-8389000D02*
X16858743Y-8508000D01*
X16799243Y-8448500D02*
X16918243Y-8448500D01*
X16799243Y-8807000D02*
X16918243Y-8926000D01*
X16918243Y-8807000D02*
X16799243Y-8926000D01*
X16858743Y-8807000D02*
X16858743Y-8926000D01*
X16799243Y-8866500D02*
X16918243Y-8866500D01*
X16914243Y-8597000D02*
X17033243Y-8716000D01*
X17033243Y-8597000D02*
X16914243Y-8716000D01*
X16973743Y-8597000D02*
X16973743Y-8716000D01*
X16914243Y-8656500D02*
X17033243Y-8656500D01*
X17028243Y-8389000D02*
X17147243Y-8508000D01*
X17147243Y-8389000D02*
X17028243Y-8508000D01*
X17087743Y-8389000D02*
X17087743Y-8508000D01*
X17028243Y-8448500D02*
X17147243Y-8448500D01*
X17028243Y-8807000D02*
X17147243Y-8926000D01*
X17147243Y-8807000D02*
X17028243Y-8926000D01*
X17087743Y-8807000D02*
X17087743Y-8926000D01*
X17028243Y-8866500D02*
X17147243Y-8866500D01*
D13*
X15194743Y-8497500D02*
X15512743Y-8815500D01*
X15512743Y-8497500D02*
X15194743Y-8815500D01*
X15466174Y-8768931D02*
X15466174Y-8544069D01*
X15241312Y-8544069D01*
X15241312Y-8768931D01*
X15466174Y-8768931D01*
X17693743Y-8497500D02*
X18011743Y-8815500D01*
X18011743Y-8497500D02*
X17693743Y-8815500D01*
X17965174Y-8768931D02*
X17965174Y-8544069D01*
X17740312Y-8544069D01*
X17740312Y-8768931D01*
X17965174Y-8768931D01*
D11*
X13717777Y-15060484D02*
X13717777Y-14860484D01*
X13717777Y-14860484D02*
X13765396Y-14860484D01*
X13765396Y-14860484D02*
X13793967Y-14870008D01*
X13793967Y-14870008D02*
X13813015Y-14889055D01*
X13813015Y-14889055D02*
X13822539Y-14908103D01*
X13822539Y-14908103D02*
X13832062Y-14946198D01*
X13832062Y-14946198D02*
X13832062Y-14974769D01*
X13832062Y-14974769D02*
X13822539Y-15012865D01*
X13822539Y-15012865D02*
X13813015Y-15031912D01*
X13813015Y-15031912D02*
X13793967Y-15050960D01*
X13793967Y-15050960D02*
X13765396Y-15060484D01*
X13765396Y-15060484D02*
X13717777Y-15060484D01*
X13917777Y-15060484D02*
X13917777Y-14927150D01*
X13917777Y-14965246D02*
X13927301Y-14946198D01*
X13927301Y-14946198D02*
X13936824Y-14936674D01*
X13936824Y-14936674D02*
X13955872Y-14927150D01*
X13955872Y-14927150D02*
X13974920Y-14927150D01*
X14041586Y-15060484D02*
X14041586Y-14927150D01*
X14041586Y-14860484D02*
X14032062Y-14870008D01*
X14032062Y-14870008D02*
X14041586Y-14879531D01*
X14041586Y-14879531D02*
X14051110Y-14870008D01*
X14051110Y-14870008D02*
X14041586Y-14860484D01*
X14041586Y-14860484D02*
X14041586Y-14879531D01*
X14165396Y-15060484D02*
X14146348Y-15050960D01*
X14146348Y-15050960D02*
X14136824Y-15031912D01*
X14136824Y-15031912D02*
X14136824Y-14860484D01*
X14270158Y-15060484D02*
X14251110Y-15050960D01*
X14251110Y-15050960D02*
X14241586Y-15031912D01*
X14241586Y-15031912D02*
X14241586Y-14860484D01*
X14498729Y-15060484D02*
X14498729Y-14860484D01*
X14498729Y-14860484D02*
X14565396Y-15003341D01*
X14565396Y-15003341D02*
X14632062Y-14860484D01*
X14632062Y-14860484D02*
X14632062Y-15060484D01*
X14813015Y-15060484D02*
X14813015Y-14955722D01*
X14813015Y-14955722D02*
X14803491Y-14936674D01*
X14803491Y-14936674D02*
X14784443Y-14927150D01*
X14784443Y-14927150D02*
X14746348Y-14927150D01*
X14746348Y-14927150D02*
X14727301Y-14936674D01*
X14813015Y-15050960D02*
X14793967Y-15060484D01*
X14793967Y-15060484D02*
X14746348Y-15060484D01*
X14746348Y-15060484D02*
X14727301Y-15050960D01*
X14727301Y-15050960D02*
X14717777Y-15031912D01*
X14717777Y-15031912D02*
X14717777Y-15012865D01*
X14717777Y-15012865D02*
X14727301Y-14993817D01*
X14727301Y-14993817D02*
X14746348Y-14984293D01*
X14746348Y-14984293D02*
X14793967Y-14984293D01*
X14793967Y-14984293D02*
X14813015Y-14974769D01*
X14908253Y-14927150D02*
X14908253Y-15127150D01*
X14908253Y-14936674D02*
X14927301Y-14927150D01*
X14927301Y-14927150D02*
X14965396Y-14927150D01*
X14965396Y-14927150D02*
X14984443Y-14936674D01*
X14984443Y-14936674D02*
X14993967Y-14946198D01*
X14993967Y-14946198D02*
X15003491Y-14965246D01*
X15003491Y-14965246D02*
X15003491Y-15022388D01*
X15003491Y-15022388D02*
X14993967Y-15041436D01*
X14993967Y-15041436D02*
X14984443Y-15050960D01*
X14984443Y-15050960D02*
X14965396Y-15060484D01*
X14965396Y-15060484D02*
X14927301Y-15060484D01*
X14927301Y-15060484D02*
X14908253Y-15050960D01*
X15089205Y-15041436D02*
X15098729Y-15050960D01*
X15098729Y-15050960D02*
X15089205Y-15060484D01*
X15089205Y-15060484D02*
X15079682Y-15050960D01*
X15079682Y-15050960D02*
X15089205Y-15041436D01*
X15089205Y-15041436D02*
X15089205Y-15060484D01*
X15089205Y-14936674D02*
X15098729Y-14946198D01*
X15098729Y-14946198D02*
X15089205Y-14955722D01*
X15089205Y-14955722D02*
X15079682Y-14946198D01*
X15079682Y-14946198D02*
X15089205Y-14936674D01*
X15089205Y-14936674D02*
X15089205Y-14955722D01*
D10*
X13427000Y-15374000D02*
X13457000Y-15404000D01*
X13457000Y-15374000D02*
X13427000Y-15404000D01*
D11*
X13755872Y-15280484D02*
X13774920Y-15280484D01*
X13774920Y-15280484D02*
X13793967Y-15290008D01*
X13793967Y-15290008D02*
X13803491Y-15299531D01*
X13803491Y-15299531D02*
X13813015Y-15318579D01*
X13813015Y-15318579D02*
X13822539Y-15356674D01*
X13822539Y-15356674D02*
X13822539Y-15404293D01*
X13822539Y-15404293D02*
X13813015Y-15442388D01*
X13813015Y-15442388D02*
X13803491Y-15461436D01*
X13803491Y-15461436D02*
X13793967Y-15470960D01*
X13793967Y-15470960D02*
X13774920Y-15480484D01*
X13774920Y-15480484D02*
X13755872Y-15480484D01*
X13755872Y-15480484D02*
X13736824Y-15470960D01*
X13736824Y-15470960D02*
X13727301Y-15461436D01*
X13727301Y-15461436D02*
X13717777Y-15442388D01*
X13717777Y-15442388D02*
X13708253Y-15404293D01*
X13708253Y-15404293D02*
X13708253Y-15356674D01*
X13708253Y-15356674D02*
X13717777Y-15318579D01*
X13717777Y-15318579D02*
X13727301Y-15299531D01*
X13727301Y-15299531D02*
X13736824Y-15290008D01*
X13736824Y-15290008D02*
X13755872Y-15280484D01*
X13908253Y-15461436D02*
X13917777Y-15470960D01*
X13917777Y-15470960D02*
X13908253Y-15480484D01*
X13908253Y-15480484D02*
X13898729Y-15470960D01*
X13898729Y-15470960D02*
X13908253Y-15461436D01*
X13908253Y-15461436D02*
X13908253Y-15480484D01*
X13984443Y-15280484D02*
X14108253Y-15280484D01*
X14108253Y-15280484D02*
X14041586Y-15356674D01*
X14041586Y-15356674D02*
X14070158Y-15356674D01*
X14070158Y-15356674D02*
X14089205Y-15366198D01*
X14089205Y-15366198D02*
X14098729Y-15375722D01*
X14098729Y-15375722D02*
X14108253Y-15394769D01*
X14108253Y-15394769D02*
X14108253Y-15442388D01*
X14108253Y-15442388D02*
X14098729Y-15461436D01*
X14098729Y-15461436D02*
X14089205Y-15470960D01*
X14089205Y-15470960D02*
X14070158Y-15480484D01*
X14070158Y-15480484D02*
X14013015Y-15480484D01*
X14013015Y-15480484D02*
X13993967Y-15470960D01*
X13993967Y-15470960D02*
X13984443Y-15461436D01*
X14232062Y-15280484D02*
X14251110Y-15280484D01*
X14251110Y-15280484D02*
X14270158Y-15290008D01*
X14270158Y-15290008D02*
X14279682Y-15299531D01*
X14279682Y-15299531D02*
X14289205Y-15318579D01*
X14289205Y-15318579D02*
X14298729Y-15356674D01*
X14298729Y-15356674D02*
X14298729Y-15404293D01*
X14298729Y-15404293D02*
X14289205Y-15442388D01*
X14289205Y-15442388D02*
X14279682Y-15461436D01*
X14279682Y-15461436D02*
X14270158Y-15470960D01*
X14270158Y-15470960D02*
X14251110Y-15480484D01*
X14251110Y-15480484D02*
X14232062Y-15480484D01*
X14232062Y-15480484D02*
X14213015Y-15470960D01*
X14213015Y-15470960D02*
X14203491Y-15461436D01*
X14203491Y-15461436D02*
X14193967Y-15442388D01*
X14193967Y-15442388D02*
X14184443Y-15404293D01*
X14184443Y-15404293D02*
X14184443Y-15356674D01*
X14184443Y-15356674D02*
X14193967Y-15318579D01*
X14193967Y-15318579D02*
X14203491Y-15299531D01*
X14203491Y-15299531D02*
X14213015Y-15290008D01*
X14213015Y-15290008D02*
X14232062Y-15280484D01*
X14422539Y-15280484D02*
X14441586Y-15280484D01*
X14441586Y-15280484D02*
X14460634Y-15290008D01*
X14460634Y-15290008D02*
X14470158Y-15299531D01*
X14470158Y-15299531D02*
X14479682Y-15318579D01*
X14479682Y-15318579D02*
X14489205Y-15356674D01*
X14489205Y-15356674D02*
X14489205Y-15404293D01*
X14489205Y-15404293D02*
X14479682Y-15442388D01*
X14479682Y-15442388D02*
X14470158Y-15461436D01*
X14470158Y-15461436D02*
X14460634Y-15470960D01*
X14460634Y-15470960D02*
X14441586Y-15480484D01*
X14441586Y-15480484D02*
X14422539Y-15480484D01*
X14422539Y-15480484D02*
X14403491Y-15470960D01*
X14403491Y-15470960D02*
X14393967Y-15461436D01*
X14393967Y-15461436D02*
X14384443Y-15442388D01*
X14384443Y-15442388D02*
X14374920Y-15404293D01*
X14374920Y-15404293D02*
X14374920Y-15356674D01*
X14374920Y-15356674D02*
X14384443Y-15318579D01*
X14384443Y-15318579D02*
X14393967Y-15299531D01*
X14393967Y-15299531D02*
X14403491Y-15290008D01*
X14403491Y-15290008D02*
X14422539Y-15280484D01*
X14574920Y-15480484D02*
X14574920Y-15347150D01*
X14574920Y-15366198D02*
X14584443Y-15356674D01*
X14584443Y-15356674D02*
X14603491Y-15347150D01*
X14603491Y-15347150D02*
X14632063Y-15347150D01*
X14632063Y-15347150D02*
X14651110Y-15356674D01*
X14651110Y-15356674D02*
X14660634Y-15375722D01*
X14660634Y-15375722D02*
X14660634Y-15480484D01*
X14660634Y-15375722D02*
X14670158Y-15356674D01*
X14670158Y-15356674D02*
X14689205Y-15347150D01*
X14689205Y-15347150D02*
X14717777Y-15347150D01*
X14717777Y-15347150D02*
X14736824Y-15356674D01*
X14736824Y-15356674D02*
X14746348Y-15375722D01*
X14746348Y-15375722D02*
X14746348Y-15480484D01*
X14841586Y-15480484D02*
X14841586Y-15347150D01*
X14841586Y-15366198D02*
X14851110Y-15356674D01*
X14851110Y-15356674D02*
X14870158Y-15347150D01*
X14870158Y-15347150D02*
X14898729Y-15347150D01*
X14898729Y-15347150D02*
X14917777Y-15356674D01*
X14917777Y-15356674D02*
X14927301Y-15375722D01*
X14927301Y-15375722D02*
X14927301Y-15480484D01*
X14927301Y-15375722D02*
X14936824Y-15356674D01*
X14936824Y-15356674D02*
X14955872Y-15347150D01*
X14955872Y-15347150D02*
X14984443Y-15347150D01*
X14984443Y-15347150D02*
X15003491Y-15356674D01*
X15003491Y-15356674D02*
X15013015Y-15375722D01*
X15013015Y-15375722D02*
X15013015Y-15480484D01*
X15403491Y-15270960D02*
X15232063Y-15528103D01*
X15660634Y-15280484D02*
X15679682Y-15280484D01*
X15679682Y-15280484D02*
X15698729Y-15290008D01*
X15698729Y-15290008D02*
X15708253Y-15299531D01*
X15708253Y-15299531D02*
X15717777Y-15318579D01*
X15717777Y-15318579D02*
X15727301Y-15356674D01*
X15727301Y-15356674D02*
X15727301Y-15404293D01*
X15727301Y-15404293D02*
X15717777Y-15442388D01*
X15717777Y-15442388D02*
X15708253Y-15461436D01*
X15708253Y-15461436D02*
X15698729Y-15470960D01*
X15698729Y-15470960D02*
X15679682Y-15480484D01*
X15679682Y-15480484D02*
X15660634Y-15480484D01*
X15660634Y-15480484D02*
X15641586Y-15470960D01*
X15641586Y-15470960D02*
X15632063Y-15461436D01*
X15632063Y-15461436D02*
X15622539Y-15442388D01*
X15622539Y-15442388D02*
X15613015Y-15404293D01*
X15613015Y-15404293D02*
X15613015Y-15356674D01*
X15613015Y-15356674D02*
X15622539Y-15318579D01*
X15622539Y-15318579D02*
X15632063Y-15299531D01*
X15632063Y-15299531D02*
X15641586Y-15290008D01*
X15641586Y-15290008D02*
X15660634Y-15280484D01*
X15813015Y-15461436D02*
X15822539Y-15470960D01*
X15822539Y-15470960D02*
X15813015Y-15480484D01*
X15813015Y-15480484D02*
X15803491Y-15470960D01*
X15803491Y-15470960D02*
X15813015Y-15461436D01*
X15813015Y-15461436D02*
X15813015Y-15480484D01*
X15946348Y-15280484D02*
X15965396Y-15280484D01*
X15965396Y-15280484D02*
X15984444Y-15290008D01*
X15984444Y-15290008D02*
X15993967Y-15299531D01*
X15993967Y-15299531D02*
X16003491Y-15318579D01*
X16003491Y-15318579D02*
X16013015Y-15356674D01*
X16013015Y-15356674D02*
X16013015Y-15404293D01*
X16013015Y-15404293D02*
X16003491Y-15442388D01*
X16003491Y-15442388D02*
X15993967Y-15461436D01*
X15993967Y-15461436D02*
X15984444Y-15470960D01*
X15984444Y-15470960D02*
X15965396Y-15480484D01*
X15965396Y-15480484D02*
X15946348Y-15480484D01*
X15946348Y-15480484D02*
X15927301Y-15470960D01*
X15927301Y-15470960D02*
X15917777Y-15461436D01*
X15917777Y-15461436D02*
X15908253Y-15442388D01*
X15908253Y-15442388D02*
X15898729Y-15404293D01*
X15898729Y-15404293D02*
X15898729Y-15356674D01*
X15898729Y-15356674D02*
X15908253Y-15318579D01*
X15908253Y-15318579D02*
X15917777Y-15299531D01*
X15917777Y-15299531D02*
X15927301Y-15290008D01*
X15927301Y-15290008D02*
X15946348Y-15280484D01*
X16203491Y-15480484D02*
X16089206Y-15480484D01*
X16146348Y-15480484D02*
X16146348Y-15280484D01*
X16146348Y-15280484D02*
X16127301Y-15309055D01*
X16127301Y-15309055D02*
X16108253Y-15328103D01*
X16108253Y-15328103D02*
X16089206Y-15337627D01*
X16393967Y-15480484D02*
X16279682Y-15480484D01*
X16336825Y-15480484D02*
X16336825Y-15280484D01*
X16336825Y-15280484D02*
X16317777Y-15309055D01*
X16317777Y-15309055D02*
X16298729Y-15328103D01*
X16298729Y-15328103D02*
X16279682Y-15337627D01*
X16508253Y-15366198D02*
X16489206Y-15356674D01*
X16489206Y-15356674D02*
X16479682Y-15347150D01*
X16479682Y-15347150D02*
X16470158Y-15328103D01*
X16470158Y-15328103D02*
X16470158Y-15318579D01*
X16470158Y-15318579D02*
X16479682Y-15299531D01*
X16479682Y-15299531D02*
X16489206Y-15290008D01*
X16489206Y-15290008D02*
X16508253Y-15280484D01*
X16508253Y-15280484D02*
X16546348Y-15280484D01*
X16546348Y-15280484D02*
X16565396Y-15290008D01*
X16565396Y-15290008D02*
X16574920Y-15299531D01*
X16574920Y-15299531D02*
X16584444Y-15318579D01*
X16584444Y-15318579D02*
X16584444Y-15328103D01*
X16584444Y-15328103D02*
X16574920Y-15347150D01*
X16574920Y-15347150D02*
X16565396Y-15356674D01*
X16565396Y-15356674D02*
X16546348Y-15366198D01*
X16546348Y-15366198D02*
X16508253Y-15366198D01*
X16508253Y-15366198D02*
X16489206Y-15375722D01*
X16489206Y-15375722D02*
X16479682Y-15385246D01*
X16479682Y-15385246D02*
X16470158Y-15404293D01*
X16470158Y-15404293D02*
X16470158Y-15442388D01*
X16470158Y-15442388D02*
X16479682Y-15461436D01*
X16479682Y-15461436D02*
X16489206Y-15470960D01*
X16489206Y-15470960D02*
X16508253Y-15480484D01*
X16508253Y-15480484D02*
X16546348Y-15480484D01*
X16546348Y-15480484D02*
X16565396Y-15470960D01*
X16565396Y-15470960D02*
X16574920Y-15461436D01*
X16574920Y-15461436D02*
X16584444Y-15442388D01*
X16584444Y-15442388D02*
X16584444Y-15404293D01*
X16584444Y-15404293D02*
X16574920Y-15385246D01*
X16574920Y-15385246D02*
X16565396Y-15375722D01*
X16565396Y-15375722D02*
X16546348Y-15366198D01*
X16660634Y-15280484D02*
X16660634Y-15318579D01*
X16736825Y-15280484D02*
X16736825Y-15318579D01*
X17032063Y-15556674D02*
X17022539Y-15547150D01*
X17022539Y-15547150D02*
X17003491Y-15518579D01*
X17003491Y-15518579D02*
X16993968Y-15499531D01*
X16993968Y-15499531D02*
X16984444Y-15470960D01*
X16984444Y-15470960D02*
X16974920Y-15423341D01*
X16974920Y-15423341D02*
X16974920Y-15385246D01*
X16974920Y-15385246D02*
X16984444Y-15337627D01*
X16984444Y-15337627D02*
X16993968Y-15309055D01*
X16993968Y-15309055D02*
X17003491Y-15290008D01*
X17003491Y-15290008D02*
X17022539Y-15261436D01*
X17022539Y-15261436D02*
X17032063Y-15251912D01*
X17136825Y-15366198D02*
X17117777Y-15356674D01*
X17117777Y-15356674D02*
X17108253Y-15347150D01*
X17108253Y-15347150D02*
X17098730Y-15328103D01*
X17098730Y-15328103D02*
X17098730Y-15318579D01*
X17098730Y-15318579D02*
X17108253Y-15299531D01*
X17108253Y-15299531D02*
X17117777Y-15290008D01*
X17117777Y-15290008D02*
X17136825Y-15280484D01*
X17136825Y-15280484D02*
X17174920Y-15280484D01*
X17174920Y-15280484D02*
X17193968Y-15290008D01*
X17193968Y-15290008D02*
X17203491Y-15299531D01*
X17203491Y-15299531D02*
X17213015Y-15318579D01*
X17213015Y-15318579D02*
X17213015Y-15328103D01*
X17213015Y-15328103D02*
X17203491Y-15347150D01*
X17203491Y-15347150D02*
X17193968Y-15356674D01*
X17193968Y-15356674D02*
X17174920Y-15366198D01*
X17174920Y-15366198D02*
X17136825Y-15366198D01*
X17136825Y-15366198D02*
X17117777Y-15375722D01*
X17117777Y-15375722D02*
X17108253Y-15385246D01*
X17108253Y-15385246D02*
X17098730Y-15404293D01*
X17098730Y-15404293D02*
X17098730Y-15442388D01*
X17098730Y-15442388D02*
X17108253Y-15461436D01*
X17108253Y-15461436D02*
X17117777Y-15470960D01*
X17117777Y-15470960D02*
X17136825Y-15480484D01*
X17136825Y-15480484D02*
X17174920Y-15480484D01*
X17174920Y-15480484D02*
X17193968Y-15470960D01*
X17193968Y-15470960D02*
X17203491Y-15461436D01*
X17203491Y-15461436D02*
X17213015Y-15442388D01*
X17213015Y-15442388D02*
X17213015Y-15404293D01*
X17213015Y-15404293D02*
X17203491Y-15385246D01*
X17203491Y-15385246D02*
X17193968Y-15375722D01*
X17193968Y-15375722D02*
X17174920Y-15366198D01*
X17279682Y-15280484D02*
X17403491Y-15280484D01*
X17403491Y-15280484D02*
X17336825Y-15356674D01*
X17336825Y-15356674D02*
X17365396Y-15356674D01*
X17365396Y-15356674D02*
X17384444Y-15366198D01*
X17384444Y-15366198D02*
X17393968Y-15375722D01*
X17393968Y-15375722D02*
X17403491Y-15394769D01*
X17403491Y-15394769D02*
X17403491Y-15442388D01*
X17403491Y-15442388D02*
X17393968Y-15461436D01*
X17393968Y-15461436D02*
X17384444Y-15470960D01*
X17384444Y-15470960D02*
X17365396Y-15480484D01*
X17365396Y-15480484D02*
X17308253Y-15480484D01*
X17308253Y-15480484D02*
X17289206Y-15470960D01*
X17289206Y-15470960D02*
X17279682Y-15461436D01*
X17641587Y-15480484D02*
X17641587Y-15280484D01*
X17727301Y-15480484D02*
X17727301Y-15375722D01*
X17727301Y-15375722D02*
X17717777Y-15356674D01*
X17717777Y-15356674D02*
X17698730Y-15347150D01*
X17698730Y-15347150D02*
X17670158Y-15347150D01*
X17670158Y-15347150D02*
X17651111Y-15356674D01*
X17651111Y-15356674D02*
X17641587Y-15366198D01*
X17851111Y-15480484D02*
X17832063Y-15470960D01*
X17832063Y-15470960D02*
X17822539Y-15461436D01*
X17822539Y-15461436D02*
X17813015Y-15442388D01*
X17813015Y-15442388D02*
X17813015Y-15385246D01*
X17813015Y-15385246D02*
X17822539Y-15366198D01*
X17822539Y-15366198D02*
X17832063Y-15356674D01*
X17832063Y-15356674D02*
X17851111Y-15347150D01*
X17851111Y-15347150D02*
X17879682Y-15347150D01*
X17879682Y-15347150D02*
X17898730Y-15356674D01*
X17898730Y-15356674D02*
X17908253Y-15366198D01*
X17908253Y-15366198D02*
X17917777Y-15385246D01*
X17917777Y-15385246D02*
X17917777Y-15442388D01*
X17917777Y-15442388D02*
X17908253Y-15461436D01*
X17908253Y-15461436D02*
X17898730Y-15470960D01*
X17898730Y-15470960D02*
X17879682Y-15480484D01*
X17879682Y-15480484D02*
X17851111Y-15480484D01*
X18032063Y-15480484D02*
X18013015Y-15470960D01*
X18013015Y-15470960D02*
X18003492Y-15451912D01*
X18003492Y-15451912D02*
X18003492Y-15280484D01*
X18184444Y-15470960D02*
X18165396Y-15480484D01*
X18165396Y-15480484D02*
X18127301Y-15480484D01*
X18127301Y-15480484D02*
X18108253Y-15470960D01*
X18108253Y-15470960D02*
X18098730Y-15451912D01*
X18098730Y-15451912D02*
X18098730Y-15375722D01*
X18098730Y-15375722D02*
X18108253Y-15356674D01*
X18108253Y-15356674D02*
X18127301Y-15347150D01*
X18127301Y-15347150D02*
X18165396Y-15347150D01*
X18165396Y-15347150D02*
X18184444Y-15356674D01*
X18184444Y-15356674D02*
X18193968Y-15375722D01*
X18193968Y-15375722D02*
X18193968Y-15394769D01*
X18193968Y-15394769D02*
X18098730Y-15413817D01*
X18270158Y-15470960D02*
X18289206Y-15480484D01*
X18289206Y-15480484D02*
X18327301Y-15480484D01*
X18327301Y-15480484D02*
X18346349Y-15470960D01*
X18346349Y-15470960D02*
X18355873Y-15451912D01*
X18355873Y-15451912D02*
X18355873Y-15442388D01*
X18355873Y-15442388D02*
X18346349Y-15423341D01*
X18346349Y-15423341D02*
X18327301Y-15413817D01*
X18327301Y-15413817D02*
X18298730Y-15413817D01*
X18298730Y-15413817D02*
X18279682Y-15404293D01*
X18279682Y-15404293D02*
X18270158Y-15385246D01*
X18270158Y-15385246D02*
X18270158Y-15375722D01*
X18270158Y-15375722D02*
X18279682Y-15356674D01*
X18279682Y-15356674D02*
X18298730Y-15347150D01*
X18298730Y-15347150D02*
X18327301Y-15347150D01*
X18327301Y-15347150D02*
X18346349Y-15356674D01*
X18422539Y-15556674D02*
X18432063Y-15547150D01*
X18432063Y-15547150D02*
X18451111Y-15518579D01*
X18451111Y-15518579D02*
X18460634Y-15499531D01*
X18460634Y-15499531D02*
X18470158Y-15470960D01*
X18470158Y-15470960D02*
X18479682Y-15423341D01*
X18479682Y-15423341D02*
X18479682Y-15385246D01*
X18479682Y-15385246D02*
X18470158Y-15337627D01*
X18470158Y-15337627D02*
X18460634Y-15309055D01*
X18460634Y-15309055D02*
X18451111Y-15290008D01*
X18451111Y-15290008D02*
X18432063Y-15261436D01*
X18432063Y-15261436D02*
X18422539Y-15251912D01*
D10*
X13457000Y-15653000D02*
G75*
G02*
X13427000Y-15653000I-15000J0D01*
G01*
X13427000Y-15653000D02*
G75*
G02*
X13457000Y-15653000I15000J0D01*
G01*
D11*
X13755872Y-15544484D02*
X13774920Y-15544484D01*
X13774920Y-15544484D02*
X13793967Y-15554008D01*
X13793967Y-15554008D02*
X13803491Y-15563531D01*
X13803491Y-15563531D02*
X13813015Y-15582579D01*
X13813015Y-15582579D02*
X13822539Y-15620674D01*
X13822539Y-15620674D02*
X13822539Y-15668293D01*
X13822539Y-15668293D02*
X13813015Y-15706388D01*
X13813015Y-15706388D02*
X13803491Y-15725436D01*
X13803491Y-15725436D02*
X13793967Y-15734960D01*
X13793967Y-15734960D02*
X13774920Y-15744484D01*
X13774920Y-15744484D02*
X13755872Y-15744484D01*
X13755872Y-15744484D02*
X13736824Y-15734960D01*
X13736824Y-15734960D02*
X13727301Y-15725436D01*
X13727301Y-15725436D02*
X13717777Y-15706388D01*
X13717777Y-15706388D02*
X13708253Y-15668293D01*
X13708253Y-15668293D02*
X13708253Y-15620674D01*
X13708253Y-15620674D02*
X13717777Y-15582579D01*
X13717777Y-15582579D02*
X13727301Y-15563531D01*
X13727301Y-15563531D02*
X13736824Y-15554008D01*
X13736824Y-15554008D02*
X13755872Y-15544484D01*
X13908253Y-15725436D02*
X13917777Y-15734960D01*
X13917777Y-15734960D02*
X13908253Y-15744484D01*
X13908253Y-15744484D02*
X13898729Y-15734960D01*
X13898729Y-15734960D02*
X13908253Y-15725436D01*
X13908253Y-15725436D02*
X13908253Y-15744484D01*
X13984443Y-15544484D02*
X14108253Y-15544484D01*
X14108253Y-15544484D02*
X14041586Y-15620674D01*
X14041586Y-15620674D02*
X14070158Y-15620674D01*
X14070158Y-15620674D02*
X14089205Y-15630198D01*
X14089205Y-15630198D02*
X14098729Y-15639722D01*
X14098729Y-15639722D02*
X14108253Y-15658769D01*
X14108253Y-15658769D02*
X14108253Y-15706388D01*
X14108253Y-15706388D02*
X14098729Y-15725436D01*
X14098729Y-15725436D02*
X14089205Y-15734960D01*
X14089205Y-15734960D02*
X14070158Y-15744484D01*
X14070158Y-15744484D02*
X14013015Y-15744484D01*
X14013015Y-15744484D02*
X13993967Y-15734960D01*
X13993967Y-15734960D02*
X13984443Y-15725436D01*
X14232062Y-15544484D02*
X14251110Y-15544484D01*
X14251110Y-15544484D02*
X14270158Y-15554008D01*
X14270158Y-15554008D02*
X14279682Y-15563531D01*
X14279682Y-15563531D02*
X14289205Y-15582579D01*
X14289205Y-15582579D02*
X14298729Y-15620674D01*
X14298729Y-15620674D02*
X14298729Y-15668293D01*
X14298729Y-15668293D02*
X14289205Y-15706388D01*
X14289205Y-15706388D02*
X14279682Y-15725436D01*
X14279682Y-15725436D02*
X14270158Y-15734960D01*
X14270158Y-15734960D02*
X14251110Y-15744484D01*
X14251110Y-15744484D02*
X14232062Y-15744484D01*
X14232062Y-15744484D02*
X14213015Y-15734960D01*
X14213015Y-15734960D02*
X14203491Y-15725436D01*
X14203491Y-15725436D02*
X14193967Y-15706388D01*
X14193967Y-15706388D02*
X14184443Y-15668293D01*
X14184443Y-15668293D02*
X14184443Y-15620674D01*
X14184443Y-15620674D02*
X14193967Y-15582579D01*
X14193967Y-15582579D02*
X14203491Y-15563531D01*
X14203491Y-15563531D02*
X14213015Y-15554008D01*
X14213015Y-15554008D02*
X14232062Y-15544484D01*
X14422539Y-15544484D02*
X14441586Y-15544484D01*
X14441586Y-15544484D02*
X14460634Y-15554008D01*
X14460634Y-15554008D02*
X14470158Y-15563531D01*
X14470158Y-15563531D02*
X14479682Y-15582579D01*
X14479682Y-15582579D02*
X14489205Y-15620674D01*
X14489205Y-15620674D02*
X14489205Y-15668293D01*
X14489205Y-15668293D02*
X14479682Y-15706388D01*
X14479682Y-15706388D02*
X14470158Y-15725436D01*
X14470158Y-15725436D02*
X14460634Y-15734960D01*
X14460634Y-15734960D02*
X14441586Y-15744484D01*
X14441586Y-15744484D02*
X14422539Y-15744484D01*
X14422539Y-15744484D02*
X14403491Y-15734960D01*
X14403491Y-15734960D02*
X14393967Y-15725436D01*
X14393967Y-15725436D02*
X14384443Y-15706388D01*
X14384443Y-15706388D02*
X14374920Y-15668293D01*
X14374920Y-15668293D02*
X14374920Y-15620674D01*
X14374920Y-15620674D02*
X14384443Y-15582579D01*
X14384443Y-15582579D02*
X14393967Y-15563531D01*
X14393967Y-15563531D02*
X14403491Y-15554008D01*
X14403491Y-15554008D02*
X14422539Y-15544484D01*
X14574920Y-15744484D02*
X14574920Y-15611150D01*
X14574920Y-15630198D02*
X14584443Y-15620674D01*
X14584443Y-15620674D02*
X14603491Y-15611150D01*
X14603491Y-15611150D02*
X14632063Y-15611150D01*
X14632063Y-15611150D02*
X14651110Y-15620674D01*
X14651110Y-15620674D02*
X14660634Y-15639722D01*
X14660634Y-15639722D02*
X14660634Y-15744484D01*
X14660634Y-15639722D02*
X14670158Y-15620674D01*
X14670158Y-15620674D02*
X14689205Y-15611150D01*
X14689205Y-15611150D02*
X14717777Y-15611150D01*
X14717777Y-15611150D02*
X14736824Y-15620674D01*
X14736824Y-15620674D02*
X14746348Y-15639722D01*
X14746348Y-15639722D02*
X14746348Y-15744484D01*
X14841586Y-15744484D02*
X14841586Y-15611150D01*
X14841586Y-15630198D02*
X14851110Y-15620674D01*
X14851110Y-15620674D02*
X14870158Y-15611150D01*
X14870158Y-15611150D02*
X14898729Y-15611150D01*
X14898729Y-15611150D02*
X14917777Y-15620674D01*
X14917777Y-15620674D02*
X14927301Y-15639722D01*
X14927301Y-15639722D02*
X14927301Y-15744484D01*
X14927301Y-15639722D02*
X14936824Y-15620674D01*
X14936824Y-15620674D02*
X14955872Y-15611150D01*
X14955872Y-15611150D02*
X14984443Y-15611150D01*
X14984443Y-15611150D02*
X15003491Y-15620674D01*
X15003491Y-15620674D02*
X15013015Y-15639722D01*
X15013015Y-15639722D02*
X15013015Y-15744484D01*
X15403491Y-15534960D02*
X15232063Y-15792103D01*
X15660634Y-15544484D02*
X15679682Y-15544484D01*
X15679682Y-15544484D02*
X15698729Y-15554008D01*
X15698729Y-15554008D02*
X15708253Y-15563531D01*
X15708253Y-15563531D02*
X15717777Y-15582579D01*
X15717777Y-15582579D02*
X15727301Y-15620674D01*
X15727301Y-15620674D02*
X15727301Y-15668293D01*
X15727301Y-15668293D02*
X15717777Y-15706388D01*
X15717777Y-15706388D02*
X15708253Y-15725436D01*
X15708253Y-15725436D02*
X15698729Y-15734960D01*
X15698729Y-15734960D02*
X15679682Y-15744484D01*
X15679682Y-15744484D02*
X15660634Y-15744484D01*
X15660634Y-15744484D02*
X15641586Y-15734960D01*
X15641586Y-15734960D02*
X15632063Y-15725436D01*
X15632063Y-15725436D02*
X15622539Y-15706388D01*
X15622539Y-15706388D02*
X15613015Y-15668293D01*
X15613015Y-15668293D02*
X15613015Y-15620674D01*
X15613015Y-15620674D02*
X15622539Y-15582579D01*
X15622539Y-15582579D02*
X15632063Y-15563531D01*
X15632063Y-15563531D02*
X15641586Y-15554008D01*
X15641586Y-15554008D02*
X15660634Y-15544484D01*
X15813015Y-15725436D02*
X15822539Y-15734960D01*
X15822539Y-15734960D02*
X15813015Y-15744484D01*
X15813015Y-15744484D02*
X15803491Y-15734960D01*
X15803491Y-15734960D02*
X15813015Y-15725436D01*
X15813015Y-15725436D02*
X15813015Y-15744484D01*
X15946348Y-15544484D02*
X15965396Y-15544484D01*
X15965396Y-15544484D02*
X15984444Y-15554008D01*
X15984444Y-15554008D02*
X15993967Y-15563531D01*
X15993967Y-15563531D02*
X16003491Y-15582579D01*
X16003491Y-15582579D02*
X16013015Y-15620674D01*
X16013015Y-15620674D02*
X16013015Y-15668293D01*
X16013015Y-15668293D02*
X16003491Y-15706388D01*
X16003491Y-15706388D02*
X15993967Y-15725436D01*
X15993967Y-15725436D02*
X15984444Y-15734960D01*
X15984444Y-15734960D02*
X15965396Y-15744484D01*
X15965396Y-15744484D02*
X15946348Y-15744484D01*
X15946348Y-15744484D02*
X15927301Y-15734960D01*
X15927301Y-15734960D02*
X15917777Y-15725436D01*
X15917777Y-15725436D02*
X15908253Y-15706388D01*
X15908253Y-15706388D02*
X15898729Y-15668293D01*
X15898729Y-15668293D02*
X15898729Y-15620674D01*
X15898729Y-15620674D02*
X15908253Y-15582579D01*
X15908253Y-15582579D02*
X15917777Y-15563531D01*
X15917777Y-15563531D02*
X15927301Y-15554008D01*
X15927301Y-15554008D02*
X15946348Y-15544484D01*
X16203491Y-15744484D02*
X16089206Y-15744484D01*
X16146348Y-15744484D02*
X16146348Y-15544484D01*
X16146348Y-15544484D02*
X16127301Y-15573055D01*
X16127301Y-15573055D02*
X16108253Y-15592103D01*
X16108253Y-15592103D02*
X16089206Y-15601627D01*
X16393967Y-15744484D02*
X16279682Y-15744484D01*
X16336825Y-15744484D02*
X16336825Y-15544484D01*
X16336825Y-15544484D02*
X16317777Y-15573055D01*
X16317777Y-15573055D02*
X16298729Y-15592103D01*
X16298729Y-15592103D02*
X16279682Y-15601627D01*
X16508253Y-15630198D02*
X16489206Y-15620674D01*
X16489206Y-15620674D02*
X16479682Y-15611150D01*
X16479682Y-15611150D02*
X16470158Y-15592103D01*
X16470158Y-15592103D02*
X16470158Y-15582579D01*
X16470158Y-15582579D02*
X16479682Y-15563531D01*
X16479682Y-15563531D02*
X16489206Y-15554008D01*
X16489206Y-15554008D02*
X16508253Y-15544484D01*
X16508253Y-15544484D02*
X16546348Y-15544484D01*
X16546348Y-15544484D02*
X16565396Y-15554008D01*
X16565396Y-15554008D02*
X16574920Y-15563531D01*
X16574920Y-15563531D02*
X16584444Y-15582579D01*
X16584444Y-15582579D02*
X16584444Y-15592103D01*
X16584444Y-15592103D02*
X16574920Y-15611150D01*
X16574920Y-15611150D02*
X16565396Y-15620674D01*
X16565396Y-15620674D02*
X16546348Y-15630198D01*
X16546348Y-15630198D02*
X16508253Y-15630198D01*
X16508253Y-15630198D02*
X16489206Y-15639722D01*
X16489206Y-15639722D02*
X16479682Y-15649246D01*
X16479682Y-15649246D02*
X16470158Y-15668293D01*
X16470158Y-15668293D02*
X16470158Y-15706388D01*
X16470158Y-15706388D02*
X16479682Y-15725436D01*
X16479682Y-15725436D02*
X16489206Y-15734960D01*
X16489206Y-15734960D02*
X16508253Y-15744484D01*
X16508253Y-15744484D02*
X16546348Y-15744484D01*
X16546348Y-15744484D02*
X16565396Y-15734960D01*
X16565396Y-15734960D02*
X16574920Y-15725436D01*
X16574920Y-15725436D02*
X16584444Y-15706388D01*
X16584444Y-15706388D02*
X16584444Y-15668293D01*
X16584444Y-15668293D02*
X16574920Y-15649246D01*
X16574920Y-15649246D02*
X16565396Y-15639722D01*
X16565396Y-15639722D02*
X16546348Y-15630198D01*
X16660634Y-15544484D02*
X16660634Y-15582579D01*
X16736825Y-15544484D02*
X16736825Y-15582579D01*
X17032063Y-15820674D02*
X17022539Y-15811150D01*
X17022539Y-15811150D02*
X17003491Y-15782579D01*
X17003491Y-15782579D02*
X16993968Y-15763531D01*
X16993968Y-15763531D02*
X16984444Y-15734960D01*
X16984444Y-15734960D02*
X16974920Y-15687341D01*
X16974920Y-15687341D02*
X16974920Y-15649246D01*
X16974920Y-15649246D02*
X16984444Y-15601627D01*
X16984444Y-15601627D02*
X16993968Y-15573055D01*
X16993968Y-15573055D02*
X17003491Y-15554008D01*
X17003491Y-15554008D02*
X17022539Y-15525436D01*
X17022539Y-15525436D02*
X17032063Y-15515912D01*
X17117777Y-15744484D02*
X17155872Y-15744484D01*
X17155872Y-15744484D02*
X17174920Y-15734960D01*
X17174920Y-15734960D02*
X17184444Y-15725436D01*
X17184444Y-15725436D02*
X17203491Y-15696865D01*
X17203491Y-15696865D02*
X17213015Y-15658769D01*
X17213015Y-15658769D02*
X17213015Y-15582579D01*
X17213015Y-15582579D02*
X17203491Y-15563531D01*
X17203491Y-15563531D02*
X17193968Y-15554008D01*
X17193968Y-15554008D02*
X17174920Y-15544484D01*
X17174920Y-15544484D02*
X17136825Y-15544484D01*
X17136825Y-15544484D02*
X17117777Y-15554008D01*
X17117777Y-15554008D02*
X17108253Y-15563531D01*
X17108253Y-15563531D02*
X17098730Y-15582579D01*
X17098730Y-15582579D02*
X17098730Y-15630198D01*
X17098730Y-15630198D02*
X17108253Y-15649246D01*
X17108253Y-15649246D02*
X17117777Y-15658769D01*
X17117777Y-15658769D02*
X17136825Y-15668293D01*
X17136825Y-15668293D02*
X17174920Y-15668293D01*
X17174920Y-15668293D02*
X17193968Y-15658769D01*
X17193968Y-15658769D02*
X17203491Y-15649246D01*
X17203491Y-15649246D02*
X17213015Y-15630198D01*
X17451111Y-15744484D02*
X17451111Y-15544484D01*
X17536825Y-15744484D02*
X17536825Y-15639722D01*
X17536825Y-15639722D02*
X17527301Y-15620674D01*
X17527301Y-15620674D02*
X17508253Y-15611150D01*
X17508253Y-15611150D02*
X17479682Y-15611150D01*
X17479682Y-15611150D02*
X17460634Y-15620674D01*
X17460634Y-15620674D02*
X17451111Y-15630198D01*
X17660634Y-15744484D02*
X17641587Y-15734960D01*
X17641587Y-15734960D02*
X17632063Y-15725436D01*
X17632063Y-15725436D02*
X17622539Y-15706388D01*
X17622539Y-15706388D02*
X17622539Y-15649246D01*
X17622539Y-15649246D02*
X17632063Y-15630198D01*
X17632063Y-15630198D02*
X17641587Y-15620674D01*
X17641587Y-15620674D02*
X17660634Y-15611150D01*
X17660634Y-15611150D02*
X17689206Y-15611150D01*
X17689206Y-15611150D02*
X17708253Y-15620674D01*
X17708253Y-15620674D02*
X17717777Y-15630198D01*
X17717777Y-15630198D02*
X17727301Y-15649246D01*
X17727301Y-15649246D02*
X17727301Y-15706388D01*
X17727301Y-15706388D02*
X17717777Y-15725436D01*
X17717777Y-15725436D02*
X17708253Y-15734960D01*
X17708253Y-15734960D02*
X17689206Y-15744484D01*
X17689206Y-15744484D02*
X17660634Y-15744484D01*
X17841587Y-15744484D02*
X17822539Y-15734960D01*
X17822539Y-15734960D02*
X17813015Y-15715912D01*
X17813015Y-15715912D02*
X17813015Y-15544484D01*
X17993968Y-15734960D02*
X17974920Y-15744484D01*
X17974920Y-15744484D02*
X17936825Y-15744484D01*
X17936825Y-15744484D02*
X17917777Y-15734960D01*
X17917777Y-15734960D02*
X17908253Y-15715912D01*
X17908253Y-15715912D02*
X17908253Y-15639722D01*
X17908253Y-15639722D02*
X17917777Y-15620674D01*
X17917777Y-15620674D02*
X17936825Y-15611150D01*
X17936825Y-15611150D02*
X17974920Y-15611150D01*
X17974920Y-15611150D02*
X17993968Y-15620674D01*
X17993968Y-15620674D02*
X18003492Y-15639722D01*
X18003492Y-15639722D02*
X18003492Y-15658769D01*
X18003492Y-15658769D02*
X17908253Y-15677817D01*
X18079682Y-15734960D02*
X18098730Y-15744484D01*
X18098730Y-15744484D02*
X18136825Y-15744484D01*
X18136825Y-15744484D02*
X18155873Y-15734960D01*
X18155873Y-15734960D02*
X18165396Y-15715912D01*
X18165396Y-15715912D02*
X18165396Y-15706388D01*
X18165396Y-15706388D02*
X18155873Y-15687341D01*
X18155873Y-15687341D02*
X18136825Y-15677817D01*
X18136825Y-15677817D02*
X18108253Y-15677817D01*
X18108253Y-15677817D02*
X18089206Y-15668293D01*
X18089206Y-15668293D02*
X18079682Y-15649246D01*
X18079682Y-15649246D02*
X18079682Y-15639722D01*
X18079682Y-15639722D02*
X18089206Y-15620674D01*
X18089206Y-15620674D02*
X18108253Y-15611150D01*
X18108253Y-15611150D02*
X18136825Y-15611150D01*
X18136825Y-15611150D02*
X18155873Y-15620674D01*
X18232063Y-15820674D02*
X18241587Y-15811150D01*
X18241587Y-15811150D02*
X18260634Y-15782579D01*
X18260634Y-15782579D02*
X18270158Y-15763531D01*
X18270158Y-15763531D02*
X18279682Y-15734960D01*
X18279682Y-15734960D02*
X18289206Y-15687341D01*
X18289206Y-15687341D02*
X18289206Y-15649246D01*
X18289206Y-15649246D02*
X18279682Y-15601627D01*
X18279682Y-15601627D02*
X18270158Y-15573055D01*
X18270158Y-15573055D02*
X18260634Y-15554008D01*
X18260634Y-15554008D02*
X18241587Y-15525436D01*
X18241587Y-15525436D02*
X18232063Y-15515912D01*
D10*
X13424500Y-15884500D02*
X13424500Y-15949500D01*
X13392000Y-15917000D02*
X13457000Y-15917000D01*
D11*
X13755872Y-15808484D02*
X13774920Y-15808484D01*
X13774920Y-15808484D02*
X13793967Y-15818008D01*
X13793967Y-15818008D02*
X13803491Y-15827531D01*
X13803491Y-15827531D02*
X13813015Y-15846579D01*
X13813015Y-15846579D02*
X13822539Y-15884674D01*
X13822539Y-15884674D02*
X13822539Y-15932293D01*
X13822539Y-15932293D02*
X13813015Y-15970388D01*
X13813015Y-15970388D02*
X13803491Y-15989436D01*
X13803491Y-15989436D02*
X13793967Y-15998960D01*
X13793967Y-15998960D02*
X13774920Y-16008484D01*
X13774920Y-16008484D02*
X13755872Y-16008484D01*
X13755872Y-16008484D02*
X13736824Y-15998960D01*
X13736824Y-15998960D02*
X13727301Y-15989436D01*
X13727301Y-15989436D02*
X13717777Y-15970388D01*
X13717777Y-15970388D02*
X13708253Y-15932293D01*
X13708253Y-15932293D02*
X13708253Y-15884674D01*
X13708253Y-15884674D02*
X13717777Y-15846579D01*
X13717777Y-15846579D02*
X13727301Y-15827531D01*
X13727301Y-15827531D02*
X13736824Y-15818008D01*
X13736824Y-15818008D02*
X13755872Y-15808484D01*
X13908253Y-15989436D02*
X13917777Y-15998960D01*
X13917777Y-15998960D02*
X13908253Y-16008484D01*
X13908253Y-16008484D02*
X13898729Y-15998960D01*
X13898729Y-15998960D02*
X13908253Y-15989436D01*
X13908253Y-15989436D02*
X13908253Y-16008484D01*
X14089205Y-15808484D02*
X14051110Y-15808484D01*
X14051110Y-15808484D02*
X14032062Y-15818008D01*
X14032062Y-15818008D02*
X14022539Y-15827531D01*
X14022539Y-15827531D02*
X14003491Y-15856103D01*
X14003491Y-15856103D02*
X13993967Y-15894198D01*
X13993967Y-15894198D02*
X13993967Y-15970388D01*
X13993967Y-15970388D02*
X14003491Y-15989436D01*
X14003491Y-15989436D02*
X14013015Y-15998960D01*
X14013015Y-15998960D02*
X14032062Y-16008484D01*
X14032062Y-16008484D02*
X14070158Y-16008484D01*
X14070158Y-16008484D02*
X14089205Y-15998960D01*
X14089205Y-15998960D02*
X14098729Y-15989436D01*
X14098729Y-15989436D02*
X14108253Y-15970388D01*
X14108253Y-15970388D02*
X14108253Y-15922769D01*
X14108253Y-15922769D02*
X14098729Y-15903722D01*
X14098729Y-15903722D02*
X14089205Y-15894198D01*
X14089205Y-15894198D02*
X14070158Y-15884674D01*
X14070158Y-15884674D02*
X14032062Y-15884674D01*
X14032062Y-15884674D02*
X14013015Y-15894198D01*
X14013015Y-15894198D02*
X14003491Y-15903722D01*
X14003491Y-15903722D02*
X13993967Y-15922769D01*
X14289205Y-15808484D02*
X14193967Y-15808484D01*
X14193967Y-15808484D02*
X14184443Y-15903722D01*
X14184443Y-15903722D02*
X14193967Y-15894198D01*
X14193967Y-15894198D02*
X14213015Y-15884674D01*
X14213015Y-15884674D02*
X14260634Y-15884674D01*
X14260634Y-15884674D02*
X14279682Y-15894198D01*
X14279682Y-15894198D02*
X14289205Y-15903722D01*
X14289205Y-15903722D02*
X14298729Y-15922769D01*
X14298729Y-15922769D02*
X14298729Y-15970388D01*
X14298729Y-15970388D02*
X14289205Y-15989436D01*
X14289205Y-15989436D02*
X14279682Y-15998960D01*
X14279682Y-15998960D02*
X14260634Y-16008484D01*
X14260634Y-16008484D02*
X14213015Y-16008484D01*
X14213015Y-16008484D02*
X14193967Y-15998960D01*
X14193967Y-15998960D02*
X14184443Y-15989436D01*
X14422539Y-15808484D02*
X14441586Y-15808484D01*
X14441586Y-15808484D02*
X14460634Y-15818008D01*
X14460634Y-15818008D02*
X14470158Y-15827531D01*
X14470158Y-15827531D02*
X14479682Y-15846579D01*
X14479682Y-15846579D02*
X14489205Y-15884674D01*
X14489205Y-15884674D02*
X14489205Y-15932293D01*
X14489205Y-15932293D02*
X14479682Y-15970388D01*
X14479682Y-15970388D02*
X14470158Y-15989436D01*
X14470158Y-15989436D02*
X14460634Y-15998960D01*
X14460634Y-15998960D02*
X14441586Y-16008484D01*
X14441586Y-16008484D02*
X14422539Y-16008484D01*
X14422539Y-16008484D02*
X14403491Y-15998960D01*
X14403491Y-15998960D02*
X14393967Y-15989436D01*
X14393967Y-15989436D02*
X14384443Y-15970388D01*
X14384443Y-15970388D02*
X14374920Y-15932293D01*
X14374920Y-15932293D02*
X14374920Y-15884674D01*
X14374920Y-15884674D02*
X14384443Y-15846579D01*
X14384443Y-15846579D02*
X14393967Y-15827531D01*
X14393967Y-15827531D02*
X14403491Y-15818008D01*
X14403491Y-15818008D02*
X14422539Y-15808484D01*
X14574920Y-16008484D02*
X14574920Y-15875150D01*
X14574920Y-15894198D02*
X14584443Y-15884674D01*
X14584443Y-15884674D02*
X14603491Y-15875150D01*
X14603491Y-15875150D02*
X14632063Y-15875150D01*
X14632063Y-15875150D02*
X14651110Y-15884674D01*
X14651110Y-15884674D02*
X14660634Y-15903722D01*
X14660634Y-15903722D02*
X14660634Y-16008484D01*
X14660634Y-15903722D02*
X14670158Y-15884674D01*
X14670158Y-15884674D02*
X14689205Y-15875150D01*
X14689205Y-15875150D02*
X14717777Y-15875150D01*
X14717777Y-15875150D02*
X14736824Y-15884674D01*
X14736824Y-15884674D02*
X14746348Y-15903722D01*
X14746348Y-15903722D02*
X14746348Y-16008484D01*
X14841586Y-16008484D02*
X14841586Y-15875150D01*
X14841586Y-15894198D02*
X14851110Y-15884674D01*
X14851110Y-15884674D02*
X14870158Y-15875150D01*
X14870158Y-15875150D02*
X14898729Y-15875150D01*
X14898729Y-15875150D02*
X14917777Y-15884674D01*
X14917777Y-15884674D02*
X14927301Y-15903722D01*
X14927301Y-15903722D02*
X14927301Y-16008484D01*
X14927301Y-15903722D02*
X14936824Y-15884674D01*
X14936824Y-15884674D02*
X14955872Y-15875150D01*
X14955872Y-15875150D02*
X14984443Y-15875150D01*
X14984443Y-15875150D02*
X15003491Y-15884674D01*
X15003491Y-15884674D02*
X15013015Y-15903722D01*
X15013015Y-15903722D02*
X15013015Y-16008484D01*
X15403491Y-15798960D02*
X15232063Y-16056103D01*
X15660634Y-15808484D02*
X15679682Y-15808484D01*
X15679682Y-15808484D02*
X15698729Y-15818008D01*
X15698729Y-15818008D02*
X15708253Y-15827531D01*
X15708253Y-15827531D02*
X15717777Y-15846579D01*
X15717777Y-15846579D02*
X15727301Y-15884674D01*
X15727301Y-15884674D02*
X15727301Y-15932293D01*
X15727301Y-15932293D02*
X15717777Y-15970388D01*
X15717777Y-15970388D02*
X15708253Y-15989436D01*
X15708253Y-15989436D02*
X15698729Y-15998960D01*
X15698729Y-15998960D02*
X15679682Y-16008484D01*
X15679682Y-16008484D02*
X15660634Y-16008484D01*
X15660634Y-16008484D02*
X15641586Y-15998960D01*
X15641586Y-15998960D02*
X15632063Y-15989436D01*
X15632063Y-15989436D02*
X15622539Y-15970388D01*
X15622539Y-15970388D02*
X15613015Y-15932293D01*
X15613015Y-15932293D02*
X15613015Y-15884674D01*
X15613015Y-15884674D02*
X15622539Y-15846579D01*
X15622539Y-15846579D02*
X15632063Y-15827531D01*
X15632063Y-15827531D02*
X15641586Y-15818008D01*
X15641586Y-15818008D02*
X15660634Y-15808484D01*
X15813015Y-15989436D02*
X15822539Y-15998960D01*
X15822539Y-15998960D02*
X15813015Y-16008484D01*
X15813015Y-16008484D02*
X15803491Y-15998960D01*
X15803491Y-15998960D02*
X15813015Y-15989436D01*
X15813015Y-15989436D02*
X15813015Y-16008484D01*
X15946348Y-15808484D02*
X15965396Y-15808484D01*
X15965396Y-15808484D02*
X15984444Y-15818008D01*
X15984444Y-15818008D02*
X15993967Y-15827531D01*
X15993967Y-15827531D02*
X16003491Y-15846579D01*
X16003491Y-15846579D02*
X16013015Y-15884674D01*
X16013015Y-15884674D02*
X16013015Y-15932293D01*
X16013015Y-15932293D02*
X16003491Y-15970388D01*
X16003491Y-15970388D02*
X15993967Y-15989436D01*
X15993967Y-15989436D02*
X15984444Y-15998960D01*
X15984444Y-15998960D02*
X15965396Y-16008484D01*
X15965396Y-16008484D02*
X15946348Y-16008484D01*
X15946348Y-16008484D02*
X15927301Y-15998960D01*
X15927301Y-15998960D02*
X15917777Y-15989436D01*
X15917777Y-15989436D02*
X15908253Y-15970388D01*
X15908253Y-15970388D02*
X15898729Y-15932293D01*
X15898729Y-15932293D02*
X15898729Y-15884674D01*
X15898729Y-15884674D02*
X15908253Y-15846579D01*
X15908253Y-15846579D02*
X15917777Y-15827531D01*
X15917777Y-15827531D02*
X15927301Y-15818008D01*
X15927301Y-15818008D02*
X15946348Y-15808484D01*
X16089206Y-15827531D02*
X16098729Y-15818008D01*
X16098729Y-15818008D02*
X16117777Y-15808484D01*
X16117777Y-15808484D02*
X16165396Y-15808484D01*
X16165396Y-15808484D02*
X16184444Y-15818008D01*
X16184444Y-15818008D02*
X16193967Y-15827531D01*
X16193967Y-15827531D02*
X16203491Y-15846579D01*
X16203491Y-15846579D02*
X16203491Y-15865627D01*
X16203491Y-15865627D02*
X16193967Y-15894198D01*
X16193967Y-15894198D02*
X16079682Y-16008484D01*
X16079682Y-16008484D02*
X16203491Y-16008484D01*
X16384444Y-15808484D02*
X16289206Y-15808484D01*
X16289206Y-15808484D02*
X16279682Y-15903722D01*
X16279682Y-15903722D02*
X16289206Y-15894198D01*
X16289206Y-15894198D02*
X16308253Y-15884674D01*
X16308253Y-15884674D02*
X16355872Y-15884674D01*
X16355872Y-15884674D02*
X16374920Y-15894198D01*
X16374920Y-15894198D02*
X16384444Y-15903722D01*
X16384444Y-15903722D02*
X16393967Y-15922769D01*
X16393967Y-15922769D02*
X16393967Y-15970388D01*
X16393967Y-15970388D02*
X16384444Y-15989436D01*
X16384444Y-15989436D02*
X16374920Y-15998960D01*
X16374920Y-15998960D02*
X16355872Y-16008484D01*
X16355872Y-16008484D02*
X16308253Y-16008484D01*
X16308253Y-16008484D02*
X16289206Y-15998960D01*
X16289206Y-15998960D02*
X16279682Y-15989436D01*
X16565396Y-15808484D02*
X16527301Y-15808484D01*
X16527301Y-15808484D02*
X16508253Y-15818008D01*
X16508253Y-15818008D02*
X16498729Y-15827531D01*
X16498729Y-15827531D02*
X16479682Y-15856103D01*
X16479682Y-15856103D02*
X16470158Y-15894198D01*
X16470158Y-15894198D02*
X16470158Y-15970388D01*
X16470158Y-15970388D02*
X16479682Y-15989436D01*
X16479682Y-15989436D02*
X16489206Y-15998960D01*
X16489206Y-15998960D02*
X16508253Y-16008484D01*
X16508253Y-16008484D02*
X16546348Y-16008484D01*
X16546348Y-16008484D02*
X16565396Y-15998960D01*
X16565396Y-15998960D02*
X16574920Y-15989436D01*
X16574920Y-15989436D02*
X16584444Y-15970388D01*
X16584444Y-15970388D02*
X16584444Y-15922769D01*
X16584444Y-15922769D02*
X16574920Y-15903722D01*
X16574920Y-15903722D02*
X16565396Y-15894198D01*
X16565396Y-15894198D02*
X16546348Y-15884674D01*
X16546348Y-15884674D02*
X16508253Y-15884674D01*
X16508253Y-15884674D02*
X16489206Y-15894198D01*
X16489206Y-15894198D02*
X16479682Y-15903722D01*
X16479682Y-15903722D02*
X16470158Y-15922769D01*
X16660634Y-15808484D02*
X16660634Y-15846579D01*
X16736825Y-15808484D02*
X16736825Y-15846579D01*
X17032063Y-16084674D02*
X17022539Y-16075150D01*
X17022539Y-16075150D02*
X17003491Y-16046579D01*
X17003491Y-16046579D02*
X16993968Y-16027531D01*
X16993968Y-16027531D02*
X16984444Y-15998960D01*
X16984444Y-15998960D02*
X16974920Y-15951341D01*
X16974920Y-15951341D02*
X16974920Y-15913246D01*
X16974920Y-15913246D02*
X16984444Y-15865627D01*
X16984444Y-15865627D02*
X16993968Y-15837055D01*
X16993968Y-15837055D02*
X17003491Y-15818008D01*
X17003491Y-15818008D02*
X17022539Y-15789436D01*
X17022539Y-15789436D02*
X17032063Y-15779912D01*
X17146349Y-15808484D02*
X17165396Y-15808484D01*
X17165396Y-15808484D02*
X17184444Y-15818008D01*
X17184444Y-15818008D02*
X17193968Y-15827531D01*
X17193968Y-15827531D02*
X17203491Y-15846579D01*
X17203491Y-15846579D02*
X17213015Y-15884674D01*
X17213015Y-15884674D02*
X17213015Y-15932293D01*
X17213015Y-15932293D02*
X17203491Y-15970388D01*
X17203491Y-15970388D02*
X17193968Y-15989436D01*
X17193968Y-15989436D02*
X17184444Y-15998960D01*
X17184444Y-15998960D02*
X17165396Y-16008484D01*
X17165396Y-16008484D02*
X17146349Y-16008484D01*
X17146349Y-16008484D02*
X17127301Y-15998960D01*
X17127301Y-15998960D02*
X17117777Y-15989436D01*
X17117777Y-15989436D02*
X17108253Y-15970388D01*
X17108253Y-15970388D02*
X17098730Y-15932293D01*
X17098730Y-15932293D02*
X17098730Y-15884674D01*
X17098730Y-15884674D02*
X17108253Y-15846579D01*
X17108253Y-15846579D02*
X17117777Y-15827531D01*
X17117777Y-15827531D02*
X17127301Y-15818008D01*
X17127301Y-15818008D02*
X17146349Y-15808484D01*
X17451111Y-16008484D02*
X17451111Y-15808484D01*
X17536825Y-16008484D02*
X17536825Y-15903722D01*
X17536825Y-15903722D02*
X17527301Y-15884674D01*
X17527301Y-15884674D02*
X17508253Y-15875150D01*
X17508253Y-15875150D02*
X17479682Y-15875150D01*
X17479682Y-15875150D02*
X17460634Y-15884674D01*
X17460634Y-15884674D02*
X17451111Y-15894198D01*
X17660634Y-16008484D02*
X17641587Y-15998960D01*
X17641587Y-15998960D02*
X17632063Y-15989436D01*
X17632063Y-15989436D02*
X17622539Y-15970388D01*
X17622539Y-15970388D02*
X17622539Y-15913246D01*
X17622539Y-15913246D02*
X17632063Y-15894198D01*
X17632063Y-15894198D02*
X17641587Y-15884674D01*
X17641587Y-15884674D02*
X17660634Y-15875150D01*
X17660634Y-15875150D02*
X17689206Y-15875150D01*
X17689206Y-15875150D02*
X17708253Y-15884674D01*
X17708253Y-15884674D02*
X17717777Y-15894198D01*
X17717777Y-15894198D02*
X17727301Y-15913246D01*
X17727301Y-15913246D02*
X17727301Y-15970388D01*
X17727301Y-15970388D02*
X17717777Y-15989436D01*
X17717777Y-15989436D02*
X17708253Y-15998960D01*
X17708253Y-15998960D02*
X17689206Y-16008484D01*
X17689206Y-16008484D02*
X17660634Y-16008484D01*
X17841587Y-16008484D02*
X17822539Y-15998960D01*
X17822539Y-15998960D02*
X17813015Y-15979912D01*
X17813015Y-15979912D02*
X17813015Y-15808484D01*
X17993968Y-15998960D02*
X17974920Y-16008484D01*
X17974920Y-16008484D02*
X17936825Y-16008484D01*
X17936825Y-16008484D02*
X17917777Y-15998960D01*
X17917777Y-15998960D02*
X17908253Y-15979912D01*
X17908253Y-15979912D02*
X17908253Y-15903722D01*
X17908253Y-15903722D02*
X17917777Y-15884674D01*
X17917777Y-15884674D02*
X17936825Y-15875150D01*
X17936825Y-15875150D02*
X17974920Y-15875150D01*
X17974920Y-15875150D02*
X17993968Y-15884674D01*
X17993968Y-15884674D02*
X18003492Y-15903722D01*
X18003492Y-15903722D02*
X18003492Y-15922769D01*
X18003492Y-15922769D02*
X17908253Y-15941817D01*
X18079682Y-15998960D02*
X18098730Y-16008484D01*
X18098730Y-16008484D02*
X18136825Y-16008484D01*
X18136825Y-16008484D02*
X18155873Y-15998960D01*
X18155873Y-15998960D02*
X18165396Y-15979912D01*
X18165396Y-15979912D02*
X18165396Y-15970388D01*
X18165396Y-15970388D02*
X18155873Y-15951341D01*
X18155873Y-15951341D02*
X18136825Y-15941817D01*
X18136825Y-15941817D02*
X18108253Y-15941817D01*
X18108253Y-15941817D02*
X18089206Y-15932293D01*
X18089206Y-15932293D02*
X18079682Y-15913246D01*
X18079682Y-15913246D02*
X18079682Y-15903722D01*
X18079682Y-15903722D02*
X18089206Y-15884674D01*
X18089206Y-15884674D02*
X18108253Y-15875150D01*
X18108253Y-15875150D02*
X18136825Y-15875150D01*
X18136825Y-15875150D02*
X18155873Y-15884674D01*
X18403492Y-15932293D02*
X18555873Y-15932293D01*
X18479682Y-16008484D02*
X18479682Y-15856103D01*
X18793968Y-15827531D02*
X18803492Y-15818008D01*
X18803492Y-15818008D02*
X18822539Y-15808484D01*
X18822539Y-15808484D02*
X18870158Y-15808484D01*
X18870158Y-15808484D02*
X18889206Y-15818008D01*
X18889206Y-15818008D02*
X18898730Y-15827531D01*
X18898730Y-15827531D02*
X18908254Y-15846579D01*
X18908254Y-15846579D02*
X18908254Y-15865627D01*
X18908254Y-15865627D02*
X18898730Y-15894198D01*
X18898730Y-15894198D02*
X18784444Y-16008484D01*
X18784444Y-16008484D02*
X18908254Y-16008484D01*
X19136825Y-15998960D02*
X19155873Y-16008484D01*
X19155873Y-16008484D02*
X19193968Y-16008484D01*
X19193968Y-16008484D02*
X19213016Y-15998960D01*
X19213016Y-15998960D02*
X19222539Y-15979912D01*
X19222539Y-15979912D02*
X19222539Y-15970388D01*
X19222539Y-15970388D02*
X19213016Y-15951341D01*
X19213016Y-15951341D02*
X19193968Y-15941817D01*
X19193968Y-15941817D02*
X19165396Y-15941817D01*
X19165396Y-15941817D02*
X19146349Y-15932293D01*
X19146349Y-15932293D02*
X19136825Y-15913246D01*
X19136825Y-15913246D02*
X19136825Y-15903722D01*
X19136825Y-15903722D02*
X19146349Y-15884674D01*
X19146349Y-15884674D02*
X19165396Y-15875150D01*
X19165396Y-15875150D02*
X19193968Y-15875150D01*
X19193968Y-15875150D02*
X19213016Y-15884674D01*
X19336825Y-16008484D02*
X19317777Y-15998960D01*
X19317777Y-15998960D02*
X19308254Y-15979912D01*
X19308254Y-15979912D02*
X19308254Y-15808484D01*
X19441587Y-16008484D02*
X19422539Y-15998960D01*
X19422539Y-15998960D02*
X19413016Y-15989436D01*
X19413016Y-15989436D02*
X19403492Y-15970388D01*
X19403492Y-15970388D02*
X19403492Y-15913246D01*
X19403492Y-15913246D02*
X19413016Y-15894198D01*
X19413016Y-15894198D02*
X19422539Y-15884674D01*
X19422539Y-15884674D02*
X19441587Y-15875150D01*
X19441587Y-15875150D02*
X19470158Y-15875150D01*
X19470158Y-15875150D02*
X19489206Y-15884674D01*
X19489206Y-15884674D02*
X19498730Y-15894198D01*
X19498730Y-15894198D02*
X19508254Y-15913246D01*
X19508254Y-15913246D02*
X19508254Y-15970388D01*
X19508254Y-15970388D02*
X19498730Y-15989436D01*
X19498730Y-15989436D02*
X19489206Y-15998960D01*
X19489206Y-15998960D02*
X19470158Y-16008484D01*
X19470158Y-16008484D02*
X19441587Y-16008484D01*
X19565397Y-15875150D02*
X19641587Y-15875150D01*
X19593968Y-15808484D02*
X19593968Y-15979912D01*
X19593968Y-15979912D02*
X19603492Y-15998960D01*
X19603492Y-15998960D02*
X19622539Y-16008484D01*
X19622539Y-16008484D02*
X19641587Y-16008484D01*
X19698730Y-15998960D02*
X19717777Y-16008484D01*
X19717777Y-16008484D02*
X19755873Y-16008484D01*
X19755873Y-16008484D02*
X19774920Y-15998960D01*
X19774920Y-15998960D02*
X19784444Y-15979912D01*
X19784444Y-15979912D02*
X19784444Y-15970388D01*
X19784444Y-15970388D02*
X19774920Y-15951341D01*
X19774920Y-15951341D02*
X19755873Y-15941817D01*
X19755873Y-15941817D02*
X19727301Y-15941817D01*
X19727301Y-15941817D02*
X19708254Y-15932293D01*
X19708254Y-15932293D02*
X19698730Y-15913246D01*
X19698730Y-15913246D02*
X19698730Y-15903722D01*
X19698730Y-15903722D02*
X19708254Y-15884674D01*
X19708254Y-15884674D02*
X19727301Y-15875150D01*
X19727301Y-15875150D02*
X19755873Y-15875150D01*
X19755873Y-15875150D02*
X19774920Y-15884674D01*
X19851111Y-16084674D02*
X19860635Y-16075150D01*
X19860635Y-16075150D02*
X19879682Y-16046579D01*
X19879682Y-16046579D02*
X19889206Y-16027531D01*
X19889206Y-16027531D02*
X19898730Y-15998960D01*
X19898730Y-15998960D02*
X19908254Y-15951341D01*
X19908254Y-15951341D02*
X19908254Y-15913246D01*
X19908254Y-15913246D02*
X19898730Y-15865627D01*
X19898730Y-15865627D02*
X19889206Y-15837055D01*
X19889206Y-15837055D02*
X19879682Y-15818008D01*
X19879682Y-15818008D02*
X19860635Y-15789436D01*
X19860635Y-15789436D02*
X19851111Y-15779912D01*
D10*
X13446749Y-16205749D02*
X13446749Y-16156251D01*
X13397251Y-16156251D01*
X13397251Y-16205749D01*
X13446749Y-16205749D01*
D11*
X13755872Y-16072484D02*
X13774920Y-16072484D01*
X13774920Y-16072484D02*
X13793967Y-16082008D01*
X13793967Y-16082008D02*
X13803491Y-16091531D01*
X13803491Y-16091531D02*
X13813015Y-16110579D01*
X13813015Y-16110579D02*
X13822539Y-16148674D01*
X13822539Y-16148674D02*
X13822539Y-16196293D01*
X13822539Y-16196293D02*
X13813015Y-16234388D01*
X13813015Y-16234388D02*
X13803491Y-16253436D01*
X13803491Y-16253436D02*
X13793967Y-16262960D01*
X13793967Y-16262960D02*
X13774920Y-16272484D01*
X13774920Y-16272484D02*
X13755872Y-16272484D01*
X13755872Y-16272484D02*
X13736824Y-16262960D01*
X13736824Y-16262960D02*
X13727301Y-16253436D01*
X13727301Y-16253436D02*
X13717777Y-16234388D01*
X13717777Y-16234388D02*
X13708253Y-16196293D01*
X13708253Y-16196293D02*
X13708253Y-16148674D01*
X13708253Y-16148674D02*
X13717777Y-16110579D01*
X13717777Y-16110579D02*
X13727301Y-16091531D01*
X13727301Y-16091531D02*
X13736824Y-16082008D01*
X13736824Y-16082008D02*
X13755872Y-16072484D01*
X13908253Y-16253436D02*
X13917777Y-16262960D01*
X13917777Y-16262960D02*
X13908253Y-16272484D01*
X13908253Y-16272484D02*
X13898729Y-16262960D01*
X13898729Y-16262960D02*
X13908253Y-16253436D01*
X13908253Y-16253436D02*
X13908253Y-16272484D01*
X13984443Y-16072484D02*
X14117777Y-16072484D01*
X14117777Y-16072484D02*
X14032062Y-16272484D01*
X14232062Y-16072484D02*
X14251110Y-16072484D01*
X14251110Y-16072484D02*
X14270158Y-16082008D01*
X14270158Y-16082008D02*
X14279682Y-16091531D01*
X14279682Y-16091531D02*
X14289205Y-16110579D01*
X14289205Y-16110579D02*
X14298729Y-16148674D01*
X14298729Y-16148674D02*
X14298729Y-16196293D01*
X14298729Y-16196293D02*
X14289205Y-16234388D01*
X14289205Y-16234388D02*
X14279682Y-16253436D01*
X14279682Y-16253436D02*
X14270158Y-16262960D01*
X14270158Y-16262960D02*
X14251110Y-16272484D01*
X14251110Y-16272484D02*
X14232062Y-16272484D01*
X14232062Y-16272484D02*
X14213015Y-16262960D01*
X14213015Y-16262960D02*
X14203491Y-16253436D01*
X14203491Y-16253436D02*
X14193967Y-16234388D01*
X14193967Y-16234388D02*
X14184443Y-16196293D01*
X14184443Y-16196293D02*
X14184443Y-16148674D01*
X14184443Y-16148674D02*
X14193967Y-16110579D01*
X14193967Y-16110579D02*
X14203491Y-16091531D01*
X14203491Y-16091531D02*
X14213015Y-16082008D01*
X14213015Y-16082008D02*
X14232062Y-16072484D01*
X14422539Y-16072484D02*
X14441586Y-16072484D01*
X14441586Y-16072484D02*
X14460634Y-16082008D01*
X14460634Y-16082008D02*
X14470158Y-16091531D01*
X14470158Y-16091531D02*
X14479682Y-16110579D01*
X14479682Y-16110579D02*
X14489205Y-16148674D01*
X14489205Y-16148674D02*
X14489205Y-16196293D01*
X14489205Y-16196293D02*
X14479682Y-16234388D01*
X14479682Y-16234388D02*
X14470158Y-16253436D01*
X14470158Y-16253436D02*
X14460634Y-16262960D01*
X14460634Y-16262960D02*
X14441586Y-16272484D01*
X14441586Y-16272484D02*
X14422539Y-16272484D01*
X14422539Y-16272484D02*
X14403491Y-16262960D01*
X14403491Y-16262960D02*
X14393967Y-16253436D01*
X14393967Y-16253436D02*
X14384443Y-16234388D01*
X14384443Y-16234388D02*
X14374920Y-16196293D01*
X14374920Y-16196293D02*
X14374920Y-16148674D01*
X14374920Y-16148674D02*
X14384443Y-16110579D01*
X14384443Y-16110579D02*
X14393967Y-16091531D01*
X14393967Y-16091531D02*
X14403491Y-16082008D01*
X14403491Y-16082008D02*
X14422539Y-16072484D01*
X14574920Y-16272484D02*
X14574920Y-16139150D01*
X14574920Y-16158198D02*
X14584443Y-16148674D01*
X14584443Y-16148674D02*
X14603491Y-16139150D01*
X14603491Y-16139150D02*
X14632063Y-16139150D01*
X14632063Y-16139150D02*
X14651110Y-16148674D01*
X14651110Y-16148674D02*
X14660634Y-16167722D01*
X14660634Y-16167722D02*
X14660634Y-16272484D01*
X14660634Y-16167722D02*
X14670158Y-16148674D01*
X14670158Y-16148674D02*
X14689205Y-16139150D01*
X14689205Y-16139150D02*
X14717777Y-16139150D01*
X14717777Y-16139150D02*
X14736824Y-16148674D01*
X14736824Y-16148674D02*
X14746348Y-16167722D01*
X14746348Y-16167722D02*
X14746348Y-16272484D01*
X14841586Y-16272484D02*
X14841586Y-16139150D01*
X14841586Y-16158198D02*
X14851110Y-16148674D01*
X14851110Y-16148674D02*
X14870158Y-16139150D01*
X14870158Y-16139150D02*
X14898729Y-16139150D01*
X14898729Y-16139150D02*
X14917777Y-16148674D01*
X14917777Y-16148674D02*
X14927301Y-16167722D01*
X14927301Y-16167722D02*
X14927301Y-16272484D01*
X14927301Y-16167722D02*
X14936824Y-16148674D01*
X14936824Y-16148674D02*
X14955872Y-16139150D01*
X14955872Y-16139150D02*
X14984443Y-16139150D01*
X14984443Y-16139150D02*
X15003491Y-16148674D01*
X15003491Y-16148674D02*
X15013015Y-16167722D01*
X15013015Y-16167722D02*
X15013015Y-16272484D01*
X15403491Y-16062960D02*
X15232063Y-16320103D01*
X15660634Y-16072484D02*
X15679682Y-16072484D01*
X15679682Y-16072484D02*
X15698729Y-16082008D01*
X15698729Y-16082008D02*
X15708253Y-16091531D01*
X15708253Y-16091531D02*
X15717777Y-16110579D01*
X15717777Y-16110579D02*
X15727301Y-16148674D01*
X15727301Y-16148674D02*
X15727301Y-16196293D01*
X15727301Y-16196293D02*
X15717777Y-16234388D01*
X15717777Y-16234388D02*
X15708253Y-16253436D01*
X15708253Y-16253436D02*
X15698729Y-16262960D01*
X15698729Y-16262960D02*
X15679682Y-16272484D01*
X15679682Y-16272484D02*
X15660634Y-16272484D01*
X15660634Y-16272484D02*
X15641586Y-16262960D01*
X15641586Y-16262960D02*
X15632063Y-16253436D01*
X15632063Y-16253436D02*
X15622539Y-16234388D01*
X15622539Y-16234388D02*
X15613015Y-16196293D01*
X15613015Y-16196293D02*
X15613015Y-16148674D01*
X15613015Y-16148674D02*
X15622539Y-16110579D01*
X15622539Y-16110579D02*
X15632063Y-16091531D01*
X15632063Y-16091531D02*
X15641586Y-16082008D01*
X15641586Y-16082008D02*
X15660634Y-16072484D01*
X15813015Y-16253436D02*
X15822539Y-16262960D01*
X15822539Y-16262960D02*
X15813015Y-16272484D01*
X15813015Y-16272484D02*
X15803491Y-16262960D01*
X15803491Y-16262960D02*
X15813015Y-16253436D01*
X15813015Y-16253436D02*
X15813015Y-16272484D01*
X15946348Y-16072484D02*
X15965396Y-16072484D01*
X15965396Y-16072484D02*
X15984444Y-16082008D01*
X15984444Y-16082008D02*
X15993967Y-16091531D01*
X15993967Y-16091531D02*
X16003491Y-16110579D01*
X16003491Y-16110579D02*
X16013015Y-16148674D01*
X16013015Y-16148674D02*
X16013015Y-16196293D01*
X16013015Y-16196293D02*
X16003491Y-16234388D01*
X16003491Y-16234388D02*
X15993967Y-16253436D01*
X15993967Y-16253436D02*
X15984444Y-16262960D01*
X15984444Y-16262960D02*
X15965396Y-16272484D01*
X15965396Y-16272484D02*
X15946348Y-16272484D01*
X15946348Y-16272484D02*
X15927301Y-16262960D01*
X15927301Y-16262960D02*
X15917777Y-16253436D01*
X15917777Y-16253436D02*
X15908253Y-16234388D01*
X15908253Y-16234388D02*
X15898729Y-16196293D01*
X15898729Y-16196293D02*
X15898729Y-16148674D01*
X15898729Y-16148674D02*
X15908253Y-16110579D01*
X15908253Y-16110579D02*
X15917777Y-16091531D01*
X15917777Y-16091531D02*
X15927301Y-16082008D01*
X15927301Y-16082008D02*
X15946348Y-16072484D01*
X16089206Y-16091531D02*
X16098729Y-16082008D01*
X16098729Y-16082008D02*
X16117777Y-16072484D01*
X16117777Y-16072484D02*
X16165396Y-16072484D01*
X16165396Y-16072484D02*
X16184444Y-16082008D01*
X16184444Y-16082008D02*
X16193967Y-16091531D01*
X16193967Y-16091531D02*
X16203491Y-16110579D01*
X16203491Y-16110579D02*
X16203491Y-16129627D01*
X16203491Y-16129627D02*
X16193967Y-16158198D01*
X16193967Y-16158198D02*
X16079682Y-16272484D01*
X16079682Y-16272484D02*
X16203491Y-16272484D01*
X16270158Y-16072484D02*
X16403491Y-16072484D01*
X16403491Y-16072484D02*
X16317777Y-16272484D01*
X16565396Y-16072484D02*
X16527301Y-16072484D01*
X16527301Y-16072484D02*
X16508253Y-16082008D01*
X16508253Y-16082008D02*
X16498729Y-16091531D01*
X16498729Y-16091531D02*
X16479682Y-16120103D01*
X16479682Y-16120103D02*
X16470158Y-16158198D01*
X16470158Y-16158198D02*
X16470158Y-16234388D01*
X16470158Y-16234388D02*
X16479682Y-16253436D01*
X16479682Y-16253436D02*
X16489206Y-16262960D01*
X16489206Y-16262960D02*
X16508253Y-16272484D01*
X16508253Y-16272484D02*
X16546348Y-16272484D01*
X16546348Y-16272484D02*
X16565396Y-16262960D01*
X16565396Y-16262960D02*
X16574920Y-16253436D01*
X16574920Y-16253436D02*
X16584444Y-16234388D01*
X16584444Y-16234388D02*
X16584444Y-16186769D01*
X16584444Y-16186769D02*
X16574920Y-16167722D01*
X16574920Y-16167722D02*
X16565396Y-16158198D01*
X16565396Y-16158198D02*
X16546348Y-16148674D01*
X16546348Y-16148674D02*
X16508253Y-16148674D01*
X16508253Y-16148674D02*
X16489206Y-16158198D01*
X16489206Y-16158198D02*
X16479682Y-16167722D01*
X16479682Y-16167722D02*
X16470158Y-16186769D01*
X16660634Y-16072484D02*
X16660634Y-16110579D01*
X16736825Y-16072484D02*
X16736825Y-16110579D01*
X17032063Y-16348674D02*
X17022539Y-16339150D01*
X17022539Y-16339150D02*
X17003491Y-16310579D01*
X17003491Y-16310579D02*
X16993968Y-16291531D01*
X16993968Y-16291531D02*
X16984444Y-16262960D01*
X16984444Y-16262960D02*
X16974920Y-16215341D01*
X16974920Y-16215341D02*
X16974920Y-16177246D01*
X16974920Y-16177246D02*
X16984444Y-16129627D01*
X16984444Y-16129627D02*
X16993968Y-16101055D01*
X16993968Y-16101055D02*
X17003491Y-16082008D01*
X17003491Y-16082008D02*
X17022539Y-16053436D01*
X17022539Y-16053436D02*
X17032063Y-16043912D01*
X17146349Y-16072484D02*
X17165396Y-16072484D01*
X17165396Y-16072484D02*
X17184444Y-16082008D01*
X17184444Y-16082008D02*
X17193968Y-16091531D01*
X17193968Y-16091531D02*
X17203491Y-16110579D01*
X17203491Y-16110579D02*
X17213015Y-16148674D01*
X17213015Y-16148674D02*
X17213015Y-16196293D01*
X17213015Y-16196293D02*
X17203491Y-16234388D01*
X17203491Y-16234388D02*
X17193968Y-16253436D01*
X17193968Y-16253436D02*
X17184444Y-16262960D01*
X17184444Y-16262960D02*
X17165396Y-16272484D01*
X17165396Y-16272484D02*
X17146349Y-16272484D01*
X17146349Y-16272484D02*
X17127301Y-16262960D01*
X17127301Y-16262960D02*
X17117777Y-16253436D01*
X17117777Y-16253436D02*
X17108253Y-16234388D01*
X17108253Y-16234388D02*
X17098730Y-16196293D01*
X17098730Y-16196293D02*
X17098730Y-16148674D01*
X17098730Y-16148674D02*
X17108253Y-16110579D01*
X17108253Y-16110579D02*
X17117777Y-16091531D01*
X17117777Y-16091531D02*
X17127301Y-16082008D01*
X17127301Y-16082008D02*
X17146349Y-16072484D01*
X17451111Y-16272484D02*
X17451111Y-16072484D01*
X17536825Y-16272484D02*
X17536825Y-16167722D01*
X17536825Y-16167722D02*
X17527301Y-16148674D01*
X17527301Y-16148674D02*
X17508253Y-16139150D01*
X17508253Y-16139150D02*
X17479682Y-16139150D01*
X17479682Y-16139150D02*
X17460634Y-16148674D01*
X17460634Y-16148674D02*
X17451111Y-16158198D01*
X17660634Y-16272484D02*
X17641587Y-16262960D01*
X17641587Y-16262960D02*
X17632063Y-16253436D01*
X17632063Y-16253436D02*
X17622539Y-16234388D01*
X17622539Y-16234388D02*
X17622539Y-16177246D01*
X17622539Y-16177246D02*
X17632063Y-16158198D01*
X17632063Y-16158198D02*
X17641587Y-16148674D01*
X17641587Y-16148674D02*
X17660634Y-16139150D01*
X17660634Y-16139150D02*
X17689206Y-16139150D01*
X17689206Y-16139150D02*
X17708253Y-16148674D01*
X17708253Y-16148674D02*
X17717777Y-16158198D01*
X17717777Y-16158198D02*
X17727301Y-16177246D01*
X17727301Y-16177246D02*
X17727301Y-16234388D01*
X17727301Y-16234388D02*
X17717777Y-16253436D01*
X17717777Y-16253436D02*
X17708253Y-16262960D01*
X17708253Y-16262960D02*
X17689206Y-16272484D01*
X17689206Y-16272484D02*
X17660634Y-16272484D01*
X17841587Y-16272484D02*
X17822539Y-16262960D01*
X17822539Y-16262960D02*
X17813015Y-16243912D01*
X17813015Y-16243912D02*
X17813015Y-16072484D01*
X17993968Y-16262960D02*
X17974920Y-16272484D01*
X17974920Y-16272484D02*
X17936825Y-16272484D01*
X17936825Y-16272484D02*
X17917777Y-16262960D01*
X17917777Y-16262960D02*
X17908253Y-16243912D01*
X17908253Y-16243912D02*
X17908253Y-16167722D01*
X17908253Y-16167722D02*
X17917777Y-16148674D01*
X17917777Y-16148674D02*
X17936825Y-16139150D01*
X17936825Y-16139150D02*
X17974920Y-16139150D01*
X17974920Y-16139150D02*
X17993968Y-16148674D01*
X17993968Y-16148674D02*
X18003492Y-16167722D01*
X18003492Y-16167722D02*
X18003492Y-16186769D01*
X18003492Y-16186769D02*
X17908253Y-16205817D01*
X18079682Y-16262960D02*
X18098730Y-16272484D01*
X18098730Y-16272484D02*
X18136825Y-16272484D01*
X18136825Y-16272484D02*
X18155873Y-16262960D01*
X18155873Y-16262960D02*
X18165396Y-16243912D01*
X18165396Y-16243912D02*
X18165396Y-16234388D01*
X18165396Y-16234388D02*
X18155873Y-16215341D01*
X18155873Y-16215341D02*
X18136825Y-16205817D01*
X18136825Y-16205817D02*
X18108253Y-16205817D01*
X18108253Y-16205817D02*
X18089206Y-16196293D01*
X18089206Y-16196293D02*
X18079682Y-16177246D01*
X18079682Y-16177246D02*
X18079682Y-16167722D01*
X18079682Y-16167722D02*
X18089206Y-16148674D01*
X18089206Y-16148674D02*
X18108253Y-16139150D01*
X18108253Y-16139150D02*
X18136825Y-16139150D01*
X18136825Y-16139150D02*
X18155873Y-16148674D01*
X18403492Y-16196293D02*
X18555873Y-16196293D01*
X18479682Y-16272484D02*
X18479682Y-16120103D01*
X18793968Y-16091531D02*
X18803492Y-16082008D01*
X18803492Y-16082008D02*
X18822539Y-16072484D01*
X18822539Y-16072484D02*
X18870158Y-16072484D01*
X18870158Y-16072484D02*
X18889206Y-16082008D01*
X18889206Y-16082008D02*
X18898730Y-16091531D01*
X18898730Y-16091531D02*
X18908254Y-16110579D01*
X18908254Y-16110579D02*
X18908254Y-16129627D01*
X18908254Y-16129627D02*
X18898730Y-16158198D01*
X18898730Y-16158198D02*
X18784444Y-16272484D01*
X18784444Y-16272484D02*
X18908254Y-16272484D01*
X19136825Y-16262960D02*
X19155873Y-16272484D01*
X19155873Y-16272484D02*
X19193968Y-16272484D01*
X19193968Y-16272484D02*
X19213016Y-16262960D01*
X19213016Y-16262960D02*
X19222539Y-16243912D01*
X19222539Y-16243912D02*
X19222539Y-16234388D01*
X19222539Y-16234388D02*
X19213016Y-16215341D01*
X19213016Y-16215341D02*
X19193968Y-16205817D01*
X19193968Y-16205817D02*
X19165396Y-16205817D01*
X19165396Y-16205817D02*
X19146349Y-16196293D01*
X19146349Y-16196293D02*
X19136825Y-16177246D01*
X19136825Y-16177246D02*
X19136825Y-16167722D01*
X19136825Y-16167722D02*
X19146349Y-16148674D01*
X19146349Y-16148674D02*
X19165396Y-16139150D01*
X19165396Y-16139150D02*
X19193968Y-16139150D01*
X19193968Y-16139150D02*
X19213016Y-16148674D01*
X19336825Y-16272484D02*
X19317777Y-16262960D01*
X19317777Y-16262960D02*
X19308254Y-16243912D01*
X19308254Y-16243912D02*
X19308254Y-16072484D01*
X19441587Y-16272484D02*
X19422539Y-16262960D01*
X19422539Y-16262960D02*
X19413016Y-16253436D01*
X19413016Y-16253436D02*
X19403492Y-16234388D01*
X19403492Y-16234388D02*
X19403492Y-16177246D01*
X19403492Y-16177246D02*
X19413016Y-16158198D01*
X19413016Y-16158198D02*
X19422539Y-16148674D01*
X19422539Y-16148674D02*
X19441587Y-16139150D01*
X19441587Y-16139150D02*
X19470158Y-16139150D01*
X19470158Y-16139150D02*
X19489206Y-16148674D01*
X19489206Y-16148674D02*
X19498730Y-16158198D01*
X19498730Y-16158198D02*
X19508254Y-16177246D01*
X19508254Y-16177246D02*
X19508254Y-16234388D01*
X19508254Y-16234388D02*
X19498730Y-16253436D01*
X19498730Y-16253436D02*
X19489206Y-16262960D01*
X19489206Y-16262960D02*
X19470158Y-16272484D01*
X19470158Y-16272484D02*
X19441587Y-16272484D01*
X19565397Y-16139150D02*
X19641587Y-16139150D01*
X19593968Y-16072484D02*
X19593968Y-16243912D01*
X19593968Y-16243912D02*
X19603492Y-16262960D01*
X19603492Y-16262960D02*
X19622539Y-16272484D01*
X19622539Y-16272484D02*
X19641587Y-16272484D01*
X19698730Y-16262960D02*
X19717777Y-16272484D01*
X19717777Y-16272484D02*
X19755873Y-16272484D01*
X19755873Y-16272484D02*
X19774920Y-16262960D01*
X19774920Y-16262960D02*
X19784444Y-16243912D01*
X19784444Y-16243912D02*
X19784444Y-16234388D01*
X19784444Y-16234388D02*
X19774920Y-16215341D01*
X19774920Y-16215341D02*
X19755873Y-16205817D01*
X19755873Y-16205817D02*
X19727301Y-16205817D01*
X19727301Y-16205817D02*
X19708254Y-16196293D01*
X19708254Y-16196293D02*
X19698730Y-16177246D01*
X19698730Y-16177246D02*
X19698730Y-16167722D01*
X19698730Y-16167722D02*
X19708254Y-16148674D01*
X19708254Y-16148674D02*
X19727301Y-16139150D01*
X19727301Y-16139150D02*
X19755873Y-16139150D01*
X19755873Y-16139150D02*
X19774920Y-16148674D01*
X19851111Y-16348674D02*
X19860635Y-16339150D01*
X19860635Y-16339150D02*
X19879682Y-16310579D01*
X19879682Y-16310579D02*
X19889206Y-16291531D01*
X19889206Y-16291531D02*
X19898730Y-16262960D01*
X19898730Y-16262960D02*
X19908254Y-16215341D01*
X19908254Y-16215341D02*
X19908254Y-16177246D01*
X19908254Y-16177246D02*
X19898730Y-16129627D01*
X19898730Y-16129627D02*
X19889206Y-16101055D01*
X19889206Y-16101055D02*
X19879682Y-16082008D01*
X19879682Y-16082008D02*
X19860635Y-16053436D01*
X19860635Y-16053436D02*
X19851111Y-16043912D01*
D10*
X13417000Y-16485000D02*
X13457000Y-16445000D01*
X13417000Y-16405000D01*
X13377000Y-16445000D01*
X13417000Y-16485000D01*
D11*
X13755872Y-16336484D02*
X13774920Y-16336484D01*
X13774920Y-16336484D02*
X13793967Y-16346008D01*
X13793967Y-16346008D02*
X13803491Y-16355531D01*
X13803491Y-16355531D02*
X13813015Y-16374579D01*
X13813015Y-16374579D02*
X13822539Y-16412674D01*
X13822539Y-16412674D02*
X13822539Y-16460293D01*
X13822539Y-16460293D02*
X13813015Y-16498388D01*
X13813015Y-16498388D02*
X13803491Y-16517436D01*
X13803491Y-16517436D02*
X13793967Y-16526960D01*
X13793967Y-16526960D02*
X13774920Y-16536484D01*
X13774920Y-16536484D02*
X13755872Y-16536484D01*
X13755872Y-16536484D02*
X13736824Y-16526960D01*
X13736824Y-16526960D02*
X13727301Y-16517436D01*
X13727301Y-16517436D02*
X13717777Y-16498388D01*
X13717777Y-16498388D02*
X13708253Y-16460293D01*
X13708253Y-16460293D02*
X13708253Y-16412674D01*
X13708253Y-16412674D02*
X13717777Y-16374579D01*
X13717777Y-16374579D02*
X13727301Y-16355531D01*
X13727301Y-16355531D02*
X13736824Y-16346008D01*
X13736824Y-16346008D02*
X13755872Y-16336484D01*
X13908253Y-16517436D02*
X13917777Y-16526960D01*
X13917777Y-16526960D02*
X13908253Y-16536484D01*
X13908253Y-16536484D02*
X13898729Y-16526960D01*
X13898729Y-16526960D02*
X13908253Y-16517436D01*
X13908253Y-16517436D02*
X13908253Y-16536484D01*
X14032062Y-16422198D02*
X14013015Y-16412674D01*
X14013015Y-16412674D02*
X14003491Y-16403150D01*
X14003491Y-16403150D02*
X13993967Y-16384103D01*
X13993967Y-16384103D02*
X13993967Y-16374579D01*
X13993967Y-16374579D02*
X14003491Y-16355531D01*
X14003491Y-16355531D02*
X14013015Y-16346008D01*
X14013015Y-16346008D02*
X14032062Y-16336484D01*
X14032062Y-16336484D02*
X14070158Y-16336484D01*
X14070158Y-16336484D02*
X14089205Y-16346008D01*
X14089205Y-16346008D02*
X14098729Y-16355531D01*
X14098729Y-16355531D02*
X14108253Y-16374579D01*
X14108253Y-16374579D02*
X14108253Y-16384103D01*
X14108253Y-16384103D02*
X14098729Y-16403150D01*
X14098729Y-16403150D02*
X14089205Y-16412674D01*
X14089205Y-16412674D02*
X14070158Y-16422198D01*
X14070158Y-16422198D02*
X14032062Y-16422198D01*
X14032062Y-16422198D02*
X14013015Y-16431722D01*
X14013015Y-16431722D02*
X14003491Y-16441246D01*
X14003491Y-16441246D02*
X13993967Y-16460293D01*
X13993967Y-16460293D02*
X13993967Y-16498388D01*
X13993967Y-16498388D02*
X14003491Y-16517436D01*
X14003491Y-16517436D02*
X14013015Y-16526960D01*
X14013015Y-16526960D02*
X14032062Y-16536484D01*
X14032062Y-16536484D02*
X14070158Y-16536484D01*
X14070158Y-16536484D02*
X14089205Y-16526960D01*
X14089205Y-16526960D02*
X14098729Y-16517436D01*
X14098729Y-16517436D02*
X14108253Y-16498388D01*
X14108253Y-16498388D02*
X14108253Y-16460293D01*
X14108253Y-16460293D02*
X14098729Y-16441246D01*
X14098729Y-16441246D02*
X14089205Y-16431722D01*
X14089205Y-16431722D02*
X14070158Y-16422198D01*
X14232062Y-16336484D02*
X14251110Y-16336484D01*
X14251110Y-16336484D02*
X14270158Y-16346008D01*
X14270158Y-16346008D02*
X14279682Y-16355531D01*
X14279682Y-16355531D02*
X14289205Y-16374579D01*
X14289205Y-16374579D02*
X14298729Y-16412674D01*
X14298729Y-16412674D02*
X14298729Y-16460293D01*
X14298729Y-16460293D02*
X14289205Y-16498388D01*
X14289205Y-16498388D02*
X14279682Y-16517436D01*
X14279682Y-16517436D02*
X14270158Y-16526960D01*
X14270158Y-16526960D02*
X14251110Y-16536484D01*
X14251110Y-16536484D02*
X14232062Y-16536484D01*
X14232062Y-16536484D02*
X14213015Y-16526960D01*
X14213015Y-16526960D02*
X14203491Y-16517436D01*
X14203491Y-16517436D02*
X14193967Y-16498388D01*
X14193967Y-16498388D02*
X14184443Y-16460293D01*
X14184443Y-16460293D02*
X14184443Y-16412674D01*
X14184443Y-16412674D02*
X14193967Y-16374579D01*
X14193967Y-16374579D02*
X14203491Y-16355531D01*
X14203491Y-16355531D02*
X14213015Y-16346008D01*
X14213015Y-16346008D02*
X14232062Y-16336484D01*
X14422539Y-16336484D02*
X14441586Y-16336484D01*
X14441586Y-16336484D02*
X14460634Y-16346008D01*
X14460634Y-16346008D02*
X14470158Y-16355531D01*
X14470158Y-16355531D02*
X14479682Y-16374579D01*
X14479682Y-16374579D02*
X14489205Y-16412674D01*
X14489205Y-16412674D02*
X14489205Y-16460293D01*
X14489205Y-16460293D02*
X14479682Y-16498388D01*
X14479682Y-16498388D02*
X14470158Y-16517436D01*
X14470158Y-16517436D02*
X14460634Y-16526960D01*
X14460634Y-16526960D02*
X14441586Y-16536484D01*
X14441586Y-16536484D02*
X14422539Y-16536484D01*
X14422539Y-16536484D02*
X14403491Y-16526960D01*
X14403491Y-16526960D02*
X14393967Y-16517436D01*
X14393967Y-16517436D02*
X14384443Y-16498388D01*
X14384443Y-16498388D02*
X14374920Y-16460293D01*
X14374920Y-16460293D02*
X14374920Y-16412674D01*
X14374920Y-16412674D02*
X14384443Y-16374579D01*
X14384443Y-16374579D02*
X14393967Y-16355531D01*
X14393967Y-16355531D02*
X14403491Y-16346008D01*
X14403491Y-16346008D02*
X14422539Y-16336484D01*
X14574920Y-16536484D02*
X14574920Y-16403150D01*
X14574920Y-16422198D02*
X14584443Y-16412674D01*
X14584443Y-16412674D02*
X14603491Y-16403150D01*
X14603491Y-16403150D02*
X14632063Y-16403150D01*
X14632063Y-16403150D02*
X14651110Y-16412674D01*
X14651110Y-16412674D02*
X14660634Y-16431722D01*
X14660634Y-16431722D02*
X14660634Y-16536484D01*
X14660634Y-16431722D02*
X14670158Y-16412674D01*
X14670158Y-16412674D02*
X14689205Y-16403150D01*
X14689205Y-16403150D02*
X14717777Y-16403150D01*
X14717777Y-16403150D02*
X14736824Y-16412674D01*
X14736824Y-16412674D02*
X14746348Y-16431722D01*
X14746348Y-16431722D02*
X14746348Y-16536484D01*
X14841586Y-16536484D02*
X14841586Y-16403150D01*
X14841586Y-16422198D02*
X14851110Y-16412674D01*
X14851110Y-16412674D02*
X14870158Y-16403150D01*
X14870158Y-16403150D02*
X14898729Y-16403150D01*
X14898729Y-16403150D02*
X14917777Y-16412674D01*
X14917777Y-16412674D02*
X14927301Y-16431722D01*
X14927301Y-16431722D02*
X14927301Y-16536484D01*
X14927301Y-16431722D02*
X14936824Y-16412674D01*
X14936824Y-16412674D02*
X14955872Y-16403150D01*
X14955872Y-16403150D02*
X14984443Y-16403150D01*
X14984443Y-16403150D02*
X15003491Y-16412674D01*
X15003491Y-16412674D02*
X15013015Y-16431722D01*
X15013015Y-16431722D02*
X15013015Y-16536484D01*
X15403491Y-16326960D02*
X15232063Y-16584103D01*
X15660634Y-16336484D02*
X15679682Y-16336484D01*
X15679682Y-16336484D02*
X15698729Y-16346008D01*
X15698729Y-16346008D02*
X15708253Y-16355531D01*
X15708253Y-16355531D02*
X15717777Y-16374579D01*
X15717777Y-16374579D02*
X15727301Y-16412674D01*
X15727301Y-16412674D02*
X15727301Y-16460293D01*
X15727301Y-16460293D02*
X15717777Y-16498388D01*
X15717777Y-16498388D02*
X15708253Y-16517436D01*
X15708253Y-16517436D02*
X15698729Y-16526960D01*
X15698729Y-16526960D02*
X15679682Y-16536484D01*
X15679682Y-16536484D02*
X15660634Y-16536484D01*
X15660634Y-16536484D02*
X15641586Y-16526960D01*
X15641586Y-16526960D02*
X15632063Y-16517436D01*
X15632063Y-16517436D02*
X15622539Y-16498388D01*
X15622539Y-16498388D02*
X15613015Y-16460293D01*
X15613015Y-16460293D02*
X15613015Y-16412674D01*
X15613015Y-16412674D02*
X15622539Y-16374579D01*
X15622539Y-16374579D02*
X15632063Y-16355531D01*
X15632063Y-16355531D02*
X15641586Y-16346008D01*
X15641586Y-16346008D02*
X15660634Y-16336484D01*
X15813015Y-16517436D02*
X15822539Y-16526960D01*
X15822539Y-16526960D02*
X15813015Y-16536484D01*
X15813015Y-16536484D02*
X15803491Y-16526960D01*
X15803491Y-16526960D02*
X15813015Y-16517436D01*
X15813015Y-16517436D02*
X15813015Y-16536484D01*
X15946348Y-16336484D02*
X15965396Y-16336484D01*
X15965396Y-16336484D02*
X15984444Y-16346008D01*
X15984444Y-16346008D02*
X15993967Y-16355531D01*
X15993967Y-16355531D02*
X16003491Y-16374579D01*
X16003491Y-16374579D02*
X16013015Y-16412674D01*
X16013015Y-16412674D02*
X16013015Y-16460293D01*
X16013015Y-16460293D02*
X16003491Y-16498388D01*
X16003491Y-16498388D02*
X15993967Y-16517436D01*
X15993967Y-16517436D02*
X15984444Y-16526960D01*
X15984444Y-16526960D02*
X15965396Y-16536484D01*
X15965396Y-16536484D02*
X15946348Y-16536484D01*
X15946348Y-16536484D02*
X15927301Y-16526960D01*
X15927301Y-16526960D02*
X15917777Y-16517436D01*
X15917777Y-16517436D02*
X15908253Y-16498388D01*
X15908253Y-16498388D02*
X15898729Y-16460293D01*
X15898729Y-16460293D02*
X15898729Y-16412674D01*
X15898729Y-16412674D02*
X15908253Y-16374579D01*
X15908253Y-16374579D02*
X15917777Y-16355531D01*
X15917777Y-16355531D02*
X15927301Y-16346008D01*
X15927301Y-16346008D02*
X15946348Y-16336484D01*
X16079682Y-16336484D02*
X16203491Y-16336484D01*
X16203491Y-16336484D02*
X16136825Y-16412674D01*
X16136825Y-16412674D02*
X16165396Y-16412674D01*
X16165396Y-16412674D02*
X16184444Y-16422198D01*
X16184444Y-16422198D02*
X16193967Y-16431722D01*
X16193967Y-16431722D02*
X16203491Y-16450769D01*
X16203491Y-16450769D02*
X16203491Y-16498388D01*
X16203491Y-16498388D02*
X16193967Y-16517436D01*
X16193967Y-16517436D02*
X16184444Y-16526960D01*
X16184444Y-16526960D02*
X16165396Y-16536484D01*
X16165396Y-16536484D02*
X16108253Y-16536484D01*
X16108253Y-16536484D02*
X16089206Y-16526960D01*
X16089206Y-16526960D02*
X16079682Y-16517436D01*
X16393967Y-16536484D02*
X16279682Y-16536484D01*
X16336825Y-16536484D02*
X16336825Y-16336484D01*
X16336825Y-16336484D02*
X16317777Y-16365055D01*
X16317777Y-16365055D02*
X16298729Y-16384103D01*
X16298729Y-16384103D02*
X16279682Y-16393627D01*
X16574920Y-16336484D02*
X16479682Y-16336484D01*
X16479682Y-16336484D02*
X16470158Y-16431722D01*
X16470158Y-16431722D02*
X16479682Y-16422198D01*
X16479682Y-16422198D02*
X16498729Y-16412674D01*
X16498729Y-16412674D02*
X16546348Y-16412674D01*
X16546348Y-16412674D02*
X16565396Y-16422198D01*
X16565396Y-16422198D02*
X16574920Y-16431722D01*
X16574920Y-16431722D02*
X16584444Y-16450769D01*
X16584444Y-16450769D02*
X16584444Y-16498388D01*
X16584444Y-16498388D02*
X16574920Y-16517436D01*
X16574920Y-16517436D02*
X16565396Y-16526960D01*
X16565396Y-16526960D02*
X16546348Y-16536484D01*
X16546348Y-16536484D02*
X16498729Y-16536484D01*
X16498729Y-16536484D02*
X16479682Y-16526960D01*
X16479682Y-16526960D02*
X16470158Y-16517436D01*
X16660634Y-16336484D02*
X16660634Y-16374579D01*
X16736825Y-16336484D02*
X16736825Y-16374579D01*
X17032063Y-16612674D02*
X17022539Y-16603150D01*
X17022539Y-16603150D02*
X17003491Y-16574579D01*
X17003491Y-16574579D02*
X16993968Y-16555531D01*
X16993968Y-16555531D02*
X16984444Y-16526960D01*
X16984444Y-16526960D02*
X16974920Y-16479341D01*
X16974920Y-16479341D02*
X16974920Y-16441246D01*
X16974920Y-16441246D02*
X16984444Y-16393627D01*
X16984444Y-16393627D02*
X16993968Y-16365055D01*
X16993968Y-16365055D02*
X17003491Y-16346008D01*
X17003491Y-16346008D02*
X17022539Y-16317436D01*
X17022539Y-16317436D02*
X17032063Y-16307912D01*
X17098730Y-16355531D02*
X17108253Y-16346008D01*
X17108253Y-16346008D02*
X17127301Y-16336484D01*
X17127301Y-16336484D02*
X17174920Y-16336484D01*
X17174920Y-16336484D02*
X17193968Y-16346008D01*
X17193968Y-16346008D02*
X17203491Y-16355531D01*
X17203491Y-16355531D02*
X17213015Y-16374579D01*
X17213015Y-16374579D02*
X17213015Y-16393627D01*
X17213015Y-16393627D02*
X17203491Y-16422198D01*
X17203491Y-16422198D02*
X17089206Y-16536484D01*
X17089206Y-16536484D02*
X17213015Y-16536484D01*
X17451111Y-16536484D02*
X17451111Y-16336484D01*
X17536825Y-16536484D02*
X17536825Y-16431722D01*
X17536825Y-16431722D02*
X17527301Y-16412674D01*
X17527301Y-16412674D02*
X17508253Y-16403150D01*
X17508253Y-16403150D02*
X17479682Y-16403150D01*
X17479682Y-16403150D02*
X17460634Y-16412674D01*
X17460634Y-16412674D02*
X17451111Y-16422198D01*
X17660634Y-16536484D02*
X17641587Y-16526960D01*
X17641587Y-16526960D02*
X17632063Y-16517436D01*
X17632063Y-16517436D02*
X17622539Y-16498388D01*
X17622539Y-16498388D02*
X17622539Y-16441246D01*
X17622539Y-16441246D02*
X17632063Y-16422198D01*
X17632063Y-16422198D02*
X17641587Y-16412674D01*
X17641587Y-16412674D02*
X17660634Y-16403150D01*
X17660634Y-16403150D02*
X17689206Y-16403150D01*
X17689206Y-16403150D02*
X17708253Y-16412674D01*
X17708253Y-16412674D02*
X17717777Y-16422198D01*
X17717777Y-16422198D02*
X17727301Y-16441246D01*
X17727301Y-16441246D02*
X17727301Y-16498388D01*
X17727301Y-16498388D02*
X17717777Y-16517436D01*
X17717777Y-16517436D02*
X17708253Y-16526960D01*
X17708253Y-16526960D02*
X17689206Y-16536484D01*
X17689206Y-16536484D02*
X17660634Y-16536484D01*
X17841587Y-16536484D02*
X17822539Y-16526960D01*
X17822539Y-16526960D02*
X17813015Y-16507912D01*
X17813015Y-16507912D02*
X17813015Y-16336484D01*
X17993968Y-16526960D02*
X17974920Y-16536484D01*
X17974920Y-16536484D02*
X17936825Y-16536484D01*
X17936825Y-16536484D02*
X17917777Y-16526960D01*
X17917777Y-16526960D02*
X17908253Y-16507912D01*
X17908253Y-16507912D02*
X17908253Y-16431722D01*
X17908253Y-16431722D02*
X17917777Y-16412674D01*
X17917777Y-16412674D02*
X17936825Y-16403150D01*
X17936825Y-16403150D02*
X17974920Y-16403150D01*
X17974920Y-16403150D02*
X17993968Y-16412674D01*
X17993968Y-16412674D02*
X18003492Y-16431722D01*
X18003492Y-16431722D02*
X18003492Y-16450769D01*
X18003492Y-16450769D02*
X17908253Y-16469817D01*
X18079682Y-16526960D02*
X18098730Y-16536484D01*
X18098730Y-16536484D02*
X18136825Y-16536484D01*
X18136825Y-16536484D02*
X18155873Y-16526960D01*
X18155873Y-16526960D02*
X18165396Y-16507912D01*
X18165396Y-16507912D02*
X18165396Y-16498388D01*
X18165396Y-16498388D02*
X18155873Y-16479341D01*
X18155873Y-16479341D02*
X18136825Y-16469817D01*
X18136825Y-16469817D02*
X18108253Y-16469817D01*
X18108253Y-16469817D02*
X18089206Y-16460293D01*
X18089206Y-16460293D02*
X18079682Y-16441246D01*
X18079682Y-16441246D02*
X18079682Y-16431722D01*
X18079682Y-16431722D02*
X18089206Y-16412674D01*
X18089206Y-16412674D02*
X18108253Y-16403150D01*
X18108253Y-16403150D02*
X18136825Y-16403150D01*
X18136825Y-16403150D02*
X18155873Y-16412674D01*
X18232063Y-16612674D02*
X18241587Y-16603150D01*
X18241587Y-16603150D02*
X18260634Y-16574579D01*
X18260634Y-16574579D02*
X18270158Y-16555531D01*
X18270158Y-16555531D02*
X18279682Y-16526960D01*
X18279682Y-16526960D02*
X18289206Y-16479341D01*
X18289206Y-16479341D02*
X18289206Y-16441246D01*
X18289206Y-16441246D02*
X18279682Y-16393627D01*
X18279682Y-16393627D02*
X18270158Y-16365055D01*
X18270158Y-16365055D02*
X18260634Y-16346008D01*
X18260634Y-16346008D02*
X18241587Y-16317436D01*
X18241587Y-16317436D02*
X18232063Y-16307912D01*
D10*
X13357000Y-16659000D02*
X13457000Y-16759000D01*
X13457000Y-16659000D02*
X13357000Y-16759000D01*
X13457000Y-16709000D02*
G75*
G02*
X13357000Y-16709000I-50000J0D01*
G01*
X13357000Y-16709000D02*
G75*
G02*
X13457000Y-16709000I50000J0D01*
G01*
D11*
X13822539Y-16800484D02*
X13708253Y-16800484D01*
X13765396Y-16800484D02*
X13765396Y-16600484D01*
X13765396Y-16600484D02*
X13746348Y-16629055D01*
X13746348Y-16629055D02*
X13727301Y-16648103D01*
X13727301Y-16648103D02*
X13708253Y-16657627D01*
X13908253Y-16781436D02*
X13917777Y-16790960D01*
X13917777Y-16790960D02*
X13908253Y-16800484D01*
X13908253Y-16800484D02*
X13898729Y-16790960D01*
X13898729Y-16790960D02*
X13908253Y-16781436D01*
X13908253Y-16781436D02*
X13908253Y-16800484D01*
X14041586Y-16600484D02*
X14060634Y-16600484D01*
X14060634Y-16600484D02*
X14079682Y-16610008D01*
X14079682Y-16610008D02*
X14089205Y-16619531D01*
X14089205Y-16619531D02*
X14098729Y-16638579D01*
X14098729Y-16638579D02*
X14108253Y-16676674D01*
X14108253Y-16676674D02*
X14108253Y-16724293D01*
X14108253Y-16724293D02*
X14098729Y-16762388D01*
X14098729Y-16762388D02*
X14089205Y-16781436D01*
X14089205Y-16781436D02*
X14079682Y-16790960D01*
X14079682Y-16790960D02*
X14060634Y-16800484D01*
X14060634Y-16800484D02*
X14041586Y-16800484D01*
X14041586Y-16800484D02*
X14022539Y-16790960D01*
X14022539Y-16790960D02*
X14013015Y-16781436D01*
X14013015Y-16781436D02*
X14003491Y-16762388D01*
X14003491Y-16762388D02*
X13993967Y-16724293D01*
X13993967Y-16724293D02*
X13993967Y-16676674D01*
X13993967Y-16676674D02*
X14003491Y-16638579D01*
X14003491Y-16638579D02*
X14013015Y-16619531D01*
X14013015Y-16619531D02*
X14022539Y-16610008D01*
X14022539Y-16610008D02*
X14041586Y-16600484D01*
X14232062Y-16600484D02*
X14251110Y-16600484D01*
X14251110Y-16600484D02*
X14270158Y-16610008D01*
X14270158Y-16610008D02*
X14279682Y-16619531D01*
X14279682Y-16619531D02*
X14289205Y-16638579D01*
X14289205Y-16638579D02*
X14298729Y-16676674D01*
X14298729Y-16676674D02*
X14298729Y-16724293D01*
X14298729Y-16724293D02*
X14289205Y-16762388D01*
X14289205Y-16762388D02*
X14279682Y-16781436D01*
X14279682Y-16781436D02*
X14270158Y-16790960D01*
X14270158Y-16790960D02*
X14251110Y-16800484D01*
X14251110Y-16800484D02*
X14232062Y-16800484D01*
X14232062Y-16800484D02*
X14213015Y-16790960D01*
X14213015Y-16790960D02*
X14203491Y-16781436D01*
X14203491Y-16781436D02*
X14193967Y-16762388D01*
X14193967Y-16762388D02*
X14184443Y-16724293D01*
X14184443Y-16724293D02*
X14184443Y-16676674D01*
X14184443Y-16676674D02*
X14193967Y-16638579D01*
X14193967Y-16638579D02*
X14203491Y-16619531D01*
X14203491Y-16619531D02*
X14213015Y-16610008D01*
X14213015Y-16610008D02*
X14232062Y-16600484D01*
X14422539Y-16600484D02*
X14441586Y-16600484D01*
X14441586Y-16600484D02*
X14460634Y-16610008D01*
X14460634Y-16610008D02*
X14470158Y-16619531D01*
X14470158Y-16619531D02*
X14479682Y-16638579D01*
X14479682Y-16638579D02*
X14489205Y-16676674D01*
X14489205Y-16676674D02*
X14489205Y-16724293D01*
X14489205Y-16724293D02*
X14479682Y-16762388D01*
X14479682Y-16762388D02*
X14470158Y-16781436D01*
X14470158Y-16781436D02*
X14460634Y-16790960D01*
X14460634Y-16790960D02*
X14441586Y-16800484D01*
X14441586Y-16800484D02*
X14422539Y-16800484D01*
X14422539Y-16800484D02*
X14403491Y-16790960D01*
X14403491Y-16790960D02*
X14393967Y-16781436D01*
X14393967Y-16781436D02*
X14384443Y-16762388D01*
X14384443Y-16762388D02*
X14374920Y-16724293D01*
X14374920Y-16724293D02*
X14374920Y-16676674D01*
X14374920Y-16676674D02*
X14384443Y-16638579D01*
X14384443Y-16638579D02*
X14393967Y-16619531D01*
X14393967Y-16619531D02*
X14403491Y-16610008D01*
X14403491Y-16610008D02*
X14422539Y-16600484D01*
X14574920Y-16800484D02*
X14574920Y-16667150D01*
X14574920Y-16686198D02*
X14584443Y-16676674D01*
X14584443Y-16676674D02*
X14603491Y-16667150D01*
X14603491Y-16667150D02*
X14632063Y-16667150D01*
X14632063Y-16667150D02*
X14651110Y-16676674D01*
X14651110Y-16676674D02*
X14660634Y-16695722D01*
X14660634Y-16695722D02*
X14660634Y-16800484D01*
X14660634Y-16695722D02*
X14670158Y-16676674D01*
X14670158Y-16676674D02*
X14689205Y-16667150D01*
X14689205Y-16667150D02*
X14717777Y-16667150D01*
X14717777Y-16667150D02*
X14736824Y-16676674D01*
X14736824Y-16676674D02*
X14746348Y-16695722D01*
X14746348Y-16695722D02*
X14746348Y-16800484D01*
X14841586Y-16800484D02*
X14841586Y-16667150D01*
X14841586Y-16686198D02*
X14851110Y-16676674D01*
X14851110Y-16676674D02*
X14870158Y-16667150D01*
X14870158Y-16667150D02*
X14898729Y-16667150D01*
X14898729Y-16667150D02*
X14917777Y-16676674D01*
X14917777Y-16676674D02*
X14927301Y-16695722D01*
X14927301Y-16695722D02*
X14927301Y-16800484D01*
X14927301Y-16695722D02*
X14936824Y-16676674D01*
X14936824Y-16676674D02*
X14955872Y-16667150D01*
X14955872Y-16667150D02*
X14984443Y-16667150D01*
X14984443Y-16667150D02*
X15003491Y-16676674D01*
X15003491Y-16676674D02*
X15013015Y-16695722D01*
X15013015Y-16695722D02*
X15013015Y-16800484D01*
X15403491Y-16590960D02*
X15232063Y-16848103D01*
X15660634Y-16600484D02*
X15679682Y-16600484D01*
X15679682Y-16600484D02*
X15698729Y-16610008D01*
X15698729Y-16610008D02*
X15708253Y-16619531D01*
X15708253Y-16619531D02*
X15717777Y-16638579D01*
X15717777Y-16638579D02*
X15727301Y-16676674D01*
X15727301Y-16676674D02*
X15727301Y-16724293D01*
X15727301Y-16724293D02*
X15717777Y-16762388D01*
X15717777Y-16762388D02*
X15708253Y-16781436D01*
X15708253Y-16781436D02*
X15698729Y-16790960D01*
X15698729Y-16790960D02*
X15679682Y-16800484D01*
X15679682Y-16800484D02*
X15660634Y-16800484D01*
X15660634Y-16800484D02*
X15641586Y-16790960D01*
X15641586Y-16790960D02*
X15632063Y-16781436D01*
X15632063Y-16781436D02*
X15622539Y-16762388D01*
X15622539Y-16762388D02*
X15613015Y-16724293D01*
X15613015Y-16724293D02*
X15613015Y-16676674D01*
X15613015Y-16676674D02*
X15622539Y-16638579D01*
X15622539Y-16638579D02*
X15632063Y-16619531D01*
X15632063Y-16619531D02*
X15641586Y-16610008D01*
X15641586Y-16610008D02*
X15660634Y-16600484D01*
X15813015Y-16781436D02*
X15822539Y-16790960D01*
X15822539Y-16790960D02*
X15813015Y-16800484D01*
X15813015Y-16800484D02*
X15803491Y-16790960D01*
X15803491Y-16790960D02*
X15813015Y-16781436D01*
X15813015Y-16781436D02*
X15813015Y-16800484D01*
X15946348Y-16600484D02*
X15965396Y-16600484D01*
X15965396Y-16600484D02*
X15984444Y-16610008D01*
X15984444Y-16610008D02*
X15993967Y-16619531D01*
X15993967Y-16619531D02*
X16003491Y-16638579D01*
X16003491Y-16638579D02*
X16013015Y-16676674D01*
X16013015Y-16676674D02*
X16013015Y-16724293D01*
X16013015Y-16724293D02*
X16003491Y-16762388D01*
X16003491Y-16762388D02*
X15993967Y-16781436D01*
X15993967Y-16781436D02*
X15984444Y-16790960D01*
X15984444Y-16790960D02*
X15965396Y-16800484D01*
X15965396Y-16800484D02*
X15946348Y-16800484D01*
X15946348Y-16800484D02*
X15927301Y-16790960D01*
X15927301Y-16790960D02*
X15917777Y-16781436D01*
X15917777Y-16781436D02*
X15908253Y-16762388D01*
X15908253Y-16762388D02*
X15898729Y-16724293D01*
X15898729Y-16724293D02*
X15898729Y-16676674D01*
X15898729Y-16676674D02*
X15908253Y-16638579D01*
X15908253Y-16638579D02*
X15917777Y-16619531D01*
X15917777Y-16619531D02*
X15927301Y-16610008D01*
X15927301Y-16610008D02*
X15946348Y-16600484D01*
X16079682Y-16600484D02*
X16203491Y-16600484D01*
X16203491Y-16600484D02*
X16136825Y-16676674D01*
X16136825Y-16676674D02*
X16165396Y-16676674D01*
X16165396Y-16676674D02*
X16184444Y-16686198D01*
X16184444Y-16686198D02*
X16193967Y-16695722D01*
X16193967Y-16695722D02*
X16203491Y-16714769D01*
X16203491Y-16714769D02*
X16203491Y-16762388D01*
X16203491Y-16762388D02*
X16193967Y-16781436D01*
X16193967Y-16781436D02*
X16184444Y-16790960D01*
X16184444Y-16790960D02*
X16165396Y-16800484D01*
X16165396Y-16800484D02*
X16108253Y-16800484D01*
X16108253Y-16800484D02*
X16089206Y-16790960D01*
X16089206Y-16790960D02*
X16079682Y-16781436D01*
X16298729Y-16800484D02*
X16336825Y-16800484D01*
X16336825Y-16800484D02*
X16355872Y-16790960D01*
X16355872Y-16790960D02*
X16365396Y-16781436D01*
X16365396Y-16781436D02*
X16384444Y-16752865D01*
X16384444Y-16752865D02*
X16393967Y-16714769D01*
X16393967Y-16714769D02*
X16393967Y-16638579D01*
X16393967Y-16638579D02*
X16384444Y-16619531D01*
X16384444Y-16619531D02*
X16374920Y-16610008D01*
X16374920Y-16610008D02*
X16355872Y-16600484D01*
X16355872Y-16600484D02*
X16317777Y-16600484D01*
X16317777Y-16600484D02*
X16298729Y-16610008D01*
X16298729Y-16610008D02*
X16289206Y-16619531D01*
X16289206Y-16619531D02*
X16279682Y-16638579D01*
X16279682Y-16638579D02*
X16279682Y-16686198D01*
X16279682Y-16686198D02*
X16289206Y-16705246D01*
X16289206Y-16705246D02*
X16298729Y-16714769D01*
X16298729Y-16714769D02*
X16317777Y-16724293D01*
X16317777Y-16724293D02*
X16355872Y-16724293D01*
X16355872Y-16724293D02*
X16374920Y-16714769D01*
X16374920Y-16714769D02*
X16384444Y-16705246D01*
X16384444Y-16705246D02*
X16393967Y-16686198D01*
X16565396Y-16667150D02*
X16565396Y-16800484D01*
X16517777Y-16590960D02*
X16470158Y-16733817D01*
X16470158Y-16733817D02*
X16593967Y-16733817D01*
X16660634Y-16600484D02*
X16660634Y-16638579D01*
X16736825Y-16600484D02*
X16736825Y-16638579D01*
X17032063Y-16876674D02*
X17022539Y-16867150D01*
X17022539Y-16867150D02*
X17003491Y-16838579D01*
X17003491Y-16838579D02*
X16993968Y-16819531D01*
X16993968Y-16819531D02*
X16984444Y-16790960D01*
X16984444Y-16790960D02*
X16974920Y-16743341D01*
X16974920Y-16743341D02*
X16974920Y-16705246D01*
X16974920Y-16705246D02*
X16984444Y-16657627D01*
X16984444Y-16657627D02*
X16993968Y-16629055D01*
X16993968Y-16629055D02*
X17003491Y-16610008D01*
X17003491Y-16610008D02*
X17022539Y-16581436D01*
X17022539Y-16581436D02*
X17032063Y-16571912D01*
X17203491Y-16600484D02*
X17108253Y-16600484D01*
X17108253Y-16600484D02*
X17098730Y-16695722D01*
X17098730Y-16695722D02*
X17108253Y-16686198D01*
X17108253Y-16686198D02*
X17127301Y-16676674D01*
X17127301Y-16676674D02*
X17174920Y-16676674D01*
X17174920Y-16676674D02*
X17193968Y-16686198D01*
X17193968Y-16686198D02*
X17203491Y-16695722D01*
X17203491Y-16695722D02*
X17213015Y-16714769D01*
X17213015Y-16714769D02*
X17213015Y-16762388D01*
X17213015Y-16762388D02*
X17203491Y-16781436D01*
X17203491Y-16781436D02*
X17193968Y-16790960D01*
X17193968Y-16790960D02*
X17174920Y-16800484D01*
X17174920Y-16800484D02*
X17127301Y-16800484D01*
X17127301Y-16800484D02*
X17108253Y-16790960D01*
X17108253Y-16790960D02*
X17098730Y-16781436D01*
X17279682Y-16600484D02*
X17413015Y-16600484D01*
X17413015Y-16600484D02*
X17327301Y-16800484D01*
X17641587Y-16800484D02*
X17641587Y-16600484D01*
X17727301Y-16800484D02*
X17727301Y-16695722D01*
X17727301Y-16695722D02*
X17717777Y-16676674D01*
X17717777Y-16676674D02*
X17698730Y-16667150D01*
X17698730Y-16667150D02*
X17670158Y-16667150D01*
X17670158Y-16667150D02*
X17651111Y-16676674D01*
X17651111Y-16676674D02*
X17641587Y-16686198D01*
X17851111Y-16800484D02*
X17832063Y-16790960D01*
X17832063Y-16790960D02*
X17822539Y-16781436D01*
X17822539Y-16781436D02*
X17813015Y-16762388D01*
X17813015Y-16762388D02*
X17813015Y-16705246D01*
X17813015Y-16705246D02*
X17822539Y-16686198D01*
X17822539Y-16686198D02*
X17832063Y-16676674D01*
X17832063Y-16676674D02*
X17851111Y-16667150D01*
X17851111Y-16667150D02*
X17879682Y-16667150D01*
X17879682Y-16667150D02*
X17898730Y-16676674D01*
X17898730Y-16676674D02*
X17908253Y-16686198D01*
X17908253Y-16686198D02*
X17917777Y-16705246D01*
X17917777Y-16705246D02*
X17917777Y-16762388D01*
X17917777Y-16762388D02*
X17908253Y-16781436D01*
X17908253Y-16781436D02*
X17898730Y-16790960D01*
X17898730Y-16790960D02*
X17879682Y-16800484D01*
X17879682Y-16800484D02*
X17851111Y-16800484D01*
X18032063Y-16800484D02*
X18013015Y-16790960D01*
X18013015Y-16790960D02*
X18003492Y-16771912D01*
X18003492Y-16771912D02*
X18003492Y-16600484D01*
X18184444Y-16790960D02*
X18165396Y-16800484D01*
X18165396Y-16800484D02*
X18127301Y-16800484D01*
X18127301Y-16800484D02*
X18108253Y-16790960D01*
X18108253Y-16790960D02*
X18098730Y-16771912D01*
X18098730Y-16771912D02*
X18098730Y-16695722D01*
X18098730Y-16695722D02*
X18108253Y-16676674D01*
X18108253Y-16676674D02*
X18127301Y-16667150D01*
X18127301Y-16667150D02*
X18165396Y-16667150D01*
X18165396Y-16667150D02*
X18184444Y-16676674D01*
X18184444Y-16676674D02*
X18193968Y-16695722D01*
X18193968Y-16695722D02*
X18193968Y-16714769D01*
X18193968Y-16714769D02*
X18098730Y-16733817D01*
X18270158Y-16790960D02*
X18289206Y-16800484D01*
X18289206Y-16800484D02*
X18327301Y-16800484D01*
X18327301Y-16800484D02*
X18346349Y-16790960D01*
X18346349Y-16790960D02*
X18355873Y-16771912D01*
X18355873Y-16771912D02*
X18355873Y-16762388D01*
X18355873Y-16762388D02*
X18346349Y-16743341D01*
X18346349Y-16743341D02*
X18327301Y-16733817D01*
X18327301Y-16733817D02*
X18298730Y-16733817D01*
X18298730Y-16733817D02*
X18279682Y-16724293D01*
X18279682Y-16724293D02*
X18270158Y-16705246D01*
X18270158Y-16705246D02*
X18270158Y-16695722D01*
X18270158Y-16695722D02*
X18279682Y-16676674D01*
X18279682Y-16676674D02*
X18298730Y-16667150D01*
X18298730Y-16667150D02*
X18327301Y-16667150D01*
X18327301Y-16667150D02*
X18346349Y-16676674D01*
X18422539Y-16876674D02*
X18432063Y-16867150D01*
X18432063Y-16867150D02*
X18451111Y-16838579D01*
X18451111Y-16838579D02*
X18460634Y-16819531D01*
X18460634Y-16819531D02*
X18470158Y-16790960D01*
X18470158Y-16790960D02*
X18479682Y-16743341D01*
X18479682Y-16743341D02*
X18479682Y-16705246D01*
X18479682Y-16705246D02*
X18470158Y-16657627D01*
X18470158Y-16657627D02*
X18460634Y-16629055D01*
X18460634Y-16629055D02*
X18451111Y-16610008D01*
X18451111Y-16610008D02*
X18432063Y-16581436D01*
X18432063Y-16581436D02*
X18422539Y-16571912D01*
D12*
X13338000Y-16913500D02*
X13457000Y-17032500D01*
X13457000Y-16913500D02*
X13338000Y-17032500D01*
X13397500Y-16913500D02*
X13397500Y-17032500D01*
X13338000Y-16973000D02*
X13457000Y-16973000D01*
D11*
X13822539Y-17064484D02*
X13708253Y-17064484D01*
X13765396Y-17064484D02*
X13765396Y-16864484D01*
X13765396Y-16864484D02*
X13746348Y-16893055D01*
X13746348Y-16893055D02*
X13727301Y-16912103D01*
X13727301Y-16912103D02*
X13708253Y-16921627D01*
X13908253Y-17045436D02*
X13917777Y-17054960D01*
X13917777Y-17054960D02*
X13908253Y-17064484D01*
X13908253Y-17064484D02*
X13898729Y-17054960D01*
X13898729Y-17054960D02*
X13908253Y-17045436D01*
X13908253Y-17045436D02*
X13908253Y-17064484D01*
X14108253Y-17064484D02*
X13993967Y-17064484D01*
X14051110Y-17064484D02*
X14051110Y-16864484D01*
X14051110Y-16864484D02*
X14032062Y-16893055D01*
X14032062Y-16893055D02*
X14013015Y-16912103D01*
X14013015Y-16912103D02*
X13993967Y-16921627D01*
X14203491Y-17064484D02*
X14241586Y-17064484D01*
X14241586Y-17064484D02*
X14260634Y-17054960D01*
X14260634Y-17054960D02*
X14270158Y-17045436D01*
X14270158Y-17045436D02*
X14289205Y-17016865D01*
X14289205Y-17016865D02*
X14298729Y-16978770D01*
X14298729Y-16978770D02*
X14298729Y-16902579D01*
X14298729Y-16902579D02*
X14289205Y-16883531D01*
X14289205Y-16883531D02*
X14279682Y-16874008D01*
X14279682Y-16874008D02*
X14260634Y-16864484D01*
X14260634Y-16864484D02*
X14222539Y-16864484D01*
X14222539Y-16864484D02*
X14203491Y-16874008D01*
X14203491Y-16874008D02*
X14193967Y-16883531D01*
X14193967Y-16883531D02*
X14184443Y-16902579D01*
X14184443Y-16902579D02*
X14184443Y-16950198D01*
X14184443Y-16950198D02*
X14193967Y-16969246D01*
X14193967Y-16969246D02*
X14203491Y-16978770D01*
X14203491Y-16978770D02*
X14222539Y-16988293D01*
X14222539Y-16988293D02*
X14260634Y-16988293D01*
X14260634Y-16988293D02*
X14279682Y-16978770D01*
X14279682Y-16978770D02*
X14289205Y-16969246D01*
X14289205Y-16969246D02*
X14298729Y-16950198D01*
X14422539Y-16864484D02*
X14441586Y-16864484D01*
X14441586Y-16864484D02*
X14460634Y-16874008D01*
X14460634Y-16874008D02*
X14470158Y-16883531D01*
X14470158Y-16883531D02*
X14479682Y-16902579D01*
X14479682Y-16902579D02*
X14489205Y-16940674D01*
X14489205Y-16940674D02*
X14489205Y-16988293D01*
X14489205Y-16988293D02*
X14479682Y-17026389D01*
X14479682Y-17026389D02*
X14470158Y-17045436D01*
X14470158Y-17045436D02*
X14460634Y-17054960D01*
X14460634Y-17054960D02*
X14441586Y-17064484D01*
X14441586Y-17064484D02*
X14422539Y-17064484D01*
X14422539Y-17064484D02*
X14403491Y-17054960D01*
X14403491Y-17054960D02*
X14393967Y-17045436D01*
X14393967Y-17045436D02*
X14384443Y-17026389D01*
X14384443Y-17026389D02*
X14374920Y-16988293D01*
X14374920Y-16988293D02*
X14374920Y-16940674D01*
X14374920Y-16940674D02*
X14384443Y-16902579D01*
X14384443Y-16902579D02*
X14393967Y-16883531D01*
X14393967Y-16883531D02*
X14403491Y-16874008D01*
X14403491Y-16874008D02*
X14422539Y-16864484D01*
X14574920Y-17064484D02*
X14574920Y-16931150D01*
X14574920Y-16950198D02*
X14584443Y-16940674D01*
X14584443Y-16940674D02*
X14603491Y-16931150D01*
X14603491Y-16931150D02*
X14632063Y-16931150D01*
X14632063Y-16931150D02*
X14651110Y-16940674D01*
X14651110Y-16940674D02*
X14660634Y-16959722D01*
X14660634Y-16959722D02*
X14660634Y-17064484D01*
X14660634Y-16959722D02*
X14670158Y-16940674D01*
X14670158Y-16940674D02*
X14689205Y-16931150D01*
X14689205Y-16931150D02*
X14717777Y-16931150D01*
X14717777Y-16931150D02*
X14736824Y-16940674D01*
X14736824Y-16940674D02*
X14746348Y-16959722D01*
X14746348Y-16959722D02*
X14746348Y-17064484D01*
X14841586Y-17064484D02*
X14841586Y-16931150D01*
X14841586Y-16950198D02*
X14851110Y-16940674D01*
X14851110Y-16940674D02*
X14870158Y-16931150D01*
X14870158Y-16931150D02*
X14898729Y-16931150D01*
X14898729Y-16931150D02*
X14917777Y-16940674D01*
X14917777Y-16940674D02*
X14927301Y-16959722D01*
X14927301Y-16959722D02*
X14927301Y-17064484D01*
X14927301Y-16959722D02*
X14936824Y-16940674D01*
X14936824Y-16940674D02*
X14955872Y-16931150D01*
X14955872Y-16931150D02*
X14984443Y-16931150D01*
X14984443Y-16931150D02*
X15003491Y-16940674D01*
X15003491Y-16940674D02*
X15013015Y-16959722D01*
X15013015Y-16959722D02*
X15013015Y-17064484D01*
X15403491Y-16854960D02*
X15232063Y-17112103D01*
X15660634Y-16864484D02*
X15679682Y-16864484D01*
X15679682Y-16864484D02*
X15698729Y-16874008D01*
X15698729Y-16874008D02*
X15708253Y-16883531D01*
X15708253Y-16883531D02*
X15717777Y-16902579D01*
X15717777Y-16902579D02*
X15727301Y-16940674D01*
X15727301Y-16940674D02*
X15727301Y-16988293D01*
X15727301Y-16988293D02*
X15717777Y-17026389D01*
X15717777Y-17026389D02*
X15708253Y-17045436D01*
X15708253Y-17045436D02*
X15698729Y-17054960D01*
X15698729Y-17054960D02*
X15679682Y-17064484D01*
X15679682Y-17064484D02*
X15660634Y-17064484D01*
X15660634Y-17064484D02*
X15641586Y-17054960D01*
X15641586Y-17054960D02*
X15632063Y-17045436D01*
X15632063Y-17045436D02*
X15622539Y-17026389D01*
X15622539Y-17026389D02*
X15613015Y-16988293D01*
X15613015Y-16988293D02*
X15613015Y-16940674D01*
X15613015Y-16940674D02*
X15622539Y-16902579D01*
X15622539Y-16902579D02*
X15632063Y-16883531D01*
X15632063Y-16883531D02*
X15641586Y-16874008D01*
X15641586Y-16874008D02*
X15660634Y-16864484D01*
X15813015Y-17045436D02*
X15822539Y-17054960D01*
X15822539Y-17054960D02*
X15813015Y-17064484D01*
X15813015Y-17064484D02*
X15803491Y-17054960D01*
X15803491Y-17054960D02*
X15813015Y-17045436D01*
X15813015Y-17045436D02*
X15813015Y-17064484D01*
X15946348Y-16864484D02*
X15965396Y-16864484D01*
X15965396Y-16864484D02*
X15984444Y-16874008D01*
X15984444Y-16874008D02*
X15993967Y-16883531D01*
X15993967Y-16883531D02*
X16003491Y-16902579D01*
X16003491Y-16902579D02*
X16013015Y-16940674D01*
X16013015Y-16940674D02*
X16013015Y-16988293D01*
X16013015Y-16988293D02*
X16003491Y-17026389D01*
X16003491Y-17026389D02*
X15993967Y-17045436D01*
X15993967Y-17045436D02*
X15984444Y-17054960D01*
X15984444Y-17054960D02*
X15965396Y-17064484D01*
X15965396Y-17064484D02*
X15946348Y-17064484D01*
X15946348Y-17064484D02*
X15927301Y-17054960D01*
X15927301Y-17054960D02*
X15917777Y-17045436D01*
X15917777Y-17045436D02*
X15908253Y-17026389D01*
X15908253Y-17026389D02*
X15898729Y-16988293D01*
X15898729Y-16988293D02*
X15898729Y-16940674D01*
X15898729Y-16940674D02*
X15908253Y-16902579D01*
X15908253Y-16902579D02*
X15917777Y-16883531D01*
X15917777Y-16883531D02*
X15927301Y-16874008D01*
X15927301Y-16874008D02*
X15946348Y-16864484D01*
X16184444Y-16931150D02*
X16184444Y-17064484D01*
X16136825Y-16854960D02*
X16089206Y-16997817D01*
X16089206Y-16997817D02*
X16213015Y-16997817D01*
X16374920Y-16864484D02*
X16336825Y-16864484D01*
X16336825Y-16864484D02*
X16317777Y-16874008D01*
X16317777Y-16874008D02*
X16308253Y-16883531D01*
X16308253Y-16883531D02*
X16289206Y-16912103D01*
X16289206Y-16912103D02*
X16279682Y-16950198D01*
X16279682Y-16950198D02*
X16279682Y-17026389D01*
X16279682Y-17026389D02*
X16289206Y-17045436D01*
X16289206Y-17045436D02*
X16298729Y-17054960D01*
X16298729Y-17054960D02*
X16317777Y-17064484D01*
X16317777Y-17064484D02*
X16355872Y-17064484D01*
X16355872Y-17064484D02*
X16374920Y-17054960D01*
X16374920Y-17054960D02*
X16384444Y-17045436D01*
X16384444Y-17045436D02*
X16393967Y-17026389D01*
X16393967Y-17026389D02*
X16393967Y-16978770D01*
X16393967Y-16978770D02*
X16384444Y-16959722D01*
X16384444Y-16959722D02*
X16374920Y-16950198D01*
X16374920Y-16950198D02*
X16355872Y-16940674D01*
X16355872Y-16940674D02*
X16317777Y-16940674D01*
X16317777Y-16940674D02*
X16298729Y-16950198D01*
X16298729Y-16950198D02*
X16289206Y-16959722D01*
X16289206Y-16959722D02*
X16279682Y-16978770D01*
X16489206Y-17064484D02*
X16527301Y-17064484D01*
X16527301Y-17064484D02*
X16546348Y-17054960D01*
X16546348Y-17054960D02*
X16555872Y-17045436D01*
X16555872Y-17045436D02*
X16574920Y-17016865D01*
X16574920Y-17016865D02*
X16584444Y-16978770D01*
X16584444Y-16978770D02*
X16584444Y-16902579D01*
X16584444Y-16902579D02*
X16574920Y-16883531D01*
X16574920Y-16883531D02*
X16565396Y-16874008D01*
X16565396Y-16874008D02*
X16546348Y-16864484D01*
X16546348Y-16864484D02*
X16508253Y-16864484D01*
X16508253Y-16864484D02*
X16489206Y-16874008D01*
X16489206Y-16874008D02*
X16479682Y-16883531D01*
X16479682Y-16883531D02*
X16470158Y-16902579D01*
X16470158Y-16902579D02*
X16470158Y-16950198D01*
X16470158Y-16950198D02*
X16479682Y-16969246D01*
X16479682Y-16969246D02*
X16489206Y-16978770D01*
X16489206Y-16978770D02*
X16508253Y-16988293D01*
X16508253Y-16988293D02*
X16546348Y-16988293D01*
X16546348Y-16988293D02*
X16565396Y-16978770D01*
X16565396Y-16978770D02*
X16574920Y-16969246D01*
X16574920Y-16969246D02*
X16584444Y-16950198D01*
X16660634Y-16864484D02*
X16660634Y-16902579D01*
X16736825Y-16864484D02*
X16736825Y-16902579D01*
X17032063Y-17140674D02*
X17022539Y-17131150D01*
X17022539Y-17131150D02*
X17003491Y-17102579D01*
X17003491Y-17102579D02*
X16993968Y-17083531D01*
X16993968Y-17083531D02*
X16984444Y-17054960D01*
X16984444Y-17054960D02*
X16974920Y-17007341D01*
X16974920Y-17007341D02*
X16974920Y-16969246D01*
X16974920Y-16969246D02*
X16984444Y-16921627D01*
X16984444Y-16921627D02*
X16993968Y-16893055D01*
X16993968Y-16893055D02*
X17003491Y-16874008D01*
X17003491Y-16874008D02*
X17022539Y-16845436D01*
X17022539Y-16845436D02*
X17032063Y-16835912D01*
X17213015Y-17064484D02*
X17098730Y-17064484D01*
X17155872Y-17064484D02*
X17155872Y-16864484D01*
X17155872Y-16864484D02*
X17136825Y-16893055D01*
X17136825Y-16893055D02*
X17117777Y-16912103D01*
X17117777Y-16912103D02*
X17098730Y-16921627D01*
X17393968Y-16864484D02*
X17298730Y-16864484D01*
X17298730Y-16864484D02*
X17289206Y-16959722D01*
X17289206Y-16959722D02*
X17298730Y-16950198D01*
X17298730Y-16950198D02*
X17317777Y-16940674D01*
X17317777Y-16940674D02*
X17365396Y-16940674D01*
X17365396Y-16940674D02*
X17384444Y-16950198D01*
X17384444Y-16950198D02*
X17393968Y-16959722D01*
X17393968Y-16959722D02*
X17403491Y-16978770D01*
X17403491Y-16978770D02*
X17403491Y-17026389D01*
X17403491Y-17026389D02*
X17393968Y-17045436D01*
X17393968Y-17045436D02*
X17384444Y-17054960D01*
X17384444Y-17054960D02*
X17365396Y-17064484D01*
X17365396Y-17064484D02*
X17317777Y-17064484D01*
X17317777Y-17064484D02*
X17298730Y-17054960D01*
X17298730Y-17054960D02*
X17289206Y-17045436D01*
X17641587Y-17064484D02*
X17641587Y-16864484D01*
X17727301Y-17064484D02*
X17727301Y-16959722D01*
X17727301Y-16959722D02*
X17717777Y-16940674D01*
X17717777Y-16940674D02*
X17698730Y-16931150D01*
X17698730Y-16931150D02*
X17670158Y-16931150D01*
X17670158Y-16931150D02*
X17651111Y-16940674D01*
X17651111Y-16940674D02*
X17641587Y-16950198D01*
X17851111Y-17064484D02*
X17832063Y-17054960D01*
X17832063Y-17054960D02*
X17822539Y-17045436D01*
X17822539Y-17045436D02*
X17813015Y-17026389D01*
X17813015Y-17026389D02*
X17813015Y-16969246D01*
X17813015Y-16969246D02*
X17822539Y-16950198D01*
X17822539Y-16950198D02*
X17832063Y-16940674D01*
X17832063Y-16940674D02*
X17851111Y-16931150D01*
X17851111Y-16931150D02*
X17879682Y-16931150D01*
X17879682Y-16931150D02*
X17898730Y-16940674D01*
X17898730Y-16940674D02*
X17908253Y-16950198D01*
X17908253Y-16950198D02*
X17917777Y-16969246D01*
X17917777Y-16969246D02*
X17917777Y-17026389D01*
X17917777Y-17026389D02*
X17908253Y-17045436D01*
X17908253Y-17045436D02*
X17898730Y-17054960D01*
X17898730Y-17054960D02*
X17879682Y-17064484D01*
X17879682Y-17064484D02*
X17851111Y-17064484D01*
X18032063Y-17064484D02*
X18013015Y-17054960D01*
X18013015Y-17054960D02*
X18003492Y-17035912D01*
X18003492Y-17035912D02*
X18003492Y-16864484D01*
X18184444Y-17054960D02*
X18165396Y-17064484D01*
X18165396Y-17064484D02*
X18127301Y-17064484D01*
X18127301Y-17064484D02*
X18108253Y-17054960D01*
X18108253Y-17054960D02*
X18098730Y-17035912D01*
X18098730Y-17035912D02*
X18098730Y-16959722D01*
X18098730Y-16959722D02*
X18108253Y-16940674D01*
X18108253Y-16940674D02*
X18127301Y-16931150D01*
X18127301Y-16931150D02*
X18165396Y-16931150D01*
X18165396Y-16931150D02*
X18184444Y-16940674D01*
X18184444Y-16940674D02*
X18193968Y-16959722D01*
X18193968Y-16959722D02*
X18193968Y-16978770D01*
X18193968Y-16978770D02*
X18098730Y-16997817D01*
X18270158Y-17054960D02*
X18289206Y-17064484D01*
X18289206Y-17064484D02*
X18327301Y-17064484D01*
X18327301Y-17064484D02*
X18346349Y-17054960D01*
X18346349Y-17054960D02*
X18355873Y-17035912D01*
X18355873Y-17035912D02*
X18355873Y-17026389D01*
X18355873Y-17026389D02*
X18346349Y-17007341D01*
X18346349Y-17007341D02*
X18327301Y-16997817D01*
X18327301Y-16997817D02*
X18298730Y-16997817D01*
X18298730Y-16997817D02*
X18279682Y-16988293D01*
X18279682Y-16988293D02*
X18270158Y-16969246D01*
X18270158Y-16969246D02*
X18270158Y-16959722D01*
X18270158Y-16959722D02*
X18279682Y-16940674D01*
X18279682Y-16940674D02*
X18298730Y-16931150D01*
X18298730Y-16931150D02*
X18327301Y-16931150D01*
X18327301Y-16931150D02*
X18346349Y-16940674D01*
X18422539Y-17140674D02*
X18432063Y-17131150D01*
X18432063Y-17131150D02*
X18451111Y-17102579D01*
X18451111Y-17102579D02*
X18460634Y-17083531D01*
X18460634Y-17083531D02*
X18470158Y-17054960D01*
X18470158Y-17054960D02*
X18479682Y-17007341D01*
X18479682Y-17007341D02*
X18479682Y-16969246D01*
X18479682Y-16969246D02*
X18470158Y-16921627D01*
X18470158Y-16921627D02*
X18460634Y-16893055D01*
X18460634Y-16893055D02*
X18451111Y-16874008D01*
X18451111Y-16874008D02*
X18432063Y-16845436D01*
X18432063Y-16845436D02*
X18422539Y-16835912D01*
X13257000Y-17137000D02*
X13457000Y-17337000D01*
X13457000Y-17137000D02*
X13257000Y-17337000D01*
X13427711Y-17307711D02*
X13427711Y-17166289D01*
X13286289Y-17166289D01*
X13286289Y-17307711D01*
X13427711Y-17307711D01*
X13698729Y-17128484D02*
X13822539Y-17128484D01*
X13822539Y-17128484D02*
X13755872Y-17204674D01*
X13755872Y-17204674D02*
X13784443Y-17204674D01*
X13784443Y-17204674D02*
X13803491Y-17214198D01*
X13803491Y-17214198D02*
X13813015Y-17223722D01*
X13813015Y-17223722D02*
X13822539Y-17242770D01*
X13822539Y-17242770D02*
X13822539Y-17290389D01*
X13822539Y-17290389D02*
X13813015Y-17309436D01*
X13813015Y-17309436D02*
X13803491Y-17318960D01*
X13803491Y-17318960D02*
X13784443Y-17328484D01*
X13784443Y-17328484D02*
X13727301Y-17328484D01*
X13727301Y-17328484D02*
X13708253Y-17318960D01*
X13708253Y-17318960D02*
X13698729Y-17309436D01*
X13908253Y-17309436D02*
X13917777Y-17318960D01*
X13917777Y-17318960D02*
X13908253Y-17328484D01*
X13908253Y-17328484D02*
X13898729Y-17318960D01*
X13898729Y-17318960D02*
X13908253Y-17309436D01*
X13908253Y-17309436D02*
X13908253Y-17328484D01*
X14108253Y-17328484D02*
X13993967Y-17328484D01*
X14051110Y-17328484D02*
X14051110Y-17128484D01*
X14051110Y-17128484D02*
X14032062Y-17157055D01*
X14032062Y-17157055D02*
X14013015Y-17176103D01*
X14013015Y-17176103D02*
X13993967Y-17185627D01*
X14222539Y-17214198D02*
X14203491Y-17204674D01*
X14203491Y-17204674D02*
X14193967Y-17195150D01*
X14193967Y-17195150D02*
X14184443Y-17176103D01*
X14184443Y-17176103D02*
X14184443Y-17166579D01*
X14184443Y-17166579D02*
X14193967Y-17147531D01*
X14193967Y-17147531D02*
X14203491Y-17138008D01*
X14203491Y-17138008D02*
X14222539Y-17128484D01*
X14222539Y-17128484D02*
X14260634Y-17128484D01*
X14260634Y-17128484D02*
X14279682Y-17138008D01*
X14279682Y-17138008D02*
X14289205Y-17147531D01*
X14289205Y-17147531D02*
X14298729Y-17166579D01*
X14298729Y-17166579D02*
X14298729Y-17176103D01*
X14298729Y-17176103D02*
X14289205Y-17195150D01*
X14289205Y-17195150D02*
X14279682Y-17204674D01*
X14279682Y-17204674D02*
X14260634Y-17214198D01*
X14260634Y-17214198D02*
X14222539Y-17214198D01*
X14222539Y-17214198D02*
X14203491Y-17223722D01*
X14203491Y-17223722D02*
X14193967Y-17233246D01*
X14193967Y-17233246D02*
X14184443Y-17252293D01*
X14184443Y-17252293D02*
X14184443Y-17290389D01*
X14184443Y-17290389D02*
X14193967Y-17309436D01*
X14193967Y-17309436D02*
X14203491Y-17318960D01*
X14203491Y-17318960D02*
X14222539Y-17328484D01*
X14222539Y-17328484D02*
X14260634Y-17328484D01*
X14260634Y-17328484D02*
X14279682Y-17318960D01*
X14279682Y-17318960D02*
X14289205Y-17309436D01*
X14289205Y-17309436D02*
X14298729Y-17290389D01*
X14298729Y-17290389D02*
X14298729Y-17252293D01*
X14298729Y-17252293D02*
X14289205Y-17233246D01*
X14289205Y-17233246D02*
X14279682Y-17223722D01*
X14279682Y-17223722D02*
X14260634Y-17214198D01*
X14422539Y-17128484D02*
X14441586Y-17128484D01*
X14441586Y-17128484D02*
X14460634Y-17138008D01*
X14460634Y-17138008D02*
X14470158Y-17147531D01*
X14470158Y-17147531D02*
X14479682Y-17166579D01*
X14479682Y-17166579D02*
X14489205Y-17204674D01*
X14489205Y-17204674D02*
X14489205Y-17252293D01*
X14489205Y-17252293D02*
X14479682Y-17290389D01*
X14479682Y-17290389D02*
X14470158Y-17309436D01*
X14470158Y-17309436D02*
X14460634Y-17318960D01*
X14460634Y-17318960D02*
X14441586Y-17328484D01*
X14441586Y-17328484D02*
X14422539Y-17328484D01*
X14422539Y-17328484D02*
X14403491Y-17318960D01*
X14403491Y-17318960D02*
X14393967Y-17309436D01*
X14393967Y-17309436D02*
X14384443Y-17290389D01*
X14384443Y-17290389D02*
X14374920Y-17252293D01*
X14374920Y-17252293D02*
X14374920Y-17204674D01*
X14374920Y-17204674D02*
X14384443Y-17166579D01*
X14384443Y-17166579D02*
X14393967Y-17147531D01*
X14393967Y-17147531D02*
X14403491Y-17138008D01*
X14403491Y-17138008D02*
X14422539Y-17128484D01*
X14574920Y-17328484D02*
X14574920Y-17195150D01*
X14574920Y-17214198D02*
X14584443Y-17204674D01*
X14584443Y-17204674D02*
X14603491Y-17195150D01*
X14603491Y-17195150D02*
X14632063Y-17195150D01*
X14632063Y-17195150D02*
X14651110Y-17204674D01*
X14651110Y-17204674D02*
X14660634Y-17223722D01*
X14660634Y-17223722D02*
X14660634Y-17328484D01*
X14660634Y-17223722D02*
X14670158Y-17204674D01*
X14670158Y-17204674D02*
X14689205Y-17195150D01*
X14689205Y-17195150D02*
X14717777Y-17195150D01*
X14717777Y-17195150D02*
X14736824Y-17204674D01*
X14736824Y-17204674D02*
X14746348Y-17223722D01*
X14746348Y-17223722D02*
X14746348Y-17328484D01*
X14841586Y-17328484D02*
X14841586Y-17195150D01*
X14841586Y-17214198D02*
X14851110Y-17204674D01*
X14851110Y-17204674D02*
X14870158Y-17195150D01*
X14870158Y-17195150D02*
X14898729Y-17195150D01*
X14898729Y-17195150D02*
X14917777Y-17204674D01*
X14917777Y-17204674D02*
X14927301Y-17223722D01*
X14927301Y-17223722D02*
X14927301Y-17328484D01*
X14927301Y-17223722D02*
X14936824Y-17204674D01*
X14936824Y-17204674D02*
X14955872Y-17195150D01*
X14955872Y-17195150D02*
X14984443Y-17195150D01*
X14984443Y-17195150D02*
X15003491Y-17204674D01*
X15003491Y-17204674D02*
X15013015Y-17223722D01*
X15013015Y-17223722D02*
X15013015Y-17328484D01*
X15403491Y-17118960D02*
X15232063Y-17376103D01*
X15660634Y-17128484D02*
X15679682Y-17128484D01*
X15679682Y-17128484D02*
X15698729Y-17138008D01*
X15698729Y-17138008D02*
X15708253Y-17147531D01*
X15708253Y-17147531D02*
X15717777Y-17166579D01*
X15717777Y-17166579D02*
X15727301Y-17204674D01*
X15727301Y-17204674D02*
X15727301Y-17252293D01*
X15727301Y-17252293D02*
X15717777Y-17290389D01*
X15717777Y-17290389D02*
X15708253Y-17309436D01*
X15708253Y-17309436D02*
X15698729Y-17318960D01*
X15698729Y-17318960D02*
X15679682Y-17328484D01*
X15679682Y-17328484D02*
X15660634Y-17328484D01*
X15660634Y-17328484D02*
X15641586Y-17318960D01*
X15641586Y-17318960D02*
X15632063Y-17309436D01*
X15632063Y-17309436D02*
X15622539Y-17290389D01*
X15622539Y-17290389D02*
X15613015Y-17252293D01*
X15613015Y-17252293D02*
X15613015Y-17204674D01*
X15613015Y-17204674D02*
X15622539Y-17166579D01*
X15622539Y-17166579D02*
X15632063Y-17147531D01*
X15632063Y-17147531D02*
X15641586Y-17138008D01*
X15641586Y-17138008D02*
X15660634Y-17128484D01*
X15813015Y-17309436D02*
X15822539Y-17318960D01*
X15822539Y-17318960D02*
X15813015Y-17328484D01*
X15813015Y-17328484D02*
X15803491Y-17318960D01*
X15803491Y-17318960D02*
X15813015Y-17309436D01*
X15813015Y-17309436D02*
X15813015Y-17328484D01*
X16013015Y-17328484D02*
X15898729Y-17328484D01*
X15955872Y-17328484D02*
X15955872Y-17128484D01*
X15955872Y-17128484D02*
X15936825Y-17157055D01*
X15936825Y-17157055D02*
X15917777Y-17176103D01*
X15917777Y-17176103D02*
X15898729Y-17185627D01*
X16089206Y-17147531D02*
X16098729Y-17138008D01*
X16098729Y-17138008D02*
X16117777Y-17128484D01*
X16117777Y-17128484D02*
X16165396Y-17128484D01*
X16165396Y-17128484D02*
X16184444Y-17138008D01*
X16184444Y-17138008D02*
X16193967Y-17147531D01*
X16193967Y-17147531D02*
X16203491Y-17166579D01*
X16203491Y-17166579D02*
X16203491Y-17185627D01*
X16203491Y-17185627D02*
X16193967Y-17214198D01*
X16193967Y-17214198D02*
X16079682Y-17328484D01*
X16079682Y-17328484D02*
X16203491Y-17328484D01*
X16384444Y-17128484D02*
X16289206Y-17128484D01*
X16289206Y-17128484D02*
X16279682Y-17223722D01*
X16279682Y-17223722D02*
X16289206Y-17214198D01*
X16289206Y-17214198D02*
X16308253Y-17204674D01*
X16308253Y-17204674D02*
X16355872Y-17204674D01*
X16355872Y-17204674D02*
X16374920Y-17214198D01*
X16374920Y-17214198D02*
X16384444Y-17223722D01*
X16384444Y-17223722D02*
X16393967Y-17242770D01*
X16393967Y-17242770D02*
X16393967Y-17290389D01*
X16393967Y-17290389D02*
X16384444Y-17309436D01*
X16384444Y-17309436D02*
X16374920Y-17318960D01*
X16374920Y-17318960D02*
X16355872Y-17328484D01*
X16355872Y-17328484D02*
X16308253Y-17328484D01*
X16308253Y-17328484D02*
X16289206Y-17318960D01*
X16289206Y-17318960D02*
X16279682Y-17309436D01*
X16470158Y-17147531D02*
X16479682Y-17138008D01*
X16479682Y-17138008D02*
X16498729Y-17128484D01*
X16498729Y-17128484D02*
X16546348Y-17128484D01*
X16546348Y-17128484D02*
X16565396Y-17138008D01*
X16565396Y-17138008D02*
X16574920Y-17147531D01*
X16574920Y-17147531D02*
X16584444Y-17166579D01*
X16584444Y-17166579D02*
X16584444Y-17185627D01*
X16584444Y-17185627D02*
X16574920Y-17214198D01*
X16574920Y-17214198D02*
X16460634Y-17328484D01*
X16460634Y-17328484D02*
X16584444Y-17328484D01*
X16660634Y-17128484D02*
X16660634Y-17166579D01*
X16736825Y-17128484D02*
X16736825Y-17166579D01*
X17032063Y-17404674D02*
X17022539Y-17395150D01*
X17022539Y-17395150D02*
X17003491Y-17366579D01*
X17003491Y-17366579D02*
X16993968Y-17347531D01*
X16993968Y-17347531D02*
X16984444Y-17318960D01*
X16984444Y-17318960D02*
X16974920Y-17271341D01*
X16974920Y-17271341D02*
X16974920Y-17233246D01*
X16974920Y-17233246D02*
X16984444Y-17185627D01*
X16984444Y-17185627D02*
X16993968Y-17157055D01*
X16993968Y-17157055D02*
X17003491Y-17138008D01*
X17003491Y-17138008D02*
X17022539Y-17109436D01*
X17022539Y-17109436D02*
X17032063Y-17099912D01*
X17098730Y-17147531D02*
X17108253Y-17138008D01*
X17108253Y-17138008D02*
X17127301Y-17128484D01*
X17127301Y-17128484D02*
X17174920Y-17128484D01*
X17174920Y-17128484D02*
X17193968Y-17138008D01*
X17193968Y-17138008D02*
X17203491Y-17147531D01*
X17203491Y-17147531D02*
X17213015Y-17166579D01*
X17213015Y-17166579D02*
X17213015Y-17185627D01*
X17213015Y-17185627D02*
X17203491Y-17214198D01*
X17203491Y-17214198D02*
X17089206Y-17328484D01*
X17089206Y-17328484D02*
X17213015Y-17328484D01*
X17451111Y-17328484D02*
X17451111Y-17128484D01*
X17536825Y-17328484D02*
X17536825Y-17223722D01*
X17536825Y-17223722D02*
X17527301Y-17204674D01*
X17527301Y-17204674D02*
X17508253Y-17195150D01*
X17508253Y-17195150D02*
X17479682Y-17195150D01*
X17479682Y-17195150D02*
X17460634Y-17204674D01*
X17460634Y-17204674D02*
X17451111Y-17214198D01*
X17660634Y-17328484D02*
X17641587Y-17318960D01*
X17641587Y-17318960D02*
X17632063Y-17309436D01*
X17632063Y-17309436D02*
X17622539Y-17290389D01*
X17622539Y-17290389D02*
X17622539Y-17233246D01*
X17622539Y-17233246D02*
X17632063Y-17214198D01*
X17632063Y-17214198D02*
X17641587Y-17204674D01*
X17641587Y-17204674D02*
X17660634Y-17195150D01*
X17660634Y-17195150D02*
X17689206Y-17195150D01*
X17689206Y-17195150D02*
X17708253Y-17204674D01*
X17708253Y-17204674D02*
X17717777Y-17214198D01*
X17717777Y-17214198D02*
X17727301Y-17233246D01*
X17727301Y-17233246D02*
X17727301Y-17290389D01*
X17727301Y-17290389D02*
X17717777Y-17309436D01*
X17717777Y-17309436D02*
X17708253Y-17318960D01*
X17708253Y-17318960D02*
X17689206Y-17328484D01*
X17689206Y-17328484D02*
X17660634Y-17328484D01*
X17841587Y-17328484D02*
X17822539Y-17318960D01*
X17822539Y-17318960D02*
X17813015Y-17299912D01*
X17813015Y-17299912D02*
X17813015Y-17128484D01*
X17993968Y-17318960D02*
X17974920Y-17328484D01*
X17974920Y-17328484D02*
X17936825Y-17328484D01*
X17936825Y-17328484D02*
X17917777Y-17318960D01*
X17917777Y-17318960D02*
X17908253Y-17299912D01*
X17908253Y-17299912D02*
X17908253Y-17223722D01*
X17908253Y-17223722D02*
X17917777Y-17204674D01*
X17917777Y-17204674D02*
X17936825Y-17195150D01*
X17936825Y-17195150D02*
X17974920Y-17195150D01*
X17974920Y-17195150D02*
X17993968Y-17204674D01*
X17993968Y-17204674D02*
X18003492Y-17223722D01*
X18003492Y-17223722D02*
X18003492Y-17242770D01*
X18003492Y-17242770D02*
X17908253Y-17261817D01*
X18079682Y-17318960D02*
X18098730Y-17328484D01*
X18098730Y-17328484D02*
X18136825Y-17328484D01*
X18136825Y-17328484D02*
X18155873Y-17318960D01*
X18155873Y-17318960D02*
X18165396Y-17299912D01*
X18165396Y-17299912D02*
X18165396Y-17290389D01*
X18165396Y-17290389D02*
X18155873Y-17271341D01*
X18155873Y-17271341D02*
X18136825Y-17261817D01*
X18136825Y-17261817D02*
X18108253Y-17261817D01*
X18108253Y-17261817D02*
X18089206Y-17252293D01*
X18089206Y-17252293D02*
X18079682Y-17233246D01*
X18079682Y-17233246D02*
X18079682Y-17223722D01*
X18079682Y-17223722D02*
X18089206Y-17204674D01*
X18089206Y-17204674D02*
X18108253Y-17195150D01*
X18108253Y-17195150D02*
X18136825Y-17195150D01*
X18136825Y-17195150D02*
X18155873Y-17204674D01*
X18232063Y-17404674D02*
X18241587Y-17395150D01*
X18241587Y-17395150D02*
X18260634Y-17366579D01*
X18260634Y-17366579D02*
X18270158Y-17347531D01*
X18270158Y-17347531D02*
X18279682Y-17318960D01*
X18279682Y-17318960D02*
X18289206Y-17271341D01*
X18289206Y-17271341D02*
X18289206Y-17233246D01*
X18289206Y-17233246D02*
X18279682Y-17185627D01*
X18279682Y-17185627D02*
X18270158Y-17157055D01*
X18270158Y-17157055D02*
X18260634Y-17138008D01*
X18260634Y-17138008D02*
X18241587Y-17109436D01*
X18241587Y-17109436D02*
X18232063Y-17099912D01*
M02*
